G04 #@! TF.GenerationSoftware,KiCad,Pcbnew,6.0.7-1.fc36*
G04 #@! TF.CreationDate,2022-09-04T22:09:24+02:00*
G04 #@! TF.ProjectId,Project,50726f6a-6563-4742-9e6b-696361645f70,rev?*
G04 #@! TF.SameCoordinates,Original*
G04 #@! TF.FileFunction,Legend,Top*
G04 #@! TF.FilePolarity,Positive*
%FSLAX46Y46*%
G04 Gerber Fmt 4.6, Leading zero omitted, Abs format (unit mm)*
G04 Created by KiCad (PCBNEW 6.0.7-1.fc36) date 2022-09-04 22:09:24*
%MOMM*%
%LPD*%
G01*
G04 APERTURE LIST*
%ADD10C,0.150000*%
%ADD11C,0.120000*%
%ADD12C,0.127000*%
%ADD13C,0.200000*%
G04 APERTURE END LIST*
D10*
X99395595Y-117698571D02*
X99728928Y-117698571D01*
X99871785Y-118222380D02*
X99395595Y-118222380D01*
X99395595Y-117222380D01*
X99871785Y-117222380D01*
X100252738Y-118174761D02*
X100395595Y-118222380D01*
X100633690Y-118222380D01*
X100728928Y-118174761D01*
X100776547Y-118127142D01*
X100824166Y-118031904D01*
X100824166Y-117936666D01*
X100776547Y-117841428D01*
X100728928Y-117793809D01*
X100633690Y-117746190D01*
X100443214Y-117698571D01*
X100347976Y-117650952D01*
X100300357Y-117603333D01*
X100252738Y-117508095D01*
X100252738Y-117412857D01*
X100300357Y-117317619D01*
X100347976Y-117270000D01*
X100443214Y-117222380D01*
X100681309Y-117222380D01*
X100824166Y-117270000D01*
X101252738Y-118222380D02*
X101252738Y-117222380D01*
X101633690Y-117222380D01*
X101728928Y-117270000D01*
X101776547Y-117317619D01*
X101824166Y-117412857D01*
X101824166Y-117555714D01*
X101776547Y-117650952D01*
X101728928Y-117698571D01*
X101633690Y-117746190D01*
X101252738Y-117746190D01*
X102157500Y-117222380D02*
X102776547Y-117222380D01*
X102443214Y-117603333D01*
X102586071Y-117603333D01*
X102681309Y-117650952D01*
X102728928Y-117698571D01*
X102776547Y-117793809D01*
X102776547Y-118031904D01*
X102728928Y-118127142D01*
X102681309Y-118174761D01*
X102586071Y-118222380D01*
X102300357Y-118222380D01*
X102205119Y-118174761D01*
X102157500Y-118127142D01*
X103157500Y-117317619D02*
X103205119Y-117270000D01*
X103300357Y-117222380D01*
X103538452Y-117222380D01*
X103633690Y-117270000D01*
X103681309Y-117317619D01*
X103728928Y-117412857D01*
X103728928Y-117508095D01*
X103681309Y-117650952D01*
X103109880Y-118222380D01*
X103728928Y-118222380D01*
X104776547Y-117222380D02*
X105347976Y-117222380D01*
X105062261Y-118222380D02*
X105062261Y-117222380D01*
X105681309Y-118222380D02*
X105681309Y-117222380D01*
X106109880Y-118222380D02*
X106109880Y-117698571D01*
X106062261Y-117603333D01*
X105967023Y-117555714D01*
X105824166Y-117555714D01*
X105728928Y-117603333D01*
X105681309Y-117650952D01*
X106967023Y-118174761D02*
X106871785Y-118222380D01*
X106681309Y-118222380D01*
X106586071Y-118174761D01*
X106538452Y-118079523D01*
X106538452Y-117698571D01*
X106586071Y-117603333D01*
X106681309Y-117555714D01*
X106871785Y-117555714D01*
X106967023Y-117603333D01*
X107014642Y-117698571D01*
X107014642Y-117793809D01*
X106538452Y-117889047D01*
X107443214Y-118222380D02*
X107443214Y-117555714D01*
X107443214Y-117746190D02*
X107490833Y-117650952D01*
X107538452Y-117603333D01*
X107633690Y-117555714D01*
X107728928Y-117555714D01*
X108062261Y-118222380D02*
X108062261Y-117555714D01*
X108062261Y-117650952D02*
X108109880Y-117603333D01*
X108205119Y-117555714D01*
X108347976Y-117555714D01*
X108443214Y-117603333D01*
X108490833Y-117698571D01*
X108490833Y-118222380D01*
X108490833Y-117698571D02*
X108538452Y-117603333D01*
X108633690Y-117555714D01*
X108776547Y-117555714D01*
X108871785Y-117603333D01*
X108919404Y-117698571D01*
X108919404Y-118222380D01*
X109538452Y-118222380D02*
X109443214Y-118174761D01*
X109395595Y-118127142D01*
X109347976Y-118031904D01*
X109347976Y-117746190D01*
X109395595Y-117650952D01*
X109443214Y-117603333D01*
X109538452Y-117555714D01*
X109681309Y-117555714D01*
X109776547Y-117603333D01*
X109824166Y-117650952D01*
X109871785Y-117746190D01*
X109871785Y-118031904D01*
X109824166Y-118127142D01*
X109776547Y-118174761D01*
X109681309Y-118222380D01*
X109538452Y-118222380D01*
X110300357Y-118222380D02*
X110300357Y-117555714D01*
X110300357Y-117650952D02*
X110347976Y-117603333D01*
X110443214Y-117555714D01*
X110586071Y-117555714D01*
X110681309Y-117603333D01*
X110728928Y-117698571D01*
X110728928Y-118222380D01*
X110728928Y-117698571D02*
X110776547Y-117603333D01*
X110871785Y-117555714D01*
X111014642Y-117555714D01*
X111109880Y-117603333D01*
X111157500Y-117698571D01*
X111157500Y-118222380D01*
X112014642Y-118174761D02*
X111919404Y-118222380D01*
X111728928Y-118222380D01*
X111633690Y-118174761D01*
X111586071Y-118079523D01*
X111586071Y-117698571D01*
X111633690Y-117603333D01*
X111728928Y-117555714D01*
X111919404Y-117555714D01*
X112014642Y-117603333D01*
X112062261Y-117698571D01*
X112062261Y-117793809D01*
X111586071Y-117889047D01*
X112347976Y-117555714D02*
X112728928Y-117555714D01*
X112490833Y-117222380D02*
X112490833Y-118079523D01*
X112538452Y-118174761D01*
X112633690Y-118222380D01*
X112728928Y-118222380D01*
X113443214Y-118174761D02*
X113347976Y-118222380D01*
X113157500Y-118222380D01*
X113062261Y-118174761D01*
X113014642Y-118079523D01*
X113014642Y-117698571D01*
X113062261Y-117603333D01*
X113157500Y-117555714D01*
X113347976Y-117555714D01*
X113443214Y-117603333D01*
X113490833Y-117698571D01*
X113490833Y-117793809D01*
X113014642Y-117889047D01*
X113919404Y-118222380D02*
X113919404Y-117555714D01*
X113919404Y-117746190D02*
X113967023Y-117650952D01*
X114014642Y-117603333D01*
X114109880Y-117555714D01*
X114205119Y-117555714D01*
X99300357Y-119165714D02*
X99538452Y-119832380D01*
X99776547Y-119165714D01*
X100347976Y-118832380D02*
X100443214Y-118832380D01*
X100538452Y-118880000D01*
X100586071Y-118927619D01*
X100633690Y-119022857D01*
X100681309Y-119213333D01*
X100681309Y-119451428D01*
X100633690Y-119641904D01*
X100586071Y-119737142D01*
X100538452Y-119784761D01*
X100443214Y-119832380D01*
X100347976Y-119832380D01*
X100252738Y-119784761D01*
X100205119Y-119737142D01*
X100157500Y-119641904D01*
X100109880Y-119451428D01*
X100109880Y-119213333D01*
X100157500Y-119022857D01*
X100205119Y-118927619D01*
X100252738Y-118880000D01*
X100347976Y-118832380D01*
X101109880Y-119737142D02*
X101157500Y-119784761D01*
X101109880Y-119832380D01*
X101062261Y-119784761D01*
X101109880Y-119737142D01*
X101109880Y-119832380D01*
X102109880Y-119832380D02*
X101538452Y-119832380D01*
X101824166Y-119832380D02*
X101824166Y-118832380D01*
X101728928Y-118975238D01*
X101633690Y-119070476D01*
X101538452Y-119118095D01*
X99300357Y-120442380D02*
X99538452Y-121442380D01*
X99728928Y-120728095D01*
X99919404Y-121442380D01*
X100157500Y-120442380D01*
X100681309Y-121442380D02*
X100586071Y-121394761D01*
X100538452Y-121347142D01*
X100490833Y-121251904D01*
X100490833Y-120966190D01*
X100538452Y-120870952D01*
X100586071Y-120823333D01*
X100681309Y-120775714D01*
X100824166Y-120775714D01*
X100919404Y-120823333D01*
X100967023Y-120870952D01*
X101014642Y-120966190D01*
X101014642Y-121251904D01*
X100967023Y-121347142D01*
X100919404Y-121394761D01*
X100824166Y-121442380D01*
X100681309Y-121442380D01*
X101443214Y-120775714D02*
X101443214Y-121632857D01*
X101395595Y-121728095D01*
X101300357Y-121775714D01*
X101252738Y-121775714D01*
X101443214Y-120442380D02*
X101395595Y-120490000D01*
X101443214Y-120537619D01*
X101490833Y-120490000D01*
X101443214Y-120442380D01*
X101443214Y-120537619D01*
X102347976Y-121394761D02*
X102252738Y-121442380D01*
X102062261Y-121442380D01*
X101967023Y-121394761D01*
X101919404Y-121347142D01*
X101871785Y-121251904D01*
X101871785Y-120966190D01*
X101919404Y-120870952D01*
X101967023Y-120823333D01*
X102062261Y-120775714D01*
X102252738Y-120775714D01*
X102347976Y-120823333D01*
X102776547Y-121442380D02*
X102776547Y-120775714D01*
X102776547Y-120442380D02*
X102728928Y-120490000D01*
X102776547Y-120537619D01*
X102824166Y-120490000D01*
X102776547Y-120442380D01*
X102776547Y-120537619D01*
X103633690Y-121394761D02*
X103538452Y-121442380D01*
X103347976Y-121442380D01*
X103252738Y-121394761D01*
X103205119Y-121299523D01*
X103205119Y-120918571D01*
X103252738Y-120823333D01*
X103347976Y-120775714D01*
X103538452Y-120775714D01*
X103633690Y-120823333D01*
X103681309Y-120918571D01*
X103681309Y-121013809D01*
X103205119Y-121109047D01*
X104538452Y-121394761D02*
X104443214Y-121442380D01*
X104252738Y-121442380D01*
X104157500Y-121394761D01*
X104109880Y-121347142D01*
X104062261Y-121251904D01*
X104062261Y-120966190D01*
X104109880Y-120870952D01*
X104157500Y-120823333D01*
X104252738Y-120775714D01*
X104443214Y-120775714D01*
X104538452Y-120823333D01*
X104967023Y-121442380D02*
X104967023Y-120442380D01*
X105395595Y-121442380D02*
X105395595Y-120918571D01*
X105347976Y-120823333D01*
X105252738Y-120775714D01*
X105109880Y-120775714D01*
X105014642Y-120823333D01*
X104967023Y-120870952D01*
X106538452Y-120442380D02*
X107205119Y-120442380D01*
X106538452Y-121442380D01*
X107205119Y-121442380D01*
X107586071Y-121442380D02*
X107586071Y-120775714D01*
X107586071Y-120442380D02*
X107538452Y-120490000D01*
X107586071Y-120537619D01*
X107633690Y-120490000D01*
X107586071Y-120442380D01*
X107586071Y-120537619D01*
X108443214Y-121394761D02*
X108347976Y-121442380D01*
X108157500Y-121442380D01*
X108062261Y-121394761D01*
X108014642Y-121299523D01*
X108014642Y-120918571D01*
X108062261Y-120823333D01*
X108157500Y-120775714D01*
X108347976Y-120775714D01*
X108443214Y-120823333D01*
X108490833Y-120918571D01*
X108490833Y-121013809D01*
X108014642Y-121109047D01*
X109062261Y-121442380D02*
X108967023Y-121394761D01*
X108919404Y-121299523D01*
X108919404Y-120442380D01*
X109443214Y-121442380D02*
X109443214Y-120775714D01*
X109443214Y-120442380D02*
X109395595Y-120490000D01*
X109443214Y-120537619D01*
X109490833Y-120490000D01*
X109443214Y-120442380D01*
X109443214Y-120537619D01*
X109919404Y-120775714D02*
X109919404Y-121442380D01*
X109919404Y-120870952D02*
X109967023Y-120823333D01*
X110062261Y-120775714D01*
X110205119Y-120775714D01*
X110300357Y-120823333D01*
X110347976Y-120918571D01*
X110347976Y-121442380D01*
X110205119Y-120394761D02*
X110062261Y-120537619D01*
X110776547Y-121394761D02*
X110871785Y-121442380D01*
X111062261Y-121442380D01*
X111157500Y-121394761D01*
X111205119Y-121299523D01*
X111205119Y-121251904D01*
X111157500Y-121156666D01*
X111062261Y-121109047D01*
X110919404Y-121109047D01*
X110824166Y-121061428D01*
X110776547Y-120966190D01*
X110776547Y-120918571D01*
X110824166Y-120823333D01*
X110919404Y-120775714D01*
X111062261Y-120775714D01*
X111157500Y-120823333D01*
X111633690Y-121442380D02*
X111633690Y-120442380D01*
X111728928Y-121061428D02*
X112014642Y-121442380D01*
X112014642Y-120775714D02*
X111633690Y-121156666D01*
X112443214Y-121442380D02*
X112443214Y-120775714D01*
X112443214Y-120442380D02*
X112395595Y-120490000D01*
X112443214Y-120537619D01*
X112490833Y-120490000D01*
X112443214Y-120442380D01*
X112443214Y-120537619D01*
X113633690Y-120537619D02*
X113681309Y-120490000D01*
X113776547Y-120442380D01*
X114014642Y-120442380D01*
X114109880Y-120490000D01*
X114157500Y-120537619D01*
X114205119Y-120632857D01*
X114205119Y-120728095D01*
X114157500Y-120870952D01*
X113586071Y-121442380D01*
X114205119Y-121442380D01*
X114824166Y-120442380D02*
X114919404Y-120442380D01*
X115014642Y-120490000D01*
X115062261Y-120537619D01*
X115109880Y-120632857D01*
X115157500Y-120823333D01*
X115157500Y-121061428D01*
X115109880Y-121251904D01*
X115062261Y-121347142D01*
X115014642Y-121394761D01*
X114919404Y-121442380D01*
X114824166Y-121442380D01*
X114728928Y-121394761D01*
X114681309Y-121347142D01*
X114633690Y-121251904D01*
X114586071Y-121061428D01*
X114586071Y-120823333D01*
X114633690Y-120632857D01*
X114681309Y-120537619D01*
X114728928Y-120490000D01*
X114824166Y-120442380D01*
X115538452Y-120537619D02*
X115586071Y-120490000D01*
X115681309Y-120442380D01*
X115919404Y-120442380D01*
X116014642Y-120490000D01*
X116062261Y-120537619D01*
X116109880Y-120632857D01*
X116109880Y-120728095D01*
X116062261Y-120870952D01*
X115490833Y-121442380D01*
X116109880Y-121442380D01*
X116490833Y-120537619D02*
X116538452Y-120490000D01*
X116633690Y-120442380D01*
X116871785Y-120442380D01*
X116967023Y-120490000D01*
X117014642Y-120537619D01*
X117062261Y-120632857D01*
X117062261Y-120728095D01*
X117014642Y-120870952D01*
X116443214Y-121442380D01*
X117062261Y-121442380D01*
X114038095Y-111260000D02*
X113942857Y-111212380D01*
X113800000Y-111212380D01*
X113657142Y-111260000D01*
X113561904Y-111355238D01*
X113514285Y-111450476D01*
X113466666Y-111640952D01*
X113466666Y-111783809D01*
X113514285Y-111974285D01*
X113561904Y-112069523D01*
X113657142Y-112164761D01*
X113800000Y-112212380D01*
X113895238Y-112212380D01*
X114038095Y-112164761D01*
X114085714Y-112117142D01*
X114085714Y-111783809D01*
X113895238Y-111783809D01*
X114514285Y-112212380D02*
X114514285Y-111212380D01*
X115085714Y-112212380D01*
X115085714Y-111212380D01*
X114133333Y-109672380D02*
X113800000Y-109196190D01*
X113561904Y-109672380D02*
X113561904Y-108672380D01*
X113942857Y-108672380D01*
X114038095Y-108720000D01*
X114085714Y-108767619D01*
X114133333Y-108862857D01*
X114133333Y-109005714D01*
X114085714Y-109100952D01*
X114038095Y-109148571D01*
X113942857Y-109196190D01*
X113561904Y-109196190D01*
X114466666Y-108672380D02*
X115133333Y-109672380D01*
X115133333Y-108672380D02*
X114466666Y-109672380D01*
X109672380Y-111267619D02*
X108672380Y-111267619D01*
X108672380Y-111029523D01*
X108720000Y-110886666D01*
X108815238Y-110791428D01*
X108910476Y-110743809D01*
X109100952Y-110696190D01*
X109243809Y-110696190D01*
X109434285Y-110743809D01*
X109529523Y-110791428D01*
X109624761Y-110886666D01*
X109672380Y-111029523D01*
X109672380Y-111267619D01*
X109624761Y-109886666D02*
X109672380Y-109981904D01*
X109672380Y-110172380D01*
X109624761Y-110267619D01*
X109529523Y-110315238D01*
X109148571Y-110315238D01*
X109053333Y-110267619D01*
X109005714Y-110172380D01*
X109005714Y-109981904D01*
X109053333Y-109886666D01*
X109148571Y-109839047D01*
X109243809Y-109839047D01*
X109339047Y-110315238D01*
X109672380Y-109410476D02*
X108672380Y-109410476D01*
X109053333Y-109410476D02*
X109005714Y-109315238D01*
X109005714Y-109124761D01*
X109053333Y-109029523D01*
X109100952Y-108981904D01*
X109196190Y-108934285D01*
X109481904Y-108934285D01*
X109577142Y-108981904D01*
X109624761Y-109029523D01*
X109672380Y-109124761D01*
X109672380Y-109315238D01*
X109624761Y-109410476D01*
X109005714Y-108077142D02*
X109672380Y-108077142D01*
X109005714Y-108505714D02*
X109529523Y-108505714D01*
X109624761Y-108458095D01*
X109672380Y-108362857D01*
X109672380Y-108220000D01*
X109624761Y-108124761D01*
X109577142Y-108077142D01*
X109005714Y-107172380D02*
X109815238Y-107172380D01*
X109910476Y-107220000D01*
X109958095Y-107267619D01*
X110005714Y-107362857D01*
X110005714Y-107505714D01*
X109958095Y-107600952D01*
X109624761Y-107172380D02*
X109672380Y-107267619D01*
X109672380Y-107458095D01*
X109624761Y-107553333D01*
X109577142Y-107600952D01*
X109481904Y-107648571D01*
X109196190Y-107648571D01*
X109100952Y-107600952D01*
X109053333Y-107553333D01*
X109005714Y-107458095D01*
X109005714Y-107267619D01*
X109053333Y-107172380D01*
X113538095Y-106132380D02*
X114109523Y-106132380D01*
X113823809Y-107132380D02*
X113823809Y-106132380D01*
X114347619Y-106132380D02*
X115014285Y-107132380D01*
X115014285Y-106132380D02*
X114347619Y-107132380D01*
X87590404Y-90472380D02*
X87590404Y-89472380D01*
X87828500Y-89472380D01*
X87971357Y-89520000D01*
X88066595Y-89615238D01*
X88114214Y-89710476D01*
X88161833Y-89900952D01*
X88161833Y-90043809D01*
X88114214Y-90234285D01*
X88066595Y-90329523D01*
X87971357Y-90424761D01*
X87828500Y-90472380D01*
X87590404Y-90472380D01*
X89114214Y-90472380D02*
X88542785Y-90472380D01*
X88828500Y-90472380D02*
X88828500Y-89472380D01*
X88733261Y-89615238D01*
X88638023Y-89710476D01*
X88542785Y-89758095D01*
X111426666Y-103802380D02*
X111426666Y-104516666D01*
X111379047Y-104659523D01*
X111283809Y-104754761D01*
X111140952Y-104802380D01*
X111045714Y-104802380D01*
X112426666Y-104802380D02*
X111855238Y-104802380D01*
X112140952Y-104802380D02*
X112140952Y-103802380D01*
X112045714Y-103945238D01*
X111950476Y-104040476D01*
X111855238Y-104088095D01*
X95726666Y-122382380D02*
X95726666Y-123096666D01*
X95679047Y-123239523D01*
X95583809Y-123334761D01*
X95440952Y-123382380D01*
X95345714Y-123382380D01*
X96155238Y-122477619D02*
X96202857Y-122430000D01*
X96298095Y-122382380D01*
X96536190Y-122382380D01*
X96631428Y-122430000D01*
X96679047Y-122477619D01*
X96726666Y-122572857D01*
X96726666Y-122668095D01*
X96679047Y-122810952D01*
X96107619Y-123382380D01*
X96726666Y-123382380D01*
X88733333Y-119832380D02*
X88400000Y-119356190D01*
X88161904Y-119832380D02*
X88161904Y-118832380D01*
X88542857Y-118832380D01*
X88638095Y-118880000D01*
X88685714Y-118927619D01*
X88733333Y-119022857D01*
X88733333Y-119165714D01*
X88685714Y-119260952D01*
X88638095Y-119308571D01*
X88542857Y-119356190D01*
X88161904Y-119356190D01*
X89685714Y-119832380D02*
X89114285Y-119832380D01*
X89400000Y-119832380D02*
X89400000Y-118832380D01*
X89304761Y-118975238D01*
X89209523Y-119070476D01*
X89114285Y-119118095D01*
X100782380Y-109386666D02*
X100306190Y-109720000D01*
X100782380Y-109958095D02*
X99782380Y-109958095D01*
X99782380Y-109577142D01*
X99830000Y-109481904D01*
X99877619Y-109434285D01*
X99972857Y-109386666D01*
X100115714Y-109386666D01*
X100210952Y-109434285D01*
X100258571Y-109481904D01*
X100306190Y-109577142D01*
X100306190Y-109958095D01*
X99877619Y-109005714D02*
X99830000Y-108958095D01*
X99782380Y-108862857D01*
X99782380Y-108624761D01*
X99830000Y-108529523D01*
X99877619Y-108481904D01*
X99972857Y-108434285D01*
X100068095Y-108434285D01*
X100210952Y-108481904D01*
X100782380Y-109053333D01*
X100782380Y-108434285D01*
X93162380Y-109386666D02*
X92686190Y-109720000D01*
X93162380Y-109958095D02*
X92162380Y-109958095D01*
X92162380Y-109577142D01*
X92210000Y-109481904D01*
X92257619Y-109434285D01*
X92352857Y-109386666D01*
X92495714Y-109386666D01*
X92590952Y-109434285D01*
X92638571Y-109481904D01*
X92686190Y-109577142D01*
X92686190Y-109958095D01*
X92162380Y-109053333D02*
X92162380Y-108434285D01*
X92543333Y-108767619D01*
X92543333Y-108624761D01*
X92590952Y-108529523D01*
X92638571Y-108481904D01*
X92733809Y-108434285D01*
X92971904Y-108434285D01*
X93067142Y-108481904D01*
X93114761Y-108529523D01*
X93162380Y-108624761D01*
X93162380Y-108910476D01*
X93114761Y-109005714D01*
X93067142Y-109053333D01*
X89352380Y-109386666D02*
X88876190Y-109720000D01*
X89352380Y-109958095D02*
X88352380Y-109958095D01*
X88352380Y-109577142D01*
X88400000Y-109481904D01*
X88447619Y-109434285D01*
X88542857Y-109386666D01*
X88685714Y-109386666D01*
X88780952Y-109434285D01*
X88828571Y-109481904D01*
X88876190Y-109577142D01*
X88876190Y-109958095D01*
X88685714Y-108529523D02*
X89352380Y-108529523D01*
X88304761Y-108767619D02*
X89019047Y-109005714D01*
X89019047Y-108386666D01*
X85542380Y-109386666D02*
X85066190Y-109720000D01*
X85542380Y-109958095D02*
X84542380Y-109958095D01*
X84542380Y-109577142D01*
X84590000Y-109481904D01*
X84637619Y-109434285D01*
X84732857Y-109386666D01*
X84875714Y-109386666D01*
X84970952Y-109434285D01*
X85018571Y-109481904D01*
X85066190Y-109577142D01*
X85066190Y-109958095D01*
X84542380Y-108481904D02*
X84542380Y-108958095D01*
X85018571Y-109005714D01*
X84970952Y-108958095D01*
X84923333Y-108862857D01*
X84923333Y-108624761D01*
X84970952Y-108529523D01*
X85018571Y-108481904D01*
X85113809Y-108434285D01*
X85351904Y-108434285D01*
X85447142Y-108481904D01*
X85494761Y-108529523D01*
X85542380Y-108624761D01*
X85542380Y-108862857D01*
X85494761Y-108958095D01*
X85447142Y-109005714D01*
X107326666Y-89844761D02*
X107469523Y-89892380D01*
X107707619Y-89892380D01*
X107802857Y-89844761D01*
X107850476Y-89797142D01*
X107898095Y-89701904D01*
X107898095Y-89606666D01*
X107850476Y-89511428D01*
X107802857Y-89463809D01*
X107707619Y-89416190D01*
X107517142Y-89368571D01*
X107421904Y-89320952D01*
X107374285Y-89273333D01*
X107326666Y-89178095D01*
X107326666Y-89082857D01*
X107374285Y-88987619D01*
X107421904Y-88940000D01*
X107517142Y-88892380D01*
X107755238Y-88892380D01*
X107898095Y-88940000D01*
X108231428Y-88892380D02*
X108469523Y-89892380D01*
X108660000Y-89178095D01*
X108850476Y-89892380D01*
X109088571Y-88892380D01*
X109993333Y-89892380D02*
X109421904Y-89892380D01*
X109707619Y-89892380D02*
X109707619Y-88892380D01*
X109612380Y-89035238D01*
X109517142Y-89130476D01*
X109421904Y-89178095D01*
X53848095Y-134072380D02*
X53848095Y-134881904D01*
X53895714Y-134977142D01*
X53943333Y-135024761D01*
X54038571Y-135072380D01*
X54229047Y-135072380D01*
X54324285Y-135024761D01*
X54371904Y-134977142D01*
X54419523Y-134881904D01*
X54419523Y-134072380D01*
X55419523Y-135072380D02*
X54848095Y-135072380D01*
X55133809Y-135072380D02*
X55133809Y-134072380D01*
X55038571Y-134215238D01*
X54943333Y-134310476D01*
X54848095Y-134358095D01*
D11*
X85768500Y-95060000D02*
X85768500Y-95525000D01*
X85768500Y-92435000D02*
X85768500Y-92900000D01*
X90582979Y-92899571D02*
G75*
G03*
X86073816Y-92900000I-2254479J-1080429D01*
G01*
X91116315Y-92899173D02*
G75*
G03*
X85768500Y-92435170I-2787815J-1080827D01*
G01*
X86073816Y-95060000D02*
G75*
G03*
X90582979Y-95060429I2254684J1080000D01*
G01*
X85768500Y-95524830D02*
G75*
G03*
X91116315Y-95060827I2560000J1544830D01*
G01*
X110430000Y-113090000D02*
X113090000Y-113090000D01*
X110430000Y-107950000D02*
X110430000Y-113090000D01*
X113090000Y-107950000D02*
X113090000Y-113090000D01*
X110430000Y-105350000D02*
X111760000Y-105350000D01*
X110430000Y-106680000D02*
X110430000Y-105350000D01*
X110430000Y-107950000D02*
X113090000Y-107950000D01*
X111545000Y-123870000D02*
X111545000Y-136210000D01*
X101600000Y-123408675D02*
X101350000Y-122975662D01*
X80575000Y-136210000D02*
X80575000Y-123870000D01*
X101350000Y-122975662D02*
X101850000Y-122975662D01*
X80575000Y-123870000D02*
X111545000Y-123870000D01*
X101850000Y-122975662D02*
X101600000Y-123408675D01*
X92170000Y-118010000D02*
X85630000Y-118010000D01*
X84860000Y-119380000D02*
X85630000Y-119380000D01*
X85630000Y-120750000D02*
X92170000Y-120750000D01*
X92940000Y-119380000D02*
X92170000Y-119380000D01*
X92170000Y-120750000D02*
X92170000Y-118010000D01*
X85630000Y-118010000D02*
X85630000Y-120750000D01*
X101700000Y-105950000D02*
X98960000Y-105950000D01*
X98960000Y-105950000D02*
X98960000Y-112490000D01*
X100330000Y-105180000D02*
X100330000Y-105950000D01*
X98960000Y-112490000D02*
X101700000Y-112490000D01*
X100330000Y-113260000D02*
X100330000Y-112490000D01*
X101700000Y-112490000D02*
X101700000Y-105950000D01*
X92710000Y-105180000D02*
X92710000Y-105950000D01*
X92710000Y-113260000D02*
X92710000Y-112490000D01*
X94080000Y-105950000D02*
X91340000Y-105950000D01*
X91340000Y-105950000D02*
X91340000Y-112490000D01*
X91340000Y-112490000D02*
X94080000Y-112490000D01*
X94080000Y-112490000D02*
X94080000Y-105950000D01*
X87530000Y-105950000D02*
X87530000Y-112490000D01*
X90270000Y-112490000D02*
X90270000Y-105950000D01*
X88900000Y-113260000D02*
X88900000Y-112490000D01*
X88900000Y-105180000D02*
X88900000Y-105950000D01*
X87530000Y-112490000D02*
X90270000Y-112490000D01*
X90270000Y-105950000D02*
X87530000Y-105950000D01*
X83720000Y-112490000D02*
X86460000Y-112490000D01*
X83720000Y-105950000D02*
X83720000Y-112490000D01*
X86460000Y-112490000D02*
X86460000Y-105950000D01*
X85090000Y-113260000D02*
X85090000Y-112490000D01*
X86460000Y-105950000D02*
X83720000Y-105950000D01*
X85090000Y-105180000D02*
X85090000Y-105950000D01*
X105160000Y-92940000D02*
X105160000Y-94440000D01*
X106410000Y-96940000D02*
X110910000Y-96940000D01*
X112160000Y-94440000D02*
X112160000Y-92940000D01*
X110910000Y-90440000D02*
X106410000Y-90440000D01*
D12*
X51110000Y-135965000D02*
X40380000Y-135965000D01*
X68890000Y-85015000D02*
X68890000Y-135965000D01*
X68890000Y-135965000D02*
X40380000Y-135965000D01*
X40380000Y-135965000D02*
X40380000Y-85015000D01*
X40380000Y-135965000D02*
X40380000Y-85015000D01*
X57821000Y-135965000D02*
X51110000Y-135965000D01*
X63520000Y-85015000D02*
X45830000Y-85015000D01*
X68890000Y-135965000D02*
X57821000Y-135965000D01*
X68890000Y-85015000D02*
X68890000Y-135965000D01*
X40380000Y-85015000D02*
X68890000Y-85015000D01*
X45830000Y-85015000D02*
X40380000Y-85015000D01*
X68890000Y-85015000D02*
X63520000Y-85015000D01*
D13*
X69560000Y-126005000D02*
G75*
G03*
X69560000Y-126005000I-100000J0D01*
G01*
M02*
