G04 #@! TF.GenerationSoftware,KiCad,Pcbnew,6.0.7-1.fc36*
G04 #@! TF.CreationDate,2022-09-04T22:09:16+02:00*
G04 #@! TF.ProjectId,Project,50726f6a-6563-4742-9e6b-696361645f70,rev?*
G04 #@! TF.SameCoordinates,Original*
G04 #@! TF.FileFunction,Copper,L2,Bot*
G04 #@! TF.FilePolarity,Positive*
%FSLAX46Y46*%
G04 Gerber Fmt 4.6, Leading zero omitted, Abs format (unit mm)*
G04 Created by KiCad (PCBNEW 6.0.7-1.fc36) date 2022-09-04 22:09:16*
%MOMM*%
%LPD*%
G01*
G04 APERTURE LIST*
G04 #@! TA.AperFunction,ComponentPad*
%ADD10R,1.800000X1.800000*%
G04 #@! TD*
G04 #@! TA.AperFunction,ComponentPad*
%ADD11C,1.800000*%
G04 #@! TD*
G04 #@! TA.AperFunction,ComponentPad*
%ADD12R,1.700000X1.700000*%
G04 #@! TD*
G04 #@! TA.AperFunction,ComponentPad*
%ADD13O,1.700000X1.700000*%
G04 #@! TD*
G04 #@! TA.AperFunction,ComponentPad*
%ADD14C,4.000000*%
G04 #@! TD*
G04 #@! TA.AperFunction,ComponentPad*
%ADD15R,1.600000X1.600000*%
G04 #@! TD*
G04 #@! TA.AperFunction,ComponentPad*
%ADD16C,1.600000*%
G04 #@! TD*
G04 #@! TA.AperFunction,ComponentPad*
%ADD17O,1.600000X1.600000*%
G04 #@! TD*
G04 #@! TA.AperFunction,ComponentPad*
%ADD18C,2.000000*%
G04 #@! TD*
G04 #@! TA.AperFunction,ComponentPad*
%ADD19R,2.000000X2.000000*%
G04 #@! TD*
G04 #@! TA.AperFunction,ViaPad*
%ADD20C,0.800000*%
G04 #@! TD*
G04 #@! TA.AperFunction,Conductor*
%ADD21C,0.250000*%
G04 #@! TD*
G04 #@! TA.AperFunction,Conductor*
%ADD22C,0.500000*%
G04 #@! TD*
G04 APERTURE END LIST*
D10*
X85090000Y-93980000D03*
D11*
X87249000Y-93980000D03*
X89408000Y-93980000D03*
X91567000Y-93980000D03*
D12*
X111760000Y-106680000D03*
D13*
X111760000Y-109220000D03*
X111760000Y-111760000D03*
D14*
X108560000Y-127150000D03*
X83560000Y-127150000D03*
D15*
X101600000Y-125730000D03*
D16*
X98830000Y-125730000D03*
X96060000Y-125730000D03*
X93290000Y-125730000D03*
X90520000Y-125730000D03*
X100215000Y-128570000D03*
X97445000Y-128570000D03*
X94675000Y-128570000D03*
X91905000Y-128570000D03*
X83820000Y-119380000D03*
D17*
X93980000Y-119380000D03*
D16*
X100330000Y-114300000D03*
D17*
X100330000Y-104140000D03*
D16*
X92710000Y-104140000D03*
D17*
X92710000Y-114300000D03*
D16*
X88900000Y-104140000D03*
D17*
X88900000Y-114300000D03*
D16*
X85090000Y-104140000D03*
D17*
X85090000Y-114300000D03*
D18*
X105410000Y-91440000D03*
X111910000Y-91440000D03*
X111910000Y-95940000D03*
X105410000Y-95940000D03*
D19*
X67310000Y-126005000D03*
D18*
X67310000Y-123465000D03*
X67310000Y-120925000D03*
X67310000Y-118385000D03*
X67310000Y-115845000D03*
X67310000Y-113305000D03*
X67310000Y-110765000D03*
X67310000Y-108225000D03*
X67310000Y-105685000D03*
X67310000Y-103145000D03*
X67310000Y-100605000D03*
X67310000Y-98065000D03*
X67310000Y-95525000D03*
X67310000Y-92985000D03*
X67310000Y-90445000D03*
X41910000Y-90445000D03*
X41910000Y-92985000D03*
X41910000Y-95525000D03*
X41910000Y-98065000D03*
X41910000Y-100605000D03*
X41910000Y-103145000D03*
X41910000Y-105685000D03*
X41910000Y-108225000D03*
X41910000Y-110765000D03*
X41910000Y-113305000D03*
X41910000Y-115845000D03*
X41910000Y-118385000D03*
X41910000Y-120925000D03*
X41910000Y-123465000D03*
X41910000Y-126005000D03*
D20*
X44450000Y-91440000D03*
X54610000Y-116840000D03*
X74930000Y-111760000D03*
X102870000Y-100330000D03*
X99060000Y-100330000D03*
X85090000Y-123190000D03*
X92710000Y-121920000D03*
X64770000Y-121920000D03*
X85090000Y-111760000D03*
X74930000Y-96520000D03*
X109220000Y-100330000D03*
X44450000Y-101600000D03*
X95250000Y-132080000D03*
X105410000Y-106680000D03*
X80010000Y-111760000D03*
X64770000Y-127000000D03*
X95250000Y-100330000D03*
X90170000Y-120650000D03*
X49530000Y-91440000D03*
X105410000Y-121920000D03*
X80010000Y-97790000D03*
X49530000Y-116840000D03*
X69850000Y-101600000D03*
X64770000Y-111760000D03*
X88900000Y-127000000D03*
X74930000Y-132080000D03*
X87630000Y-100330000D03*
X44450000Y-116840000D03*
X64770000Y-96520000D03*
X100330000Y-96520000D03*
X49530000Y-101600000D03*
X49530000Y-96520000D03*
X95250000Y-116840000D03*
X95250000Y-96520000D03*
X91440000Y-100330000D03*
X85090000Y-132080000D03*
X100330000Y-116840000D03*
X59690000Y-132080000D03*
X90170000Y-106680000D03*
X54610000Y-127000000D03*
X59690000Y-127000000D03*
X44450000Y-106680000D03*
X69850000Y-116840000D03*
X49530000Y-127000000D03*
X100330000Y-91440000D03*
X90170000Y-123190000D03*
X85090000Y-116840000D03*
X74930000Y-91440000D03*
X95250000Y-111760000D03*
X106680000Y-102870000D03*
X49530000Y-132080000D03*
X59690000Y-96520000D03*
X90170000Y-91440000D03*
X110490000Y-121920000D03*
X44450000Y-127000000D03*
X54610000Y-111760000D03*
X54610000Y-101600000D03*
X105410000Y-111760000D03*
X64770000Y-106680000D03*
X109220000Y-105410000D03*
X64770000Y-116840000D03*
X74930000Y-101600000D03*
X64770000Y-101600000D03*
X80010000Y-101600000D03*
X95250000Y-106680000D03*
X90170000Y-111760000D03*
X85090000Y-106680000D03*
X54610000Y-96520000D03*
X90170000Y-96520000D03*
X85090000Y-120650000D03*
X95250000Y-91440000D03*
X110490000Y-116840000D03*
X100330000Y-132080000D03*
X69850000Y-111760000D03*
X44450000Y-96520000D03*
X69850000Y-106680000D03*
X49530000Y-121920000D03*
X95250000Y-121920000D03*
X64770000Y-132080000D03*
X54610000Y-121920000D03*
X59690000Y-101600000D03*
X74930000Y-116840000D03*
X74930000Y-106680000D03*
X44450000Y-132080000D03*
X90170000Y-132080000D03*
X69850000Y-123190000D03*
X110490000Y-132080000D03*
X83820000Y-96520000D03*
X44450000Y-111760000D03*
X59690000Y-121920000D03*
X80010000Y-116840000D03*
X69850000Y-96520000D03*
X54610000Y-91440000D03*
X59690000Y-91440000D03*
X80010000Y-106680000D03*
X74930000Y-123190000D03*
X80010000Y-132080000D03*
X90170000Y-118110000D03*
X69850000Y-120650000D03*
X80010000Y-127000000D03*
X69850000Y-132080000D03*
X100330000Y-111760000D03*
X64770000Y-91440000D03*
X49530000Y-106680000D03*
X54610000Y-106680000D03*
X105410000Y-132080000D03*
X80010000Y-91440000D03*
X100330000Y-121920000D03*
X100330000Y-106680000D03*
X74930000Y-120650000D03*
X105410000Y-116840000D03*
X105410000Y-127000000D03*
X69850000Y-91440000D03*
X59690000Y-111760000D03*
X44450000Y-121920000D03*
X80010000Y-120650000D03*
X54610000Y-132080000D03*
X59690000Y-106680000D03*
X59690000Y-116840000D03*
X85090000Y-91440000D03*
X49530000Y-111760000D03*
X83820000Y-100330000D03*
D21*
X92710000Y-95123000D02*
X91567000Y-93980000D01*
X92710000Y-104140000D02*
X92710000Y-95123000D01*
X88900000Y-94488000D02*
X89408000Y-93980000D01*
X88900000Y-104140000D02*
X88900000Y-94488000D01*
X67310000Y-123465000D02*
X66310001Y-124464999D01*
X68309999Y-124464999D02*
X69845001Y-124464999D01*
X67310000Y-123465000D02*
X68309999Y-124464999D01*
X66310001Y-124464999D02*
X64774999Y-124464999D01*
X85090000Y-104140000D02*
X85090000Y-93980000D01*
D22*
X67310000Y-127505000D02*
X70615000Y-130810000D01*
X83820000Y-119380000D02*
X90551000Y-119380000D01*
X90551000Y-119380000D02*
X95631000Y-114300000D01*
X77195000Y-126005000D02*
X83820000Y-119380000D01*
X97975000Y-130810000D02*
X100215000Y-128570000D01*
X67310000Y-126005000D02*
X77195000Y-126005000D01*
X95631000Y-114300000D02*
X100330000Y-114300000D01*
X70615000Y-130810000D02*
X97975000Y-130810000D01*
X67310000Y-126005000D02*
X67310000Y-127505000D01*
D21*
X103450000Y-95940000D02*
X100330000Y-99060000D01*
X100330000Y-99060000D02*
X100330000Y-104140000D01*
X105410000Y-95940000D02*
X103450000Y-95940000D01*
X111910000Y-95940000D02*
X105410000Y-95940000D01*
X77978000Y-117602000D02*
X89408000Y-117602000D01*
X73152000Y-112776000D02*
X77978000Y-117602000D01*
X67310000Y-105685000D02*
X71649000Y-105685000D01*
X89408000Y-117602000D02*
X92710000Y-114300000D01*
X71649000Y-105685000D02*
X73152000Y-107188000D01*
X73152000Y-107188000D02*
X73152000Y-112776000D01*
X87249000Y-115951000D02*
X88900000Y-114300000D01*
X75819000Y-113284000D02*
X78486000Y-115951000D01*
X78486000Y-115951000D02*
X87249000Y-115951000D01*
X73808000Y-103145000D02*
X75819000Y-105156000D01*
X75819000Y-105156000D02*
X75819000Y-113284000D01*
X67310000Y-103145000D02*
X73808000Y-103145000D01*
X78232000Y-112903000D02*
X78232000Y-101981000D01*
X78232000Y-101981000D02*
X76856000Y-100605000D01*
X76856000Y-100605000D02*
X67310000Y-100605000D01*
X85090000Y-114300000D02*
X79629000Y-114300000D01*
X79629000Y-114300000D02*
X78232000Y-112903000D01*
G04 #@! TA.AperFunction,Conductor*
G36*
X112854843Y-86380002D02*
G01*
X112901336Y-86433658D01*
X112912334Y-86476114D01*
X112925407Y-86642217D01*
X112932370Y-86730695D01*
X112997206Y-87049378D01*
X113100398Y-87357784D01*
X113240405Y-87651316D01*
X113415141Y-87925597D01*
X113417584Y-87928560D01*
X113417585Y-87928562D01*
X113567308Y-88110190D01*
X113622001Y-88176538D01*
X113857902Y-88400399D01*
X114119326Y-88593843D01*
X114260851Y-88673914D01*
X114399019Y-88752086D01*
X114399023Y-88752088D01*
X114402376Y-88753985D01*
X114702832Y-88878438D01*
X114806288Y-88907129D01*
X115012500Y-88964317D01*
X115012508Y-88964319D01*
X115016216Y-88965347D01*
X115337856Y-89013416D01*
X115341152Y-89013560D01*
X115341153Y-89013560D01*
X115449497Y-89018291D01*
X115516680Y-89041246D01*
X115560788Y-89096879D01*
X115570000Y-89144171D01*
X115570000Y-131837919D01*
X115549998Y-131906040D01*
X115496342Y-131952533D01*
X115451692Y-131963684D01*
X115383824Y-131967835D01*
X115245395Y-131976302D01*
X115241612Y-131977003D01*
X115241605Y-131977004D01*
X115085512Y-132005934D01*
X114925628Y-132035567D01*
X114741058Y-132093762D01*
X114619140Y-132132202D01*
X114619137Y-132132203D01*
X114615468Y-132133360D01*
X114611971Y-132134954D01*
X114611965Y-132134956D01*
X114323046Y-132266624D01*
X114323042Y-132266626D01*
X114319538Y-132268223D01*
X114042249Y-132438146D01*
X114039245Y-132440536D01*
X114039240Y-132440539D01*
X113914993Y-132539370D01*
X113787736Y-132640595D01*
X113785042Y-132643336D01*
X113785038Y-132643340D01*
X113562487Y-132869810D01*
X113562483Y-132869815D01*
X113559792Y-132872553D01*
X113361815Y-133130561D01*
X113196758Y-133410773D01*
X113067080Y-133709012D01*
X112974715Y-134020831D01*
X112921039Y-134341583D01*
X112920871Y-134345433D01*
X112914145Y-134499496D01*
X112891191Y-134566679D01*
X112835559Y-134610787D01*
X112788265Y-134620000D01*
X40883278Y-134620000D01*
X40815157Y-134599998D01*
X40768664Y-134546342D01*
X40757666Y-134503886D01*
X40737932Y-134253140D01*
X40737932Y-134253137D01*
X40737630Y-134249305D01*
X40672794Y-133930622D01*
X40569602Y-133622216D01*
X40429595Y-133328684D01*
X40254859Y-133054403D01*
X40107470Y-132875606D01*
X40050442Y-132806425D01*
X40050438Y-132806420D01*
X40047999Y-132803462D01*
X39812098Y-132579601D01*
X39550674Y-132386157D01*
X39345781Y-132270234D01*
X39270981Y-132227914D01*
X39270977Y-132227912D01*
X39267624Y-132226015D01*
X38967168Y-132101562D01*
X38863712Y-132072871D01*
X38657500Y-132015683D01*
X38657492Y-132015681D01*
X38653784Y-132014653D01*
X38332144Y-131966584D01*
X38328848Y-131966440D01*
X38328847Y-131966440D01*
X38220503Y-131961709D01*
X38153320Y-131938754D01*
X38109212Y-131883121D01*
X38100000Y-131835829D01*
X38100000Y-126005000D01*
X40396835Y-126005000D01*
X40415465Y-126241711D01*
X40470895Y-126472594D01*
X40472788Y-126477165D01*
X40472789Y-126477167D01*
X40542501Y-126645467D01*
X40561760Y-126691963D01*
X40564346Y-126696183D01*
X40683241Y-126890202D01*
X40683245Y-126890208D01*
X40685824Y-126894416D01*
X40840031Y-127074969D01*
X41020584Y-127229176D01*
X41024792Y-127231755D01*
X41024798Y-127231759D01*
X41198231Y-127338039D01*
X41223037Y-127353240D01*
X41227607Y-127355133D01*
X41227611Y-127355135D01*
X41409768Y-127430586D01*
X41442406Y-127444105D01*
X41490349Y-127455615D01*
X41668476Y-127498380D01*
X41668482Y-127498381D01*
X41673289Y-127499535D01*
X41910000Y-127518165D01*
X42146711Y-127499535D01*
X42151518Y-127498381D01*
X42151524Y-127498380D01*
X42329651Y-127455615D01*
X42377594Y-127444105D01*
X42410232Y-127430586D01*
X42592389Y-127355135D01*
X42592393Y-127355133D01*
X42596963Y-127353240D01*
X42621769Y-127338039D01*
X42795202Y-127231759D01*
X42795208Y-127231755D01*
X42799416Y-127229176D01*
X42979969Y-127074969D01*
X43134176Y-126894416D01*
X43136755Y-126890208D01*
X43136759Y-126890202D01*
X43255654Y-126696183D01*
X43258240Y-126691963D01*
X43277500Y-126645467D01*
X43347211Y-126477167D01*
X43347212Y-126477165D01*
X43349105Y-126472594D01*
X43404535Y-126241711D01*
X43423165Y-126005000D01*
X43404535Y-125768289D01*
X43394029Y-125724525D01*
X43350260Y-125542218D01*
X43349105Y-125537406D01*
X43347211Y-125532833D01*
X43260135Y-125322611D01*
X43260133Y-125322607D01*
X43258240Y-125318037D01*
X43202145Y-125226498D01*
X43136759Y-125119798D01*
X43136755Y-125119792D01*
X43134176Y-125115584D01*
X42979969Y-124935031D01*
X42976213Y-124931823D01*
X42976208Y-124931818D01*
X42823384Y-124801294D01*
X42784574Y-124741844D01*
X42782360Y-124707442D01*
X42774123Y-124688333D01*
X41922812Y-123837022D01*
X41908868Y-123829408D01*
X41907035Y-123829539D01*
X41900420Y-123833790D01*
X41048920Y-124685290D01*
X41039740Y-124702102D01*
X41025980Y-124765350D01*
X40997224Y-124800775D01*
X40902353Y-124881803D01*
X40840031Y-124935031D01*
X40685824Y-125115584D01*
X40683245Y-125119792D01*
X40683241Y-125119798D01*
X40617855Y-125226498D01*
X40561760Y-125318037D01*
X40559867Y-125322607D01*
X40559865Y-125322611D01*
X40472789Y-125532833D01*
X40470895Y-125537406D01*
X40469740Y-125542218D01*
X40425972Y-125724525D01*
X40415465Y-125768289D01*
X40396835Y-126005000D01*
X38100000Y-126005000D01*
X38100000Y-123469930D01*
X40397725Y-123469930D01*
X40415572Y-123696699D01*
X40417115Y-123706446D01*
X40470217Y-123927627D01*
X40473266Y-123937012D01*
X40560313Y-124147163D01*
X40564795Y-124155958D01*
X40667432Y-124323445D01*
X40677890Y-124332907D01*
X40686666Y-124329124D01*
X41537978Y-123477812D01*
X41544356Y-123466132D01*
X42274408Y-123466132D01*
X42274539Y-123467965D01*
X42278790Y-123474580D01*
X43130290Y-124326080D01*
X43142670Y-124332840D01*
X43150320Y-124327113D01*
X43255205Y-124155958D01*
X43259687Y-124147163D01*
X43346734Y-123937012D01*
X43349783Y-123927627D01*
X43402885Y-123706446D01*
X43404428Y-123696699D01*
X43422275Y-123469930D01*
X43422275Y-123460070D01*
X43404428Y-123233301D01*
X43402885Y-123223554D01*
X43349783Y-123002373D01*
X43346734Y-122992988D01*
X43259687Y-122782837D01*
X43255205Y-122774042D01*
X43152568Y-122606555D01*
X43142110Y-122597093D01*
X43133334Y-122600876D01*
X42282022Y-123452188D01*
X42274408Y-123466132D01*
X41544356Y-123466132D01*
X41545592Y-123463868D01*
X41545461Y-123462035D01*
X41541210Y-123455420D01*
X40689710Y-122603920D01*
X40677330Y-122597160D01*
X40669680Y-122602887D01*
X40564795Y-122774042D01*
X40560313Y-122782837D01*
X40473266Y-122992988D01*
X40470217Y-123002373D01*
X40417115Y-123223554D01*
X40415572Y-123233301D01*
X40397725Y-123460070D01*
X40397725Y-123469930D01*
X38100000Y-123469930D01*
X38100000Y-120925000D01*
X40396835Y-120925000D01*
X40415465Y-121161711D01*
X40470895Y-121392594D01*
X40561760Y-121611963D01*
X40564346Y-121616183D01*
X40683241Y-121810202D01*
X40683245Y-121810208D01*
X40685824Y-121814416D01*
X40840031Y-121994969D01*
X40843787Y-121998177D01*
X40843792Y-121998182D01*
X40996616Y-122128706D01*
X41035426Y-122188156D01*
X41037640Y-122222558D01*
X41045877Y-122241667D01*
X41897188Y-123092978D01*
X41911132Y-123100592D01*
X41912965Y-123100461D01*
X41919580Y-123096210D01*
X42771080Y-122244710D01*
X42780260Y-122227898D01*
X42794020Y-122164650D01*
X42822776Y-122129225D01*
X42976213Y-121998177D01*
X42979969Y-121994969D01*
X43134176Y-121814416D01*
X43136755Y-121810208D01*
X43136759Y-121810202D01*
X43255654Y-121616183D01*
X43258240Y-121611963D01*
X43349105Y-121392594D01*
X43404535Y-121161711D01*
X43423165Y-120925000D01*
X65796835Y-120925000D01*
X65815465Y-121161711D01*
X65870895Y-121392594D01*
X65961760Y-121611963D01*
X65964346Y-121616183D01*
X66083241Y-121810202D01*
X66083245Y-121810208D01*
X66085824Y-121814416D01*
X66240031Y-121994969D01*
X66243787Y-121998177D01*
X66243792Y-121998182D01*
X66396616Y-122128706D01*
X66435426Y-122188156D01*
X66437640Y-122222558D01*
X66445877Y-122241667D01*
X67297188Y-123092978D01*
X67311132Y-123100592D01*
X67312965Y-123100461D01*
X67319580Y-123096210D01*
X68171080Y-122244710D01*
X68180260Y-122227898D01*
X68194020Y-122164650D01*
X68222776Y-122129225D01*
X68376213Y-121998177D01*
X68379969Y-121994969D01*
X68534176Y-121814416D01*
X68536755Y-121810208D01*
X68536759Y-121810202D01*
X68655654Y-121616183D01*
X68658240Y-121611963D01*
X68749105Y-121392594D01*
X68804535Y-121161711D01*
X68823165Y-120925000D01*
X68804535Y-120688289D01*
X68801135Y-120674124D01*
X68750260Y-120462218D01*
X68749105Y-120457406D01*
X68747211Y-120452833D01*
X68660135Y-120242611D01*
X68660133Y-120242607D01*
X68658240Y-120238037D01*
X68630169Y-120192230D01*
X68536759Y-120039798D01*
X68536755Y-120039792D01*
X68534176Y-120035584D01*
X68379969Y-119855031D01*
X68376213Y-119851823D01*
X68376208Y-119851818D01*
X68257944Y-119750811D01*
X68219134Y-119691361D01*
X68218628Y-119620366D01*
X68257944Y-119559189D01*
X68376208Y-119458182D01*
X68376213Y-119458177D01*
X68379969Y-119454969D01*
X68534176Y-119274416D01*
X68536755Y-119270208D01*
X68536759Y-119270202D01*
X68655654Y-119076183D01*
X68658240Y-119071963D01*
X68749105Y-118852594D01*
X68778960Y-118728238D01*
X68803380Y-118626524D01*
X68803381Y-118626518D01*
X68804535Y-118621711D01*
X68823165Y-118385000D01*
X68804535Y-118148289D01*
X68802354Y-118139202D01*
X68750260Y-117922218D01*
X68749105Y-117917406D01*
X68658240Y-117698037D01*
X68655654Y-117693817D01*
X68536759Y-117499798D01*
X68536755Y-117499792D01*
X68534176Y-117495584D01*
X68379969Y-117315031D01*
X68376213Y-117311823D01*
X68376208Y-117311818D01*
X68257944Y-117210811D01*
X68219134Y-117151361D01*
X68218628Y-117080366D01*
X68257944Y-117019189D01*
X68376208Y-116918182D01*
X68376213Y-116918177D01*
X68379969Y-116914969D01*
X68534176Y-116734416D01*
X68536755Y-116730208D01*
X68536759Y-116730202D01*
X68655654Y-116536183D01*
X68658240Y-116531963D01*
X68662976Y-116520531D01*
X68747211Y-116317167D01*
X68747212Y-116317165D01*
X68749105Y-116312594D01*
X68804535Y-116081711D01*
X68823165Y-115845000D01*
X68804535Y-115608289D01*
X68796574Y-115575126D01*
X68750260Y-115382218D01*
X68749105Y-115377406D01*
X68747211Y-115372833D01*
X68660135Y-115162611D01*
X68660133Y-115162607D01*
X68658240Y-115158037D01*
X68599008Y-115061379D01*
X68536759Y-114959798D01*
X68536755Y-114959792D01*
X68534176Y-114955584D01*
X68379969Y-114775031D01*
X68376213Y-114771823D01*
X68376208Y-114771818D01*
X68257944Y-114670811D01*
X68219134Y-114611361D01*
X68218628Y-114540366D01*
X68257944Y-114479189D01*
X68376208Y-114378182D01*
X68376213Y-114378177D01*
X68379969Y-114374969D01*
X68534176Y-114194416D01*
X68536755Y-114190208D01*
X68536759Y-114190202D01*
X68655654Y-113996183D01*
X68658240Y-113991963D01*
X68749105Y-113772594D01*
X68774576Y-113666500D01*
X68803380Y-113546524D01*
X68803381Y-113546518D01*
X68804535Y-113541711D01*
X68823165Y-113305000D01*
X68804535Y-113068289D01*
X68802977Y-113061797D01*
X68750260Y-112842218D01*
X68749105Y-112837406D01*
X68726978Y-112783986D01*
X68660135Y-112622611D01*
X68660133Y-112622607D01*
X68658240Y-112618037D01*
X68655654Y-112613817D01*
X68536759Y-112419798D01*
X68536755Y-112419792D01*
X68534176Y-112415584D01*
X68379969Y-112235031D01*
X68376213Y-112231823D01*
X68376208Y-112231818D01*
X68257944Y-112130811D01*
X68219134Y-112071361D01*
X68218628Y-112000366D01*
X68257944Y-111939189D01*
X68376208Y-111838182D01*
X68376213Y-111838177D01*
X68379969Y-111834969D01*
X68534176Y-111654416D01*
X68536755Y-111650208D01*
X68536759Y-111650202D01*
X68655654Y-111456183D01*
X68658240Y-111451963D01*
X68723476Y-111294470D01*
X68747211Y-111237167D01*
X68747212Y-111237165D01*
X68749105Y-111232594D01*
X68804535Y-111001711D01*
X68823165Y-110765000D01*
X68804535Y-110528289D01*
X68798031Y-110501195D01*
X68750260Y-110302218D01*
X68749105Y-110297406D01*
X68707615Y-110197240D01*
X68660135Y-110082611D01*
X68660133Y-110082607D01*
X68658240Y-110078037D01*
X68565241Y-109926277D01*
X68536759Y-109879798D01*
X68536755Y-109879792D01*
X68534176Y-109875584D01*
X68379969Y-109695031D01*
X68376213Y-109691823D01*
X68376208Y-109691818D01*
X68257944Y-109590811D01*
X68219134Y-109531361D01*
X68218628Y-109460366D01*
X68257944Y-109399189D01*
X68376208Y-109298182D01*
X68376213Y-109298177D01*
X68379969Y-109294969D01*
X68534176Y-109114416D01*
X68536755Y-109110208D01*
X68536759Y-109110202D01*
X68655654Y-108916183D01*
X68658240Y-108911963D01*
X68714577Y-108775954D01*
X68747211Y-108697167D01*
X68747212Y-108697165D01*
X68749105Y-108692594D01*
X68804535Y-108461711D01*
X68823165Y-108225000D01*
X68804535Y-107988289D01*
X68749105Y-107757406D01*
X68674849Y-107578134D01*
X68660135Y-107542611D01*
X68660133Y-107542607D01*
X68658240Y-107538037D01*
X68604539Y-107450405D01*
X68536759Y-107339798D01*
X68536755Y-107339792D01*
X68534176Y-107335584D01*
X68379969Y-107155031D01*
X68376213Y-107151823D01*
X68376208Y-107151818D01*
X68257944Y-107050811D01*
X68219134Y-106991361D01*
X68218628Y-106920366D01*
X68257944Y-106859189D01*
X68376208Y-106758182D01*
X68376213Y-106758177D01*
X68379969Y-106754969D01*
X68534176Y-106574416D01*
X68536755Y-106570208D01*
X68536759Y-106570202D01*
X68654133Y-106378665D01*
X68706781Y-106331034D01*
X68761566Y-106318500D01*
X71334406Y-106318500D01*
X71402527Y-106338502D01*
X71423501Y-106355405D01*
X72481595Y-107413500D01*
X72515621Y-107475812D01*
X72518500Y-107502595D01*
X72518500Y-112697233D01*
X72517973Y-112708416D01*
X72516298Y-112715909D01*
X72516547Y-112723835D01*
X72516547Y-112723836D01*
X72518438Y-112783986D01*
X72518500Y-112787945D01*
X72518500Y-112815856D01*
X72518997Y-112819790D01*
X72518997Y-112819791D01*
X72519005Y-112819856D01*
X72519938Y-112831693D01*
X72521327Y-112875889D01*
X72526978Y-112895339D01*
X72530987Y-112914700D01*
X72533526Y-112934797D01*
X72536445Y-112942168D01*
X72536445Y-112942170D01*
X72549804Y-112975912D01*
X72553649Y-112987142D01*
X72559674Y-113007881D01*
X72565982Y-113029593D01*
X72570015Y-113036412D01*
X72570017Y-113036417D01*
X72576293Y-113047028D01*
X72584988Y-113064776D01*
X72592448Y-113083617D01*
X72597110Y-113090033D01*
X72597110Y-113090034D01*
X72618436Y-113119387D01*
X72624952Y-113129307D01*
X72636589Y-113148983D01*
X72647458Y-113167362D01*
X72661779Y-113181683D01*
X72674619Y-113196716D01*
X72686528Y-113213107D01*
X72720605Y-113241298D01*
X72729384Y-113249288D01*
X77474343Y-117994247D01*
X77481887Y-118002537D01*
X77486000Y-118009018D01*
X77491777Y-118014443D01*
X77535667Y-118055658D01*
X77538509Y-118058413D01*
X77558231Y-118078135D01*
X77561355Y-118080558D01*
X77561359Y-118080562D01*
X77561424Y-118080612D01*
X77570445Y-118088317D01*
X77602679Y-118118586D01*
X77609627Y-118122405D01*
X77609629Y-118122407D01*
X77620432Y-118128346D01*
X77636959Y-118139202D01*
X77646698Y-118146757D01*
X77646700Y-118146758D01*
X77652960Y-118151614D01*
X77693540Y-118169174D01*
X77704188Y-118174391D01*
X77728976Y-118188018D01*
X77742940Y-118195695D01*
X77750616Y-118197666D01*
X77750619Y-118197667D01*
X77762562Y-118200733D01*
X77781267Y-118207137D01*
X77799855Y-118215181D01*
X77807678Y-118216420D01*
X77807688Y-118216423D01*
X77843524Y-118222099D01*
X77855144Y-118224505D01*
X77886959Y-118232673D01*
X77897970Y-118235500D01*
X77918224Y-118235500D01*
X77937934Y-118237051D01*
X77957943Y-118240220D01*
X77965835Y-118239474D01*
X77984580Y-118237702D01*
X78001962Y-118236059D01*
X78013819Y-118235500D01*
X82809812Y-118235500D01*
X82877933Y-118255502D01*
X82924426Y-118309158D01*
X82934530Y-118379432D01*
X82905036Y-118444012D01*
X82898907Y-118450595D01*
X82813802Y-118535700D01*
X82682477Y-118723251D01*
X82680154Y-118728233D01*
X82680151Y-118728238D01*
X82620031Y-118857167D01*
X82585716Y-118930757D01*
X82526457Y-119151913D01*
X82506502Y-119380000D01*
X82506981Y-119385475D01*
X82520755Y-119542913D01*
X82506766Y-119612518D01*
X82484329Y-119642990D01*
X76917724Y-125209595D01*
X76855412Y-125243621D01*
X76828629Y-125246500D01*
X68944500Y-125246500D01*
X68876379Y-125226498D01*
X68829886Y-125172842D01*
X68818500Y-125120500D01*
X68818500Y-124956866D01*
X68811745Y-124894684D01*
X68760615Y-124758295D01*
X68673261Y-124641739D01*
X68640955Y-124617527D01*
X68563892Y-124559771D01*
X68563890Y-124559770D01*
X68556705Y-124554385D01*
X68556550Y-124554327D01*
X68509537Y-124507209D01*
X68494522Y-124437818D01*
X68519406Y-124371325D01*
X68524381Y-124365114D01*
X68530557Y-124357883D01*
X68536357Y-124349899D01*
X68655205Y-124155958D01*
X68659687Y-124147163D01*
X68746734Y-123937012D01*
X68749783Y-123927627D01*
X68802885Y-123706446D01*
X68804428Y-123696699D01*
X68822275Y-123469930D01*
X68822275Y-123460070D01*
X68804428Y-123233301D01*
X68802885Y-123223554D01*
X68749783Y-123002373D01*
X68746734Y-122992988D01*
X68659687Y-122782837D01*
X68655205Y-122774042D01*
X68552568Y-122606555D01*
X68542110Y-122597093D01*
X68533334Y-122600876D01*
X67399095Y-123735115D01*
X67336783Y-123769141D01*
X67265968Y-123764076D01*
X67220905Y-123735115D01*
X66089710Y-122603920D01*
X66077330Y-122597160D01*
X66069680Y-122602887D01*
X65964795Y-122774042D01*
X65960313Y-122782837D01*
X65873266Y-122992988D01*
X65870217Y-123002373D01*
X65817115Y-123223554D01*
X65815572Y-123233301D01*
X65797725Y-123460070D01*
X65797725Y-123469930D01*
X65815572Y-123696699D01*
X65817115Y-123706446D01*
X65870217Y-123927627D01*
X65873266Y-123937012D01*
X65960313Y-124147163D01*
X65964795Y-124155958D01*
X66083643Y-124349899D01*
X66089443Y-124357883D01*
X66095619Y-124365114D01*
X66124651Y-124429904D01*
X66114047Y-124500104D01*
X66067823Y-124552688D01*
X66063295Y-124554385D01*
X66056110Y-124559770D01*
X66056108Y-124559771D01*
X65979045Y-124617527D01*
X65946739Y-124641739D01*
X65859385Y-124758295D01*
X65808255Y-124894684D01*
X65801500Y-124956866D01*
X65801500Y-127053134D01*
X65808255Y-127115316D01*
X65859385Y-127251705D01*
X65946739Y-127368261D01*
X66063295Y-127455615D01*
X66199684Y-127506745D01*
X66261866Y-127513500D01*
X66433493Y-127513500D01*
X66501614Y-127533502D01*
X66548107Y-127587158D01*
X66559078Y-127629286D01*
X66561140Y-127654637D01*
X66563396Y-127661601D01*
X66564587Y-127667560D01*
X66565971Y-127673415D01*
X66566818Y-127680681D01*
X66591735Y-127749327D01*
X66593152Y-127753455D01*
X66615649Y-127822899D01*
X66619445Y-127829154D01*
X66621951Y-127834628D01*
X66624670Y-127840058D01*
X66627167Y-127846937D01*
X66631180Y-127853057D01*
X66631180Y-127853058D01*
X66667186Y-127907976D01*
X66669523Y-127911680D01*
X66707405Y-127974107D01*
X66711121Y-127978315D01*
X66711122Y-127978316D01*
X66714803Y-127982484D01*
X66714776Y-127982508D01*
X66717429Y-127985500D01*
X66720132Y-127988733D01*
X66724144Y-127994852D01*
X66729456Y-127999884D01*
X66780383Y-128048128D01*
X66782825Y-128050506D01*
X70031227Y-131298907D01*
X70043613Y-131313319D01*
X70052149Y-131324917D01*
X70056492Y-131330818D01*
X70062070Y-131335557D01*
X70062073Y-131335560D01*
X70096775Y-131365041D01*
X70104291Y-131371971D01*
X70109980Y-131377660D01*
X70112834Y-131379918D01*
X70112844Y-131379927D01*
X70132242Y-131395274D01*
X70135642Y-131398062D01*
X70185707Y-131440595D01*
X70185711Y-131440598D01*
X70191285Y-131445333D01*
X70197800Y-131448660D01*
X70202837Y-131452019D01*
X70207975Y-131455192D01*
X70213716Y-131459734D01*
X70279875Y-131490655D01*
X70283769Y-131492558D01*
X70348808Y-131525769D01*
X70355917Y-131527508D01*
X70361551Y-131529604D01*
X70367321Y-131531523D01*
X70373950Y-131534622D01*
X70381113Y-131536112D01*
X70381116Y-131536113D01*
X70431830Y-131546661D01*
X70445435Y-131549491D01*
X70449701Y-131550457D01*
X70520610Y-131567808D01*
X70526212Y-131568156D01*
X70526215Y-131568156D01*
X70531764Y-131568500D01*
X70531762Y-131568535D01*
X70535734Y-131568775D01*
X70539955Y-131569152D01*
X70547115Y-131570641D01*
X70624542Y-131568546D01*
X70627950Y-131568500D01*
X97907930Y-131568500D01*
X97926880Y-131569933D01*
X97941115Y-131572099D01*
X97941119Y-131572099D01*
X97948349Y-131573199D01*
X97955641Y-131572606D01*
X97955644Y-131572606D01*
X98001018Y-131568915D01*
X98011233Y-131568500D01*
X98019293Y-131568500D01*
X98036680Y-131566473D01*
X98047507Y-131565211D01*
X98051882Y-131564778D01*
X98117339Y-131559454D01*
X98117342Y-131559453D01*
X98124637Y-131558860D01*
X98131601Y-131556604D01*
X98137560Y-131555413D01*
X98143415Y-131554029D01*
X98150681Y-131553182D01*
X98219327Y-131528265D01*
X98223455Y-131526848D01*
X98285936Y-131506607D01*
X98285938Y-131506606D01*
X98292899Y-131504351D01*
X98299154Y-131500555D01*
X98304628Y-131498049D01*
X98310058Y-131495330D01*
X98316937Y-131492833D01*
X98323058Y-131488820D01*
X98377976Y-131452814D01*
X98381680Y-131450477D01*
X98444107Y-131412595D01*
X98452484Y-131405197D01*
X98452508Y-131405224D01*
X98455500Y-131402571D01*
X98458733Y-131399868D01*
X98464852Y-131395856D01*
X98518128Y-131339617D01*
X98520506Y-131337175D01*
X99952010Y-129905671D01*
X100014322Y-129871645D01*
X100052087Y-129869245D01*
X100209525Y-129883019D01*
X100215000Y-129883498D01*
X100443087Y-129863543D01*
X100448400Y-129862119D01*
X100448402Y-129862119D01*
X100658933Y-129805707D01*
X100658935Y-129805706D01*
X100664243Y-129804284D01*
X100670235Y-129801490D01*
X100866762Y-129709849D01*
X100866767Y-129709846D01*
X100871749Y-129707523D01*
X100976611Y-129634098D01*
X101054789Y-129579357D01*
X101054792Y-129579355D01*
X101059300Y-129576198D01*
X101221198Y-129414300D01*
X101352523Y-129226749D01*
X101354846Y-129221767D01*
X101354849Y-129221762D01*
X101446961Y-129024225D01*
X101446961Y-129024224D01*
X101449284Y-129019243D01*
X101469976Y-128942022D01*
X101507119Y-128803402D01*
X101507119Y-128803400D01*
X101508543Y-128798087D01*
X101528498Y-128570000D01*
X101508543Y-128341913D01*
X101494537Y-128289642D01*
X101450707Y-128126067D01*
X101450706Y-128126064D01*
X101449284Y-128120757D01*
X101446961Y-128115775D01*
X101354849Y-127918238D01*
X101354846Y-127918233D01*
X101352523Y-127913251D01*
X101253037Y-127771171D01*
X101224357Y-127730211D01*
X101224355Y-127730208D01*
X101221198Y-127725700D01*
X101059300Y-127563802D01*
X101054792Y-127560645D01*
X101054789Y-127560643D01*
X100928920Y-127472509D01*
X100871749Y-127432477D01*
X100866767Y-127430154D01*
X100866762Y-127430151D01*
X100669225Y-127338039D01*
X100669224Y-127338039D01*
X100664243Y-127335716D01*
X100658935Y-127334294D01*
X100658933Y-127334293D01*
X100448402Y-127277881D01*
X100448400Y-127277881D01*
X100443087Y-127276457D01*
X100215000Y-127256502D01*
X99986913Y-127276457D01*
X99981600Y-127277881D01*
X99981598Y-127277881D01*
X99771067Y-127334293D01*
X99771065Y-127334294D01*
X99765757Y-127335716D01*
X99760776Y-127338039D01*
X99760775Y-127338039D01*
X99563238Y-127430151D01*
X99563233Y-127430154D01*
X99558251Y-127432477D01*
X99501080Y-127472509D01*
X99375211Y-127560643D01*
X99375208Y-127560645D01*
X99370700Y-127563802D01*
X99208802Y-127725700D01*
X99205645Y-127730208D01*
X99205643Y-127730211D01*
X99176963Y-127771171D01*
X99077477Y-127913251D01*
X99075154Y-127918233D01*
X99075151Y-127918238D01*
X98983039Y-128115775D01*
X98980716Y-128120757D01*
X98979294Y-128126064D01*
X98979293Y-128126067D01*
X98951707Y-128229019D01*
X98914755Y-128289642D01*
X98850894Y-128320663D01*
X98780400Y-128312235D01*
X98725653Y-128267032D01*
X98708293Y-128229019D01*
X98680707Y-128126067D01*
X98680706Y-128126064D01*
X98679284Y-128120757D01*
X98676961Y-128115775D01*
X98584849Y-127918238D01*
X98584846Y-127918233D01*
X98582523Y-127913251D01*
X98483037Y-127771171D01*
X98454357Y-127730211D01*
X98454355Y-127730208D01*
X98451198Y-127725700D01*
X98289300Y-127563802D01*
X98284792Y-127560645D01*
X98284789Y-127560643D01*
X98158920Y-127472509D01*
X98101749Y-127432477D01*
X98096767Y-127430154D01*
X98096762Y-127430151D01*
X97899225Y-127338039D01*
X97899224Y-127338039D01*
X97894243Y-127335716D01*
X97888935Y-127334294D01*
X97888933Y-127334293D01*
X97678402Y-127277881D01*
X97678400Y-127277881D01*
X97673087Y-127276457D01*
X97445000Y-127256502D01*
X97216913Y-127276457D01*
X97211600Y-127277881D01*
X97211598Y-127277881D01*
X97001067Y-127334293D01*
X97001065Y-127334294D01*
X96995757Y-127335716D01*
X96990776Y-127338039D01*
X96990775Y-127338039D01*
X96793238Y-127430151D01*
X96793233Y-127430154D01*
X96788251Y-127432477D01*
X96731080Y-127472509D01*
X96605211Y-127560643D01*
X96605208Y-127560645D01*
X96600700Y-127563802D01*
X96438802Y-127725700D01*
X96435645Y-127730208D01*
X96435643Y-127730211D01*
X96406963Y-127771171D01*
X96307477Y-127913251D01*
X96305154Y-127918233D01*
X96305151Y-127918238D01*
X96213039Y-128115775D01*
X96210716Y-128120757D01*
X96209294Y-128126064D01*
X96181448Y-128229986D01*
X96144496Y-128290608D01*
X96080635Y-128321630D01*
X96010141Y-128313201D01*
X95955394Y-128267998D01*
X95938034Y-128229985D01*
X95910236Y-128126239D01*
X95906490Y-128115947D01*
X95814414Y-127918489D01*
X95808931Y-127908994D01*
X95772491Y-127856952D01*
X95762012Y-127848576D01*
X95748566Y-127855644D01*
X95047022Y-128557188D01*
X95039408Y-128571132D01*
X95039539Y-128572965D01*
X95043790Y-128579580D01*
X95749287Y-129285077D01*
X95761062Y-129291507D01*
X95773077Y-129282211D01*
X95808931Y-129231006D01*
X95814414Y-129221511D01*
X95906490Y-129024053D01*
X95910236Y-129013761D01*
X95938034Y-128910015D01*
X95974985Y-128849392D01*
X96038846Y-128818371D01*
X96109340Y-128826799D01*
X96164088Y-128872002D01*
X96181448Y-128910014D01*
X96210716Y-129019243D01*
X96213039Y-129024224D01*
X96213039Y-129024225D01*
X96305151Y-129221762D01*
X96305154Y-129221767D01*
X96307477Y-129226749D01*
X96438802Y-129414300D01*
X96600700Y-129576198D01*
X96605208Y-129579355D01*
X96605211Y-129579357D01*
X96683389Y-129634098D01*
X96788251Y-129707523D01*
X96793233Y-129709846D01*
X96793238Y-129709849D01*
X96989765Y-129801490D01*
X96995757Y-129804284D01*
X97001067Y-129805707D01*
X97004892Y-129807099D01*
X97062063Y-129849193D01*
X97087401Y-129915515D01*
X97072860Y-129985006D01*
X97023058Y-130035605D01*
X96961797Y-130051500D01*
X95156737Y-130051500D01*
X95088616Y-130031498D01*
X95042123Y-129977842D01*
X95032019Y-129907568D01*
X95061513Y-129842988D01*
X95113642Y-129807099D01*
X95129053Y-129801490D01*
X95326511Y-129709414D01*
X95336006Y-129703931D01*
X95388048Y-129667491D01*
X95396424Y-129657012D01*
X95389356Y-129643566D01*
X94687812Y-128942022D01*
X94673868Y-128934408D01*
X94672035Y-128934539D01*
X94665420Y-128938790D01*
X93959923Y-129644287D01*
X93953493Y-129656062D01*
X93962789Y-129668077D01*
X94013994Y-129703931D01*
X94023489Y-129709414D01*
X94220947Y-129801490D01*
X94236358Y-129807099D01*
X94293529Y-129849193D01*
X94318867Y-129915515D01*
X94304326Y-129985006D01*
X94254524Y-130035605D01*
X94193263Y-130051500D01*
X92388203Y-130051500D01*
X92320082Y-130031498D01*
X92273589Y-129977842D01*
X92263485Y-129907568D01*
X92292979Y-129842988D01*
X92345108Y-129807099D01*
X92348933Y-129805707D01*
X92354243Y-129804284D01*
X92360235Y-129801490D01*
X92556762Y-129709849D01*
X92556767Y-129709846D01*
X92561749Y-129707523D01*
X92666611Y-129634098D01*
X92744789Y-129579357D01*
X92744792Y-129579355D01*
X92749300Y-129576198D01*
X92911198Y-129414300D01*
X93042523Y-129226749D01*
X93044846Y-129221767D01*
X93044849Y-129221762D01*
X93136961Y-129024225D01*
X93136961Y-129024224D01*
X93139284Y-129019243D01*
X93168552Y-128910014D01*
X93205504Y-128849392D01*
X93269365Y-128818370D01*
X93339859Y-128826799D01*
X93394606Y-128872002D01*
X93411966Y-128910015D01*
X93439764Y-129013761D01*
X93443510Y-129024053D01*
X93535586Y-129221511D01*
X93541069Y-129231006D01*
X93577509Y-129283048D01*
X93587988Y-129291424D01*
X93601434Y-129284356D01*
X94302978Y-128582812D01*
X94310592Y-128568868D01*
X94310461Y-128567035D01*
X94306210Y-128560420D01*
X93600713Y-127854923D01*
X93588938Y-127848493D01*
X93576923Y-127857789D01*
X93541069Y-127908994D01*
X93535586Y-127918489D01*
X93443510Y-128115947D01*
X93439764Y-128126239D01*
X93411966Y-128229985D01*
X93375015Y-128290608D01*
X93311154Y-128321629D01*
X93240660Y-128313201D01*
X93185912Y-128267998D01*
X93168552Y-128229986D01*
X93140706Y-128126064D01*
X93139284Y-128120757D01*
X93136961Y-128115775D01*
X93044849Y-127918238D01*
X93044846Y-127918233D01*
X93042523Y-127913251D01*
X92943037Y-127771171D01*
X92914357Y-127730211D01*
X92914355Y-127730208D01*
X92911198Y-127725700D01*
X92749300Y-127563802D01*
X92744792Y-127560645D01*
X92744789Y-127560643D01*
X92633886Y-127482988D01*
X93953576Y-127482988D01*
X93960644Y-127496434D01*
X94662188Y-128197978D01*
X94676132Y-128205592D01*
X94677965Y-128205461D01*
X94684580Y-128201210D01*
X95390077Y-127495713D01*
X95396507Y-127483938D01*
X95387211Y-127471923D01*
X95336006Y-127436069D01*
X95326511Y-127430586D01*
X95129053Y-127338510D01*
X95118761Y-127334764D01*
X94908312Y-127278375D01*
X94897519Y-127276472D01*
X94680475Y-127257483D01*
X94669525Y-127257483D01*
X94452481Y-127276472D01*
X94441688Y-127278375D01*
X94231239Y-127334764D01*
X94220947Y-127338510D01*
X94023489Y-127430586D01*
X94013994Y-127436069D01*
X93961952Y-127472509D01*
X93953576Y-127482988D01*
X92633886Y-127482988D01*
X92618920Y-127472509D01*
X92561749Y-127432477D01*
X92556767Y-127430154D01*
X92556762Y-127430151D01*
X92359225Y-127338039D01*
X92359224Y-127338039D01*
X92354243Y-127335716D01*
X92348935Y-127334294D01*
X92348933Y-127334293D01*
X92138402Y-127277881D01*
X92138400Y-127277881D01*
X92133087Y-127276457D01*
X91905000Y-127256502D01*
X91676913Y-127276457D01*
X91671600Y-127277881D01*
X91671598Y-127277881D01*
X91461067Y-127334293D01*
X91461065Y-127334294D01*
X91455757Y-127335716D01*
X91450776Y-127338039D01*
X91450775Y-127338039D01*
X91253238Y-127430151D01*
X91253233Y-127430154D01*
X91248251Y-127432477D01*
X91191080Y-127472509D01*
X91065211Y-127560643D01*
X91065208Y-127560645D01*
X91060700Y-127563802D01*
X90898802Y-127725700D01*
X90895645Y-127730208D01*
X90895643Y-127730211D01*
X90866963Y-127771171D01*
X90767477Y-127913251D01*
X90765154Y-127918233D01*
X90765151Y-127918238D01*
X90673039Y-128115775D01*
X90670716Y-128120757D01*
X90669294Y-128126064D01*
X90669293Y-128126067D01*
X90625463Y-128289642D01*
X90611457Y-128341913D01*
X90591502Y-128570000D01*
X90611457Y-128798087D01*
X90612881Y-128803400D01*
X90612881Y-128803402D01*
X90650025Y-128942022D01*
X90670716Y-129019243D01*
X90673039Y-129024224D01*
X90673039Y-129024225D01*
X90765151Y-129221762D01*
X90765154Y-129221767D01*
X90767477Y-129226749D01*
X90898802Y-129414300D01*
X91060700Y-129576198D01*
X91065208Y-129579355D01*
X91065211Y-129579357D01*
X91143389Y-129634098D01*
X91248251Y-129707523D01*
X91253233Y-129709846D01*
X91253238Y-129709849D01*
X91449765Y-129801490D01*
X91455757Y-129804284D01*
X91461067Y-129805707D01*
X91464892Y-129807099D01*
X91522063Y-129849193D01*
X91547401Y-129915515D01*
X91532860Y-129985006D01*
X91483058Y-130035605D01*
X91421797Y-130051500D01*
X70981371Y-130051500D01*
X70913250Y-130031498D01*
X70892276Y-130014595D01*
X68530278Y-127652597D01*
X68496252Y-127590285D01*
X68501317Y-127519470D01*
X68543864Y-127462634D01*
X68552074Y-127457351D01*
X68556705Y-127455615D01*
X68590682Y-127430151D01*
X68666081Y-127373642D01*
X68673261Y-127368261D01*
X68760615Y-127251705D01*
X68798743Y-127150000D01*
X81046540Y-127150000D01*
X81066359Y-127465020D01*
X81125505Y-127775072D01*
X81223044Y-128075266D01*
X81224731Y-128078852D01*
X81224733Y-128078856D01*
X81355750Y-128357283D01*
X81355754Y-128357290D01*
X81357438Y-128360869D01*
X81526568Y-128627375D01*
X81727767Y-128870582D01*
X81957860Y-129086654D01*
X82213221Y-129272184D01*
X82216690Y-129274091D01*
X82216693Y-129274093D01*
X82478816Y-129418197D01*
X82489821Y-129424247D01*
X82493490Y-129425700D01*
X82493495Y-129425702D01*
X82779628Y-129538990D01*
X82783298Y-129540443D01*
X83089025Y-129618940D01*
X83402179Y-129658500D01*
X83717821Y-129658500D01*
X84030975Y-129618940D01*
X84336702Y-129540443D01*
X84340372Y-129538990D01*
X84626505Y-129425702D01*
X84626510Y-129425700D01*
X84630179Y-129424247D01*
X84641184Y-129418197D01*
X84903307Y-129274093D01*
X84903310Y-129274091D01*
X84906779Y-129272184D01*
X85162140Y-129086654D01*
X85392233Y-128870582D01*
X85593432Y-128627375D01*
X85762562Y-128360869D01*
X85764246Y-128357290D01*
X85764250Y-128357283D01*
X85895267Y-128078856D01*
X85895269Y-128078852D01*
X85896956Y-128075266D01*
X85994495Y-127775072D01*
X86053641Y-127465020D01*
X86073460Y-127150000D01*
X106046540Y-127150000D01*
X106066359Y-127465020D01*
X106125505Y-127775072D01*
X106223044Y-128075266D01*
X106224731Y-128078852D01*
X106224733Y-128078856D01*
X106355750Y-128357283D01*
X106355754Y-128357290D01*
X106357438Y-128360869D01*
X106526568Y-128627375D01*
X106727767Y-128870582D01*
X106957860Y-129086654D01*
X107213221Y-129272184D01*
X107216690Y-129274091D01*
X107216693Y-129274093D01*
X107478816Y-129418197D01*
X107489821Y-129424247D01*
X107493490Y-129425700D01*
X107493495Y-129425702D01*
X107779628Y-129538990D01*
X107783298Y-129540443D01*
X108089025Y-129618940D01*
X108402179Y-129658500D01*
X108717821Y-129658500D01*
X109030975Y-129618940D01*
X109336702Y-129540443D01*
X109340372Y-129538990D01*
X109626505Y-129425702D01*
X109626510Y-129425700D01*
X109630179Y-129424247D01*
X109641184Y-129418197D01*
X109903307Y-129274093D01*
X109903310Y-129274091D01*
X109906779Y-129272184D01*
X110162140Y-129086654D01*
X110392233Y-128870582D01*
X110593432Y-128627375D01*
X110762562Y-128360869D01*
X110764246Y-128357290D01*
X110764250Y-128357283D01*
X110895267Y-128078856D01*
X110895269Y-128078852D01*
X110896956Y-128075266D01*
X110994495Y-127775072D01*
X111053641Y-127465020D01*
X111073460Y-127150000D01*
X111053641Y-126834980D01*
X110994495Y-126524928D01*
X110896956Y-126224734D01*
X110889503Y-126208895D01*
X110764250Y-125942717D01*
X110764246Y-125942710D01*
X110762562Y-125939131D01*
X110593432Y-125672625D01*
X110434627Y-125480663D01*
X110394758Y-125432470D01*
X110394757Y-125432469D01*
X110392233Y-125429418D01*
X110162140Y-125213346D01*
X109906779Y-125027816D01*
X109732170Y-124931823D01*
X109633648Y-124877660D01*
X109633647Y-124877659D01*
X109630179Y-124875753D01*
X109626510Y-124874300D01*
X109626505Y-124874298D01*
X109340372Y-124761010D01*
X109340371Y-124761010D01*
X109336702Y-124759557D01*
X109030975Y-124681060D01*
X108717821Y-124641500D01*
X108402179Y-124641500D01*
X108089025Y-124681060D01*
X107783298Y-124759557D01*
X107779629Y-124761010D01*
X107779628Y-124761010D01*
X107493495Y-124874298D01*
X107493490Y-124874300D01*
X107489821Y-124875753D01*
X107486353Y-124877659D01*
X107486352Y-124877660D01*
X107387831Y-124931823D01*
X107213221Y-125027816D01*
X106957860Y-125213346D01*
X106727767Y-125429418D01*
X106725243Y-125432469D01*
X106725242Y-125432470D01*
X106685373Y-125480663D01*
X106526568Y-125672625D01*
X106357438Y-125939131D01*
X106355754Y-125942710D01*
X106355750Y-125942717D01*
X106230497Y-126208895D01*
X106223044Y-126224734D01*
X106125505Y-126524928D01*
X106066359Y-126834980D01*
X106046540Y-127150000D01*
X86073460Y-127150000D01*
X86053641Y-126834980D01*
X85994495Y-126524928D01*
X85896956Y-126224734D01*
X85889503Y-126208895D01*
X85764250Y-125942717D01*
X85764246Y-125942710D01*
X85762562Y-125939131D01*
X85629843Y-125730000D01*
X89206502Y-125730000D01*
X89226457Y-125958087D01*
X89285716Y-126179243D01*
X89288039Y-126184224D01*
X89288039Y-126184225D01*
X89380151Y-126381762D01*
X89380154Y-126381767D01*
X89382477Y-126386749D01*
X89445789Y-126477167D01*
X89486016Y-126534617D01*
X89513802Y-126574300D01*
X89675700Y-126736198D01*
X89680208Y-126739355D01*
X89680211Y-126739357D01*
X89719831Y-126767099D01*
X89863251Y-126867523D01*
X89868233Y-126869846D01*
X89868238Y-126869849D01*
X90065775Y-126961961D01*
X90070757Y-126964284D01*
X90076065Y-126965706D01*
X90076067Y-126965707D01*
X90286598Y-127022119D01*
X90286600Y-127022119D01*
X90291913Y-127023543D01*
X90520000Y-127043498D01*
X90748087Y-127023543D01*
X90753400Y-127022119D01*
X90753402Y-127022119D01*
X90963933Y-126965707D01*
X90963935Y-126965706D01*
X90969243Y-126964284D01*
X90974225Y-126961961D01*
X91171762Y-126869849D01*
X91171767Y-126869846D01*
X91176749Y-126867523D01*
X91320169Y-126767099D01*
X91359789Y-126739357D01*
X91359792Y-126739355D01*
X91364300Y-126736198D01*
X91526198Y-126574300D01*
X91553985Y-126534617D01*
X91594211Y-126477167D01*
X91657523Y-126386749D01*
X91659846Y-126381767D01*
X91659849Y-126381762D01*
X91751961Y-126184225D01*
X91751961Y-126184224D01*
X91754284Y-126179243D01*
X91783293Y-126070981D01*
X91820245Y-126010358D01*
X91884106Y-125979337D01*
X91954600Y-125987765D01*
X92009347Y-126032968D01*
X92026707Y-126070981D01*
X92055716Y-126179243D01*
X92058039Y-126184224D01*
X92058039Y-126184225D01*
X92150151Y-126381762D01*
X92150154Y-126381767D01*
X92152477Y-126386749D01*
X92215789Y-126477167D01*
X92256016Y-126534617D01*
X92283802Y-126574300D01*
X92445700Y-126736198D01*
X92450208Y-126739355D01*
X92450211Y-126739357D01*
X92489831Y-126767099D01*
X92633251Y-126867523D01*
X92638233Y-126869846D01*
X92638238Y-126869849D01*
X92835775Y-126961961D01*
X92840757Y-126964284D01*
X92846065Y-126965706D01*
X92846067Y-126965707D01*
X93056598Y-127022119D01*
X93056600Y-127022119D01*
X93061913Y-127023543D01*
X93290000Y-127043498D01*
X93518087Y-127023543D01*
X93523400Y-127022119D01*
X93523402Y-127022119D01*
X93733933Y-126965707D01*
X93733935Y-126965706D01*
X93739243Y-126964284D01*
X93744225Y-126961961D01*
X93941762Y-126869849D01*
X93941767Y-126869846D01*
X93946749Y-126867523D01*
X94090169Y-126767099D01*
X94129789Y-126739357D01*
X94129792Y-126739355D01*
X94134300Y-126736198D01*
X94296198Y-126574300D01*
X94323985Y-126534617D01*
X94364211Y-126477167D01*
X94427523Y-126386749D01*
X94429846Y-126381767D01*
X94429849Y-126381762D01*
X94521961Y-126184225D01*
X94521961Y-126184224D01*
X94524284Y-126179243D01*
X94553293Y-126070981D01*
X94590245Y-126010358D01*
X94654106Y-125979337D01*
X94724600Y-125987765D01*
X94779347Y-126032968D01*
X94796707Y-126070981D01*
X94825716Y-126179243D01*
X94828039Y-126184224D01*
X94828039Y-126184225D01*
X94920151Y-126381762D01*
X94920154Y-126381767D01*
X94922477Y-126386749D01*
X94985789Y-126477167D01*
X95026016Y-126534617D01*
X95053802Y-126574300D01*
X95215700Y-126736198D01*
X95220208Y-126739355D01*
X95220211Y-126739357D01*
X95259831Y-126767099D01*
X95403251Y-126867523D01*
X95408233Y-126869846D01*
X95408238Y-126869849D01*
X95605775Y-126961961D01*
X95610757Y-126964284D01*
X95616065Y-126965706D01*
X95616067Y-126965707D01*
X95826598Y-127022119D01*
X95826600Y-127022119D01*
X95831913Y-127023543D01*
X96060000Y-127043498D01*
X96288087Y-127023543D01*
X96293400Y-127022119D01*
X96293402Y-127022119D01*
X96503933Y-126965707D01*
X96503935Y-126965706D01*
X96509243Y-126964284D01*
X96514225Y-126961961D01*
X96711762Y-126869849D01*
X96711767Y-126869846D01*
X96716749Y-126867523D01*
X96860169Y-126767099D01*
X96899789Y-126739357D01*
X96899792Y-126739355D01*
X96904300Y-126736198D01*
X97066198Y-126574300D01*
X97093985Y-126534617D01*
X97134211Y-126477167D01*
X97197523Y-126386749D01*
X97199846Y-126381767D01*
X97199849Y-126381762D01*
X97291961Y-126184225D01*
X97291961Y-126184224D01*
X97294284Y-126179243D01*
X97323293Y-126070981D01*
X97360245Y-126010358D01*
X97424106Y-125979337D01*
X97494600Y-125987765D01*
X97549347Y-126032968D01*
X97566707Y-126070981D01*
X97595716Y-126179243D01*
X97598039Y-126184224D01*
X97598039Y-126184225D01*
X97690151Y-126381762D01*
X97690154Y-126381767D01*
X97692477Y-126386749D01*
X97755789Y-126477167D01*
X97796016Y-126534617D01*
X97823802Y-126574300D01*
X97985700Y-126736198D01*
X97990208Y-126739355D01*
X97990211Y-126739357D01*
X98029831Y-126767099D01*
X98173251Y-126867523D01*
X98178233Y-126869846D01*
X98178238Y-126869849D01*
X98375775Y-126961961D01*
X98380757Y-126964284D01*
X98386065Y-126965706D01*
X98386067Y-126965707D01*
X98596598Y-127022119D01*
X98596600Y-127022119D01*
X98601913Y-127023543D01*
X98830000Y-127043498D01*
X99058087Y-127023543D01*
X99063400Y-127022119D01*
X99063402Y-127022119D01*
X99273933Y-126965707D01*
X99273935Y-126965706D01*
X99279243Y-126964284D01*
X99284225Y-126961961D01*
X99481762Y-126869849D01*
X99481767Y-126869846D01*
X99486749Y-126867523D01*
X99630169Y-126767099D01*
X99669789Y-126739357D01*
X99669792Y-126739355D01*
X99674300Y-126736198D01*
X99836198Y-126574300D01*
X99863985Y-126534617D01*
X99904211Y-126477167D01*
X99967523Y-126386749D01*
X99969846Y-126381767D01*
X99969849Y-126381762D01*
X100051305Y-126207077D01*
X100098222Y-126153792D01*
X100166499Y-126134331D01*
X100234459Y-126154873D01*
X100280525Y-126208895D01*
X100291500Y-126260327D01*
X100291500Y-126578134D01*
X100298255Y-126640316D01*
X100349385Y-126776705D01*
X100436739Y-126893261D01*
X100553295Y-126980615D01*
X100689684Y-127031745D01*
X100751866Y-127038500D01*
X102448134Y-127038500D01*
X102510316Y-127031745D01*
X102646705Y-126980615D01*
X102763261Y-126893261D01*
X102850615Y-126776705D01*
X102901745Y-126640316D01*
X102908500Y-126578134D01*
X102908500Y-124881866D01*
X102901745Y-124819684D01*
X102850615Y-124683295D01*
X102763261Y-124566739D01*
X102646705Y-124479385D01*
X102510316Y-124428255D01*
X102448134Y-124421500D01*
X100751866Y-124421500D01*
X100689684Y-124428255D01*
X100553295Y-124479385D01*
X100436739Y-124566739D01*
X100349385Y-124683295D01*
X100298255Y-124819684D01*
X100291500Y-124881866D01*
X100291500Y-125199673D01*
X100271498Y-125267794D01*
X100217842Y-125314287D01*
X100147568Y-125324391D01*
X100082988Y-125294897D01*
X100051305Y-125252923D01*
X99969849Y-125078238D01*
X99969846Y-125078233D01*
X99967523Y-125073251D01*
X99836198Y-124885700D01*
X99674300Y-124723802D01*
X99669792Y-124720645D01*
X99669789Y-124720643D01*
X99567356Y-124648919D01*
X99486749Y-124592477D01*
X99481767Y-124590154D01*
X99481762Y-124590151D01*
X99284225Y-124498039D01*
X99284224Y-124498039D01*
X99279243Y-124495716D01*
X99273935Y-124494294D01*
X99273933Y-124494293D01*
X99063402Y-124437881D01*
X99063400Y-124437881D01*
X99058087Y-124436457D01*
X98830000Y-124416502D01*
X98601913Y-124436457D01*
X98596600Y-124437881D01*
X98596598Y-124437881D01*
X98386067Y-124494293D01*
X98386065Y-124494294D01*
X98380757Y-124495716D01*
X98375776Y-124498039D01*
X98375775Y-124498039D01*
X98178238Y-124590151D01*
X98178233Y-124590154D01*
X98173251Y-124592477D01*
X98092644Y-124648919D01*
X97990211Y-124720643D01*
X97990208Y-124720645D01*
X97985700Y-124723802D01*
X97823802Y-124885700D01*
X97692477Y-125073251D01*
X97690154Y-125078233D01*
X97690151Y-125078238D01*
X97611690Y-125246500D01*
X97595716Y-125280757D01*
X97594294Y-125286065D01*
X97594293Y-125286067D01*
X97566707Y-125389019D01*
X97529755Y-125449642D01*
X97465894Y-125480663D01*
X97395400Y-125472235D01*
X97340653Y-125427032D01*
X97323293Y-125389019D01*
X97295707Y-125286067D01*
X97295706Y-125286065D01*
X97294284Y-125280757D01*
X97278310Y-125246500D01*
X97199849Y-125078238D01*
X97199846Y-125078233D01*
X97197523Y-125073251D01*
X97066198Y-124885700D01*
X96904300Y-124723802D01*
X96899792Y-124720645D01*
X96899789Y-124720643D01*
X96797356Y-124648919D01*
X96716749Y-124592477D01*
X96711767Y-124590154D01*
X96711762Y-124590151D01*
X96514225Y-124498039D01*
X96514224Y-124498039D01*
X96509243Y-124495716D01*
X96503935Y-124494294D01*
X96503933Y-124494293D01*
X96293402Y-124437881D01*
X96293400Y-124437881D01*
X96288087Y-124436457D01*
X96060000Y-124416502D01*
X95831913Y-124436457D01*
X95826600Y-124437881D01*
X95826598Y-124437881D01*
X95616067Y-124494293D01*
X95616065Y-124494294D01*
X95610757Y-124495716D01*
X95605776Y-124498039D01*
X95605775Y-124498039D01*
X95408238Y-124590151D01*
X95408233Y-124590154D01*
X95403251Y-124592477D01*
X95322644Y-124648919D01*
X95220211Y-124720643D01*
X95220208Y-124720645D01*
X95215700Y-124723802D01*
X95053802Y-124885700D01*
X94922477Y-125073251D01*
X94920154Y-125078233D01*
X94920151Y-125078238D01*
X94841690Y-125246500D01*
X94825716Y-125280757D01*
X94824294Y-125286065D01*
X94824293Y-125286067D01*
X94796707Y-125389019D01*
X94759755Y-125449642D01*
X94695894Y-125480663D01*
X94625400Y-125472235D01*
X94570653Y-125427032D01*
X94553293Y-125389019D01*
X94525707Y-125286067D01*
X94525706Y-125286065D01*
X94524284Y-125280757D01*
X94508310Y-125246500D01*
X94429849Y-125078238D01*
X94429846Y-125078233D01*
X94427523Y-125073251D01*
X94296198Y-124885700D01*
X94134300Y-124723802D01*
X94129792Y-124720645D01*
X94129789Y-124720643D01*
X94027356Y-124648919D01*
X93946749Y-124592477D01*
X93941767Y-124590154D01*
X93941762Y-124590151D01*
X93744225Y-124498039D01*
X93744224Y-124498039D01*
X93739243Y-124495716D01*
X93733935Y-124494294D01*
X93733933Y-124494293D01*
X93523402Y-124437881D01*
X93523400Y-124437881D01*
X93518087Y-124436457D01*
X93290000Y-124416502D01*
X93061913Y-124436457D01*
X93056600Y-124437881D01*
X93056598Y-124437881D01*
X92846067Y-124494293D01*
X92846065Y-124494294D01*
X92840757Y-124495716D01*
X92835776Y-124498039D01*
X92835775Y-124498039D01*
X92638238Y-124590151D01*
X92638233Y-124590154D01*
X92633251Y-124592477D01*
X92552644Y-124648919D01*
X92450211Y-124720643D01*
X92450208Y-124720645D01*
X92445700Y-124723802D01*
X92283802Y-124885700D01*
X92152477Y-125073251D01*
X92150154Y-125078233D01*
X92150151Y-125078238D01*
X92071690Y-125246500D01*
X92055716Y-125280757D01*
X92054294Y-125286065D01*
X92054293Y-125286067D01*
X92026707Y-125389019D01*
X91989755Y-125449642D01*
X91925894Y-125480663D01*
X91855400Y-125472235D01*
X91800653Y-125427032D01*
X91783293Y-125389019D01*
X91755707Y-125286067D01*
X91755706Y-125286065D01*
X91754284Y-125280757D01*
X91738310Y-125246500D01*
X91659849Y-125078238D01*
X91659846Y-125078233D01*
X91657523Y-125073251D01*
X91526198Y-124885700D01*
X91364300Y-124723802D01*
X91359792Y-124720645D01*
X91359789Y-124720643D01*
X91257356Y-124648919D01*
X91176749Y-124592477D01*
X91171767Y-124590154D01*
X91171762Y-124590151D01*
X90974225Y-124498039D01*
X90974224Y-124498039D01*
X90969243Y-124495716D01*
X90963935Y-124494294D01*
X90963933Y-124494293D01*
X90753402Y-124437881D01*
X90753400Y-124437881D01*
X90748087Y-124436457D01*
X90520000Y-124416502D01*
X90291913Y-124436457D01*
X90286600Y-124437881D01*
X90286598Y-124437881D01*
X90076067Y-124494293D01*
X90076065Y-124494294D01*
X90070757Y-124495716D01*
X90065776Y-124498039D01*
X90065775Y-124498039D01*
X89868238Y-124590151D01*
X89868233Y-124590154D01*
X89863251Y-124592477D01*
X89782644Y-124648919D01*
X89680211Y-124720643D01*
X89680208Y-124720645D01*
X89675700Y-124723802D01*
X89513802Y-124885700D01*
X89382477Y-125073251D01*
X89380154Y-125078233D01*
X89380151Y-125078238D01*
X89301690Y-125246500D01*
X89285716Y-125280757D01*
X89284294Y-125286065D01*
X89284293Y-125286067D01*
X89246521Y-125427032D01*
X89226457Y-125501913D01*
X89206502Y-125730000D01*
X85629843Y-125730000D01*
X85593432Y-125672625D01*
X85434627Y-125480663D01*
X85394758Y-125432470D01*
X85394757Y-125432469D01*
X85392233Y-125429418D01*
X85162140Y-125213346D01*
X84906779Y-125027816D01*
X84732170Y-124931823D01*
X84633648Y-124877660D01*
X84633647Y-124877659D01*
X84630179Y-124875753D01*
X84626510Y-124874300D01*
X84626505Y-124874298D01*
X84340372Y-124761010D01*
X84340371Y-124761010D01*
X84336702Y-124759557D01*
X84030975Y-124681060D01*
X83717821Y-124641500D01*
X83402179Y-124641500D01*
X83089025Y-124681060D01*
X82783298Y-124759557D01*
X82779629Y-124761010D01*
X82779628Y-124761010D01*
X82493495Y-124874298D01*
X82493490Y-124874300D01*
X82489821Y-124875753D01*
X82486353Y-124877659D01*
X82486352Y-124877660D01*
X82387831Y-124931823D01*
X82213221Y-125027816D01*
X81957860Y-125213346D01*
X81727767Y-125429418D01*
X81725243Y-125432469D01*
X81725242Y-125432470D01*
X81685373Y-125480663D01*
X81526568Y-125672625D01*
X81357438Y-125939131D01*
X81355754Y-125942710D01*
X81355750Y-125942717D01*
X81230497Y-126208895D01*
X81223044Y-126224734D01*
X81125505Y-126524928D01*
X81066359Y-126834980D01*
X81046540Y-127150000D01*
X68798743Y-127150000D01*
X68811745Y-127115316D01*
X68818500Y-127053134D01*
X68818500Y-126889500D01*
X68838502Y-126821379D01*
X68892158Y-126774886D01*
X68944500Y-126763500D01*
X77127930Y-126763500D01*
X77146880Y-126764933D01*
X77161115Y-126767099D01*
X77161119Y-126767099D01*
X77168349Y-126768199D01*
X77175641Y-126767606D01*
X77175644Y-126767606D01*
X77221018Y-126763915D01*
X77231233Y-126763500D01*
X77239293Y-126763500D01*
X77252583Y-126761951D01*
X77267507Y-126760211D01*
X77271882Y-126759778D01*
X77337339Y-126754454D01*
X77337342Y-126754453D01*
X77344637Y-126753860D01*
X77351601Y-126751604D01*
X77357560Y-126750413D01*
X77363415Y-126749029D01*
X77370681Y-126748182D01*
X77439327Y-126723265D01*
X77443455Y-126721848D01*
X77505936Y-126701607D01*
X77505938Y-126701606D01*
X77512899Y-126699351D01*
X77519154Y-126695555D01*
X77524628Y-126693049D01*
X77530058Y-126690330D01*
X77536937Y-126687833D01*
X77597976Y-126647814D01*
X77601680Y-126645477D01*
X77664107Y-126607595D01*
X77672484Y-126600197D01*
X77672508Y-126600224D01*
X77675500Y-126597571D01*
X77678733Y-126594868D01*
X77684852Y-126590856D01*
X77738128Y-126534617D01*
X77740506Y-126532175D01*
X83557010Y-120715671D01*
X83619322Y-120681645D01*
X83657087Y-120679245D01*
X83814525Y-120693019D01*
X83820000Y-120693498D01*
X84048087Y-120673543D01*
X84053400Y-120672119D01*
X84053402Y-120672119D01*
X84263933Y-120615707D01*
X84263935Y-120615706D01*
X84269243Y-120614284D01*
X84274225Y-120611961D01*
X84471762Y-120519849D01*
X84471767Y-120519846D01*
X84476749Y-120517523D01*
X84581611Y-120444098D01*
X84659789Y-120389357D01*
X84659792Y-120389355D01*
X84664300Y-120386198D01*
X84826198Y-120224300D01*
X84848655Y-120192229D01*
X84904110Y-120147901D01*
X84951867Y-120138500D01*
X90483930Y-120138500D01*
X90502880Y-120139933D01*
X90517115Y-120142099D01*
X90517119Y-120142099D01*
X90524349Y-120143199D01*
X90531641Y-120142606D01*
X90531644Y-120142606D01*
X90577018Y-120138915D01*
X90587233Y-120138500D01*
X90595293Y-120138500D01*
X90608583Y-120136951D01*
X90623507Y-120135211D01*
X90627882Y-120134778D01*
X90693339Y-120129454D01*
X90693342Y-120129453D01*
X90700637Y-120128860D01*
X90707601Y-120126604D01*
X90713560Y-120125413D01*
X90719415Y-120124029D01*
X90726681Y-120123182D01*
X90795327Y-120098265D01*
X90799455Y-120096848D01*
X90861936Y-120076607D01*
X90861938Y-120076606D01*
X90868899Y-120074351D01*
X90875154Y-120070555D01*
X90880628Y-120068049D01*
X90886058Y-120065330D01*
X90892937Y-120062833D01*
X90928071Y-120039798D01*
X90953976Y-120022814D01*
X90957680Y-120020477D01*
X91020107Y-119982595D01*
X91028484Y-119975197D01*
X91028508Y-119975224D01*
X91031500Y-119972571D01*
X91034733Y-119969868D01*
X91040852Y-119965856D01*
X91094128Y-119909617D01*
X91096506Y-119907175D01*
X91623681Y-119380000D01*
X92666502Y-119380000D01*
X92686457Y-119608087D01*
X92687881Y-119613400D01*
X92687881Y-119613402D01*
X92708308Y-119689634D01*
X92745716Y-119829243D01*
X92748039Y-119834224D01*
X92748039Y-119834225D01*
X92840151Y-120031762D01*
X92840154Y-120031767D01*
X92842477Y-120036749D01*
X92973802Y-120224300D01*
X93135700Y-120386198D01*
X93140208Y-120389355D01*
X93140211Y-120389357D01*
X93218389Y-120444098D01*
X93323251Y-120517523D01*
X93328233Y-120519846D01*
X93328238Y-120519849D01*
X93525775Y-120611961D01*
X93530757Y-120614284D01*
X93536065Y-120615706D01*
X93536067Y-120615707D01*
X93746598Y-120672119D01*
X93746600Y-120672119D01*
X93751913Y-120673543D01*
X93980000Y-120693498D01*
X94208087Y-120673543D01*
X94213400Y-120672119D01*
X94213402Y-120672119D01*
X94423933Y-120615707D01*
X94423935Y-120615706D01*
X94429243Y-120614284D01*
X94434225Y-120611961D01*
X94631762Y-120519849D01*
X94631767Y-120519846D01*
X94636749Y-120517523D01*
X94741611Y-120444098D01*
X94819789Y-120389357D01*
X94819792Y-120389355D01*
X94824300Y-120386198D01*
X94986198Y-120224300D01*
X95117523Y-120036749D01*
X95119846Y-120031767D01*
X95119849Y-120031762D01*
X95211961Y-119834225D01*
X95211961Y-119834224D01*
X95214284Y-119829243D01*
X95251693Y-119689634D01*
X95272119Y-119613402D01*
X95272119Y-119613400D01*
X95273543Y-119608087D01*
X95293498Y-119380000D01*
X95273543Y-119151913D01*
X95214284Y-118930757D01*
X95179969Y-118857167D01*
X95119849Y-118728238D01*
X95119846Y-118728233D01*
X95117523Y-118723251D01*
X94986198Y-118535700D01*
X94824300Y-118373802D01*
X94819792Y-118370645D01*
X94819789Y-118370643D01*
X94731979Y-118309158D01*
X94636749Y-118242477D01*
X94631767Y-118240154D01*
X94631762Y-118240151D01*
X94434225Y-118148039D01*
X94434224Y-118148039D01*
X94429243Y-118145716D01*
X94423935Y-118144294D01*
X94423933Y-118144293D01*
X94213402Y-118087881D01*
X94213400Y-118087881D01*
X94208087Y-118086457D01*
X93980000Y-118066502D01*
X93751913Y-118086457D01*
X93746600Y-118087881D01*
X93746598Y-118087881D01*
X93536067Y-118144293D01*
X93536065Y-118144294D01*
X93530757Y-118145716D01*
X93525776Y-118148039D01*
X93525775Y-118148039D01*
X93328238Y-118240151D01*
X93328233Y-118240154D01*
X93323251Y-118242477D01*
X93228021Y-118309158D01*
X93140211Y-118370643D01*
X93140208Y-118370645D01*
X93135700Y-118373802D01*
X92973802Y-118535700D01*
X92842477Y-118723251D01*
X92840154Y-118728233D01*
X92840151Y-118728238D01*
X92780031Y-118857167D01*
X92745716Y-118930757D01*
X92686457Y-119151913D01*
X92666502Y-119380000D01*
X91623681Y-119380000D01*
X95908276Y-115095405D01*
X95970588Y-115061379D01*
X95997371Y-115058500D01*
X99198133Y-115058500D01*
X99266254Y-115078502D01*
X99301345Y-115112228D01*
X99323802Y-115144300D01*
X99485700Y-115306198D01*
X99490208Y-115309355D01*
X99490211Y-115309357D01*
X99568389Y-115364098D01*
X99673251Y-115437523D01*
X99678233Y-115439846D01*
X99678238Y-115439849D01*
X99875775Y-115531961D01*
X99880757Y-115534284D01*
X99886065Y-115535706D01*
X99886067Y-115535707D01*
X100096598Y-115592119D01*
X100096600Y-115592119D01*
X100101913Y-115593543D01*
X100330000Y-115613498D01*
X100558087Y-115593543D01*
X100563400Y-115592119D01*
X100563402Y-115592119D01*
X100773933Y-115535707D01*
X100773935Y-115535706D01*
X100779243Y-115534284D01*
X100784225Y-115531961D01*
X100981762Y-115439849D01*
X100981767Y-115439846D01*
X100986749Y-115437523D01*
X101091611Y-115364098D01*
X101169789Y-115309357D01*
X101169792Y-115309355D01*
X101174300Y-115306198D01*
X101336198Y-115144300D01*
X101467523Y-114956749D01*
X101469846Y-114951767D01*
X101469849Y-114951762D01*
X101561961Y-114754225D01*
X101561961Y-114754224D01*
X101564284Y-114749243D01*
X101601693Y-114609634D01*
X101622119Y-114533402D01*
X101622120Y-114533398D01*
X101623543Y-114528087D01*
X101643498Y-114300000D01*
X101623543Y-114071913D01*
X101564284Y-113850757D01*
X101527944Y-113772825D01*
X101469849Y-113648238D01*
X101469846Y-113648233D01*
X101467523Y-113643251D01*
X101358654Y-113487770D01*
X101339357Y-113460211D01*
X101339355Y-113460208D01*
X101336198Y-113455700D01*
X101174300Y-113293802D01*
X101169792Y-113290645D01*
X101169789Y-113290643D01*
X101066269Y-113218158D01*
X100986749Y-113162477D01*
X100981767Y-113160154D01*
X100981762Y-113160151D01*
X100784225Y-113068039D01*
X100784224Y-113068039D01*
X100779243Y-113065716D01*
X100773935Y-113064294D01*
X100773933Y-113064293D01*
X100563402Y-113007881D01*
X100563400Y-113007881D01*
X100558087Y-113006457D01*
X100330000Y-112986502D01*
X100101913Y-113006457D01*
X100096600Y-113007881D01*
X100096598Y-113007881D01*
X99886067Y-113064293D01*
X99886065Y-113064294D01*
X99880757Y-113065716D01*
X99875776Y-113068039D01*
X99875775Y-113068039D01*
X99678238Y-113160151D01*
X99678233Y-113160154D01*
X99673251Y-113162477D01*
X99593731Y-113218158D01*
X99490211Y-113290643D01*
X99490208Y-113290645D01*
X99485700Y-113293802D01*
X99323802Y-113455700D01*
X99301345Y-113487771D01*
X99245890Y-113532099D01*
X99198133Y-113541500D01*
X95698070Y-113541500D01*
X95679120Y-113540067D01*
X95664885Y-113537901D01*
X95664881Y-113537901D01*
X95657651Y-113536801D01*
X95650359Y-113537394D01*
X95650356Y-113537394D01*
X95604982Y-113541085D01*
X95594767Y-113541500D01*
X95586707Y-113541500D01*
X95583073Y-113541924D01*
X95583067Y-113541924D01*
X95570042Y-113543443D01*
X95558480Y-113544791D01*
X95554132Y-113545221D01*
X95481364Y-113551140D01*
X95474403Y-113553395D01*
X95468463Y-113554582D01*
X95462588Y-113555971D01*
X95455319Y-113556818D01*
X95386670Y-113581736D01*
X95382542Y-113583153D01*
X95320064Y-113603393D01*
X95320062Y-113603394D01*
X95313101Y-113605649D01*
X95306846Y-113609445D01*
X95301372Y-113611951D01*
X95295942Y-113614670D01*
X95289063Y-113617167D01*
X95282943Y-113621180D01*
X95282942Y-113621180D01*
X95228024Y-113657186D01*
X95224320Y-113659523D01*
X95161893Y-113697405D01*
X95153516Y-113704803D01*
X95153492Y-113704776D01*
X95150500Y-113707429D01*
X95147267Y-113710132D01*
X95141148Y-113714144D01*
X95136116Y-113719456D01*
X95087872Y-113770383D01*
X95085494Y-113772825D01*
X94215591Y-114642728D01*
X94153279Y-114676754D01*
X94082464Y-114671689D01*
X94025628Y-114629142D01*
X94000817Y-114562622D01*
X94002374Y-114532449D01*
X94003543Y-114528087D01*
X94023498Y-114300000D01*
X94003543Y-114071913D01*
X93944284Y-113850757D01*
X93907944Y-113772825D01*
X93849849Y-113648238D01*
X93849846Y-113648233D01*
X93847523Y-113643251D01*
X93738654Y-113487770D01*
X93719357Y-113460211D01*
X93719355Y-113460208D01*
X93716198Y-113455700D01*
X93554300Y-113293802D01*
X93549792Y-113290645D01*
X93549789Y-113290643D01*
X93446269Y-113218158D01*
X93366749Y-113162477D01*
X93361767Y-113160154D01*
X93361762Y-113160151D01*
X93164225Y-113068039D01*
X93164224Y-113068039D01*
X93159243Y-113065716D01*
X93153935Y-113064294D01*
X93153933Y-113064293D01*
X92943402Y-113007881D01*
X92943400Y-113007881D01*
X92938087Y-113006457D01*
X92710000Y-112986502D01*
X92481913Y-113006457D01*
X92476600Y-113007881D01*
X92476598Y-113007881D01*
X92266067Y-113064293D01*
X92266065Y-113064294D01*
X92260757Y-113065716D01*
X92255776Y-113068039D01*
X92255775Y-113068039D01*
X92058238Y-113160151D01*
X92058233Y-113160154D01*
X92053251Y-113162477D01*
X91973731Y-113218158D01*
X91870211Y-113290643D01*
X91870208Y-113290645D01*
X91865700Y-113293802D01*
X91703802Y-113455700D01*
X91700645Y-113460208D01*
X91700643Y-113460211D01*
X91681346Y-113487770D01*
X91572477Y-113643251D01*
X91570154Y-113648233D01*
X91570151Y-113648238D01*
X91512056Y-113772825D01*
X91475716Y-113850757D01*
X91416457Y-114071913D01*
X91396502Y-114300000D01*
X91416457Y-114528087D01*
X91425711Y-114562622D01*
X91433460Y-114591541D01*
X91431770Y-114662518D01*
X91400848Y-114713247D01*
X89182500Y-116931595D01*
X89120188Y-116965621D01*
X89093405Y-116968500D01*
X78292594Y-116968500D01*
X78224473Y-116948498D01*
X78203499Y-116931595D01*
X73822405Y-112550500D01*
X73788379Y-112488188D01*
X73785500Y-112461405D01*
X73785500Y-107266767D01*
X73786027Y-107255584D01*
X73787702Y-107248091D01*
X73785562Y-107180014D01*
X73785500Y-107176055D01*
X73785500Y-107148144D01*
X73784995Y-107144144D01*
X73784062Y-107132301D01*
X73782922Y-107096030D01*
X73782673Y-107088111D01*
X73777021Y-107068657D01*
X73773013Y-107049300D01*
X73771468Y-107037070D01*
X73771468Y-107037069D01*
X73770474Y-107029203D01*
X73759238Y-107000824D01*
X73754196Y-106988088D01*
X73750351Y-106976858D01*
X73740229Y-106942017D01*
X73740229Y-106942016D01*
X73738018Y-106934407D01*
X73733985Y-106927588D01*
X73733983Y-106927583D01*
X73727707Y-106916972D01*
X73719012Y-106899224D01*
X73711552Y-106880383D01*
X73685564Y-106844613D01*
X73679048Y-106834693D01*
X73660580Y-106803465D01*
X73660578Y-106803462D01*
X73656542Y-106796638D01*
X73642221Y-106782317D01*
X73629380Y-106767283D01*
X73617472Y-106750893D01*
X73583395Y-106722702D01*
X73574616Y-106714712D01*
X72152652Y-105292747D01*
X72145112Y-105284461D01*
X72141000Y-105277982D01*
X72091348Y-105231356D01*
X72088507Y-105228602D01*
X72068770Y-105208865D01*
X72065573Y-105206385D01*
X72056551Y-105198680D01*
X72030100Y-105173841D01*
X72024321Y-105168414D01*
X72017375Y-105164595D01*
X72017372Y-105164593D01*
X72006566Y-105158652D01*
X71990047Y-105147801D01*
X71982956Y-105142301D01*
X71974041Y-105135386D01*
X71966772Y-105132241D01*
X71966768Y-105132238D01*
X71933463Y-105117826D01*
X71922813Y-105112609D01*
X71884060Y-105091305D01*
X71864437Y-105086267D01*
X71845734Y-105079863D01*
X71834420Y-105074967D01*
X71834419Y-105074967D01*
X71827145Y-105071819D01*
X71819322Y-105070580D01*
X71819312Y-105070577D01*
X71783476Y-105064901D01*
X71771856Y-105062495D01*
X71736711Y-105053472D01*
X71736710Y-105053472D01*
X71729030Y-105051500D01*
X71708776Y-105051500D01*
X71689065Y-105049949D01*
X71676886Y-105048020D01*
X71669057Y-105046780D01*
X71661165Y-105047526D01*
X71625039Y-105050941D01*
X71613181Y-105051500D01*
X68761566Y-105051500D01*
X68693445Y-105031498D01*
X68654133Y-104991335D01*
X68536759Y-104799798D01*
X68536755Y-104799792D01*
X68534176Y-104795584D01*
X68379969Y-104615031D01*
X68376213Y-104611823D01*
X68376208Y-104611818D01*
X68257944Y-104510811D01*
X68219134Y-104451361D01*
X68218628Y-104380366D01*
X68257944Y-104319189D01*
X68376208Y-104218182D01*
X68376213Y-104218177D01*
X68379969Y-104214969D01*
X68534176Y-104034416D01*
X68536755Y-104030208D01*
X68536759Y-104030202D01*
X68654133Y-103838665D01*
X68706781Y-103791034D01*
X68761566Y-103778500D01*
X73493406Y-103778500D01*
X73561527Y-103798502D01*
X73582501Y-103815405D01*
X75148595Y-105381499D01*
X75182621Y-105443811D01*
X75185500Y-105470594D01*
X75185500Y-113205233D01*
X75184973Y-113216416D01*
X75183298Y-113223909D01*
X75183547Y-113231835D01*
X75183547Y-113231836D01*
X75185438Y-113291986D01*
X75185500Y-113295945D01*
X75185500Y-113323856D01*
X75185997Y-113327790D01*
X75185997Y-113327791D01*
X75186005Y-113327856D01*
X75186938Y-113339693D01*
X75188327Y-113383889D01*
X75193978Y-113403339D01*
X75197987Y-113422700D01*
X75200526Y-113442797D01*
X75203445Y-113450168D01*
X75203445Y-113450170D01*
X75216804Y-113483912D01*
X75220649Y-113495142D01*
X75232982Y-113537593D01*
X75237015Y-113544412D01*
X75237017Y-113544417D01*
X75243293Y-113555028D01*
X75251988Y-113572776D01*
X75259448Y-113591617D01*
X75264110Y-113598033D01*
X75264110Y-113598034D01*
X75285436Y-113627387D01*
X75291952Y-113637307D01*
X75305097Y-113659533D01*
X75314458Y-113675362D01*
X75328779Y-113689683D01*
X75341619Y-113704716D01*
X75353528Y-113721107D01*
X75359634Y-113726158D01*
X75387605Y-113749298D01*
X75396384Y-113757288D01*
X77982343Y-116343247D01*
X77989887Y-116351537D01*
X77994000Y-116358018D01*
X77999777Y-116363443D01*
X78043667Y-116404658D01*
X78046509Y-116407413D01*
X78066231Y-116427135D01*
X78069355Y-116429558D01*
X78069359Y-116429562D01*
X78069424Y-116429612D01*
X78078445Y-116437317D01*
X78110679Y-116467586D01*
X78117627Y-116471405D01*
X78117629Y-116471407D01*
X78128432Y-116477346D01*
X78144959Y-116488202D01*
X78154698Y-116495757D01*
X78154700Y-116495758D01*
X78160960Y-116500614D01*
X78201540Y-116518174D01*
X78212188Y-116523391D01*
X78236976Y-116537018D01*
X78250940Y-116544695D01*
X78258616Y-116546666D01*
X78258619Y-116546667D01*
X78270562Y-116549733D01*
X78289267Y-116556137D01*
X78307855Y-116564181D01*
X78315678Y-116565420D01*
X78315688Y-116565423D01*
X78351524Y-116571099D01*
X78363144Y-116573505D01*
X78394959Y-116581673D01*
X78405970Y-116584500D01*
X78426224Y-116584500D01*
X78445934Y-116586051D01*
X78465943Y-116589220D01*
X78473835Y-116588474D01*
X78492580Y-116586702D01*
X78509962Y-116585059D01*
X78521819Y-116584500D01*
X87170233Y-116584500D01*
X87181416Y-116585027D01*
X87188909Y-116586702D01*
X87196835Y-116586453D01*
X87196836Y-116586453D01*
X87256986Y-116584562D01*
X87260945Y-116584500D01*
X87288856Y-116584500D01*
X87292791Y-116584003D01*
X87292856Y-116583995D01*
X87304693Y-116583062D01*
X87336951Y-116582048D01*
X87340970Y-116581922D01*
X87348889Y-116581673D01*
X87368343Y-116576021D01*
X87387700Y-116572013D01*
X87399930Y-116570468D01*
X87399931Y-116570468D01*
X87407797Y-116569474D01*
X87415168Y-116566555D01*
X87415170Y-116566555D01*
X87448912Y-116553196D01*
X87460142Y-116549351D01*
X87494983Y-116539229D01*
X87494984Y-116539229D01*
X87502593Y-116537018D01*
X87509412Y-116532985D01*
X87509417Y-116532983D01*
X87520028Y-116526707D01*
X87537776Y-116518012D01*
X87556617Y-116510552D01*
X87592387Y-116484564D01*
X87602307Y-116478048D01*
X87633535Y-116459580D01*
X87633538Y-116459578D01*
X87640362Y-116455542D01*
X87654683Y-116441221D01*
X87669717Y-116428380D01*
X87671431Y-116427135D01*
X87686107Y-116416472D01*
X87714298Y-116382395D01*
X87722288Y-116373616D01*
X88486752Y-115609152D01*
X88549064Y-115575126D01*
X88608459Y-115576541D01*
X88666591Y-115592118D01*
X88666602Y-115592120D01*
X88671913Y-115593543D01*
X88900000Y-115613498D01*
X89128087Y-115593543D01*
X89133400Y-115592119D01*
X89133402Y-115592119D01*
X89343933Y-115535707D01*
X89343935Y-115535706D01*
X89349243Y-115534284D01*
X89354225Y-115531961D01*
X89551762Y-115439849D01*
X89551767Y-115439846D01*
X89556749Y-115437523D01*
X89661611Y-115364098D01*
X89739789Y-115309357D01*
X89739792Y-115309355D01*
X89744300Y-115306198D01*
X89906198Y-115144300D01*
X90037523Y-114956749D01*
X90039846Y-114951767D01*
X90039849Y-114951762D01*
X90131961Y-114754225D01*
X90131961Y-114754224D01*
X90134284Y-114749243D01*
X90171693Y-114609634D01*
X90192119Y-114533402D01*
X90192120Y-114533398D01*
X90193543Y-114528087D01*
X90213498Y-114300000D01*
X90193543Y-114071913D01*
X90134284Y-113850757D01*
X90097944Y-113772825D01*
X90039849Y-113648238D01*
X90039846Y-113648233D01*
X90037523Y-113643251D01*
X89928654Y-113487770D01*
X89909357Y-113460211D01*
X89909355Y-113460208D01*
X89906198Y-113455700D01*
X89744300Y-113293802D01*
X89739792Y-113290645D01*
X89739789Y-113290643D01*
X89636269Y-113218158D01*
X89556749Y-113162477D01*
X89551767Y-113160154D01*
X89551762Y-113160151D01*
X89354225Y-113068039D01*
X89354224Y-113068039D01*
X89349243Y-113065716D01*
X89343935Y-113064294D01*
X89343933Y-113064293D01*
X89133402Y-113007881D01*
X89133400Y-113007881D01*
X89128087Y-113006457D01*
X88900000Y-112986502D01*
X88671913Y-113006457D01*
X88666600Y-113007881D01*
X88666598Y-113007881D01*
X88456067Y-113064293D01*
X88456065Y-113064294D01*
X88450757Y-113065716D01*
X88445776Y-113068039D01*
X88445775Y-113068039D01*
X88248238Y-113160151D01*
X88248233Y-113160154D01*
X88243251Y-113162477D01*
X88163731Y-113218158D01*
X88060211Y-113290643D01*
X88060208Y-113290645D01*
X88055700Y-113293802D01*
X87893802Y-113455700D01*
X87890645Y-113460208D01*
X87890643Y-113460211D01*
X87871346Y-113487770D01*
X87762477Y-113643251D01*
X87760154Y-113648233D01*
X87760151Y-113648238D01*
X87702056Y-113772825D01*
X87665716Y-113850757D01*
X87606457Y-114071913D01*
X87586502Y-114300000D01*
X87606457Y-114528087D01*
X87607879Y-114533392D01*
X87607881Y-114533406D01*
X87623459Y-114591539D01*
X87621771Y-114662516D01*
X87590848Y-114713248D01*
X87023499Y-115280596D01*
X86961187Y-115314621D01*
X86934404Y-115317500D01*
X86216966Y-115317500D01*
X86148845Y-115297498D01*
X86102352Y-115243842D01*
X86092248Y-115173568D01*
X86113753Y-115119229D01*
X86156276Y-115058500D01*
X86227523Y-114956749D01*
X86229846Y-114951767D01*
X86229849Y-114951762D01*
X86321961Y-114754225D01*
X86321961Y-114754224D01*
X86324284Y-114749243D01*
X86361693Y-114609634D01*
X86382119Y-114533402D01*
X86382120Y-114533398D01*
X86383543Y-114528087D01*
X86403498Y-114300000D01*
X86383543Y-114071913D01*
X86324284Y-113850757D01*
X86287944Y-113772825D01*
X86229849Y-113648238D01*
X86229846Y-113648233D01*
X86227523Y-113643251D01*
X86118654Y-113487770D01*
X86099357Y-113460211D01*
X86099355Y-113460208D01*
X86096198Y-113455700D01*
X85934300Y-113293802D01*
X85929792Y-113290645D01*
X85929789Y-113290643D01*
X85826269Y-113218158D01*
X85746749Y-113162477D01*
X85741767Y-113160154D01*
X85741762Y-113160151D01*
X85544225Y-113068039D01*
X85544224Y-113068039D01*
X85539243Y-113065716D01*
X85533935Y-113064294D01*
X85533933Y-113064293D01*
X85323402Y-113007881D01*
X85323400Y-113007881D01*
X85318087Y-113006457D01*
X85090000Y-112986502D01*
X84861913Y-113006457D01*
X84856600Y-113007881D01*
X84856598Y-113007881D01*
X84646067Y-113064293D01*
X84646065Y-113064294D01*
X84640757Y-113065716D01*
X84635776Y-113068039D01*
X84635775Y-113068039D01*
X84438238Y-113160151D01*
X84438233Y-113160154D01*
X84433251Y-113162477D01*
X84353731Y-113218158D01*
X84250211Y-113290643D01*
X84250208Y-113290645D01*
X84245700Y-113293802D01*
X84083802Y-113455700D01*
X84080645Y-113460208D01*
X84080643Y-113460211D01*
X83973819Y-113612771D01*
X83918362Y-113657099D01*
X83870606Y-113666500D01*
X79943595Y-113666500D01*
X79875474Y-113646498D01*
X79854500Y-113629595D01*
X78902405Y-112677500D01*
X78868379Y-112615188D01*
X78865500Y-112588405D01*
X78865500Y-112027966D01*
X110428257Y-112027966D01*
X110458565Y-112162446D01*
X110461645Y-112172275D01*
X110541770Y-112369603D01*
X110546413Y-112378794D01*
X110657694Y-112560388D01*
X110663777Y-112568699D01*
X110803213Y-112729667D01*
X110810580Y-112736883D01*
X110974434Y-112872916D01*
X110982881Y-112878831D01*
X111166756Y-112986279D01*
X111176042Y-112990729D01*
X111375001Y-113066703D01*
X111384899Y-113069579D01*
X111488250Y-113090606D01*
X111502299Y-113089410D01*
X111506000Y-113079065D01*
X111506000Y-113078517D01*
X112014000Y-113078517D01*
X112018064Y-113092359D01*
X112031478Y-113094393D01*
X112038184Y-113093534D01*
X112048262Y-113091392D01*
X112252255Y-113030191D01*
X112261842Y-113026433D01*
X112453095Y-112932739D01*
X112461945Y-112927464D01*
X112635328Y-112803792D01*
X112643200Y-112797139D01*
X112794052Y-112646812D01*
X112800730Y-112638965D01*
X112925003Y-112466020D01*
X112930313Y-112457183D01*
X113024670Y-112266267D01*
X113028469Y-112256672D01*
X113090377Y-112052910D01*
X113092555Y-112042837D01*
X113093986Y-112031962D01*
X113091775Y-112017778D01*
X113078617Y-112014000D01*
X112032115Y-112014000D01*
X112016876Y-112018475D01*
X112015671Y-112019865D01*
X112014000Y-112027548D01*
X112014000Y-113078517D01*
X111506000Y-113078517D01*
X111506000Y-112032115D01*
X111501525Y-112016876D01*
X111500135Y-112015671D01*
X111492452Y-112014000D01*
X110443225Y-112014000D01*
X110429694Y-112017973D01*
X110428257Y-112027966D01*
X78865500Y-112027966D01*
X78865500Y-109186695D01*
X110397251Y-109186695D01*
X110397548Y-109191848D01*
X110397548Y-109191851D01*
X110403011Y-109286590D01*
X110410110Y-109409715D01*
X110411247Y-109414761D01*
X110411248Y-109414767D01*
X110421525Y-109460366D01*
X110459222Y-109627639D01*
X110543266Y-109834616D01*
X110659987Y-110025088D01*
X110806250Y-110193938D01*
X110978126Y-110336632D01*
X111051955Y-110379774D01*
X111100679Y-110431412D01*
X111113750Y-110501195D01*
X111087019Y-110566967D01*
X111046562Y-110600327D01*
X111038457Y-110604546D01*
X111029738Y-110610036D01*
X110859433Y-110737905D01*
X110851726Y-110744748D01*
X110704590Y-110898717D01*
X110698104Y-110906727D01*
X110578098Y-111082649D01*
X110573000Y-111091623D01*
X110483338Y-111284783D01*
X110479775Y-111294470D01*
X110424389Y-111494183D01*
X110425912Y-111502607D01*
X110438292Y-111506000D01*
X113078344Y-111506000D01*
X113091875Y-111502027D01*
X113093180Y-111492947D01*
X113051214Y-111325875D01*
X113047894Y-111316124D01*
X112962972Y-111120814D01*
X112958105Y-111111739D01*
X112842426Y-110932926D01*
X112836136Y-110924757D01*
X112692806Y-110767240D01*
X112685273Y-110760215D01*
X112518139Y-110628222D01*
X112509556Y-110622520D01*
X112472602Y-110602120D01*
X112422631Y-110551687D01*
X112407859Y-110482245D01*
X112432975Y-110415839D01*
X112460327Y-110389232D01*
X112483797Y-110372491D01*
X112639860Y-110261173D01*
X112798096Y-110103489D01*
X112819418Y-110073817D01*
X112925435Y-109926277D01*
X112928453Y-109922077D01*
X112949349Y-109879798D01*
X113025136Y-109726453D01*
X113025137Y-109726451D01*
X113027430Y-109721811D01*
X113092370Y-109508069D01*
X113121529Y-109286590D01*
X113123156Y-109220000D01*
X113104852Y-108997361D01*
X113050431Y-108780702D01*
X112961354Y-108575840D01*
X112840014Y-108388277D01*
X112836532Y-108384450D01*
X112692798Y-108226488D01*
X112661746Y-108162642D01*
X112670141Y-108092143D01*
X112715317Y-108037375D01*
X112741761Y-108023706D01*
X112848297Y-107983767D01*
X112856705Y-107980615D01*
X112973261Y-107893261D01*
X113060615Y-107776705D01*
X113111745Y-107640316D01*
X113118500Y-107578134D01*
X113118500Y-105781866D01*
X113111745Y-105719684D01*
X113060615Y-105583295D01*
X112973261Y-105466739D01*
X112856705Y-105379385D01*
X112720316Y-105328255D01*
X112658134Y-105321500D01*
X110861866Y-105321500D01*
X110799684Y-105328255D01*
X110663295Y-105379385D01*
X110546739Y-105466739D01*
X110459385Y-105583295D01*
X110408255Y-105719684D01*
X110401500Y-105781866D01*
X110401500Y-107578134D01*
X110408255Y-107640316D01*
X110459385Y-107776705D01*
X110546739Y-107893261D01*
X110663295Y-107980615D01*
X110671704Y-107983767D01*
X110671705Y-107983768D01*
X110780451Y-108024535D01*
X110837216Y-108067176D01*
X110861916Y-108133738D01*
X110846709Y-108203087D01*
X110827316Y-108229568D01*
X110700629Y-108362138D01*
X110574743Y-108546680D01*
X110559003Y-108580590D01*
X110504890Y-108697167D01*
X110480688Y-108749305D01*
X110420989Y-108964570D01*
X110397251Y-109186695D01*
X78865500Y-109186695D01*
X78865500Y-102059767D01*
X78866027Y-102048584D01*
X78867702Y-102041091D01*
X78865562Y-101973000D01*
X78865500Y-101969043D01*
X78865500Y-101941144D01*
X78864996Y-101937153D01*
X78864063Y-101925311D01*
X78863571Y-101909634D01*
X78862674Y-101881111D01*
X78860462Y-101873497D01*
X78860461Y-101873492D01*
X78857023Y-101861659D01*
X78853012Y-101842295D01*
X78851467Y-101830064D01*
X78850474Y-101822203D01*
X78847557Y-101814836D01*
X78847556Y-101814831D01*
X78834198Y-101781092D01*
X78830354Y-101769865D01*
X78820230Y-101735022D01*
X78818018Y-101727407D01*
X78807707Y-101709972D01*
X78799012Y-101692224D01*
X78791552Y-101673383D01*
X78765564Y-101637613D01*
X78759048Y-101627693D01*
X78740580Y-101596465D01*
X78740578Y-101596462D01*
X78736542Y-101589638D01*
X78722221Y-101575317D01*
X78709380Y-101560283D01*
X78702131Y-101550306D01*
X78697472Y-101543893D01*
X78663395Y-101515702D01*
X78654616Y-101507712D01*
X77359652Y-100212747D01*
X77352112Y-100204461D01*
X77348000Y-100197982D01*
X77298348Y-100151356D01*
X77295507Y-100148602D01*
X77275770Y-100128865D01*
X77272573Y-100126385D01*
X77263551Y-100118680D01*
X77237100Y-100093841D01*
X77231321Y-100088414D01*
X77224375Y-100084595D01*
X77224372Y-100084593D01*
X77213566Y-100078652D01*
X77197047Y-100067801D01*
X77196583Y-100067441D01*
X77181041Y-100055386D01*
X77173772Y-100052241D01*
X77173768Y-100052238D01*
X77140463Y-100037826D01*
X77129813Y-100032609D01*
X77091060Y-100011305D01*
X77071437Y-100006267D01*
X77052734Y-99999863D01*
X77041420Y-99994967D01*
X77041419Y-99994967D01*
X77034145Y-99991819D01*
X77026322Y-99990580D01*
X77026312Y-99990577D01*
X76990476Y-99984901D01*
X76978856Y-99982495D01*
X76943711Y-99973472D01*
X76943710Y-99973472D01*
X76936030Y-99971500D01*
X76915776Y-99971500D01*
X76896065Y-99969949D01*
X76883886Y-99968020D01*
X76876057Y-99966780D01*
X76868165Y-99967526D01*
X76832039Y-99970941D01*
X76820181Y-99971500D01*
X68761566Y-99971500D01*
X68693445Y-99951498D01*
X68654133Y-99911335D01*
X68536759Y-99719798D01*
X68536755Y-99719792D01*
X68534176Y-99715584D01*
X68379969Y-99535031D01*
X68376213Y-99531823D01*
X68376208Y-99531818D01*
X68257944Y-99430811D01*
X68219134Y-99371361D01*
X68218628Y-99300366D01*
X68257944Y-99239189D01*
X68376208Y-99138182D01*
X68376213Y-99138177D01*
X68379969Y-99134969D01*
X68534176Y-98954416D01*
X68536755Y-98950208D01*
X68536759Y-98950202D01*
X68655654Y-98756183D01*
X68658240Y-98751963D01*
X68665284Y-98734959D01*
X68747211Y-98537167D01*
X68747212Y-98537165D01*
X68749105Y-98532594D01*
X68804535Y-98301711D01*
X68823165Y-98065000D01*
X68804535Y-97828289D01*
X68749105Y-97597406D01*
X68658240Y-97378037D01*
X68655654Y-97373817D01*
X68536759Y-97179798D01*
X68536755Y-97179792D01*
X68534176Y-97175584D01*
X68379969Y-96995031D01*
X68376213Y-96991823D01*
X68376208Y-96991818D01*
X68257944Y-96890811D01*
X68219134Y-96831361D01*
X68218628Y-96760366D01*
X68257944Y-96699189D01*
X68376208Y-96598182D01*
X68376213Y-96598177D01*
X68379969Y-96594969D01*
X68534176Y-96414416D01*
X68536755Y-96410208D01*
X68536759Y-96410202D01*
X68655654Y-96216183D01*
X68658240Y-96211963D01*
X68670849Y-96181524D01*
X68747211Y-95997167D01*
X68747212Y-95997165D01*
X68749105Y-95992594D01*
X68804535Y-95761711D01*
X68823165Y-95525000D01*
X68804535Y-95288289D01*
X68796778Y-95255975D01*
X68752906Y-95073240D01*
X68749105Y-95057406D01*
X68744722Y-95046825D01*
X68695559Y-94928134D01*
X83681500Y-94928134D01*
X83688255Y-94990316D01*
X83739385Y-95126705D01*
X83826739Y-95243261D01*
X83943295Y-95330615D01*
X84079684Y-95381745D01*
X84141866Y-95388500D01*
X84330500Y-95388500D01*
X84398621Y-95408502D01*
X84445114Y-95462158D01*
X84456500Y-95514500D01*
X84456500Y-102920606D01*
X84436498Y-102988727D01*
X84402771Y-103023819D01*
X84250211Y-103130643D01*
X84250208Y-103130645D01*
X84245700Y-103133802D01*
X84083802Y-103295700D01*
X83952477Y-103483251D01*
X83950154Y-103488233D01*
X83950151Y-103488238D01*
X83890031Y-103617167D01*
X83855716Y-103690757D01*
X83854294Y-103696065D01*
X83854293Y-103696067D01*
X83822316Y-103815405D01*
X83796457Y-103911913D01*
X83776502Y-104140000D01*
X83796457Y-104368087D01*
X83797881Y-104373400D01*
X83797881Y-104373402D01*
X83818308Y-104449634D01*
X83855716Y-104589243D01*
X83858039Y-104594224D01*
X83858039Y-104594225D01*
X83950151Y-104791762D01*
X83950154Y-104791767D01*
X83952477Y-104796749D01*
X84083802Y-104984300D01*
X84245700Y-105146198D01*
X84250208Y-105149355D01*
X84250211Y-105149357D01*
X84285178Y-105173841D01*
X84433251Y-105277523D01*
X84438233Y-105279846D01*
X84438238Y-105279849D01*
X84635775Y-105371961D01*
X84640757Y-105374284D01*
X84646065Y-105375706D01*
X84646067Y-105375707D01*
X84856598Y-105432119D01*
X84856600Y-105432119D01*
X84861913Y-105433543D01*
X85090000Y-105453498D01*
X85318087Y-105433543D01*
X85323400Y-105432119D01*
X85323402Y-105432119D01*
X85533933Y-105375707D01*
X85533935Y-105375706D01*
X85539243Y-105374284D01*
X85544225Y-105371961D01*
X85741762Y-105279849D01*
X85741767Y-105279846D01*
X85746749Y-105277523D01*
X85894822Y-105173841D01*
X85929789Y-105149357D01*
X85929792Y-105149355D01*
X85934300Y-105146198D01*
X86096198Y-104984300D01*
X86227523Y-104796749D01*
X86229846Y-104791767D01*
X86229849Y-104791762D01*
X86321961Y-104594225D01*
X86321961Y-104594224D01*
X86324284Y-104589243D01*
X86361693Y-104449634D01*
X86382119Y-104373402D01*
X86382119Y-104373400D01*
X86383543Y-104368087D01*
X86403498Y-104140000D01*
X86383543Y-103911913D01*
X86357684Y-103815405D01*
X86325707Y-103696067D01*
X86325706Y-103696065D01*
X86324284Y-103690757D01*
X86289969Y-103617167D01*
X86229849Y-103488238D01*
X86229846Y-103488233D01*
X86227523Y-103483251D01*
X86096198Y-103295700D01*
X85934300Y-103133802D01*
X85929792Y-103130645D01*
X85929789Y-103130643D01*
X85777229Y-103023819D01*
X85732901Y-102968362D01*
X85723500Y-102920606D01*
X85723500Y-95514500D01*
X85743502Y-95446379D01*
X85797158Y-95399886D01*
X85849500Y-95388500D01*
X86038134Y-95388500D01*
X86100316Y-95381745D01*
X86236705Y-95330615D01*
X86353261Y-95243261D01*
X86367095Y-95224802D01*
X86423953Y-95182287D01*
X86494772Y-95177261D01*
X86531491Y-95191579D01*
X86634077Y-95251525D01*
X86643364Y-95255975D01*
X86850003Y-95334883D01*
X86859901Y-95337759D01*
X87076653Y-95381857D01*
X87086883Y-95383076D01*
X87307914Y-95391182D01*
X87318223Y-95390714D01*
X87537623Y-95362608D01*
X87547688Y-95360468D01*
X87759557Y-95296905D01*
X87769152Y-95293144D01*
X87967778Y-95195838D01*
X87976642Y-95190555D01*
X88067332Y-95125867D01*
X88134405Y-95102593D01*
X88203414Y-95119277D01*
X88252448Y-95170621D01*
X88266500Y-95228446D01*
X88266500Y-102920606D01*
X88246498Y-102988727D01*
X88212771Y-103023819D01*
X88060211Y-103130643D01*
X88060208Y-103130645D01*
X88055700Y-103133802D01*
X87893802Y-103295700D01*
X87762477Y-103483251D01*
X87760154Y-103488233D01*
X87760151Y-103488238D01*
X87700031Y-103617167D01*
X87665716Y-103690757D01*
X87664294Y-103696065D01*
X87664293Y-103696067D01*
X87632316Y-103815405D01*
X87606457Y-103911913D01*
X87586502Y-104140000D01*
X87606457Y-104368087D01*
X87607881Y-104373400D01*
X87607881Y-104373402D01*
X87628308Y-104449634D01*
X87665716Y-104589243D01*
X87668039Y-104594224D01*
X87668039Y-104594225D01*
X87760151Y-104791762D01*
X87760154Y-104791767D01*
X87762477Y-104796749D01*
X87893802Y-104984300D01*
X88055700Y-105146198D01*
X88060208Y-105149355D01*
X88060211Y-105149357D01*
X88095178Y-105173841D01*
X88243251Y-105277523D01*
X88248233Y-105279846D01*
X88248238Y-105279849D01*
X88445775Y-105371961D01*
X88450757Y-105374284D01*
X88456065Y-105375706D01*
X88456067Y-105375707D01*
X88666598Y-105432119D01*
X88666600Y-105432119D01*
X88671913Y-105433543D01*
X88900000Y-105453498D01*
X89128087Y-105433543D01*
X89133400Y-105432119D01*
X89133402Y-105432119D01*
X89343933Y-105375707D01*
X89343935Y-105375706D01*
X89349243Y-105374284D01*
X89354225Y-105371961D01*
X89551762Y-105279849D01*
X89551767Y-105279846D01*
X89556749Y-105277523D01*
X89704822Y-105173841D01*
X89739789Y-105149357D01*
X89739792Y-105149355D01*
X89744300Y-105146198D01*
X89906198Y-104984300D01*
X90037523Y-104796749D01*
X90039846Y-104791767D01*
X90039849Y-104791762D01*
X90131961Y-104594225D01*
X90131961Y-104594224D01*
X90134284Y-104589243D01*
X90171693Y-104449634D01*
X90192119Y-104373402D01*
X90192119Y-104373400D01*
X90193543Y-104368087D01*
X90213498Y-104140000D01*
X90193543Y-103911913D01*
X90167684Y-103815405D01*
X90135707Y-103696067D01*
X90135706Y-103696065D01*
X90134284Y-103690757D01*
X90099969Y-103617167D01*
X90039849Y-103488238D01*
X90039846Y-103488233D01*
X90037523Y-103483251D01*
X89906198Y-103295700D01*
X89744300Y-103133802D01*
X89739792Y-103130645D01*
X89739789Y-103130643D01*
X89587229Y-103023819D01*
X89542901Y-102968362D01*
X89533500Y-102920606D01*
X89533500Y-95494897D01*
X89553502Y-95426776D01*
X89607158Y-95380283D01*
X89643489Y-95369918D01*
X89660198Y-95367777D01*
X89701847Y-95362442D01*
X89706795Y-95360957D01*
X89706802Y-95360956D01*
X89918747Y-95297369D01*
X89923690Y-95295886D01*
X89929287Y-95293144D01*
X90127049Y-95196262D01*
X90127052Y-95196260D01*
X90131684Y-95193991D01*
X90320243Y-95059494D01*
X90389663Y-94990316D01*
X90395485Y-94984514D01*
X90457857Y-94950598D01*
X90528663Y-94955786D01*
X90572584Y-94983743D01*
X90574760Y-94985873D01*
X90578147Y-94989784D01*
X90756349Y-95137730D01*
X90956322Y-95254584D01*
X91172694Y-95337209D01*
X91177760Y-95338240D01*
X91177761Y-95338240D01*
X91215864Y-95345992D01*
X91399656Y-95383385D01*
X91529089Y-95388131D01*
X91625949Y-95391683D01*
X91625953Y-95391683D01*
X91631113Y-95391872D01*
X91636233Y-95391216D01*
X91636235Y-95391216D01*
X91855719Y-95363099D01*
X91855720Y-95363099D01*
X91860847Y-95362442D01*
X91865798Y-95360957D01*
X91865801Y-95360956D01*
X91914293Y-95346408D01*
X91985289Y-95345992D01*
X92045239Y-95384024D01*
X92075110Y-95448431D01*
X92076500Y-95467094D01*
X92076500Y-102920606D01*
X92056498Y-102988727D01*
X92022771Y-103023819D01*
X91870211Y-103130643D01*
X91870208Y-103130645D01*
X91865700Y-103133802D01*
X91703802Y-103295700D01*
X91572477Y-103483251D01*
X91570154Y-103488233D01*
X91570151Y-103488238D01*
X91510031Y-103617167D01*
X91475716Y-103690757D01*
X91474294Y-103696065D01*
X91474293Y-103696067D01*
X91442316Y-103815405D01*
X91416457Y-103911913D01*
X91396502Y-104140000D01*
X91416457Y-104368087D01*
X91417881Y-104373400D01*
X91417881Y-104373402D01*
X91438308Y-104449634D01*
X91475716Y-104589243D01*
X91478039Y-104594224D01*
X91478039Y-104594225D01*
X91570151Y-104791762D01*
X91570154Y-104791767D01*
X91572477Y-104796749D01*
X91703802Y-104984300D01*
X91865700Y-105146198D01*
X91870208Y-105149355D01*
X91870211Y-105149357D01*
X91905178Y-105173841D01*
X92053251Y-105277523D01*
X92058233Y-105279846D01*
X92058238Y-105279849D01*
X92255775Y-105371961D01*
X92260757Y-105374284D01*
X92266065Y-105375706D01*
X92266067Y-105375707D01*
X92476598Y-105432119D01*
X92476600Y-105432119D01*
X92481913Y-105433543D01*
X92710000Y-105453498D01*
X92938087Y-105433543D01*
X92943400Y-105432119D01*
X92943402Y-105432119D01*
X93153933Y-105375707D01*
X93153935Y-105375706D01*
X93159243Y-105374284D01*
X93164225Y-105371961D01*
X93361762Y-105279849D01*
X93361767Y-105279846D01*
X93366749Y-105277523D01*
X93514822Y-105173841D01*
X93549789Y-105149357D01*
X93549792Y-105149355D01*
X93554300Y-105146198D01*
X93716198Y-104984300D01*
X93847523Y-104796749D01*
X93849846Y-104791767D01*
X93849849Y-104791762D01*
X93941961Y-104594225D01*
X93941961Y-104594224D01*
X93944284Y-104589243D01*
X93981693Y-104449634D01*
X94002119Y-104373402D01*
X94002119Y-104373400D01*
X94003543Y-104368087D01*
X94023498Y-104140000D01*
X99016502Y-104140000D01*
X99036457Y-104368087D01*
X99037881Y-104373400D01*
X99037881Y-104373402D01*
X99058308Y-104449634D01*
X99095716Y-104589243D01*
X99098039Y-104594224D01*
X99098039Y-104594225D01*
X99190151Y-104791762D01*
X99190154Y-104791767D01*
X99192477Y-104796749D01*
X99323802Y-104984300D01*
X99485700Y-105146198D01*
X99490208Y-105149355D01*
X99490211Y-105149357D01*
X99525178Y-105173841D01*
X99673251Y-105277523D01*
X99678233Y-105279846D01*
X99678238Y-105279849D01*
X99875775Y-105371961D01*
X99880757Y-105374284D01*
X99886065Y-105375706D01*
X99886067Y-105375707D01*
X100096598Y-105432119D01*
X100096600Y-105432119D01*
X100101913Y-105433543D01*
X100330000Y-105453498D01*
X100558087Y-105433543D01*
X100563400Y-105432119D01*
X100563402Y-105432119D01*
X100773933Y-105375707D01*
X100773935Y-105375706D01*
X100779243Y-105374284D01*
X100784225Y-105371961D01*
X100981762Y-105279849D01*
X100981767Y-105279846D01*
X100986749Y-105277523D01*
X101134822Y-105173841D01*
X101169789Y-105149357D01*
X101169792Y-105149355D01*
X101174300Y-105146198D01*
X101336198Y-104984300D01*
X101467523Y-104796749D01*
X101469846Y-104791767D01*
X101469849Y-104791762D01*
X101561961Y-104594225D01*
X101561961Y-104594224D01*
X101564284Y-104589243D01*
X101601693Y-104449634D01*
X101622119Y-104373402D01*
X101622119Y-104373400D01*
X101623543Y-104368087D01*
X101643498Y-104140000D01*
X101623543Y-103911913D01*
X101597684Y-103815405D01*
X101565707Y-103696067D01*
X101565706Y-103696065D01*
X101564284Y-103690757D01*
X101529969Y-103617167D01*
X101469849Y-103488238D01*
X101469846Y-103488233D01*
X101467523Y-103483251D01*
X101336198Y-103295700D01*
X101174300Y-103133802D01*
X101169792Y-103130645D01*
X101169789Y-103130643D01*
X101017229Y-103023819D01*
X100972901Y-102968362D01*
X100963500Y-102920606D01*
X100963500Y-99374594D01*
X100983502Y-99306473D01*
X101000405Y-99285499D01*
X103675499Y-96610405D01*
X103737811Y-96576379D01*
X103764594Y-96573500D01*
X103958434Y-96573500D01*
X104026555Y-96593502D01*
X104065867Y-96633665D01*
X104183241Y-96825202D01*
X104183245Y-96825208D01*
X104185824Y-96829416D01*
X104340031Y-97009969D01*
X104520584Y-97164176D01*
X104524792Y-97166755D01*
X104524798Y-97166759D01*
X104718817Y-97285654D01*
X104723037Y-97288240D01*
X104727607Y-97290133D01*
X104727611Y-97290135D01*
X104937833Y-97377211D01*
X104942406Y-97379105D01*
X104957010Y-97382611D01*
X105168476Y-97433380D01*
X105168482Y-97433381D01*
X105173289Y-97434535D01*
X105410000Y-97453165D01*
X105646711Y-97434535D01*
X105651518Y-97433381D01*
X105651524Y-97433380D01*
X105862990Y-97382611D01*
X105877594Y-97379105D01*
X105882167Y-97377211D01*
X106092389Y-97290135D01*
X106092393Y-97290133D01*
X106096963Y-97288240D01*
X106101183Y-97285654D01*
X106295202Y-97166759D01*
X106295208Y-97166755D01*
X106299416Y-97164176D01*
X106479969Y-97009969D01*
X106634176Y-96829416D01*
X106636755Y-96825208D01*
X106636759Y-96825202D01*
X106754133Y-96633665D01*
X106806781Y-96586034D01*
X106861566Y-96573500D01*
X110458434Y-96573500D01*
X110526555Y-96593502D01*
X110565867Y-96633665D01*
X110683241Y-96825202D01*
X110683245Y-96825208D01*
X110685824Y-96829416D01*
X110840031Y-97009969D01*
X111020584Y-97164176D01*
X111024792Y-97166755D01*
X111024798Y-97166759D01*
X111218817Y-97285654D01*
X111223037Y-97288240D01*
X111227607Y-97290133D01*
X111227611Y-97290135D01*
X111437833Y-97377211D01*
X111442406Y-97379105D01*
X111457010Y-97382611D01*
X111668476Y-97433380D01*
X111668482Y-97433381D01*
X111673289Y-97434535D01*
X111910000Y-97453165D01*
X112146711Y-97434535D01*
X112151518Y-97433381D01*
X112151524Y-97433380D01*
X112362990Y-97382611D01*
X112377594Y-97379105D01*
X112382167Y-97377211D01*
X112592389Y-97290135D01*
X112592393Y-97290133D01*
X112596963Y-97288240D01*
X112601183Y-97285654D01*
X112795202Y-97166759D01*
X112795208Y-97166755D01*
X112799416Y-97164176D01*
X112979969Y-97009969D01*
X113134176Y-96829416D01*
X113136755Y-96825208D01*
X113136759Y-96825202D01*
X113255654Y-96631183D01*
X113258240Y-96626963D01*
X113270162Y-96598182D01*
X113347211Y-96412167D01*
X113347212Y-96412165D01*
X113349105Y-96407594D01*
X113404535Y-96176711D01*
X113423165Y-95940000D01*
X113404535Y-95703289D01*
X113349105Y-95472406D01*
X113339734Y-95449782D01*
X113260135Y-95257611D01*
X113260133Y-95257607D01*
X113258240Y-95253037D01*
X113223188Y-95195838D01*
X113136759Y-95054798D01*
X113136755Y-95054792D01*
X113134176Y-95050584D01*
X112979969Y-94870031D01*
X112799416Y-94715824D01*
X112795208Y-94713245D01*
X112795202Y-94713241D01*
X112601183Y-94594346D01*
X112596963Y-94591760D01*
X112592393Y-94589867D01*
X112592389Y-94589865D01*
X112382167Y-94502789D01*
X112382165Y-94502788D01*
X112377594Y-94500895D01*
X112271379Y-94475395D01*
X112151524Y-94446620D01*
X112151518Y-94446619D01*
X112146711Y-94445465D01*
X111910000Y-94426835D01*
X111673289Y-94445465D01*
X111668482Y-94446619D01*
X111668476Y-94446620D01*
X111548621Y-94475395D01*
X111442406Y-94500895D01*
X111437835Y-94502788D01*
X111437833Y-94502789D01*
X111227611Y-94589865D01*
X111227607Y-94589867D01*
X111223037Y-94591760D01*
X111218817Y-94594346D01*
X111024798Y-94713241D01*
X111024792Y-94713245D01*
X111020584Y-94715824D01*
X110840031Y-94870031D01*
X110685824Y-95050584D01*
X110683245Y-95054792D01*
X110683241Y-95054798D01*
X110565867Y-95246335D01*
X110513219Y-95293966D01*
X110458434Y-95306500D01*
X106861566Y-95306500D01*
X106793445Y-95286498D01*
X106754133Y-95246335D01*
X106636759Y-95054798D01*
X106636755Y-95054792D01*
X106634176Y-95050584D01*
X106479969Y-94870031D01*
X106299416Y-94715824D01*
X106295208Y-94713245D01*
X106295202Y-94713241D01*
X106101183Y-94594346D01*
X106096963Y-94591760D01*
X106092393Y-94589867D01*
X106092389Y-94589865D01*
X105882167Y-94502789D01*
X105882165Y-94502788D01*
X105877594Y-94500895D01*
X105771379Y-94475395D01*
X105651524Y-94446620D01*
X105651518Y-94446619D01*
X105646711Y-94445465D01*
X105410000Y-94426835D01*
X105173289Y-94445465D01*
X105168482Y-94446619D01*
X105168476Y-94446620D01*
X105048621Y-94475395D01*
X104942406Y-94500895D01*
X104937835Y-94502788D01*
X104937833Y-94502789D01*
X104727611Y-94589865D01*
X104727607Y-94589867D01*
X104723037Y-94591760D01*
X104718817Y-94594346D01*
X104524798Y-94713241D01*
X104524792Y-94713245D01*
X104520584Y-94715824D01*
X104340031Y-94870031D01*
X104185824Y-95050584D01*
X104183245Y-95054792D01*
X104183241Y-95054798D01*
X104065867Y-95246335D01*
X104013219Y-95293966D01*
X103958434Y-95306500D01*
X103528767Y-95306500D01*
X103517584Y-95305973D01*
X103510091Y-95304298D01*
X103502165Y-95304547D01*
X103502164Y-95304547D01*
X103442014Y-95306438D01*
X103438055Y-95306500D01*
X103410144Y-95306500D01*
X103406210Y-95306997D01*
X103406209Y-95306997D01*
X103406144Y-95307005D01*
X103394307Y-95307938D01*
X103362490Y-95308938D01*
X103358029Y-95309078D01*
X103350110Y-95309327D01*
X103332454Y-95314456D01*
X103330658Y-95314978D01*
X103311306Y-95318986D01*
X103304235Y-95319880D01*
X103291203Y-95321526D01*
X103283834Y-95324443D01*
X103283832Y-95324444D01*
X103250097Y-95337800D01*
X103238869Y-95341645D01*
X103196407Y-95353982D01*
X103189585Y-95358016D01*
X103189579Y-95358019D01*
X103178968Y-95364294D01*
X103161218Y-95372990D01*
X103149756Y-95377528D01*
X103149751Y-95377531D01*
X103142383Y-95380448D01*
X103131808Y-95388131D01*
X103106625Y-95406427D01*
X103096707Y-95412943D01*
X103078019Y-95423995D01*
X103058637Y-95435458D01*
X103044313Y-95449782D01*
X103029281Y-95462621D01*
X103012893Y-95474528D01*
X102984712Y-95508593D01*
X102976722Y-95517373D01*
X99937747Y-98556348D01*
X99929461Y-98563888D01*
X99922982Y-98568000D01*
X99917557Y-98573777D01*
X99876357Y-98617651D01*
X99873602Y-98620493D01*
X99853865Y-98640230D01*
X99851385Y-98643427D01*
X99843682Y-98652447D01*
X99813414Y-98684679D01*
X99809595Y-98691625D01*
X99809593Y-98691628D01*
X99803652Y-98702434D01*
X99792801Y-98718953D01*
X99780386Y-98734959D01*
X99777241Y-98742228D01*
X99777238Y-98742232D01*
X99762826Y-98775537D01*
X99757609Y-98786187D01*
X99736305Y-98824940D01*
X99734334Y-98832615D01*
X99734334Y-98832616D01*
X99731267Y-98844562D01*
X99724863Y-98863266D01*
X99716819Y-98881855D01*
X99715580Y-98889678D01*
X99715577Y-98889688D01*
X99709901Y-98925524D01*
X99707495Y-98937144D01*
X99696500Y-98979970D01*
X99696500Y-99000224D01*
X99694949Y-99019934D01*
X99691780Y-99039943D01*
X99692526Y-99047835D01*
X99695941Y-99083961D01*
X99696500Y-99095819D01*
X99696500Y-102920606D01*
X99676498Y-102988727D01*
X99642771Y-103023819D01*
X99490211Y-103130643D01*
X99490208Y-103130645D01*
X99485700Y-103133802D01*
X99323802Y-103295700D01*
X99192477Y-103483251D01*
X99190154Y-103488233D01*
X99190151Y-103488238D01*
X99130031Y-103617167D01*
X99095716Y-103690757D01*
X99094294Y-103696065D01*
X99094293Y-103696067D01*
X99062316Y-103815405D01*
X99036457Y-103911913D01*
X99016502Y-104140000D01*
X94023498Y-104140000D01*
X94003543Y-103911913D01*
X93977684Y-103815405D01*
X93945707Y-103696067D01*
X93945706Y-103696065D01*
X93944284Y-103690757D01*
X93909969Y-103617167D01*
X93849849Y-103488238D01*
X93849846Y-103488233D01*
X93847523Y-103483251D01*
X93716198Y-103295700D01*
X93554300Y-103133802D01*
X93549792Y-103130645D01*
X93549789Y-103130643D01*
X93397229Y-103023819D01*
X93352901Y-102968362D01*
X93343500Y-102920606D01*
X93343500Y-95201767D01*
X93344027Y-95190584D01*
X93345702Y-95183091D01*
X93343930Y-95126705D01*
X93343562Y-95115014D01*
X93343500Y-95111055D01*
X93343500Y-95083144D01*
X93342995Y-95079144D01*
X93342062Y-95067301D01*
X93341419Y-95046825D01*
X93340673Y-95023110D01*
X93335022Y-95003658D01*
X93331014Y-94984306D01*
X93329467Y-94972063D01*
X93328474Y-94964203D01*
X93325142Y-94955786D01*
X93312200Y-94923097D01*
X93308355Y-94911870D01*
X93307721Y-94909687D01*
X93296018Y-94869407D01*
X93285707Y-94851972D01*
X93277012Y-94834224D01*
X93269552Y-94815383D01*
X93243564Y-94779613D01*
X93237048Y-94769693D01*
X93218580Y-94738465D01*
X93218578Y-94738462D01*
X93214542Y-94731638D01*
X93200221Y-94717317D01*
X93187380Y-94702283D01*
X93180131Y-94692306D01*
X93175472Y-94685893D01*
X93141395Y-94657702D01*
X93132616Y-94649712D01*
X92958299Y-94475395D01*
X92924273Y-94413083D01*
X92926836Y-94349671D01*
X92946903Y-94283624D01*
X92948408Y-94278671D01*
X92978640Y-94049041D01*
X92980327Y-93980000D01*
X92973002Y-93890905D01*
X92961773Y-93754318D01*
X92961772Y-93754312D01*
X92961349Y-93749167D01*
X92904925Y-93524533D01*
X92890690Y-93491795D01*
X92814630Y-93316868D01*
X92814628Y-93316865D01*
X92812570Y-93312131D01*
X92686764Y-93117665D01*
X92530887Y-92946358D01*
X92526836Y-92943159D01*
X92526832Y-92943155D01*
X92353177Y-92806011D01*
X92353172Y-92806008D01*
X92349123Y-92802810D01*
X92344607Y-92800317D01*
X92344604Y-92800315D01*
X92150879Y-92693373D01*
X92150875Y-92693371D01*
X92146355Y-92690876D01*
X92141486Y-92689152D01*
X92141482Y-92689150D01*
X92094944Y-92672670D01*
X104542160Y-92672670D01*
X104547887Y-92680320D01*
X104719042Y-92785205D01*
X104727837Y-92789687D01*
X104937988Y-92876734D01*
X104947373Y-92879783D01*
X105168554Y-92932885D01*
X105178301Y-92934428D01*
X105405070Y-92952275D01*
X105414930Y-92952275D01*
X105641699Y-92934428D01*
X105651446Y-92932885D01*
X105872627Y-92879783D01*
X105882012Y-92876734D01*
X106092163Y-92789687D01*
X106100958Y-92785205D01*
X106268445Y-92682568D01*
X106277400Y-92672670D01*
X111042160Y-92672670D01*
X111047887Y-92680320D01*
X111219042Y-92785205D01*
X111227837Y-92789687D01*
X111437988Y-92876734D01*
X111447373Y-92879783D01*
X111668554Y-92932885D01*
X111678301Y-92934428D01*
X111905070Y-92952275D01*
X111914930Y-92952275D01*
X112141699Y-92934428D01*
X112151446Y-92932885D01*
X112372627Y-92879783D01*
X112382012Y-92876734D01*
X112592163Y-92789687D01*
X112600958Y-92785205D01*
X112768445Y-92682568D01*
X112777907Y-92672110D01*
X112774124Y-92663334D01*
X111922812Y-91812022D01*
X111908868Y-91804408D01*
X111907035Y-91804539D01*
X111900420Y-91808790D01*
X111048920Y-92660290D01*
X111042160Y-92672670D01*
X106277400Y-92672670D01*
X106277907Y-92672110D01*
X106274124Y-92663334D01*
X105422812Y-91812022D01*
X105408868Y-91804408D01*
X105407035Y-91804539D01*
X105400420Y-91808790D01*
X104548920Y-92660290D01*
X104542160Y-92672670D01*
X92094944Y-92672670D01*
X91932903Y-92615288D01*
X91932899Y-92615287D01*
X91928028Y-92613562D01*
X91922935Y-92612655D01*
X91922932Y-92612654D01*
X91705095Y-92573851D01*
X91705089Y-92573850D01*
X91700006Y-92572945D01*
X91627096Y-92572054D01*
X91473581Y-92570179D01*
X91473579Y-92570179D01*
X91468411Y-92570116D01*
X91239464Y-92605150D01*
X91019314Y-92677106D01*
X91014726Y-92679494D01*
X91014722Y-92679496D01*
X90891818Y-92743476D01*
X90813872Y-92784052D01*
X90809739Y-92787155D01*
X90809736Y-92787157D01*
X90737088Y-92841703D01*
X90628655Y-92923117D01*
X90625083Y-92926855D01*
X90579645Y-92974403D01*
X90518121Y-93009833D01*
X90447208Y-93006376D01*
X90395358Y-92972152D01*
X90375366Y-92950181D01*
X90375364Y-92950179D01*
X90371887Y-92946358D01*
X90367836Y-92943159D01*
X90367832Y-92943155D01*
X90194177Y-92806011D01*
X90194172Y-92806008D01*
X90190123Y-92802810D01*
X90185607Y-92800317D01*
X90185604Y-92800315D01*
X89991879Y-92693373D01*
X89991875Y-92693371D01*
X89987355Y-92690876D01*
X89982486Y-92689152D01*
X89982482Y-92689150D01*
X89773903Y-92615288D01*
X89773899Y-92615287D01*
X89769028Y-92613562D01*
X89763935Y-92612655D01*
X89763932Y-92612654D01*
X89546095Y-92573851D01*
X89546089Y-92573850D01*
X89541006Y-92572945D01*
X89468096Y-92572054D01*
X89314581Y-92570179D01*
X89314579Y-92570179D01*
X89309411Y-92570116D01*
X89080464Y-92605150D01*
X88860314Y-92677106D01*
X88855726Y-92679494D01*
X88855722Y-92679496D01*
X88732818Y-92743476D01*
X88654872Y-92784052D01*
X88650739Y-92787155D01*
X88650736Y-92787157D01*
X88578088Y-92841703D01*
X88469655Y-92923117D01*
X88309639Y-93090564D01*
X88306725Y-93094836D01*
X88306724Y-93094837D01*
X88291152Y-93117665D01*
X88179119Y-93281899D01*
X88176943Y-93286587D01*
X88102119Y-93447782D01*
X88081602Y-93491981D01*
X88081202Y-93491795D01*
X88054211Y-93533999D01*
X87338095Y-94250115D01*
X87275783Y-94284141D01*
X87204968Y-94279076D01*
X87159905Y-94250115D01*
X86978885Y-94069095D01*
X86944859Y-94006783D01*
X86949924Y-93935968D01*
X86978885Y-93890905D01*
X88037990Y-92831799D01*
X88045010Y-92818943D01*
X88037237Y-92808274D01*
X88034902Y-92806430D01*
X88026320Y-92800729D01*
X87832678Y-92693833D01*
X87823272Y-92689606D01*
X87614772Y-92615772D01*
X87604809Y-92613140D01*
X87387047Y-92574350D01*
X87376796Y-92573381D01*
X87155616Y-92570679D01*
X87145332Y-92571399D01*
X86926693Y-92604855D01*
X86916666Y-92607244D01*
X86706426Y-92675961D01*
X86696916Y-92679958D01*
X86524744Y-92769585D01*
X86455084Y-92783298D01*
X86389069Y-92757173D01*
X86365738Y-92733387D01*
X86358642Y-92723919D01*
X86353261Y-92716739D01*
X86236705Y-92629385D01*
X86100316Y-92578255D01*
X86038134Y-92571500D01*
X84141866Y-92571500D01*
X84079684Y-92578255D01*
X83943295Y-92629385D01*
X83826739Y-92716739D01*
X83739385Y-92833295D01*
X83688255Y-92969684D01*
X83681500Y-93031866D01*
X83681500Y-94928134D01*
X68695559Y-94928134D01*
X68660135Y-94842611D01*
X68660133Y-94842607D01*
X68658240Y-94838037D01*
X68597222Y-94738465D01*
X68536759Y-94639798D01*
X68536755Y-94639792D01*
X68534176Y-94635584D01*
X68379969Y-94455031D01*
X68376213Y-94451823D01*
X68376208Y-94451818D01*
X68257944Y-94350811D01*
X68219134Y-94291361D01*
X68218628Y-94220366D01*
X68257944Y-94159189D01*
X68376208Y-94058182D01*
X68376213Y-94058177D01*
X68379969Y-94054969D01*
X68534176Y-93874416D01*
X68536755Y-93870208D01*
X68536759Y-93870202D01*
X68655654Y-93676183D01*
X68658240Y-93671963D01*
X68717232Y-93529544D01*
X68747211Y-93457167D01*
X68747212Y-93457165D01*
X68749105Y-93452594D01*
X68804535Y-93221711D01*
X68823165Y-92985000D01*
X68804535Y-92748289D01*
X68800958Y-92733387D01*
X68768360Y-92597609D01*
X68749105Y-92517406D01*
X68747211Y-92512833D01*
X68660135Y-92302611D01*
X68660133Y-92302607D01*
X68658240Y-92298037D01*
X68655654Y-92293817D01*
X68536759Y-92099798D01*
X68536755Y-92099792D01*
X68534176Y-92095584D01*
X68379969Y-91915031D01*
X68376213Y-91911823D01*
X68376208Y-91911818D01*
X68257944Y-91810811D01*
X68219134Y-91751361D01*
X68218628Y-91680366D01*
X68257944Y-91619189D01*
X68376208Y-91518182D01*
X68376213Y-91518177D01*
X68379969Y-91514969D01*
X68439788Y-91444930D01*
X103897725Y-91444930D01*
X103915572Y-91671699D01*
X103917115Y-91681446D01*
X103970217Y-91902627D01*
X103973266Y-91912012D01*
X104060313Y-92122163D01*
X104064795Y-92130958D01*
X104167432Y-92298445D01*
X104177890Y-92307907D01*
X104186666Y-92304124D01*
X105037978Y-91452812D01*
X105044356Y-91441132D01*
X105774408Y-91441132D01*
X105774539Y-91442965D01*
X105778790Y-91449580D01*
X106630290Y-92301080D01*
X106642670Y-92307840D01*
X106650320Y-92302113D01*
X106755205Y-92130958D01*
X106759687Y-92122163D01*
X106846734Y-91912012D01*
X106849783Y-91902627D01*
X106902885Y-91681446D01*
X106904428Y-91671699D01*
X106922275Y-91444930D01*
X110397725Y-91444930D01*
X110415572Y-91671699D01*
X110417115Y-91681446D01*
X110470217Y-91902627D01*
X110473266Y-91912012D01*
X110560313Y-92122163D01*
X110564795Y-92130958D01*
X110667432Y-92298445D01*
X110677890Y-92307907D01*
X110686666Y-92304124D01*
X111537978Y-91452812D01*
X111544356Y-91441132D01*
X112274408Y-91441132D01*
X112274539Y-91442965D01*
X112278790Y-91449580D01*
X113130290Y-92301080D01*
X113142670Y-92307840D01*
X113150320Y-92302113D01*
X113255205Y-92130958D01*
X113259687Y-92122163D01*
X113346734Y-91912012D01*
X113349783Y-91902627D01*
X113402885Y-91681446D01*
X113404428Y-91671699D01*
X113422275Y-91444930D01*
X113422275Y-91435070D01*
X113404428Y-91208301D01*
X113402885Y-91198554D01*
X113349783Y-90977373D01*
X113346734Y-90967988D01*
X113259687Y-90757837D01*
X113255205Y-90749042D01*
X113152568Y-90581555D01*
X113142110Y-90572093D01*
X113133334Y-90575876D01*
X112282022Y-91427188D01*
X112274408Y-91441132D01*
X111544356Y-91441132D01*
X111545592Y-91438868D01*
X111545461Y-91437035D01*
X111541210Y-91430420D01*
X110689710Y-90578920D01*
X110677330Y-90572160D01*
X110669680Y-90577887D01*
X110564795Y-90749042D01*
X110560313Y-90757837D01*
X110473266Y-90967988D01*
X110470217Y-90977373D01*
X110417115Y-91198554D01*
X110415572Y-91208301D01*
X110397725Y-91435070D01*
X110397725Y-91444930D01*
X106922275Y-91444930D01*
X106922275Y-91435070D01*
X106904428Y-91208301D01*
X106902885Y-91198554D01*
X106849783Y-90977373D01*
X106846734Y-90967988D01*
X106759687Y-90757837D01*
X106755205Y-90749042D01*
X106652568Y-90581555D01*
X106642110Y-90572093D01*
X106633334Y-90575876D01*
X105782022Y-91427188D01*
X105774408Y-91441132D01*
X105044356Y-91441132D01*
X105045592Y-91438868D01*
X105045461Y-91437035D01*
X105041210Y-91430420D01*
X104189710Y-90578920D01*
X104177330Y-90572160D01*
X104169680Y-90577887D01*
X104064795Y-90749042D01*
X104060313Y-90757837D01*
X103973266Y-90967988D01*
X103970217Y-90977373D01*
X103917115Y-91198554D01*
X103915572Y-91208301D01*
X103897725Y-91435070D01*
X103897725Y-91444930D01*
X68439788Y-91444930D01*
X68534176Y-91334416D01*
X68536755Y-91330208D01*
X68536759Y-91330202D01*
X68655654Y-91136183D01*
X68658240Y-91131963D01*
X68681590Y-91075592D01*
X68747211Y-90917167D01*
X68747212Y-90917165D01*
X68749105Y-90912594D01*
X68786259Y-90757837D01*
X68803380Y-90686524D01*
X68803381Y-90686518D01*
X68804535Y-90681711D01*
X68823165Y-90445000D01*
X68804535Y-90208289D01*
X68804439Y-90207890D01*
X104542093Y-90207890D01*
X104545876Y-90216666D01*
X105397188Y-91067978D01*
X105411132Y-91075592D01*
X105412965Y-91075461D01*
X105419580Y-91071210D01*
X106271080Y-90219710D01*
X106277534Y-90207890D01*
X111042093Y-90207890D01*
X111045876Y-90216666D01*
X111897188Y-91067978D01*
X111911132Y-91075592D01*
X111912965Y-91075461D01*
X111919580Y-91071210D01*
X112771080Y-90219710D01*
X112777840Y-90207330D01*
X112772113Y-90199680D01*
X112600958Y-90094795D01*
X112592163Y-90090313D01*
X112382012Y-90003266D01*
X112372627Y-90000217D01*
X112151446Y-89947115D01*
X112141699Y-89945572D01*
X111914930Y-89927725D01*
X111905070Y-89927725D01*
X111678301Y-89945572D01*
X111668554Y-89947115D01*
X111447373Y-90000217D01*
X111437988Y-90003266D01*
X111227837Y-90090313D01*
X111219042Y-90094795D01*
X111051555Y-90197432D01*
X111042093Y-90207890D01*
X106277534Y-90207890D01*
X106277840Y-90207330D01*
X106272113Y-90199680D01*
X106100958Y-90094795D01*
X106092163Y-90090313D01*
X105882012Y-90003266D01*
X105872627Y-90000217D01*
X105651446Y-89947115D01*
X105641699Y-89945572D01*
X105414930Y-89927725D01*
X105405070Y-89927725D01*
X105178301Y-89945572D01*
X105168554Y-89947115D01*
X104947373Y-90000217D01*
X104937988Y-90003266D01*
X104727837Y-90090313D01*
X104719042Y-90094795D01*
X104551555Y-90197432D01*
X104542093Y-90207890D01*
X68804439Y-90207890D01*
X68802469Y-90199680D01*
X68750260Y-89982218D01*
X68749105Y-89977406D01*
X68658240Y-89758037D01*
X68655654Y-89753817D01*
X68536759Y-89559798D01*
X68536755Y-89559792D01*
X68534176Y-89555584D01*
X68379969Y-89375031D01*
X68199416Y-89220824D01*
X68195208Y-89218245D01*
X68195202Y-89218241D01*
X68001183Y-89099346D01*
X67996963Y-89096760D01*
X67992393Y-89094867D01*
X67992389Y-89094865D01*
X67782167Y-89007789D01*
X67782165Y-89007788D01*
X67777594Y-89005895D01*
X67697391Y-88986640D01*
X67551524Y-88951620D01*
X67551518Y-88951619D01*
X67546711Y-88950465D01*
X67310000Y-88931835D01*
X67073289Y-88950465D01*
X67068482Y-88951619D01*
X67068476Y-88951620D01*
X66922609Y-88986640D01*
X66842406Y-89005895D01*
X66837835Y-89007788D01*
X66837833Y-89007789D01*
X66627611Y-89094865D01*
X66627607Y-89094867D01*
X66623037Y-89096760D01*
X66618817Y-89099346D01*
X66424798Y-89218241D01*
X66424792Y-89218245D01*
X66420584Y-89220824D01*
X66240031Y-89375031D01*
X66085824Y-89555584D01*
X66083245Y-89559792D01*
X66083241Y-89559798D01*
X65964346Y-89753817D01*
X65961760Y-89758037D01*
X65870895Y-89977406D01*
X65869740Y-89982218D01*
X65817532Y-90199680D01*
X65815465Y-90208289D01*
X65796835Y-90445000D01*
X65815465Y-90681711D01*
X65816619Y-90686518D01*
X65816620Y-90686524D01*
X65833741Y-90757837D01*
X65870895Y-90912594D01*
X65872788Y-90917165D01*
X65872789Y-90917167D01*
X65938411Y-91075592D01*
X65961760Y-91131963D01*
X65964346Y-91136183D01*
X66083241Y-91330202D01*
X66083245Y-91330208D01*
X66085824Y-91334416D01*
X66240031Y-91514969D01*
X66243787Y-91518177D01*
X66243792Y-91518182D01*
X66362056Y-91619189D01*
X66400866Y-91678639D01*
X66401372Y-91749634D01*
X66362056Y-91810811D01*
X66243792Y-91911818D01*
X66243787Y-91911823D01*
X66240031Y-91915031D01*
X66085824Y-92095584D01*
X66083245Y-92099792D01*
X66083241Y-92099798D01*
X65964346Y-92293817D01*
X65961760Y-92298037D01*
X65959867Y-92302607D01*
X65959865Y-92302611D01*
X65872789Y-92512833D01*
X65870895Y-92517406D01*
X65851640Y-92597609D01*
X65819043Y-92733387D01*
X65815465Y-92748289D01*
X65796835Y-92985000D01*
X65815465Y-93221711D01*
X65870895Y-93452594D01*
X65872788Y-93457165D01*
X65872789Y-93457167D01*
X65902769Y-93529544D01*
X65961760Y-93671963D01*
X65964346Y-93676183D01*
X66083241Y-93870202D01*
X66083245Y-93870208D01*
X66085824Y-93874416D01*
X66240031Y-94054969D01*
X66243787Y-94058177D01*
X66243792Y-94058182D01*
X66362056Y-94159189D01*
X66400866Y-94218639D01*
X66401372Y-94289634D01*
X66362056Y-94350811D01*
X66243792Y-94451818D01*
X66243787Y-94451823D01*
X66240031Y-94455031D01*
X66085824Y-94635584D01*
X66083245Y-94639792D01*
X66083241Y-94639798D01*
X66022778Y-94738465D01*
X65961760Y-94838037D01*
X65959867Y-94842607D01*
X65959865Y-94842611D01*
X65875278Y-95046825D01*
X65870895Y-95057406D01*
X65867094Y-95073240D01*
X65823223Y-95255975D01*
X65815465Y-95288289D01*
X65796835Y-95525000D01*
X65815465Y-95761711D01*
X65870895Y-95992594D01*
X65872788Y-95997165D01*
X65872789Y-95997167D01*
X65949152Y-96181524D01*
X65961760Y-96211963D01*
X65964346Y-96216183D01*
X66083241Y-96410202D01*
X66083245Y-96410208D01*
X66085824Y-96414416D01*
X66240031Y-96594969D01*
X66243787Y-96598177D01*
X66243792Y-96598182D01*
X66362056Y-96699189D01*
X66400866Y-96758639D01*
X66401372Y-96829634D01*
X66362056Y-96890811D01*
X66243792Y-96991818D01*
X66243787Y-96991823D01*
X66240031Y-96995031D01*
X66085824Y-97175584D01*
X66083245Y-97179792D01*
X66083241Y-97179798D01*
X65964346Y-97373817D01*
X65961760Y-97378037D01*
X65870895Y-97597406D01*
X65815465Y-97828289D01*
X65796835Y-98065000D01*
X65815465Y-98301711D01*
X65870895Y-98532594D01*
X65872788Y-98537165D01*
X65872789Y-98537167D01*
X65954717Y-98734959D01*
X65961760Y-98751963D01*
X65964346Y-98756183D01*
X66083241Y-98950202D01*
X66083245Y-98950208D01*
X66085824Y-98954416D01*
X66240031Y-99134969D01*
X66243787Y-99138177D01*
X66243792Y-99138182D01*
X66362056Y-99239189D01*
X66400866Y-99298639D01*
X66401372Y-99369634D01*
X66362056Y-99430811D01*
X66243792Y-99531818D01*
X66243787Y-99531823D01*
X66240031Y-99535031D01*
X66085824Y-99715584D01*
X66083245Y-99719792D01*
X66083241Y-99719798D01*
X65965867Y-99911335D01*
X65961760Y-99918037D01*
X65959867Y-99922607D01*
X65959865Y-99922611D01*
X65876968Y-100122745D01*
X65870895Y-100137406D01*
X65815465Y-100368289D01*
X65796835Y-100605000D01*
X65815465Y-100841711D01*
X65870895Y-101072594D01*
X65872788Y-101077165D01*
X65872789Y-101077167D01*
X65944807Y-101251034D01*
X65961760Y-101291963D01*
X65964346Y-101296183D01*
X66083241Y-101490202D01*
X66083245Y-101490208D01*
X66085824Y-101494416D01*
X66240031Y-101674969D01*
X66243787Y-101678177D01*
X66243792Y-101678182D01*
X66362056Y-101779189D01*
X66400866Y-101838639D01*
X66401372Y-101909634D01*
X66362056Y-101970811D01*
X66243792Y-102071818D01*
X66243787Y-102071823D01*
X66240031Y-102075031D01*
X66085824Y-102255584D01*
X66083245Y-102259792D01*
X66083241Y-102259798D01*
X66061305Y-102295595D01*
X65961760Y-102458037D01*
X65959867Y-102462607D01*
X65959865Y-102462611D01*
X65876968Y-102662745D01*
X65870895Y-102677406D01*
X65815465Y-102908289D01*
X65796835Y-103145000D01*
X65815465Y-103381711D01*
X65816619Y-103386518D01*
X65816620Y-103386524D01*
X65841040Y-103488238D01*
X65870895Y-103612594D01*
X65872788Y-103617165D01*
X65872789Y-103617167D01*
X65944807Y-103791034D01*
X65961760Y-103831963D01*
X65964346Y-103836183D01*
X66083241Y-104030202D01*
X66083245Y-104030208D01*
X66085824Y-104034416D01*
X66240031Y-104214969D01*
X66243787Y-104218177D01*
X66243792Y-104218182D01*
X66362056Y-104319189D01*
X66400866Y-104378639D01*
X66401372Y-104449634D01*
X66362056Y-104510811D01*
X66243792Y-104611818D01*
X66243787Y-104611823D01*
X66240031Y-104615031D01*
X66085824Y-104795584D01*
X66083245Y-104799792D01*
X66083241Y-104799798D01*
X66020363Y-104902406D01*
X65961760Y-104998037D01*
X65959867Y-105002607D01*
X65959865Y-105002611D01*
X65876968Y-105202745D01*
X65870895Y-105217406D01*
X65857220Y-105274366D01*
X65822640Y-105418404D01*
X65815465Y-105448289D01*
X65796835Y-105685000D01*
X65815465Y-105921711D01*
X65870895Y-106152594D01*
X65872788Y-106157165D01*
X65872789Y-106157167D01*
X65944807Y-106331034D01*
X65961760Y-106371963D01*
X65964346Y-106376183D01*
X66083241Y-106570202D01*
X66083245Y-106570208D01*
X66085824Y-106574416D01*
X66240031Y-106754969D01*
X66243787Y-106758177D01*
X66243792Y-106758182D01*
X66362056Y-106859189D01*
X66400866Y-106918639D01*
X66401372Y-106989634D01*
X66362056Y-107050811D01*
X66243792Y-107151818D01*
X66243787Y-107151823D01*
X66240031Y-107155031D01*
X66085824Y-107335584D01*
X66083245Y-107339792D01*
X66083241Y-107339798D01*
X66015461Y-107450405D01*
X65961760Y-107538037D01*
X65959867Y-107542607D01*
X65959865Y-107542611D01*
X65945151Y-107578134D01*
X65870895Y-107757406D01*
X65815465Y-107988289D01*
X65796835Y-108225000D01*
X65815465Y-108461711D01*
X65870895Y-108692594D01*
X65872788Y-108697165D01*
X65872789Y-108697167D01*
X65905424Y-108775954D01*
X65961760Y-108911963D01*
X65964346Y-108916183D01*
X66083241Y-109110202D01*
X66083245Y-109110208D01*
X66085824Y-109114416D01*
X66240031Y-109294969D01*
X66243787Y-109298177D01*
X66243792Y-109298182D01*
X66362056Y-109399189D01*
X66400866Y-109458639D01*
X66401372Y-109529634D01*
X66362056Y-109590811D01*
X66243792Y-109691818D01*
X66243787Y-109691823D01*
X66240031Y-109695031D01*
X66085824Y-109875584D01*
X66083245Y-109879792D01*
X66083241Y-109879798D01*
X66054759Y-109926277D01*
X65961760Y-110078037D01*
X65959867Y-110082607D01*
X65959865Y-110082611D01*
X65912385Y-110197240D01*
X65870895Y-110297406D01*
X65869740Y-110302218D01*
X65821970Y-110501195D01*
X65815465Y-110528289D01*
X65796835Y-110765000D01*
X65815465Y-111001711D01*
X65870895Y-111232594D01*
X65872788Y-111237165D01*
X65872789Y-111237167D01*
X65896525Y-111294470D01*
X65961760Y-111451963D01*
X65964346Y-111456183D01*
X66083241Y-111650202D01*
X66083245Y-111650208D01*
X66085824Y-111654416D01*
X66240031Y-111834969D01*
X66243787Y-111838177D01*
X66243792Y-111838182D01*
X66362056Y-111939189D01*
X66400866Y-111998639D01*
X66401372Y-112069634D01*
X66362056Y-112130811D01*
X66243792Y-112231818D01*
X66243787Y-112231823D01*
X66240031Y-112235031D01*
X66085824Y-112415584D01*
X66083245Y-112419792D01*
X66083241Y-112419798D01*
X65964346Y-112613817D01*
X65961760Y-112618037D01*
X65959867Y-112622607D01*
X65959865Y-112622611D01*
X65893022Y-112783986D01*
X65870895Y-112837406D01*
X65869740Y-112842218D01*
X65817024Y-113061797D01*
X65815465Y-113068289D01*
X65796835Y-113305000D01*
X65815465Y-113541711D01*
X65816619Y-113546518D01*
X65816620Y-113546524D01*
X65845424Y-113666500D01*
X65870895Y-113772594D01*
X65961760Y-113991963D01*
X65964346Y-113996183D01*
X66083241Y-114190202D01*
X66083245Y-114190208D01*
X66085824Y-114194416D01*
X66240031Y-114374969D01*
X66243787Y-114378177D01*
X66243792Y-114378182D01*
X66362056Y-114479189D01*
X66400866Y-114538639D01*
X66401372Y-114609634D01*
X66362056Y-114670811D01*
X66243792Y-114771818D01*
X66243787Y-114771823D01*
X66240031Y-114775031D01*
X66085824Y-114955584D01*
X66083245Y-114959792D01*
X66083241Y-114959798D01*
X66020992Y-115061379D01*
X65961760Y-115158037D01*
X65959867Y-115162607D01*
X65959865Y-115162611D01*
X65872789Y-115372833D01*
X65870895Y-115377406D01*
X65869740Y-115382218D01*
X65823427Y-115575126D01*
X65815465Y-115608289D01*
X65796835Y-115845000D01*
X65815465Y-116081711D01*
X65870895Y-116312594D01*
X65872788Y-116317165D01*
X65872789Y-116317167D01*
X65957025Y-116520531D01*
X65961760Y-116531963D01*
X65964346Y-116536183D01*
X66083241Y-116730202D01*
X66083245Y-116730208D01*
X66085824Y-116734416D01*
X66240031Y-116914969D01*
X66243787Y-116918177D01*
X66243792Y-116918182D01*
X66362056Y-117019189D01*
X66400866Y-117078639D01*
X66401372Y-117149634D01*
X66362056Y-117210811D01*
X66243792Y-117311818D01*
X66243787Y-117311823D01*
X66240031Y-117315031D01*
X66085824Y-117495584D01*
X66083245Y-117499792D01*
X66083241Y-117499798D01*
X65964346Y-117693817D01*
X65961760Y-117698037D01*
X65870895Y-117917406D01*
X65869740Y-117922218D01*
X65817647Y-118139202D01*
X65815465Y-118148289D01*
X65796835Y-118385000D01*
X65815465Y-118621711D01*
X65816619Y-118626518D01*
X65816620Y-118626524D01*
X65841040Y-118728238D01*
X65870895Y-118852594D01*
X65961760Y-119071963D01*
X65964346Y-119076183D01*
X66083241Y-119270202D01*
X66083245Y-119270208D01*
X66085824Y-119274416D01*
X66240031Y-119454969D01*
X66243787Y-119458177D01*
X66243792Y-119458182D01*
X66362056Y-119559189D01*
X66400866Y-119618639D01*
X66401372Y-119689634D01*
X66362056Y-119750811D01*
X66243792Y-119851818D01*
X66243787Y-119851823D01*
X66240031Y-119855031D01*
X66085824Y-120035584D01*
X66083245Y-120039792D01*
X66083241Y-120039798D01*
X65989831Y-120192230D01*
X65961760Y-120238037D01*
X65959867Y-120242607D01*
X65959865Y-120242611D01*
X65872789Y-120452833D01*
X65870895Y-120457406D01*
X65869740Y-120462218D01*
X65818866Y-120674124D01*
X65815465Y-120688289D01*
X65796835Y-120925000D01*
X43423165Y-120925000D01*
X43404535Y-120688289D01*
X43401135Y-120674124D01*
X43350260Y-120462218D01*
X43349105Y-120457406D01*
X43347211Y-120452833D01*
X43260135Y-120242611D01*
X43260133Y-120242607D01*
X43258240Y-120238037D01*
X43230169Y-120192230D01*
X43136759Y-120039798D01*
X43136755Y-120039792D01*
X43134176Y-120035584D01*
X42979969Y-119855031D01*
X42976213Y-119851823D01*
X42976208Y-119851818D01*
X42857944Y-119750811D01*
X42819134Y-119691361D01*
X42818628Y-119620366D01*
X42857944Y-119559189D01*
X42976208Y-119458182D01*
X42976213Y-119458177D01*
X42979969Y-119454969D01*
X43134176Y-119274416D01*
X43136755Y-119270208D01*
X43136759Y-119270202D01*
X43255654Y-119076183D01*
X43258240Y-119071963D01*
X43349105Y-118852594D01*
X43378960Y-118728238D01*
X43403380Y-118626524D01*
X43403381Y-118626518D01*
X43404535Y-118621711D01*
X43423165Y-118385000D01*
X43404535Y-118148289D01*
X43402354Y-118139202D01*
X43350260Y-117922218D01*
X43349105Y-117917406D01*
X43258240Y-117698037D01*
X43255654Y-117693817D01*
X43136759Y-117499798D01*
X43136755Y-117499792D01*
X43134176Y-117495584D01*
X42979969Y-117315031D01*
X42976213Y-117311823D01*
X42976208Y-117311818D01*
X42857944Y-117210811D01*
X42819134Y-117151361D01*
X42818628Y-117080366D01*
X42857944Y-117019189D01*
X42976208Y-116918182D01*
X42976213Y-116918177D01*
X42979969Y-116914969D01*
X43134176Y-116734416D01*
X43136755Y-116730208D01*
X43136759Y-116730202D01*
X43255654Y-116536183D01*
X43258240Y-116531963D01*
X43262976Y-116520531D01*
X43347211Y-116317167D01*
X43347212Y-116317165D01*
X43349105Y-116312594D01*
X43404535Y-116081711D01*
X43423165Y-115845000D01*
X43404535Y-115608289D01*
X43396574Y-115575126D01*
X43350260Y-115382218D01*
X43349105Y-115377406D01*
X43347211Y-115372833D01*
X43260135Y-115162611D01*
X43260133Y-115162607D01*
X43258240Y-115158037D01*
X43199008Y-115061379D01*
X43136759Y-114959798D01*
X43136755Y-114959792D01*
X43134176Y-114955584D01*
X42979969Y-114775031D01*
X42976213Y-114771823D01*
X42976208Y-114771818D01*
X42857944Y-114670811D01*
X42819134Y-114611361D01*
X42818628Y-114540366D01*
X42857944Y-114479189D01*
X42976208Y-114378182D01*
X42976213Y-114378177D01*
X42979969Y-114374969D01*
X43134176Y-114194416D01*
X43136755Y-114190208D01*
X43136759Y-114190202D01*
X43255654Y-113996183D01*
X43258240Y-113991963D01*
X43349105Y-113772594D01*
X43374576Y-113666500D01*
X43403380Y-113546524D01*
X43403381Y-113546518D01*
X43404535Y-113541711D01*
X43423165Y-113305000D01*
X43404535Y-113068289D01*
X43402977Y-113061797D01*
X43350260Y-112842218D01*
X43349105Y-112837406D01*
X43326978Y-112783986D01*
X43260135Y-112622611D01*
X43260133Y-112622607D01*
X43258240Y-112618037D01*
X43255654Y-112613817D01*
X43136759Y-112419798D01*
X43136755Y-112419792D01*
X43134176Y-112415584D01*
X42979969Y-112235031D01*
X42976213Y-112231823D01*
X42976208Y-112231818D01*
X42857944Y-112130811D01*
X42819134Y-112071361D01*
X42818628Y-112000366D01*
X42857944Y-111939189D01*
X42976208Y-111838182D01*
X42976213Y-111838177D01*
X42979969Y-111834969D01*
X43134176Y-111654416D01*
X43136755Y-111650208D01*
X43136759Y-111650202D01*
X43255654Y-111456183D01*
X43258240Y-111451963D01*
X43323476Y-111294470D01*
X43347211Y-111237167D01*
X43347212Y-111237165D01*
X43349105Y-111232594D01*
X43404535Y-111001711D01*
X43423165Y-110765000D01*
X43404535Y-110528289D01*
X43398031Y-110501195D01*
X43350260Y-110302218D01*
X43349105Y-110297406D01*
X43307615Y-110197240D01*
X43260135Y-110082611D01*
X43260133Y-110082607D01*
X43258240Y-110078037D01*
X43165241Y-109926277D01*
X43136759Y-109879798D01*
X43136755Y-109879792D01*
X43134176Y-109875584D01*
X42979969Y-109695031D01*
X42976213Y-109691823D01*
X42976208Y-109691818D01*
X42857944Y-109590811D01*
X42819134Y-109531361D01*
X42818628Y-109460366D01*
X42857944Y-109399189D01*
X42976208Y-109298182D01*
X42976213Y-109298177D01*
X42979969Y-109294969D01*
X43134176Y-109114416D01*
X43136755Y-109110208D01*
X43136759Y-109110202D01*
X43255654Y-108916183D01*
X43258240Y-108911963D01*
X43314577Y-108775954D01*
X43347211Y-108697167D01*
X43347212Y-108697165D01*
X43349105Y-108692594D01*
X43404535Y-108461711D01*
X43423165Y-108225000D01*
X43404535Y-107988289D01*
X43349105Y-107757406D01*
X43274849Y-107578134D01*
X43260135Y-107542611D01*
X43260133Y-107542607D01*
X43258240Y-107538037D01*
X43204539Y-107450405D01*
X43136759Y-107339798D01*
X43136755Y-107339792D01*
X43134176Y-107335584D01*
X42979969Y-107155031D01*
X42976213Y-107151823D01*
X42976208Y-107151818D01*
X42857944Y-107050811D01*
X42819134Y-106991361D01*
X42818628Y-106920366D01*
X42857944Y-106859189D01*
X42976208Y-106758182D01*
X42976213Y-106758177D01*
X42979969Y-106754969D01*
X43134176Y-106574416D01*
X43136755Y-106570208D01*
X43136759Y-106570202D01*
X43255654Y-106376183D01*
X43258240Y-106371963D01*
X43275194Y-106331034D01*
X43347211Y-106157167D01*
X43347212Y-106157165D01*
X43349105Y-106152594D01*
X43404535Y-105921711D01*
X43423165Y-105685000D01*
X43404535Y-105448289D01*
X43397361Y-105418404D01*
X43362780Y-105274366D01*
X43349105Y-105217406D01*
X43343032Y-105202745D01*
X43260135Y-105002611D01*
X43260133Y-105002607D01*
X43258240Y-104998037D01*
X43199637Y-104902406D01*
X43136759Y-104799798D01*
X43136755Y-104799792D01*
X43134176Y-104795584D01*
X42979969Y-104615031D01*
X42976213Y-104611823D01*
X42976208Y-104611818D01*
X42857944Y-104510811D01*
X42819134Y-104451361D01*
X42818628Y-104380366D01*
X42857944Y-104319189D01*
X42976208Y-104218182D01*
X42976213Y-104218177D01*
X42979969Y-104214969D01*
X43134176Y-104034416D01*
X43136755Y-104030208D01*
X43136759Y-104030202D01*
X43255654Y-103836183D01*
X43258240Y-103831963D01*
X43275194Y-103791034D01*
X43347211Y-103617167D01*
X43347212Y-103617165D01*
X43349105Y-103612594D01*
X43378960Y-103488238D01*
X43403380Y-103386524D01*
X43403381Y-103386518D01*
X43404535Y-103381711D01*
X43423165Y-103145000D01*
X43404535Y-102908289D01*
X43349105Y-102677406D01*
X43343032Y-102662745D01*
X43260135Y-102462611D01*
X43260133Y-102462607D01*
X43258240Y-102458037D01*
X43158695Y-102295595D01*
X43136759Y-102259798D01*
X43136755Y-102259792D01*
X43134176Y-102255584D01*
X42979969Y-102075031D01*
X42976213Y-102071823D01*
X42976208Y-102071818D01*
X42857944Y-101970811D01*
X42819134Y-101911361D01*
X42818628Y-101840366D01*
X42857944Y-101779189D01*
X42976208Y-101678182D01*
X42976213Y-101678177D01*
X42979969Y-101674969D01*
X43134176Y-101494416D01*
X43136755Y-101490208D01*
X43136759Y-101490202D01*
X43255654Y-101296183D01*
X43258240Y-101291963D01*
X43275194Y-101251034D01*
X43347211Y-101077167D01*
X43347212Y-101077165D01*
X43349105Y-101072594D01*
X43404535Y-100841711D01*
X43423165Y-100605000D01*
X43404535Y-100368289D01*
X43349105Y-100137406D01*
X43343032Y-100122745D01*
X43260135Y-99922611D01*
X43260133Y-99922607D01*
X43258240Y-99918037D01*
X43254133Y-99911335D01*
X43136759Y-99719798D01*
X43136755Y-99719792D01*
X43134176Y-99715584D01*
X42979969Y-99535031D01*
X42976213Y-99531823D01*
X42976208Y-99531818D01*
X42857944Y-99430811D01*
X42819134Y-99371361D01*
X42818628Y-99300366D01*
X42857944Y-99239189D01*
X42976208Y-99138182D01*
X42976213Y-99138177D01*
X42979969Y-99134969D01*
X43134176Y-98954416D01*
X43136755Y-98950208D01*
X43136759Y-98950202D01*
X43255654Y-98756183D01*
X43258240Y-98751963D01*
X43265284Y-98734959D01*
X43347211Y-98537167D01*
X43347212Y-98537165D01*
X43349105Y-98532594D01*
X43404535Y-98301711D01*
X43423165Y-98065000D01*
X43404535Y-97828289D01*
X43349105Y-97597406D01*
X43258240Y-97378037D01*
X43255654Y-97373817D01*
X43136759Y-97179798D01*
X43136755Y-97179792D01*
X43134176Y-97175584D01*
X42979969Y-96995031D01*
X42976213Y-96991823D01*
X42976208Y-96991818D01*
X42857944Y-96890811D01*
X42819134Y-96831361D01*
X42818628Y-96760366D01*
X42857944Y-96699189D01*
X42976208Y-96598182D01*
X42976213Y-96598177D01*
X42979969Y-96594969D01*
X43134176Y-96414416D01*
X43136755Y-96410208D01*
X43136759Y-96410202D01*
X43255654Y-96216183D01*
X43258240Y-96211963D01*
X43270849Y-96181524D01*
X43347211Y-95997167D01*
X43347212Y-95997165D01*
X43349105Y-95992594D01*
X43404535Y-95761711D01*
X43423165Y-95525000D01*
X43404535Y-95288289D01*
X43396778Y-95255975D01*
X43352906Y-95073240D01*
X43349105Y-95057406D01*
X43344722Y-95046825D01*
X43260135Y-94842611D01*
X43260133Y-94842607D01*
X43258240Y-94838037D01*
X43197222Y-94738465D01*
X43136759Y-94639798D01*
X43136755Y-94639792D01*
X43134176Y-94635584D01*
X42979969Y-94455031D01*
X42976213Y-94451823D01*
X42976208Y-94451818D01*
X42857944Y-94350811D01*
X42819134Y-94291361D01*
X42818628Y-94220366D01*
X42857944Y-94159189D01*
X42976208Y-94058182D01*
X42976213Y-94058177D01*
X42979969Y-94054969D01*
X43134176Y-93874416D01*
X43136755Y-93870208D01*
X43136759Y-93870202D01*
X43255654Y-93676183D01*
X43258240Y-93671963D01*
X43317232Y-93529544D01*
X43347211Y-93457167D01*
X43347212Y-93457165D01*
X43349105Y-93452594D01*
X43404535Y-93221711D01*
X43423165Y-92985000D01*
X43404535Y-92748289D01*
X43400958Y-92733387D01*
X43368360Y-92597609D01*
X43349105Y-92517406D01*
X43347211Y-92512833D01*
X43260135Y-92302611D01*
X43260133Y-92302607D01*
X43258240Y-92298037D01*
X43255654Y-92293817D01*
X43136759Y-92099798D01*
X43136755Y-92099792D01*
X43134176Y-92095584D01*
X42979969Y-91915031D01*
X42976213Y-91911823D01*
X42976208Y-91911818D01*
X42857944Y-91810811D01*
X42819134Y-91751361D01*
X42818628Y-91680366D01*
X42857944Y-91619189D01*
X42976208Y-91518182D01*
X42976213Y-91518177D01*
X42979969Y-91514969D01*
X43134176Y-91334416D01*
X43136755Y-91330208D01*
X43136759Y-91330202D01*
X43255654Y-91136183D01*
X43258240Y-91131963D01*
X43281590Y-91075592D01*
X43347211Y-90917167D01*
X43347212Y-90917165D01*
X43349105Y-90912594D01*
X43386259Y-90757837D01*
X43403380Y-90686524D01*
X43403381Y-90686518D01*
X43404535Y-90681711D01*
X43423165Y-90445000D01*
X43404535Y-90208289D01*
X43402469Y-90199680D01*
X43350260Y-89982218D01*
X43349105Y-89977406D01*
X43258240Y-89758037D01*
X43255654Y-89753817D01*
X43136759Y-89559798D01*
X43136755Y-89559792D01*
X43134176Y-89555584D01*
X42979969Y-89375031D01*
X42799416Y-89220824D01*
X42795208Y-89218245D01*
X42795202Y-89218241D01*
X42601183Y-89099346D01*
X42596963Y-89096760D01*
X42592393Y-89094867D01*
X42592389Y-89094865D01*
X42382167Y-89007789D01*
X42382165Y-89007788D01*
X42377594Y-89005895D01*
X42297391Y-88986640D01*
X42151524Y-88951620D01*
X42151518Y-88951619D01*
X42146711Y-88950465D01*
X41910000Y-88931835D01*
X41673289Y-88950465D01*
X41668482Y-88951619D01*
X41668476Y-88951620D01*
X41522609Y-88986640D01*
X41442406Y-89005895D01*
X41437835Y-89007788D01*
X41437833Y-89007789D01*
X41227611Y-89094865D01*
X41227607Y-89094867D01*
X41223037Y-89096760D01*
X41218817Y-89099346D01*
X41024798Y-89218241D01*
X41024792Y-89218245D01*
X41020584Y-89220824D01*
X40840031Y-89375031D01*
X40685824Y-89555584D01*
X40683245Y-89559792D01*
X40683241Y-89559798D01*
X40564346Y-89753817D01*
X40561760Y-89758037D01*
X40470895Y-89977406D01*
X40469740Y-89982218D01*
X40417532Y-90199680D01*
X40415465Y-90208289D01*
X40396835Y-90445000D01*
X40415465Y-90681711D01*
X40416619Y-90686518D01*
X40416620Y-90686524D01*
X40433741Y-90757837D01*
X40470895Y-90912594D01*
X40472788Y-90917165D01*
X40472789Y-90917167D01*
X40538411Y-91075592D01*
X40561760Y-91131963D01*
X40564346Y-91136183D01*
X40683241Y-91330202D01*
X40683245Y-91330208D01*
X40685824Y-91334416D01*
X40840031Y-91514969D01*
X40843787Y-91518177D01*
X40843792Y-91518182D01*
X40962056Y-91619189D01*
X41000866Y-91678639D01*
X41001372Y-91749634D01*
X40962056Y-91810811D01*
X40843792Y-91911818D01*
X40843787Y-91911823D01*
X40840031Y-91915031D01*
X40685824Y-92095584D01*
X40683245Y-92099792D01*
X40683241Y-92099798D01*
X40564346Y-92293817D01*
X40561760Y-92298037D01*
X40559867Y-92302607D01*
X40559865Y-92302611D01*
X40472789Y-92512833D01*
X40470895Y-92517406D01*
X40451640Y-92597609D01*
X40419043Y-92733387D01*
X40415465Y-92748289D01*
X40396835Y-92985000D01*
X40415465Y-93221711D01*
X40470895Y-93452594D01*
X40472788Y-93457165D01*
X40472789Y-93457167D01*
X40502769Y-93529544D01*
X40561760Y-93671963D01*
X40564346Y-93676183D01*
X40683241Y-93870202D01*
X40683245Y-93870208D01*
X40685824Y-93874416D01*
X40840031Y-94054969D01*
X40843787Y-94058177D01*
X40843792Y-94058182D01*
X40962056Y-94159189D01*
X41000866Y-94218639D01*
X41001372Y-94289634D01*
X40962056Y-94350811D01*
X40843792Y-94451818D01*
X40843787Y-94451823D01*
X40840031Y-94455031D01*
X40685824Y-94635584D01*
X40683245Y-94639792D01*
X40683241Y-94639798D01*
X40622778Y-94738465D01*
X40561760Y-94838037D01*
X40559867Y-94842607D01*
X40559865Y-94842611D01*
X40475278Y-95046825D01*
X40470895Y-95057406D01*
X40467094Y-95073240D01*
X40423223Y-95255975D01*
X40415465Y-95288289D01*
X40396835Y-95525000D01*
X40415465Y-95761711D01*
X40470895Y-95992594D01*
X40472788Y-95997165D01*
X40472789Y-95997167D01*
X40549152Y-96181524D01*
X40561760Y-96211963D01*
X40564346Y-96216183D01*
X40683241Y-96410202D01*
X40683245Y-96410208D01*
X40685824Y-96414416D01*
X40840031Y-96594969D01*
X40843787Y-96598177D01*
X40843792Y-96598182D01*
X40962056Y-96699189D01*
X41000866Y-96758639D01*
X41001372Y-96829634D01*
X40962056Y-96890811D01*
X40843792Y-96991818D01*
X40843787Y-96991823D01*
X40840031Y-96995031D01*
X40685824Y-97175584D01*
X40683245Y-97179792D01*
X40683241Y-97179798D01*
X40564346Y-97373817D01*
X40561760Y-97378037D01*
X40470895Y-97597406D01*
X40415465Y-97828289D01*
X40396835Y-98065000D01*
X40415465Y-98301711D01*
X40470895Y-98532594D01*
X40472788Y-98537165D01*
X40472789Y-98537167D01*
X40554717Y-98734959D01*
X40561760Y-98751963D01*
X40564346Y-98756183D01*
X40683241Y-98950202D01*
X40683245Y-98950208D01*
X40685824Y-98954416D01*
X40840031Y-99134969D01*
X40843787Y-99138177D01*
X40843792Y-99138182D01*
X40962056Y-99239189D01*
X41000866Y-99298639D01*
X41001372Y-99369634D01*
X40962056Y-99430811D01*
X40843792Y-99531818D01*
X40843787Y-99531823D01*
X40840031Y-99535031D01*
X40685824Y-99715584D01*
X40683245Y-99719792D01*
X40683241Y-99719798D01*
X40565867Y-99911335D01*
X40561760Y-99918037D01*
X40559867Y-99922607D01*
X40559865Y-99922611D01*
X40476968Y-100122745D01*
X40470895Y-100137406D01*
X40415465Y-100368289D01*
X40396835Y-100605000D01*
X40415465Y-100841711D01*
X40470895Y-101072594D01*
X40472788Y-101077165D01*
X40472789Y-101077167D01*
X40544807Y-101251034D01*
X40561760Y-101291963D01*
X40564346Y-101296183D01*
X40683241Y-101490202D01*
X40683245Y-101490208D01*
X40685824Y-101494416D01*
X40840031Y-101674969D01*
X40843787Y-101678177D01*
X40843792Y-101678182D01*
X40962056Y-101779189D01*
X41000866Y-101838639D01*
X41001372Y-101909634D01*
X40962056Y-101970811D01*
X40843792Y-102071818D01*
X40843787Y-102071823D01*
X40840031Y-102075031D01*
X40685824Y-102255584D01*
X40683245Y-102259792D01*
X40683241Y-102259798D01*
X40661305Y-102295595D01*
X40561760Y-102458037D01*
X40559867Y-102462607D01*
X40559865Y-102462611D01*
X40476968Y-102662745D01*
X40470895Y-102677406D01*
X40415465Y-102908289D01*
X40396835Y-103145000D01*
X40415465Y-103381711D01*
X40416619Y-103386518D01*
X40416620Y-103386524D01*
X40441040Y-103488238D01*
X40470895Y-103612594D01*
X40472788Y-103617165D01*
X40472789Y-103617167D01*
X40544807Y-103791034D01*
X40561760Y-103831963D01*
X40564346Y-103836183D01*
X40683241Y-104030202D01*
X40683245Y-104030208D01*
X40685824Y-104034416D01*
X40840031Y-104214969D01*
X40843787Y-104218177D01*
X40843792Y-104218182D01*
X40962056Y-104319189D01*
X41000866Y-104378639D01*
X41001372Y-104449634D01*
X40962056Y-104510811D01*
X40843792Y-104611818D01*
X40843787Y-104611823D01*
X40840031Y-104615031D01*
X40685824Y-104795584D01*
X40683245Y-104799792D01*
X40683241Y-104799798D01*
X40620363Y-104902406D01*
X40561760Y-104998037D01*
X40559867Y-105002607D01*
X40559865Y-105002611D01*
X40476968Y-105202745D01*
X40470895Y-105217406D01*
X40457220Y-105274366D01*
X40422640Y-105418404D01*
X40415465Y-105448289D01*
X40396835Y-105685000D01*
X40415465Y-105921711D01*
X40470895Y-106152594D01*
X40472788Y-106157165D01*
X40472789Y-106157167D01*
X40544807Y-106331034D01*
X40561760Y-106371963D01*
X40564346Y-106376183D01*
X40683241Y-106570202D01*
X40683245Y-106570208D01*
X40685824Y-106574416D01*
X40840031Y-106754969D01*
X40843787Y-106758177D01*
X40843792Y-106758182D01*
X40962056Y-106859189D01*
X41000866Y-106918639D01*
X41001372Y-106989634D01*
X40962056Y-107050811D01*
X40843792Y-107151818D01*
X40843787Y-107151823D01*
X40840031Y-107155031D01*
X40685824Y-107335584D01*
X40683245Y-107339792D01*
X40683241Y-107339798D01*
X40615461Y-107450405D01*
X40561760Y-107538037D01*
X40559867Y-107542607D01*
X40559865Y-107542611D01*
X40545151Y-107578134D01*
X40470895Y-107757406D01*
X40415465Y-107988289D01*
X40396835Y-108225000D01*
X40415465Y-108461711D01*
X40470895Y-108692594D01*
X40472788Y-108697165D01*
X40472789Y-108697167D01*
X40505424Y-108775954D01*
X40561760Y-108911963D01*
X40564346Y-108916183D01*
X40683241Y-109110202D01*
X40683245Y-109110208D01*
X40685824Y-109114416D01*
X40840031Y-109294969D01*
X40843787Y-109298177D01*
X40843792Y-109298182D01*
X40962056Y-109399189D01*
X41000866Y-109458639D01*
X41001372Y-109529634D01*
X40962056Y-109590811D01*
X40843792Y-109691818D01*
X40843787Y-109691823D01*
X40840031Y-109695031D01*
X40685824Y-109875584D01*
X40683245Y-109879792D01*
X40683241Y-109879798D01*
X40654759Y-109926277D01*
X40561760Y-110078037D01*
X40559867Y-110082607D01*
X40559865Y-110082611D01*
X40512385Y-110197240D01*
X40470895Y-110297406D01*
X40469740Y-110302218D01*
X40421970Y-110501195D01*
X40415465Y-110528289D01*
X40396835Y-110765000D01*
X40415465Y-111001711D01*
X40470895Y-111232594D01*
X40472788Y-111237165D01*
X40472789Y-111237167D01*
X40496525Y-111294470D01*
X40561760Y-111451963D01*
X40564346Y-111456183D01*
X40683241Y-111650202D01*
X40683245Y-111650208D01*
X40685824Y-111654416D01*
X40840031Y-111834969D01*
X40843787Y-111838177D01*
X40843792Y-111838182D01*
X40962056Y-111939189D01*
X41000866Y-111998639D01*
X41001372Y-112069634D01*
X40962056Y-112130811D01*
X40843792Y-112231818D01*
X40843787Y-112231823D01*
X40840031Y-112235031D01*
X40685824Y-112415584D01*
X40683245Y-112419792D01*
X40683241Y-112419798D01*
X40564346Y-112613817D01*
X40561760Y-112618037D01*
X40559867Y-112622607D01*
X40559865Y-112622611D01*
X40493022Y-112783986D01*
X40470895Y-112837406D01*
X40469740Y-112842218D01*
X40417024Y-113061797D01*
X40415465Y-113068289D01*
X40396835Y-113305000D01*
X40415465Y-113541711D01*
X40416619Y-113546518D01*
X40416620Y-113546524D01*
X40445424Y-113666500D01*
X40470895Y-113772594D01*
X40561760Y-113991963D01*
X40564346Y-113996183D01*
X40683241Y-114190202D01*
X40683245Y-114190208D01*
X40685824Y-114194416D01*
X40840031Y-114374969D01*
X40843787Y-114378177D01*
X40843792Y-114378182D01*
X40962056Y-114479189D01*
X41000866Y-114538639D01*
X41001372Y-114609634D01*
X40962056Y-114670811D01*
X40843792Y-114771818D01*
X40843787Y-114771823D01*
X40840031Y-114775031D01*
X40685824Y-114955584D01*
X40683245Y-114959792D01*
X40683241Y-114959798D01*
X40620992Y-115061379D01*
X40561760Y-115158037D01*
X40559867Y-115162607D01*
X40559865Y-115162611D01*
X40472789Y-115372833D01*
X40470895Y-115377406D01*
X40469740Y-115382218D01*
X40423427Y-115575126D01*
X40415465Y-115608289D01*
X40396835Y-115845000D01*
X40415465Y-116081711D01*
X40470895Y-116312594D01*
X40472788Y-116317165D01*
X40472789Y-116317167D01*
X40557025Y-116520531D01*
X40561760Y-116531963D01*
X40564346Y-116536183D01*
X40683241Y-116730202D01*
X40683245Y-116730208D01*
X40685824Y-116734416D01*
X40840031Y-116914969D01*
X40843787Y-116918177D01*
X40843792Y-116918182D01*
X40962056Y-117019189D01*
X41000866Y-117078639D01*
X41001372Y-117149634D01*
X40962056Y-117210811D01*
X40843792Y-117311818D01*
X40843787Y-117311823D01*
X40840031Y-117315031D01*
X40685824Y-117495584D01*
X40683245Y-117499792D01*
X40683241Y-117499798D01*
X40564346Y-117693817D01*
X40561760Y-117698037D01*
X40470895Y-117917406D01*
X40469740Y-117922218D01*
X40417647Y-118139202D01*
X40415465Y-118148289D01*
X40396835Y-118385000D01*
X40415465Y-118621711D01*
X40416619Y-118626518D01*
X40416620Y-118626524D01*
X40441040Y-118728238D01*
X40470895Y-118852594D01*
X40561760Y-119071963D01*
X40564346Y-119076183D01*
X40683241Y-119270202D01*
X40683245Y-119270208D01*
X40685824Y-119274416D01*
X40840031Y-119454969D01*
X40843787Y-119458177D01*
X40843792Y-119458182D01*
X40962056Y-119559189D01*
X41000866Y-119618639D01*
X41001372Y-119689634D01*
X40962056Y-119750811D01*
X40843792Y-119851818D01*
X40843787Y-119851823D01*
X40840031Y-119855031D01*
X40685824Y-120035584D01*
X40683245Y-120039792D01*
X40683241Y-120039798D01*
X40589831Y-120192230D01*
X40561760Y-120238037D01*
X40559867Y-120242607D01*
X40559865Y-120242611D01*
X40472789Y-120452833D01*
X40470895Y-120457406D01*
X40469740Y-120462218D01*
X40418866Y-120674124D01*
X40415465Y-120688289D01*
X40396835Y-120925000D01*
X38100000Y-120925000D01*
X38100000Y-89142081D01*
X38120002Y-89073960D01*
X38173658Y-89027467D01*
X38218308Y-89016316D01*
X38286176Y-89012165D01*
X38424605Y-89003698D01*
X38428388Y-89002997D01*
X38428395Y-89002996D01*
X38628459Y-88965916D01*
X38744372Y-88944433D01*
X38953682Y-88878438D01*
X39050860Y-88847798D01*
X39050863Y-88847797D01*
X39054532Y-88846640D01*
X39058029Y-88845046D01*
X39058035Y-88845044D01*
X39346954Y-88713376D01*
X39346958Y-88713374D01*
X39350462Y-88711777D01*
X39627751Y-88541854D01*
X39630755Y-88539464D01*
X39630760Y-88539461D01*
X39755008Y-88440629D01*
X39882264Y-88339405D01*
X39884958Y-88336664D01*
X39884962Y-88336660D01*
X40107513Y-88110190D01*
X40107517Y-88110185D01*
X40110208Y-88107447D01*
X40308185Y-87849439D01*
X40473242Y-87569227D01*
X40602920Y-87270988D01*
X40695285Y-86959169D01*
X40748961Y-86638417D01*
X40755855Y-86480503D01*
X40778809Y-86413321D01*
X40834441Y-86369213D01*
X40881735Y-86360000D01*
X112786722Y-86360000D01*
X112854843Y-86380002D01*
G37*
G04 #@! TD.AperFunction*
G04 #@! TA.AperFunction,Conductor*
G36*
X92418459Y-115576541D02*
G01*
X92476591Y-115592118D01*
X92476602Y-115592120D01*
X92481913Y-115593543D01*
X92710000Y-115613498D01*
X92715475Y-115613019D01*
X92932612Y-115594022D01*
X92938087Y-115593543D01*
X92942150Y-115592454D01*
X93012313Y-115600279D01*
X93067416Y-115645047D01*
X93089570Y-115712498D01*
X93071739Y-115781220D01*
X93052728Y-115805591D01*
X90273724Y-118584595D01*
X90211412Y-118618621D01*
X90184629Y-118621500D01*
X84951867Y-118621500D01*
X84883746Y-118601498D01*
X84848655Y-118567772D01*
X84826198Y-118535700D01*
X84741093Y-118450595D01*
X84707067Y-118388283D01*
X84712132Y-118317468D01*
X84754679Y-118260632D01*
X84821199Y-118235821D01*
X84830188Y-118235500D01*
X89329233Y-118235500D01*
X89340416Y-118236027D01*
X89347909Y-118237702D01*
X89355835Y-118237453D01*
X89355836Y-118237453D01*
X89415986Y-118235562D01*
X89419945Y-118235500D01*
X89447856Y-118235500D01*
X89451791Y-118235003D01*
X89451856Y-118234995D01*
X89463693Y-118234062D01*
X89495951Y-118233048D01*
X89499970Y-118232922D01*
X89507889Y-118232673D01*
X89527343Y-118227021D01*
X89546700Y-118223013D01*
X89558930Y-118221468D01*
X89558931Y-118221468D01*
X89566797Y-118220474D01*
X89574168Y-118217555D01*
X89574170Y-118217555D01*
X89607912Y-118204196D01*
X89619142Y-118200351D01*
X89653983Y-118190229D01*
X89653984Y-118190229D01*
X89661593Y-118188018D01*
X89668412Y-118183985D01*
X89668417Y-118183983D01*
X89679028Y-118177707D01*
X89696776Y-118169012D01*
X89715617Y-118161552D01*
X89751387Y-118135564D01*
X89761307Y-118129048D01*
X89792535Y-118110580D01*
X89792538Y-118110578D01*
X89799362Y-118106542D01*
X89813683Y-118092221D01*
X89828717Y-118079380D01*
X89830431Y-118078135D01*
X89845107Y-118067472D01*
X89873298Y-118033395D01*
X89881288Y-118024616D01*
X92296752Y-115609152D01*
X92359064Y-115575126D01*
X92418459Y-115576541D01*
G37*
G04 #@! TD.AperFunction*
G04 #@! TA.AperFunction,Conductor*
G36*
X76609527Y-101258502D02*
G01*
X76630497Y-101275401D01*
X77561597Y-102206502D01*
X77595621Y-102268812D01*
X77598500Y-102295595D01*
X77598500Y-112824233D01*
X77597973Y-112835416D01*
X77596298Y-112842909D01*
X77596547Y-112850835D01*
X77596547Y-112850836D01*
X77598438Y-112910986D01*
X77598500Y-112914945D01*
X77598500Y-112942856D01*
X77598997Y-112946790D01*
X77598997Y-112946791D01*
X77599005Y-112946856D01*
X77599938Y-112958693D01*
X77601327Y-113002889D01*
X77606978Y-113022339D01*
X77610987Y-113041700D01*
X77613526Y-113061797D01*
X77616445Y-113069168D01*
X77616445Y-113069170D01*
X77629804Y-113102912D01*
X77633649Y-113114142D01*
X77645982Y-113156593D01*
X77650015Y-113163412D01*
X77650017Y-113163417D01*
X77656293Y-113174028D01*
X77664988Y-113191776D01*
X77672448Y-113210617D01*
X77677110Y-113217033D01*
X77677110Y-113217034D01*
X77698436Y-113246387D01*
X77704952Y-113256307D01*
X77727458Y-113294362D01*
X77741779Y-113308683D01*
X77754619Y-113323716D01*
X77766528Y-113340107D01*
X77772634Y-113345158D01*
X77800605Y-113368298D01*
X77809384Y-113376288D01*
X79125343Y-114692247D01*
X79132887Y-114700537D01*
X79137000Y-114707018D01*
X79142777Y-114712443D01*
X79186667Y-114753658D01*
X79189509Y-114756413D01*
X79209230Y-114776134D01*
X79212425Y-114778612D01*
X79221447Y-114786318D01*
X79253679Y-114816586D01*
X79260628Y-114820406D01*
X79271432Y-114826346D01*
X79287956Y-114837199D01*
X79303959Y-114849613D01*
X79344543Y-114867176D01*
X79355173Y-114872383D01*
X79393940Y-114893695D01*
X79401617Y-114895666D01*
X79401622Y-114895668D01*
X79413558Y-114898732D01*
X79432266Y-114905137D01*
X79450855Y-114913181D01*
X79458680Y-114914420D01*
X79458682Y-114914421D01*
X79494519Y-114920097D01*
X79506140Y-114922504D01*
X79541289Y-114931528D01*
X79548970Y-114933500D01*
X79569231Y-114933500D01*
X79588940Y-114935051D01*
X79608943Y-114938219D01*
X79616835Y-114937473D01*
X79622062Y-114936979D01*
X79652954Y-114934059D01*
X79664811Y-114933500D01*
X83870606Y-114933500D01*
X83938727Y-114953502D01*
X83973819Y-114987229D01*
X84066247Y-115119229D01*
X84088935Y-115186503D01*
X84071650Y-115255363D01*
X84019881Y-115303948D01*
X83963034Y-115317500D01*
X78800594Y-115317500D01*
X78732473Y-115297498D01*
X78711499Y-115280595D01*
X76489405Y-113058500D01*
X76455379Y-112996188D01*
X76452500Y-112969405D01*
X76452500Y-105234763D01*
X76453027Y-105223579D01*
X76454701Y-105216091D01*
X76452562Y-105148032D01*
X76452500Y-105144075D01*
X76452500Y-105116144D01*
X76451994Y-105112138D01*
X76451061Y-105100292D01*
X76450621Y-105086267D01*
X76449673Y-105056110D01*
X76444022Y-105036658D01*
X76440014Y-105017306D01*
X76438468Y-105005068D01*
X76438467Y-105005066D01*
X76437474Y-104997203D01*
X76421194Y-104956086D01*
X76417359Y-104944885D01*
X76405018Y-104902406D01*
X76400985Y-104895587D01*
X76400983Y-104895582D01*
X76394707Y-104884971D01*
X76386010Y-104867221D01*
X76378552Y-104848383D01*
X76352571Y-104812623D01*
X76346053Y-104802701D01*
X76327578Y-104771460D01*
X76327574Y-104771455D01*
X76323542Y-104764637D01*
X76309218Y-104750313D01*
X76296376Y-104735278D01*
X76284472Y-104718893D01*
X76250406Y-104690711D01*
X76241627Y-104682722D01*
X74311652Y-102752747D01*
X74304112Y-102744461D01*
X74300000Y-102737982D01*
X74250348Y-102691356D01*
X74247507Y-102688602D01*
X74227770Y-102668865D01*
X74224573Y-102666385D01*
X74215551Y-102658680D01*
X74189100Y-102633841D01*
X74183321Y-102628414D01*
X74176375Y-102624595D01*
X74176372Y-102624593D01*
X74165566Y-102618652D01*
X74149047Y-102607801D01*
X74148583Y-102607441D01*
X74133041Y-102595386D01*
X74125772Y-102592241D01*
X74125768Y-102592238D01*
X74092463Y-102577826D01*
X74081813Y-102572609D01*
X74043060Y-102551305D01*
X74023437Y-102546267D01*
X74004734Y-102539863D01*
X73993420Y-102534967D01*
X73993419Y-102534967D01*
X73986145Y-102531819D01*
X73978322Y-102530580D01*
X73978312Y-102530577D01*
X73942476Y-102524901D01*
X73930856Y-102522495D01*
X73895711Y-102513472D01*
X73895710Y-102513472D01*
X73888030Y-102511500D01*
X73867776Y-102511500D01*
X73848065Y-102509949D01*
X73835886Y-102508020D01*
X73828057Y-102506780D01*
X73820165Y-102507526D01*
X73784039Y-102510941D01*
X73772181Y-102511500D01*
X68761566Y-102511500D01*
X68693445Y-102491498D01*
X68654133Y-102451335D01*
X68536759Y-102259798D01*
X68536755Y-102259792D01*
X68534176Y-102255584D01*
X68379969Y-102075031D01*
X68376213Y-102071823D01*
X68376208Y-102071818D01*
X68257944Y-101970811D01*
X68219134Y-101911361D01*
X68218628Y-101840366D01*
X68257944Y-101779189D01*
X68376208Y-101678182D01*
X68376213Y-101678177D01*
X68379969Y-101674969D01*
X68534176Y-101494416D01*
X68536755Y-101490208D01*
X68536759Y-101490202D01*
X68654133Y-101298665D01*
X68706781Y-101251034D01*
X68761566Y-101238500D01*
X76541406Y-101238500D01*
X76609527Y-101258502D01*
G37*
G04 #@! TD.AperFunction*
M02*
