M48
; DRILL file {KiCad 6.0.7-1.fc36} date nie, 4 wrz 2022, 22:08:26
; FORMAT={-:-/ absolute / metric / decimal}
; #@! TF.CreationDate,2022-09-04T22:08:26+02:00
; #@! TF.GenerationSoftware,Kicad,Pcbnew,6.0.7-1.fc36
; #@! TF.FileFunction,Plated,1,2,PTH
FMAT,2
METRIC
; #@! TA.AperFunction,Plated,PTH,ViaDrill
T1C0.400
; #@! TA.AperFunction,Plated,PTH,ComponentDrill
T2C0.800
; #@! TA.AperFunction,Plated,PTH,ComponentDrill
T3C0.900
; #@! TA.AperFunction,Plated,PTH,ComponentDrill
T4C1.000
; #@! TA.AperFunction,Plated,PTH,ComponentDrill
T5C1.020
; #@! TA.AperFunction,Plated,PTH,ComponentDrill
T6C1.100
; #@! TA.AperFunction,Plated,PTH,ComponentDrill
T7C3.200
%
G90
G05
T1
X44.45Y-91.44
X44.45Y-96.52
X44.45Y-101.6
X44.45Y-106.68
X44.45Y-111.76
X44.45Y-116.84
X44.45Y-121.92
X44.45Y-127.0
X44.45Y-132.08
X49.53Y-91.44
X49.53Y-96.52
X49.53Y-101.6
X49.53Y-106.68
X49.53Y-111.76
X49.53Y-116.84
X49.53Y-121.92
X49.53Y-127.0
X49.53Y-132.08
X54.61Y-91.44
X54.61Y-96.52
X54.61Y-101.6
X54.61Y-106.68
X54.61Y-111.76
X54.61Y-116.84
X54.61Y-121.92
X54.61Y-127.0
X54.61Y-132.08
X59.69Y-91.44
X59.69Y-96.52
X59.69Y-101.6
X59.69Y-106.68
X59.69Y-111.76
X59.69Y-116.84
X59.69Y-121.92
X59.69Y-127.0
X59.69Y-132.08
X64.77Y-91.44
X64.77Y-96.52
X64.77Y-101.6
X64.77Y-106.68
X64.77Y-111.76
X64.77Y-116.84
X64.77Y-121.92
X64.77Y-127.0
X64.77Y-132.08
X69.85Y-91.44
X69.85Y-96.52
X69.85Y-101.6
X69.85Y-106.68
X69.85Y-111.76
X69.85Y-116.84
X69.85Y-120.65
X69.85Y-123.19
X69.85Y-132.08
X74.93Y-91.44
X74.93Y-96.52
X74.93Y-101.6
X74.93Y-106.68
X74.93Y-111.76
X74.93Y-116.84
X74.93Y-120.65
X74.93Y-123.19
X74.93Y-132.08
X80.01Y-91.44
X80.01Y-97.79
X80.01Y-101.6
X80.01Y-106.68
X80.01Y-111.76
X80.01Y-116.84
X80.01Y-120.65
X80.01Y-127.0
X80.01Y-132.08
X83.82Y-96.52
X83.82Y-100.33
X85.09Y-91.44
X85.09Y-106.68
X85.09Y-111.76
X85.09Y-116.84
X85.09Y-120.65
X85.09Y-123.19
X85.09Y-132.08
X87.63Y-100.33
X88.9Y-127.0
X90.17Y-91.44
X90.17Y-96.52
X90.17Y-106.68
X90.17Y-111.76
X90.17Y-118.11
X90.17Y-120.65
X90.17Y-123.19
X90.17Y-132.08
X91.44Y-100.33
X92.71Y-121.92
X95.25Y-91.44
X95.25Y-96.52
X95.25Y-100.33
X95.25Y-106.68
X95.25Y-111.76
X95.25Y-116.84
X95.25Y-121.92
X95.25Y-132.08
X99.06Y-100.33
X100.33Y-91.44
X100.33Y-96.52
X100.33Y-106.68
X100.33Y-111.76
X100.33Y-116.84
X100.33Y-121.92
X100.33Y-132.08
X102.87Y-100.33
X105.41Y-106.68
X105.41Y-111.76
X105.41Y-116.84
X105.41Y-121.92
X105.41Y-127.0
X105.41Y-132.08
X106.68Y-102.87
X109.22Y-100.33
X109.22Y-105.41
X110.49Y-116.84
X110.49Y-121.92
X110.49Y-132.08
T2
X83.82Y-119.38
X85.09Y-104.14
X85.09Y-114.3
X88.9Y-104.14
X88.9Y-114.3
X92.71Y-104.14
X92.71Y-114.3
X93.98Y-119.38
X100.33Y-104.14
X100.33Y-114.3
T3
X85.09Y-93.98
X87.249Y-93.98
X89.408Y-93.98
X91.567Y-93.98
T4
X90.52Y-125.73
X91.905Y-128.57
X93.29Y-125.73
X94.675Y-128.57
X96.06Y-125.73
X97.445Y-128.57
X98.83Y-125.73
X100.215Y-128.57
X101.6Y-125.73
X111.76Y-106.68
X111.76Y-109.22
X111.76Y-111.76
T5
X41.91Y-90.445
X41.91Y-92.985
X41.91Y-95.525
X41.91Y-98.065
X41.91Y-100.605
X41.91Y-103.145
X41.91Y-105.685
X41.91Y-108.225
X41.91Y-110.765
X41.91Y-113.305
X41.91Y-115.845
X41.91Y-118.385
X41.91Y-120.925
X41.91Y-123.465
X41.91Y-126.005
X67.31Y-90.445
X67.31Y-92.985
X67.31Y-95.525
X67.31Y-98.065
X67.31Y-100.605
X67.31Y-103.145
X67.31Y-105.685
X67.31Y-108.225
X67.31Y-110.765
X67.31Y-113.305
X67.31Y-115.845
X67.31Y-118.385
X67.31Y-120.925
X67.31Y-123.465
X67.31Y-126.005
T6
X105.41Y-91.44
X105.41Y-95.94
X111.91Y-91.44
X111.91Y-95.94
T7
X83.56Y-127.15
X108.56Y-127.15
T0
M30
