G04 #@! TF.GenerationSoftware,KiCad,Pcbnew,6.0.7-1.fc36*
G04 #@! TF.CreationDate,2022-09-04T22:09:24+02:00*
G04 #@! TF.ProjectId,Project,50726f6a-6563-4742-9e6b-696361645f70,rev?*
G04 #@! TF.SameCoordinates,Original*
G04 #@! TF.FileFunction,Copper,L1,Top*
G04 #@! TF.FilePolarity,Positive*
%FSLAX46Y46*%
G04 Gerber Fmt 4.6, Leading zero omitted, Abs format (unit mm)*
G04 Created by KiCad (PCBNEW 6.0.7-1.fc36) date 2022-09-04 22:09:24*
%MOMM*%
%LPD*%
G01*
G04 APERTURE LIST*
G04 #@! TA.AperFunction,ComponentPad*
%ADD10R,1.800000X1.800000*%
G04 #@! TD*
G04 #@! TA.AperFunction,ComponentPad*
%ADD11C,1.800000*%
G04 #@! TD*
G04 #@! TA.AperFunction,ComponentPad*
%ADD12R,1.700000X1.700000*%
G04 #@! TD*
G04 #@! TA.AperFunction,ComponentPad*
%ADD13O,1.700000X1.700000*%
G04 #@! TD*
G04 #@! TA.AperFunction,ComponentPad*
%ADD14C,4.000000*%
G04 #@! TD*
G04 #@! TA.AperFunction,ComponentPad*
%ADD15R,1.600000X1.600000*%
G04 #@! TD*
G04 #@! TA.AperFunction,ComponentPad*
%ADD16C,1.600000*%
G04 #@! TD*
G04 #@! TA.AperFunction,ComponentPad*
%ADD17O,1.600000X1.600000*%
G04 #@! TD*
G04 #@! TA.AperFunction,ComponentPad*
%ADD18C,2.000000*%
G04 #@! TD*
G04 #@! TA.AperFunction,ComponentPad*
%ADD19R,2.000000X2.000000*%
G04 #@! TD*
G04 #@! TA.AperFunction,ViaPad*
%ADD20C,0.800000*%
G04 #@! TD*
G04 #@! TA.AperFunction,Conductor*
%ADD21C,0.250000*%
G04 #@! TD*
G04 APERTURE END LIST*
D10*
X85090000Y-93980000D03*
D11*
X87249000Y-93980000D03*
X89408000Y-93980000D03*
X91567000Y-93980000D03*
D12*
X111760000Y-106680000D03*
D13*
X111760000Y-109220000D03*
X111760000Y-111760000D03*
D14*
X108560000Y-127150000D03*
X83560000Y-127150000D03*
D15*
X101600000Y-125730000D03*
D16*
X98830000Y-125730000D03*
X96060000Y-125730000D03*
X93290000Y-125730000D03*
X90520000Y-125730000D03*
X100215000Y-128570000D03*
X97445000Y-128570000D03*
X94675000Y-128570000D03*
X91905000Y-128570000D03*
X83820000Y-119380000D03*
D17*
X93980000Y-119380000D03*
D16*
X100330000Y-114300000D03*
D17*
X100330000Y-104140000D03*
D16*
X92710000Y-104140000D03*
D17*
X92710000Y-114300000D03*
D16*
X88900000Y-104140000D03*
D17*
X88900000Y-114300000D03*
D16*
X85090000Y-104140000D03*
D17*
X85090000Y-114300000D03*
D18*
X105410000Y-91440000D03*
X111910000Y-91440000D03*
X111910000Y-95940000D03*
X105410000Y-95940000D03*
D19*
X67310000Y-126005000D03*
D18*
X67310000Y-123465000D03*
X67310000Y-120925000D03*
X67310000Y-118385000D03*
X67310000Y-115845000D03*
X67310000Y-113305000D03*
X67310000Y-110765000D03*
X67310000Y-108225000D03*
X67310000Y-105685000D03*
X67310000Y-103145000D03*
X67310000Y-100605000D03*
X67310000Y-98065000D03*
X67310000Y-95525000D03*
X67310000Y-92985000D03*
X67310000Y-90445000D03*
X41910000Y-90445000D03*
X41910000Y-92985000D03*
X41910000Y-95525000D03*
X41910000Y-98065000D03*
X41910000Y-100605000D03*
X41910000Y-103145000D03*
X41910000Y-105685000D03*
X41910000Y-108225000D03*
X41910000Y-110765000D03*
X41910000Y-113305000D03*
X41910000Y-115845000D03*
X41910000Y-118385000D03*
X41910000Y-120925000D03*
X41910000Y-123465000D03*
X41910000Y-126005000D03*
D20*
X44450000Y-91440000D03*
X54610000Y-116840000D03*
X74930000Y-111760000D03*
X102870000Y-100330000D03*
X99060000Y-100330000D03*
X85090000Y-123190000D03*
X92710000Y-121920000D03*
X64770000Y-121920000D03*
X85090000Y-111760000D03*
X74930000Y-96520000D03*
X109220000Y-100330000D03*
X44450000Y-101600000D03*
X95250000Y-132080000D03*
X105410000Y-106680000D03*
X80010000Y-111760000D03*
X64770000Y-127000000D03*
X95250000Y-100330000D03*
X90170000Y-120650000D03*
X49530000Y-91440000D03*
X105410000Y-121920000D03*
X80010000Y-97790000D03*
X49530000Y-116840000D03*
X69850000Y-101600000D03*
X64770000Y-111760000D03*
X88900000Y-127000000D03*
X74930000Y-132080000D03*
X87630000Y-100330000D03*
X44450000Y-116840000D03*
X64770000Y-96520000D03*
X100330000Y-96520000D03*
X49530000Y-101600000D03*
X49530000Y-96520000D03*
X95250000Y-116840000D03*
X95250000Y-96520000D03*
X91440000Y-100330000D03*
X85090000Y-132080000D03*
X100330000Y-116840000D03*
X59690000Y-132080000D03*
X90170000Y-106680000D03*
X54610000Y-127000000D03*
X59690000Y-127000000D03*
X44450000Y-106680000D03*
X69850000Y-116840000D03*
X49530000Y-127000000D03*
X100330000Y-91440000D03*
X90170000Y-123190000D03*
X85090000Y-116840000D03*
X74930000Y-91440000D03*
X95250000Y-111760000D03*
X106680000Y-102870000D03*
X49530000Y-132080000D03*
X59690000Y-96520000D03*
X90170000Y-91440000D03*
X110490000Y-121920000D03*
X44450000Y-127000000D03*
X54610000Y-111760000D03*
X54610000Y-101600000D03*
X105410000Y-111760000D03*
X64770000Y-106680000D03*
X109220000Y-105410000D03*
X64770000Y-116840000D03*
X74930000Y-101600000D03*
X64770000Y-101600000D03*
X80010000Y-101600000D03*
X95250000Y-106680000D03*
X90170000Y-111760000D03*
X85090000Y-106680000D03*
X54610000Y-96520000D03*
X90170000Y-96520000D03*
X85090000Y-120650000D03*
X95250000Y-91440000D03*
X110490000Y-116840000D03*
X100330000Y-132080000D03*
X69850000Y-111760000D03*
X44450000Y-96520000D03*
X69850000Y-106680000D03*
X49530000Y-121920000D03*
X95250000Y-121920000D03*
X64770000Y-132080000D03*
X54610000Y-121920000D03*
X59690000Y-101600000D03*
X74930000Y-116840000D03*
X74930000Y-106680000D03*
X44450000Y-132080000D03*
X90170000Y-132080000D03*
X69850000Y-123190000D03*
X110490000Y-132080000D03*
X83820000Y-96520000D03*
X44450000Y-111760000D03*
X59690000Y-121920000D03*
X80010000Y-116840000D03*
X69850000Y-96520000D03*
X54610000Y-91440000D03*
X59690000Y-91440000D03*
X80010000Y-106680000D03*
X74930000Y-123190000D03*
X80010000Y-132080000D03*
X90170000Y-118110000D03*
X69850000Y-120650000D03*
X80010000Y-127000000D03*
X69850000Y-132080000D03*
X100330000Y-111760000D03*
X64770000Y-91440000D03*
X49530000Y-106680000D03*
X54610000Y-106680000D03*
X105410000Y-132080000D03*
X80010000Y-91440000D03*
X100330000Y-121920000D03*
X100330000Y-106680000D03*
X74930000Y-120650000D03*
X105410000Y-116840000D03*
X105410000Y-127000000D03*
X69850000Y-91440000D03*
X59690000Y-111760000D03*
X44450000Y-121920000D03*
X80010000Y-120650000D03*
X54610000Y-132080000D03*
X59690000Y-106680000D03*
X59690000Y-116840000D03*
X85090000Y-91440000D03*
X49530000Y-111760000D03*
X83820000Y-100330000D03*
D21*
X78634000Y-98065000D02*
X81788000Y-101219000D01*
X103759000Y-101219000D02*
X111760000Y-109220000D01*
X67310000Y-98065000D02*
X78634000Y-98065000D01*
X81788000Y-101219000D02*
X103759000Y-101219000D01*
X67310000Y-95525000D02*
X79523000Y-95525000D01*
X111760000Y-105580000D02*
X111760000Y-106680000D01*
X104986000Y-98806000D02*
X111760000Y-105580000D01*
X82804000Y-98806000D02*
X104986000Y-98806000D01*
X79523000Y-95525000D02*
X82804000Y-98806000D01*
X97445000Y-122845000D02*
X97445000Y-128570000D01*
X90292001Y-121924999D02*
X92837000Y-119380000D01*
X93980000Y-119380000D02*
X95504000Y-119380000D01*
X68309999Y-121924999D02*
X90292001Y-121924999D01*
X97445000Y-121321000D02*
X97445000Y-122845000D01*
X92837000Y-119380000D02*
X93980000Y-119380000D01*
X95504000Y-119380000D02*
X97445000Y-121321000D01*
X67310000Y-120925000D02*
X68309999Y-121924999D01*
X96245000Y-108225000D02*
X100330000Y-104140000D01*
X67310000Y-108225000D02*
X96245000Y-108225000D01*
G04 #@! TA.AperFunction,Conductor*
G36*
X112854843Y-86380002D02*
G01*
X112901336Y-86433658D01*
X112912334Y-86476114D01*
X112925407Y-86642217D01*
X112932370Y-86730695D01*
X112997206Y-87049378D01*
X113100398Y-87357784D01*
X113240405Y-87651316D01*
X113415141Y-87925597D01*
X113417584Y-87928560D01*
X113417585Y-87928562D01*
X113567308Y-88110190D01*
X113622001Y-88176538D01*
X113857902Y-88400399D01*
X114119326Y-88593843D01*
X114260851Y-88673914D01*
X114399019Y-88752086D01*
X114399023Y-88752088D01*
X114402376Y-88753985D01*
X114702832Y-88878438D01*
X114806288Y-88907129D01*
X115012500Y-88964317D01*
X115012508Y-88964319D01*
X115016216Y-88965347D01*
X115337856Y-89013416D01*
X115341152Y-89013560D01*
X115341153Y-89013560D01*
X115449497Y-89018291D01*
X115516680Y-89041246D01*
X115560788Y-89096879D01*
X115570000Y-89144171D01*
X115570000Y-131837919D01*
X115549998Y-131906040D01*
X115496342Y-131952533D01*
X115451692Y-131963684D01*
X115383824Y-131967835D01*
X115245395Y-131976302D01*
X115241612Y-131977003D01*
X115241605Y-131977004D01*
X115085512Y-132005934D01*
X114925628Y-132035567D01*
X114741058Y-132093762D01*
X114619140Y-132132202D01*
X114619137Y-132132203D01*
X114615468Y-132133360D01*
X114611971Y-132134954D01*
X114611965Y-132134956D01*
X114323046Y-132266624D01*
X114323042Y-132266626D01*
X114319538Y-132268223D01*
X114042249Y-132438146D01*
X114039245Y-132440536D01*
X114039240Y-132440539D01*
X113914993Y-132539370D01*
X113787736Y-132640595D01*
X113785042Y-132643336D01*
X113785038Y-132643340D01*
X113562487Y-132869810D01*
X113562483Y-132869815D01*
X113559792Y-132872553D01*
X113361815Y-133130561D01*
X113196758Y-133410773D01*
X113067080Y-133709012D01*
X112974715Y-134020831D01*
X112921039Y-134341583D01*
X112920871Y-134345433D01*
X112914145Y-134499496D01*
X112891191Y-134566679D01*
X112835559Y-134610787D01*
X112788265Y-134620000D01*
X40883278Y-134620000D01*
X40815157Y-134599998D01*
X40768664Y-134546342D01*
X40757666Y-134503886D01*
X40737932Y-134253140D01*
X40737932Y-134253137D01*
X40737630Y-134249305D01*
X40672794Y-133930622D01*
X40569602Y-133622216D01*
X40429595Y-133328684D01*
X40254859Y-133054403D01*
X40107470Y-132875606D01*
X40050442Y-132806425D01*
X40050438Y-132806420D01*
X40047999Y-132803462D01*
X39812098Y-132579601D01*
X39550674Y-132386157D01*
X39345781Y-132270234D01*
X39270981Y-132227914D01*
X39270977Y-132227912D01*
X39267624Y-132226015D01*
X38967168Y-132101562D01*
X38863712Y-132072871D01*
X38657500Y-132015683D01*
X38657492Y-132015681D01*
X38653784Y-132014653D01*
X38332144Y-131966584D01*
X38328848Y-131966440D01*
X38328847Y-131966440D01*
X38220503Y-131961709D01*
X38153320Y-131938754D01*
X38109212Y-131883121D01*
X38100000Y-131835829D01*
X38100000Y-126005000D01*
X40396835Y-126005000D01*
X40415465Y-126241711D01*
X40470895Y-126472594D01*
X40472788Y-126477165D01*
X40472789Y-126477167D01*
X40513023Y-126574300D01*
X40561760Y-126691963D01*
X40564346Y-126696183D01*
X40683241Y-126890202D01*
X40683245Y-126890208D01*
X40685824Y-126894416D01*
X40840031Y-127074969D01*
X41020584Y-127229176D01*
X41024792Y-127231755D01*
X41024798Y-127231759D01*
X41198231Y-127338039D01*
X41223037Y-127353240D01*
X41227607Y-127355133D01*
X41227611Y-127355135D01*
X41409768Y-127430586D01*
X41442406Y-127444105D01*
X41482868Y-127453819D01*
X41668476Y-127498380D01*
X41668482Y-127498381D01*
X41673289Y-127499535D01*
X41910000Y-127518165D01*
X42146711Y-127499535D01*
X42151518Y-127498381D01*
X42151524Y-127498380D01*
X42337132Y-127453819D01*
X42377594Y-127444105D01*
X42410232Y-127430586D01*
X42592389Y-127355135D01*
X42592393Y-127355133D01*
X42596963Y-127353240D01*
X42621769Y-127338039D01*
X42795202Y-127231759D01*
X42795208Y-127231755D01*
X42799416Y-127229176D01*
X42979969Y-127074969D01*
X43134176Y-126894416D01*
X43136755Y-126890208D01*
X43136759Y-126890202D01*
X43255654Y-126696183D01*
X43258240Y-126691963D01*
X43306978Y-126574300D01*
X43347211Y-126477167D01*
X43347212Y-126477165D01*
X43349105Y-126472594D01*
X43404535Y-126241711D01*
X43423165Y-126005000D01*
X43404535Y-125768289D01*
X43394029Y-125724525D01*
X43350260Y-125542218D01*
X43349105Y-125537406D01*
X43347211Y-125532833D01*
X43260135Y-125322611D01*
X43260133Y-125322607D01*
X43258240Y-125318037D01*
X43218338Y-125252923D01*
X43136759Y-125119798D01*
X43136755Y-125119792D01*
X43134176Y-125115584D01*
X42979969Y-124935031D01*
X42976213Y-124931823D01*
X42976208Y-124931818D01*
X42823384Y-124801294D01*
X42784574Y-124741844D01*
X42782360Y-124707442D01*
X42774123Y-124688333D01*
X41922812Y-123837022D01*
X41908868Y-123829408D01*
X41907035Y-123829539D01*
X41900420Y-123833790D01*
X41048920Y-124685290D01*
X41039740Y-124702102D01*
X41025980Y-124765350D01*
X40997224Y-124800775D01*
X40902353Y-124881803D01*
X40840031Y-124935031D01*
X40685824Y-125115584D01*
X40683245Y-125119792D01*
X40683241Y-125119798D01*
X40601662Y-125252923D01*
X40561760Y-125318037D01*
X40559867Y-125322607D01*
X40559865Y-125322611D01*
X40472789Y-125532833D01*
X40470895Y-125537406D01*
X40469740Y-125542218D01*
X40425972Y-125724525D01*
X40415465Y-125768289D01*
X40396835Y-126005000D01*
X38100000Y-126005000D01*
X38100000Y-123469930D01*
X40397725Y-123469930D01*
X40415572Y-123696699D01*
X40417115Y-123706446D01*
X40470217Y-123927627D01*
X40473266Y-123937012D01*
X40560313Y-124147163D01*
X40564795Y-124155958D01*
X40667432Y-124323445D01*
X40677890Y-124332907D01*
X40686666Y-124329124D01*
X41537978Y-123477812D01*
X41544356Y-123466132D01*
X42274408Y-123466132D01*
X42274539Y-123467965D01*
X42278790Y-123474580D01*
X43130290Y-124326080D01*
X43142670Y-124332840D01*
X43150320Y-124327113D01*
X43255205Y-124155958D01*
X43259687Y-124147163D01*
X43346734Y-123937012D01*
X43349783Y-123927627D01*
X43402885Y-123706446D01*
X43404428Y-123696699D01*
X43422275Y-123469930D01*
X43422275Y-123460070D01*
X43404428Y-123233301D01*
X43402885Y-123223554D01*
X43349783Y-123002373D01*
X43346734Y-122992988D01*
X43259687Y-122782837D01*
X43255205Y-122774042D01*
X43152568Y-122606555D01*
X43142110Y-122597093D01*
X43133334Y-122600876D01*
X42282022Y-123452188D01*
X42274408Y-123466132D01*
X41544356Y-123466132D01*
X41545592Y-123463868D01*
X41545461Y-123462035D01*
X41541210Y-123455420D01*
X40689710Y-122603920D01*
X40677330Y-122597160D01*
X40669680Y-122602887D01*
X40564795Y-122774042D01*
X40560313Y-122782837D01*
X40473266Y-122992988D01*
X40470217Y-123002373D01*
X40417115Y-123223554D01*
X40415572Y-123233301D01*
X40397725Y-123460070D01*
X40397725Y-123469930D01*
X38100000Y-123469930D01*
X38100000Y-120925000D01*
X40396835Y-120925000D01*
X40415465Y-121161711D01*
X40416619Y-121166518D01*
X40416620Y-121166524D01*
X40431628Y-121229036D01*
X40470895Y-121392594D01*
X40472788Y-121397165D01*
X40472789Y-121397167D01*
X40549931Y-121583404D01*
X40561760Y-121611963D01*
X40564346Y-121616183D01*
X40683241Y-121810202D01*
X40683245Y-121810208D01*
X40685824Y-121814416D01*
X40840031Y-121994969D01*
X40843787Y-121998177D01*
X40843792Y-121998182D01*
X40996616Y-122128706D01*
X41035426Y-122188156D01*
X41037640Y-122222558D01*
X41045877Y-122241667D01*
X41897188Y-123092978D01*
X41911132Y-123100592D01*
X41912965Y-123100461D01*
X41919580Y-123096210D01*
X42771080Y-122244710D01*
X42780260Y-122227898D01*
X42794020Y-122164650D01*
X42822776Y-122129225D01*
X42976213Y-121998177D01*
X42979969Y-121994969D01*
X43134176Y-121814416D01*
X43136755Y-121810208D01*
X43136759Y-121810202D01*
X43255654Y-121616183D01*
X43258240Y-121611963D01*
X43270070Y-121583404D01*
X43347211Y-121397167D01*
X43347212Y-121397165D01*
X43349105Y-121392594D01*
X43388372Y-121229036D01*
X43403380Y-121166524D01*
X43403381Y-121166518D01*
X43404535Y-121161711D01*
X43423165Y-120925000D01*
X65796835Y-120925000D01*
X65815465Y-121161711D01*
X65816619Y-121166518D01*
X65816620Y-121166524D01*
X65831628Y-121229036D01*
X65870895Y-121392594D01*
X65872788Y-121397165D01*
X65872789Y-121397167D01*
X65949931Y-121583404D01*
X65961760Y-121611963D01*
X65964346Y-121616183D01*
X66083241Y-121810202D01*
X66083245Y-121810208D01*
X66085824Y-121814416D01*
X66240031Y-121994969D01*
X66243787Y-121998177D01*
X66243792Y-121998182D01*
X66396616Y-122128706D01*
X66435426Y-122188156D01*
X66437640Y-122222558D01*
X66445877Y-122241667D01*
X67580115Y-123375905D01*
X67614141Y-123438217D01*
X67609076Y-123509032D01*
X67580115Y-123554095D01*
X67399095Y-123735115D01*
X67336783Y-123769141D01*
X67265968Y-123764076D01*
X67220905Y-123735115D01*
X66089710Y-122603920D01*
X66077330Y-122597160D01*
X66069680Y-122602887D01*
X65964795Y-122774042D01*
X65960313Y-122782837D01*
X65873266Y-122992988D01*
X65870217Y-123002373D01*
X65817115Y-123223554D01*
X65815572Y-123233301D01*
X65797725Y-123460070D01*
X65797725Y-123469930D01*
X65815572Y-123696699D01*
X65817115Y-123706446D01*
X65870217Y-123927627D01*
X65873266Y-123937012D01*
X65960313Y-124147163D01*
X65964795Y-124155958D01*
X66083643Y-124349899D01*
X66089443Y-124357883D01*
X66095619Y-124365114D01*
X66124651Y-124429904D01*
X66114047Y-124500104D01*
X66067823Y-124552688D01*
X66063295Y-124554385D01*
X66056110Y-124559770D01*
X66056108Y-124559771D01*
X65979045Y-124617527D01*
X65946739Y-124641739D01*
X65859385Y-124758295D01*
X65808255Y-124894684D01*
X65801500Y-124956866D01*
X65801500Y-127053134D01*
X65808255Y-127115316D01*
X65859385Y-127251705D01*
X65946739Y-127368261D01*
X66063295Y-127455615D01*
X66199684Y-127506745D01*
X66261866Y-127513500D01*
X68358134Y-127513500D01*
X68420316Y-127506745D01*
X68556705Y-127455615D01*
X68673261Y-127368261D01*
X68760615Y-127251705D01*
X68798743Y-127150000D01*
X81046540Y-127150000D01*
X81066359Y-127465020D01*
X81125505Y-127775072D01*
X81223044Y-128075266D01*
X81224731Y-128078852D01*
X81224733Y-128078856D01*
X81355750Y-128357283D01*
X81355754Y-128357290D01*
X81357438Y-128360869D01*
X81526568Y-128627375D01*
X81529093Y-128630427D01*
X81692346Y-128827765D01*
X81727767Y-128870582D01*
X81957860Y-129086654D01*
X82213221Y-129272184D01*
X82216690Y-129274091D01*
X82216693Y-129274093D01*
X82478816Y-129418197D01*
X82489821Y-129424247D01*
X82493490Y-129425700D01*
X82493495Y-129425702D01*
X82779628Y-129538990D01*
X82783298Y-129540443D01*
X83089025Y-129618940D01*
X83402179Y-129658500D01*
X83717821Y-129658500D01*
X84030975Y-129618940D01*
X84336702Y-129540443D01*
X84340372Y-129538990D01*
X84626505Y-129425702D01*
X84626510Y-129425700D01*
X84630179Y-129424247D01*
X84641184Y-129418197D01*
X84903307Y-129274093D01*
X84903310Y-129274091D01*
X84906779Y-129272184D01*
X85162140Y-129086654D01*
X85392233Y-128870582D01*
X85427655Y-128827765D01*
X85590907Y-128630427D01*
X85593432Y-128627375D01*
X85629843Y-128570000D01*
X90591502Y-128570000D01*
X90611457Y-128798087D01*
X90612881Y-128803400D01*
X90612881Y-128803402D01*
X90650025Y-128942022D01*
X90670716Y-129019243D01*
X90673039Y-129024224D01*
X90673039Y-129024225D01*
X90765151Y-129221762D01*
X90765154Y-129221767D01*
X90767477Y-129226749D01*
X90898802Y-129414300D01*
X91060700Y-129576198D01*
X91065208Y-129579355D01*
X91065211Y-129579357D01*
X91143389Y-129634098D01*
X91248251Y-129707523D01*
X91253233Y-129709846D01*
X91253238Y-129709849D01*
X91449765Y-129801490D01*
X91455757Y-129804284D01*
X91461065Y-129805706D01*
X91461067Y-129805707D01*
X91671598Y-129862119D01*
X91671600Y-129862119D01*
X91676913Y-129863543D01*
X91905000Y-129883498D01*
X92133087Y-129863543D01*
X92138400Y-129862119D01*
X92138402Y-129862119D01*
X92348933Y-129805707D01*
X92348935Y-129805706D01*
X92354243Y-129804284D01*
X92360235Y-129801490D01*
X92556762Y-129709849D01*
X92556767Y-129709846D01*
X92561749Y-129707523D01*
X92635243Y-129656062D01*
X93953493Y-129656062D01*
X93962789Y-129668077D01*
X94013994Y-129703931D01*
X94023489Y-129709414D01*
X94220947Y-129801490D01*
X94231239Y-129805236D01*
X94441688Y-129861625D01*
X94452481Y-129863528D01*
X94669525Y-129882517D01*
X94680475Y-129882517D01*
X94897519Y-129863528D01*
X94908312Y-129861625D01*
X95118761Y-129805236D01*
X95129053Y-129801490D01*
X95326511Y-129709414D01*
X95336006Y-129703931D01*
X95388048Y-129667491D01*
X95396424Y-129657012D01*
X95389356Y-129643566D01*
X94687812Y-128942022D01*
X94673868Y-128934408D01*
X94672035Y-128934539D01*
X94665420Y-128938790D01*
X93959923Y-129644287D01*
X93953493Y-129656062D01*
X92635243Y-129656062D01*
X92666611Y-129634098D01*
X92744789Y-129579357D01*
X92744792Y-129579355D01*
X92749300Y-129576198D01*
X92911198Y-129414300D01*
X93042523Y-129226749D01*
X93044846Y-129221767D01*
X93044849Y-129221762D01*
X93136961Y-129024225D01*
X93136961Y-129024224D01*
X93139284Y-129019243D01*
X93168552Y-128910014D01*
X93205504Y-128849392D01*
X93269365Y-128818370D01*
X93339859Y-128826799D01*
X93394606Y-128872002D01*
X93411966Y-128910015D01*
X93439764Y-129013761D01*
X93443510Y-129024053D01*
X93535586Y-129221511D01*
X93541069Y-129231006D01*
X93577509Y-129283048D01*
X93587988Y-129291424D01*
X93601434Y-129284356D01*
X94302978Y-128582812D01*
X94310592Y-128568868D01*
X94310461Y-128567035D01*
X94306210Y-128560420D01*
X93600713Y-127854923D01*
X93588938Y-127848493D01*
X93576923Y-127857789D01*
X93541069Y-127908994D01*
X93535586Y-127918489D01*
X93443510Y-128115947D01*
X93439764Y-128126239D01*
X93411966Y-128229985D01*
X93375015Y-128290608D01*
X93311154Y-128321629D01*
X93240660Y-128313201D01*
X93185912Y-128267998D01*
X93168552Y-128229986D01*
X93140706Y-128126064D01*
X93139284Y-128120757D01*
X93136961Y-128115775D01*
X93044849Y-127918238D01*
X93044846Y-127918233D01*
X93042523Y-127913251D01*
X92911198Y-127725700D01*
X92749300Y-127563802D01*
X92744792Y-127560645D01*
X92744789Y-127560643D01*
X92633886Y-127482988D01*
X93953576Y-127482988D01*
X93960644Y-127496434D01*
X94662188Y-128197978D01*
X94676132Y-128205592D01*
X94677965Y-128205461D01*
X94684580Y-128201210D01*
X95390077Y-127495713D01*
X95396507Y-127483938D01*
X95387211Y-127471923D01*
X95336006Y-127436069D01*
X95326511Y-127430586D01*
X95129053Y-127338510D01*
X95118761Y-127334764D01*
X94908312Y-127278375D01*
X94897519Y-127276472D01*
X94680475Y-127257483D01*
X94669525Y-127257483D01*
X94452481Y-127276472D01*
X94441688Y-127278375D01*
X94231239Y-127334764D01*
X94220947Y-127338510D01*
X94023489Y-127430586D01*
X94013994Y-127436069D01*
X93961952Y-127472509D01*
X93953576Y-127482988D01*
X92633886Y-127482988D01*
X92618920Y-127472509D01*
X92561749Y-127432477D01*
X92556767Y-127430154D01*
X92556762Y-127430151D01*
X92359225Y-127338039D01*
X92359224Y-127338039D01*
X92354243Y-127335716D01*
X92348935Y-127334294D01*
X92348933Y-127334293D01*
X92138402Y-127277881D01*
X92138400Y-127277881D01*
X92133087Y-127276457D01*
X91905000Y-127256502D01*
X91676913Y-127276457D01*
X91671600Y-127277881D01*
X91671598Y-127277881D01*
X91461067Y-127334293D01*
X91461065Y-127334294D01*
X91455757Y-127335716D01*
X91450776Y-127338039D01*
X91450775Y-127338039D01*
X91253238Y-127430151D01*
X91253233Y-127430154D01*
X91248251Y-127432477D01*
X91191080Y-127472509D01*
X91065211Y-127560643D01*
X91065208Y-127560645D01*
X91060700Y-127563802D01*
X90898802Y-127725700D01*
X90767477Y-127913251D01*
X90765154Y-127918233D01*
X90765151Y-127918238D01*
X90673039Y-128115775D01*
X90670716Y-128120757D01*
X90669294Y-128126064D01*
X90669293Y-128126067D01*
X90625463Y-128289642D01*
X90611457Y-128341913D01*
X90591502Y-128570000D01*
X85629843Y-128570000D01*
X85762562Y-128360869D01*
X85764246Y-128357290D01*
X85764250Y-128357283D01*
X85895267Y-128078856D01*
X85895269Y-128078852D01*
X85896956Y-128075266D01*
X85994495Y-127775072D01*
X86053641Y-127465020D01*
X86073460Y-127150000D01*
X86053641Y-126834980D01*
X85994495Y-126524928D01*
X85896956Y-126224734D01*
X85889503Y-126208895D01*
X85764250Y-125942717D01*
X85764246Y-125942710D01*
X85762562Y-125939131D01*
X85593432Y-125672625D01*
X85434627Y-125480663D01*
X85394758Y-125432470D01*
X85394757Y-125432469D01*
X85392233Y-125429418D01*
X85162140Y-125213346D01*
X84906779Y-125027816D01*
X84732170Y-124931823D01*
X84633648Y-124877660D01*
X84633647Y-124877659D01*
X84630179Y-124875753D01*
X84626510Y-124874300D01*
X84626505Y-124874298D01*
X84340372Y-124761010D01*
X84340371Y-124761010D01*
X84336702Y-124759557D01*
X84030975Y-124681060D01*
X83717821Y-124641500D01*
X83402179Y-124641500D01*
X83089025Y-124681060D01*
X82783298Y-124759557D01*
X82779629Y-124761010D01*
X82779628Y-124761010D01*
X82493495Y-124874298D01*
X82493490Y-124874300D01*
X82489821Y-124875753D01*
X82486353Y-124877659D01*
X82486352Y-124877660D01*
X82387831Y-124931823D01*
X82213221Y-125027816D01*
X81957860Y-125213346D01*
X81727767Y-125429418D01*
X81725243Y-125432469D01*
X81725242Y-125432470D01*
X81685373Y-125480663D01*
X81526568Y-125672625D01*
X81357438Y-125939131D01*
X81355754Y-125942710D01*
X81355750Y-125942717D01*
X81230497Y-126208895D01*
X81223044Y-126224734D01*
X81125505Y-126524928D01*
X81066359Y-126834980D01*
X81046540Y-127150000D01*
X68798743Y-127150000D01*
X68811745Y-127115316D01*
X68818500Y-127053134D01*
X68818500Y-124956866D01*
X68811745Y-124894684D01*
X68760615Y-124758295D01*
X68673261Y-124641739D01*
X68640955Y-124617527D01*
X68563892Y-124559771D01*
X68563890Y-124559770D01*
X68556705Y-124554385D01*
X68556550Y-124554327D01*
X68509537Y-124507209D01*
X68494522Y-124437818D01*
X68519406Y-124371325D01*
X68524381Y-124365114D01*
X68530557Y-124357883D01*
X68536357Y-124349899D01*
X68655205Y-124155958D01*
X68659687Y-124147163D01*
X68746734Y-123937012D01*
X68749783Y-123927627D01*
X68802885Y-123706446D01*
X68804428Y-123696699D01*
X68822275Y-123469930D01*
X68822275Y-123460070D01*
X68804428Y-123233301D01*
X68802885Y-123223554D01*
X68749783Y-123002373D01*
X68746734Y-122992988D01*
X68659687Y-122782837D01*
X68655207Y-122774046D01*
X68640676Y-122750333D01*
X68622138Y-122681800D01*
X68643595Y-122614123D01*
X68698234Y-122568790D01*
X68748109Y-122558499D01*
X90213234Y-122558499D01*
X90224417Y-122559026D01*
X90231910Y-122560701D01*
X90239836Y-122560452D01*
X90239837Y-122560452D01*
X90299987Y-122558561D01*
X90303946Y-122558499D01*
X90331857Y-122558499D01*
X90335792Y-122558002D01*
X90335857Y-122557994D01*
X90347694Y-122557061D01*
X90379952Y-122556047D01*
X90383971Y-122555921D01*
X90391890Y-122555672D01*
X90411344Y-122550020D01*
X90430701Y-122546012D01*
X90442931Y-122544467D01*
X90442932Y-122544467D01*
X90450798Y-122543473D01*
X90458169Y-122540554D01*
X90458171Y-122540554D01*
X90491913Y-122527195D01*
X90503143Y-122523350D01*
X90537984Y-122513228D01*
X90537985Y-122513228D01*
X90545594Y-122511017D01*
X90552413Y-122506984D01*
X90552418Y-122506982D01*
X90563029Y-122500706D01*
X90580777Y-122492011D01*
X90599618Y-122484551D01*
X90635388Y-122458563D01*
X90645308Y-122452047D01*
X90676536Y-122433579D01*
X90676539Y-122433577D01*
X90683363Y-122429541D01*
X90697684Y-122415220D01*
X90712718Y-122402379D01*
X90722695Y-122395130D01*
X90729108Y-122390471D01*
X90757299Y-122356394D01*
X90765289Y-122347615D01*
X91847593Y-121265311D01*
X92842110Y-120270795D01*
X92904420Y-120236770D01*
X92975235Y-120241835D01*
X93020298Y-120270796D01*
X93135700Y-120386198D01*
X93140208Y-120389355D01*
X93140211Y-120389357D01*
X93218389Y-120444098D01*
X93323251Y-120517523D01*
X93328233Y-120519846D01*
X93328238Y-120519849D01*
X93525775Y-120611961D01*
X93530757Y-120614284D01*
X93536065Y-120615706D01*
X93536067Y-120615707D01*
X93746598Y-120672119D01*
X93746600Y-120672119D01*
X93751913Y-120673543D01*
X93980000Y-120693498D01*
X94208087Y-120673543D01*
X94213400Y-120672119D01*
X94213402Y-120672119D01*
X94423933Y-120615707D01*
X94423935Y-120615706D01*
X94429243Y-120614284D01*
X94434225Y-120611961D01*
X94631762Y-120519849D01*
X94631767Y-120519846D01*
X94636749Y-120517523D01*
X94741611Y-120444098D01*
X94819789Y-120389357D01*
X94819792Y-120389355D01*
X94824300Y-120386198D01*
X94986198Y-120224300D01*
X95092068Y-120073102D01*
X95147524Y-120028775D01*
X95218143Y-120021466D01*
X95284375Y-120056279D01*
X96774595Y-121546499D01*
X96808621Y-121608811D01*
X96811500Y-121635594D01*
X96811500Y-124438880D01*
X96791498Y-124507001D01*
X96737842Y-124553494D01*
X96667568Y-124563598D01*
X96632252Y-124553075D01*
X96509243Y-124495716D01*
X96503935Y-124494294D01*
X96503933Y-124494293D01*
X96293402Y-124437881D01*
X96293400Y-124437881D01*
X96288087Y-124436457D01*
X96060000Y-124416502D01*
X95831913Y-124436457D01*
X95826600Y-124437881D01*
X95826598Y-124437881D01*
X95616067Y-124494293D01*
X95616065Y-124494294D01*
X95610757Y-124495716D01*
X95605776Y-124498039D01*
X95605775Y-124498039D01*
X95408238Y-124590151D01*
X95408233Y-124590154D01*
X95403251Y-124592477D01*
X95322644Y-124648919D01*
X95220211Y-124720643D01*
X95220208Y-124720645D01*
X95215700Y-124723802D01*
X95053802Y-124885700D01*
X94922477Y-125073251D01*
X94920154Y-125078233D01*
X94920151Y-125078238D01*
X94857150Y-125213346D01*
X94825716Y-125280757D01*
X94824294Y-125286065D01*
X94824293Y-125286067D01*
X94796707Y-125389019D01*
X94759755Y-125449642D01*
X94695894Y-125480663D01*
X94625400Y-125472235D01*
X94570653Y-125427032D01*
X94553293Y-125389019D01*
X94525707Y-125286067D01*
X94525706Y-125286065D01*
X94524284Y-125280757D01*
X94492850Y-125213346D01*
X94429849Y-125078238D01*
X94429846Y-125078233D01*
X94427523Y-125073251D01*
X94296198Y-124885700D01*
X94134300Y-124723802D01*
X94129792Y-124720645D01*
X94129789Y-124720643D01*
X94027356Y-124648919D01*
X93946749Y-124592477D01*
X93941767Y-124590154D01*
X93941762Y-124590151D01*
X93744225Y-124498039D01*
X93744224Y-124498039D01*
X93739243Y-124495716D01*
X93733935Y-124494294D01*
X93733933Y-124494293D01*
X93523402Y-124437881D01*
X93523400Y-124437881D01*
X93518087Y-124436457D01*
X93290000Y-124416502D01*
X93061913Y-124436457D01*
X93056600Y-124437881D01*
X93056598Y-124437881D01*
X92846067Y-124494293D01*
X92846065Y-124494294D01*
X92840757Y-124495716D01*
X92835776Y-124498039D01*
X92835775Y-124498039D01*
X92638238Y-124590151D01*
X92638233Y-124590154D01*
X92633251Y-124592477D01*
X92552644Y-124648919D01*
X92450211Y-124720643D01*
X92450208Y-124720645D01*
X92445700Y-124723802D01*
X92283802Y-124885700D01*
X92152477Y-125073251D01*
X92150154Y-125078233D01*
X92150151Y-125078238D01*
X92087150Y-125213346D01*
X92055716Y-125280757D01*
X92054294Y-125286065D01*
X92054293Y-125286067D01*
X92026707Y-125389019D01*
X91989755Y-125449642D01*
X91925894Y-125480663D01*
X91855400Y-125472235D01*
X91800653Y-125427032D01*
X91783293Y-125389019D01*
X91755707Y-125286067D01*
X91755706Y-125286065D01*
X91754284Y-125280757D01*
X91722850Y-125213346D01*
X91659849Y-125078238D01*
X91659846Y-125078233D01*
X91657523Y-125073251D01*
X91526198Y-124885700D01*
X91364300Y-124723802D01*
X91359792Y-124720645D01*
X91359789Y-124720643D01*
X91257356Y-124648919D01*
X91176749Y-124592477D01*
X91171767Y-124590154D01*
X91171762Y-124590151D01*
X90974225Y-124498039D01*
X90974224Y-124498039D01*
X90969243Y-124495716D01*
X90963935Y-124494294D01*
X90963933Y-124494293D01*
X90753402Y-124437881D01*
X90753400Y-124437881D01*
X90748087Y-124436457D01*
X90520000Y-124416502D01*
X90291913Y-124436457D01*
X90286600Y-124437881D01*
X90286598Y-124437881D01*
X90076067Y-124494293D01*
X90076065Y-124494294D01*
X90070757Y-124495716D01*
X90065776Y-124498039D01*
X90065775Y-124498039D01*
X89868238Y-124590151D01*
X89868233Y-124590154D01*
X89863251Y-124592477D01*
X89782644Y-124648919D01*
X89680211Y-124720643D01*
X89680208Y-124720645D01*
X89675700Y-124723802D01*
X89513802Y-124885700D01*
X89382477Y-125073251D01*
X89380154Y-125078233D01*
X89380151Y-125078238D01*
X89317150Y-125213346D01*
X89285716Y-125280757D01*
X89284294Y-125286065D01*
X89284293Y-125286067D01*
X89246521Y-125427032D01*
X89226457Y-125501913D01*
X89206502Y-125730000D01*
X89226457Y-125958087D01*
X89285716Y-126179243D01*
X89288039Y-126184224D01*
X89288039Y-126184225D01*
X89380151Y-126381762D01*
X89380154Y-126381767D01*
X89382477Y-126386749D01*
X89513802Y-126574300D01*
X89675700Y-126736198D01*
X89680208Y-126739355D01*
X89680211Y-126739357D01*
X89721542Y-126768297D01*
X89863251Y-126867523D01*
X89868233Y-126869846D01*
X89868238Y-126869849D01*
X90046556Y-126952999D01*
X90070757Y-126964284D01*
X90076065Y-126965706D01*
X90076067Y-126965707D01*
X90286598Y-127022119D01*
X90286600Y-127022119D01*
X90291913Y-127023543D01*
X90520000Y-127043498D01*
X90748087Y-127023543D01*
X90753400Y-127022119D01*
X90753402Y-127022119D01*
X90963933Y-126965707D01*
X90963935Y-126965706D01*
X90969243Y-126964284D01*
X90993444Y-126952999D01*
X91171762Y-126869849D01*
X91171767Y-126869846D01*
X91176749Y-126867523D01*
X91318458Y-126768297D01*
X91359789Y-126739357D01*
X91359792Y-126739355D01*
X91364300Y-126736198D01*
X91526198Y-126574300D01*
X91657523Y-126386749D01*
X91659846Y-126381767D01*
X91659849Y-126381762D01*
X91751961Y-126184225D01*
X91751961Y-126184224D01*
X91754284Y-126179243D01*
X91783293Y-126070981D01*
X91820245Y-126010358D01*
X91884106Y-125979337D01*
X91954600Y-125987765D01*
X92009347Y-126032968D01*
X92026707Y-126070981D01*
X92055716Y-126179243D01*
X92058039Y-126184224D01*
X92058039Y-126184225D01*
X92150151Y-126381762D01*
X92150154Y-126381767D01*
X92152477Y-126386749D01*
X92283802Y-126574300D01*
X92445700Y-126736198D01*
X92450208Y-126739355D01*
X92450211Y-126739357D01*
X92491542Y-126768297D01*
X92633251Y-126867523D01*
X92638233Y-126869846D01*
X92638238Y-126869849D01*
X92816556Y-126952999D01*
X92840757Y-126964284D01*
X92846065Y-126965706D01*
X92846067Y-126965707D01*
X93056598Y-127022119D01*
X93056600Y-127022119D01*
X93061913Y-127023543D01*
X93290000Y-127043498D01*
X93518087Y-127023543D01*
X93523400Y-127022119D01*
X93523402Y-127022119D01*
X93733933Y-126965707D01*
X93733935Y-126965706D01*
X93739243Y-126964284D01*
X93763444Y-126952999D01*
X93941762Y-126869849D01*
X93941767Y-126869846D01*
X93946749Y-126867523D01*
X94088458Y-126768297D01*
X94129789Y-126739357D01*
X94129792Y-126739355D01*
X94134300Y-126736198D01*
X94296198Y-126574300D01*
X94427523Y-126386749D01*
X94429846Y-126381767D01*
X94429849Y-126381762D01*
X94521961Y-126184225D01*
X94521961Y-126184224D01*
X94524284Y-126179243D01*
X94553293Y-126070981D01*
X94590245Y-126010358D01*
X94654106Y-125979337D01*
X94724600Y-125987765D01*
X94779347Y-126032968D01*
X94796707Y-126070981D01*
X94825716Y-126179243D01*
X94828039Y-126184224D01*
X94828039Y-126184225D01*
X94920151Y-126381762D01*
X94920154Y-126381767D01*
X94922477Y-126386749D01*
X95053802Y-126574300D01*
X95215700Y-126736198D01*
X95220208Y-126739355D01*
X95220211Y-126739357D01*
X95261542Y-126768297D01*
X95403251Y-126867523D01*
X95408233Y-126869846D01*
X95408238Y-126869849D01*
X95586556Y-126952999D01*
X95610757Y-126964284D01*
X95616065Y-126965706D01*
X95616067Y-126965707D01*
X95826598Y-127022119D01*
X95826600Y-127022119D01*
X95831913Y-127023543D01*
X96060000Y-127043498D01*
X96288087Y-127023543D01*
X96293400Y-127022119D01*
X96293402Y-127022119D01*
X96503933Y-126965707D01*
X96503935Y-126965706D01*
X96509243Y-126964284D01*
X96632251Y-126906925D01*
X96702442Y-126896264D01*
X96767254Y-126925244D01*
X96806111Y-126984664D01*
X96811500Y-127021120D01*
X96811500Y-127350606D01*
X96791498Y-127418727D01*
X96757771Y-127453819D01*
X96605211Y-127560643D01*
X96605208Y-127560645D01*
X96600700Y-127563802D01*
X96438802Y-127725700D01*
X96307477Y-127913251D01*
X96305154Y-127918233D01*
X96305151Y-127918238D01*
X96213039Y-128115775D01*
X96210716Y-128120757D01*
X96209294Y-128126064D01*
X96181448Y-128229986D01*
X96144496Y-128290608D01*
X96080635Y-128321630D01*
X96010141Y-128313201D01*
X95955394Y-128267998D01*
X95938034Y-128229985D01*
X95910236Y-128126239D01*
X95906490Y-128115947D01*
X95814414Y-127918489D01*
X95808931Y-127908994D01*
X95772491Y-127856952D01*
X95762012Y-127848576D01*
X95748566Y-127855644D01*
X95047022Y-128557188D01*
X95039408Y-128571132D01*
X95039539Y-128572965D01*
X95043790Y-128579580D01*
X95749287Y-129285077D01*
X95761062Y-129291507D01*
X95773077Y-129282211D01*
X95808931Y-129231006D01*
X95814414Y-129221511D01*
X95906490Y-129024053D01*
X95910236Y-129013761D01*
X95938034Y-128910015D01*
X95974985Y-128849392D01*
X96038846Y-128818371D01*
X96109340Y-128826799D01*
X96164088Y-128872002D01*
X96181448Y-128910014D01*
X96210716Y-129019243D01*
X96213039Y-129024224D01*
X96213039Y-129024225D01*
X96305151Y-129221762D01*
X96305154Y-129221767D01*
X96307477Y-129226749D01*
X96438802Y-129414300D01*
X96600700Y-129576198D01*
X96605208Y-129579355D01*
X96605211Y-129579357D01*
X96683389Y-129634098D01*
X96788251Y-129707523D01*
X96793233Y-129709846D01*
X96793238Y-129709849D01*
X96989765Y-129801490D01*
X96995757Y-129804284D01*
X97001065Y-129805706D01*
X97001067Y-129805707D01*
X97211598Y-129862119D01*
X97211600Y-129862119D01*
X97216913Y-129863543D01*
X97445000Y-129883498D01*
X97673087Y-129863543D01*
X97678400Y-129862119D01*
X97678402Y-129862119D01*
X97888933Y-129805707D01*
X97888935Y-129805706D01*
X97894243Y-129804284D01*
X97900235Y-129801490D01*
X98096762Y-129709849D01*
X98096767Y-129709846D01*
X98101749Y-129707523D01*
X98206611Y-129634098D01*
X98284789Y-129579357D01*
X98284792Y-129579355D01*
X98289300Y-129576198D01*
X98451198Y-129414300D01*
X98582523Y-129226749D01*
X98584846Y-129221767D01*
X98584849Y-129221762D01*
X98676961Y-129024225D01*
X98676961Y-129024224D01*
X98679284Y-129019243D01*
X98699976Y-128942022D01*
X98708293Y-128910981D01*
X98745245Y-128850358D01*
X98809106Y-128819337D01*
X98879600Y-128827765D01*
X98934347Y-128872968D01*
X98951707Y-128910981D01*
X98960025Y-128942022D01*
X98980716Y-129019243D01*
X98983039Y-129024224D01*
X98983039Y-129024225D01*
X99075151Y-129221762D01*
X99075154Y-129221767D01*
X99077477Y-129226749D01*
X99208802Y-129414300D01*
X99370700Y-129576198D01*
X99375208Y-129579355D01*
X99375211Y-129579357D01*
X99453389Y-129634098D01*
X99558251Y-129707523D01*
X99563233Y-129709846D01*
X99563238Y-129709849D01*
X99759765Y-129801490D01*
X99765757Y-129804284D01*
X99771065Y-129805706D01*
X99771067Y-129805707D01*
X99981598Y-129862119D01*
X99981600Y-129862119D01*
X99986913Y-129863543D01*
X100215000Y-129883498D01*
X100443087Y-129863543D01*
X100448400Y-129862119D01*
X100448402Y-129862119D01*
X100658933Y-129805707D01*
X100658935Y-129805706D01*
X100664243Y-129804284D01*
X100670235Y-129801490D01*
X100866762Y-129709849D01*
X100866767Y-129709846D01*
X100871749Y-129707523D01*
X100976611Y-129634098D01*
X101054789Y-129579357D01*
X101054792Y-129579355D01*
X101059300Y-129576198D01*
X101221198Y-129414300D01*
X101352523Y-129226749D01*
X101354846Y-129221767D01*
X101354849Y-129221762D01*
X101446961Y-129024225D01*
X101446961Y-129024224D01*
X101449284Y-129019243D01*
X101469976Y-128942022D01*
X101507119Y-128803402D01*
X101507119Y-128803400D01*
X101508543Y-128798087D01*
X101528498Y-128570000D01*
X101508543Y-128341913D01*
X101494537Y-128289642D01*
X101450707Y-128126067D01*
X101450706Y-128126064D01*
X101449284Y-128120757D01*
X101446961Y-128115775D01*
X101354849Y-127918238D01*
X101354846Y-127918233D01*
X101352523Y-127913251D01*
X101221198Y-127725700D01*
X101059300Y-127563802D01*
X101054792Y-127560645D01*
X101054789Y-127560643D01*
X100928920Y-127472509D01*
X100871749Y-127432477D01*
X100866767Y-127430154D01*
X100866762Y-127430151D01*
X100669225Y-127338039D01*
X100669224Y-127338039D01*
X100664243Y-127335716D01*
X100658935Y-127334294D01*
X100658933Y-127334293D01*
X100448402Y-127277881D01*
X100448400Y-127277881D01*
X100443087Y-127276457D01*
X100215000Y-127256502D01*
X99986913Y-127276457D01*
X99981600Y-127277881D01*
X99981598Y-127277881D01*
X99771067Y-127334293D01*
X99771065Y-127334294D01*
X99765757Y-127335716D01*
X99760776Y-127338039D01*
X99760775Y-127338039D01*
X99563238Y-127430151D01*
X99563233Y-127430154D01*
X99558251Y-127432477D01*
X99501080Y-127472509D01*
X99375211Y-127560643D01*
X99375208Y-127560645D01*
X99370700Y-127563802D01*
X99208802Y-127725700D01*
X99077477Y-127913251D01*
X99075154Y-127918233D01*
X99075151Y-127918238D01*
X98983039Y-128115775D01*
X98980716Y-128120757D01*
X98979294Y-128126064D01*
X98979293Y-128126067D01*
X98951707Y-128229019D01*
X98914755Y-128289642D01*
X98850894Y-128320663D01*
X98780400Y-128312235D01*
X98725653Y-128267032D01*
X98708293Y-128229019D01*
X98680707Y-128126067D01*
X98680706Y-128126064D01*
X98679284Y-128120757D01*
X98676961Y-128115775D01*
X98584849Y-127918238D01*
X98584846Y-127918233D01*
X98582523Y-127913251D01*
X98451198Y-127725700D01*
X98289300Y-127563802D01*
X98284792Y-127560645D01*
X98284789Y-127560643D01*
X98132229Y-127453819D01*
X98087901Y-127398362D01*
X98078500Y-127350606D01*
X98078500Y-127150000D01*
X106046540Y-127150000D01*
X106066359Y-127465020D01*
X106125505Y-127775072D01*
X106223044Y-128075266D01*
X106224731Y-128078852D01*
X106224733Y-128078856D01*
X106355750Y-128357283D01*
X106355754Y-128357290D01*
X106357438Y-128360869D01*
X106526568Y-128627375D01*
X106529093Y-128630427D01*
X106692346Y-128827765D01*
X106727767Y-128870582D01*
X106957860Y-129086654D01*
X107213221Y-129272184D01*
X107216690Y-129274091D01*
X107216693Y-129274093D01*
X107478816Y-129418197D01*
X107489821Y-129424247D01*
X107493490Y-129425700D01*
X107493495Y-129425702D01*
X107779628Y-129538990D01*
X107783298Y-129540443D01*
X108089025Y-129618940D01*
X108402179Y-129658500D01*
X108717821Y-129658500D01*
X109030975Y-129618940D01*
X109336702Y-129540443D01*
X109340372Y-129538990D01*
X109626505Y-129425702D01*
X109626510Y-129425700D01*
X109630179Y-129424247D01*
X109641184Y-129418197D01*
X109903307Y-129274093D01*
X109903310Y-129274091D01*
X109906779Y-129272184D01*
X110162140Y-129086654D01*
X110392233Y-128870582D01*
X110427655Y-128827765D01*
X110590907Y-128630427D01*
X110593432Y-128627375D01*
X110762562Y-128360869D01*
X110764246Y-128357290D01*
X110764250Y-128357283D01*
X110895267Y-128078856D01*
X110895269Y-128078852D01*
X110896956Y-128075266D01*
X110994495Y-127775072D01*
X111053641Y-127465020D01*
X111073460Y-127150000D01*
X111053641Y-126834980D01*
X110994495Y-126524928D01*
X110896956Y-126224734D01*
X110889503Y-126208895D01*
X110764250Y-125942717D01*
X110764246Y-125942710D01*
X110762562Y-125939131D01*
X110593432Y-125672625D01*
X110434627Y-125480663D01*
X110394758Y-125432470D01*
X110394757Y-125432469D01*
X110392233Y-125429418D01*
X110162140Y-125213346D01*
X109906779Y-125027816D01*
X109732170Y-124931823D01*
X109633648Y-124877660D01*
X109633647Y-124877659D01*
X109630179Y-124875753D01*
X109626510Y-124874300D01*
X109626505Y-124874298D01*
X109340372Y-124761010D01*
X109340371Y-124761010D01*
X109336702Y-124759557D01*
X109030975Y-124681060D01*
X108717821Y-124641500D01*
X108402179Y-124641500D01*
X108089025Y-124681060D01*
X107783298Y-124759557D01*
X107779629Y-124761010D01*
X107779628Y-124761010D01*
X107493495Y-124874298D01*
X107493490Y-124874300D01*
X107489821Y-124875753D01*
X107486353Y-124877659D01*
X107486352Y-124877660D01*
X107387831Y-124931823D01*
X107213221Y-125027816D01*
X106957860Y-125213346D01*
X106727767Y-125429418D01*
X106725243Y-125432469D01*
X106725242Y-125432470D01*
X106685373Y-125480663D01*
X106526568Y-125672625D01*
X106357438Y-125939131D01*
X106355754Y-125942710D01*
X106355750Y-125942717D01*
X106230497Y-126208895D01*
X106223044Y-126224734D01*
X106125505Y-126524928D01*
X106066359Y-126834980D01*
X106046540Y-127150000D01*
X98078500Y-127150000D01*
X98078500Y-127021120D01*
X98098502Y-126952999D01*
X98152158Y-126906506D01*
X98222432Y-126896402D01*
X98257748Y-126906925D01*
X98380757Y-126964284D01*
X98386065Y-126965706D01*
X98386067Y-126965707D01*
X98596598Y-127022119D01*
X98596600Y-127022119D01*
X98601913Y-127023543D01*
X98830000Y-127043498D01*
X99058087Y-127023543D01*
X99063400Y-127022119D01*
X99063402Y-127022119D01*
X99273933Y-126965707D01*
X99273935Y-126965706D01*
X99279243Y-126964284D01*
X99303444Y-126952999D01*
X99481762Y-126869849D01*
X99481767Y-126869846D01*
X99486749Y-126867523D01*
X99628458Y-126768297D01*
X99669789Y-126739357D01*
X99669792Y-126739355D01*
X99674300Y-126736198D01*
X99836198Y-126574300D01*
X99967523Y-126386749D01*
X99969846Y-126381767D01*
X99969849Y-126381762D01*
X100051305Y-126207077D01*
X100098222Y-126153792D01*
X100166499Y-126134331D01*
X100234459Y-126154873D01*
X100280525Y-126208895D01*
X100291500Y-126260327D01*
X100291500Y-126578134D01*
X100298255Y-126640316D01*
X100349385Y-126776705D01*
X100436739Y-126893261D01*
X100553295Y-126980615D01*
X100689684Y-127031745D01*
X100751866Y-127038500D01*
X102448134Y-127038500D01*
X102510316Y-127031745D01*
X102646705Y-126980615D01*
X102763261Y-126893261D01*
X102850615Y-126776705D01*
X102901745Y-126640316D01*
X102908500Y-126578134D01*
X102908500Y-124881866D01*
X102901745Y-124819684D01*
X102850615Y-124683295D01*
X102763261Y-124566739D01*
X102646705Y-124479385D01*
X102510316Y-124428255D01*
X102448134Y-124421500D01*
X100751866Y-124421500D01*
X100689684Y-124428255D01*
X100553295Y-124479385D01*
X100436739Y-124566739D01*
X100349385Y-124683295D01*
X100298255Y-124819684D01*
X100291500Y-124881866D01*
X100291500Y-125199673D01*
X100271498Y-125267794D01*
X100217842Y-125314287D01*
X100147568Y-125324391D01*
X100082988Y-125294897D01*
X100051305Y-125252923D01*
X99969849Y-125078238D01*
X99969846Y-125078233D01*
X99967523Y-125073251D01*
X99836198Y-124885700D01*
X99674300Y-124723802D01*
X99669792Y-124720645D01*
X99669789Y-124720643D01*
X99567356Y-124648919D01*
X99486749Y-124592477D01*
X99481767Y-124590154D01*
X99481762Y-124590151D01*
X99284225Y-124498039D01*
X99284224Y-124498039D01*
X99279243Y-124495716D01*
X99273935Y-124494294D01*
X99273933Y-124494293D01*
X99063402Y-124437881D01*
X99063400Y-124437881D01*
X99058087Y-124436457D01*
X98830000Y-124416502D01*
X98601913Y-124436457D01*
X98596600Y-124437881D01*
X98596598Y-124437881D01*
X98386067Y-124494293D01*
X98386065Y-124494294D01*
X98380757Y-124495716D01*
X98257749Y-124553075D01*
X98187558Y-124563736D01*
X98122746Y-124534756D01*
X98083889Y-124475336D01*
X98078500Y-124438880D01*
X98078500Y-121399768D01*
X98079027Y-121388585D01*
X98080702Y-121381092D01*
X98078562Y-121313001D01*
X98078500Y-121309044D01*
X98078500Y-121281144D01*
X98077996Y-121277153D01*
X98077063Y-121265311D01*
X98076727Y-121254594D01*
X98075674Y-121221111D01*
X98070021Y-121201652D01*
X98066012Y-121182293D01*
X98065846Y-121180983D01*
X98063474Y-121162203D01*
X98060558Y-121154837D01*
X98060556Y-121154831D01*
X98047200Y-121121098D01*
X98043355Y-121109868D01*
X98033230Y-121075017D01*
X98033230Y-121075016D01*
X98031019Y-121067407D01*
X98020705Y-121049966D01*
X98012008Y-121032213D01*
X98007472Y-121020758D01*
X98004552Y-121013383D01*
X97978563Y-120977612D01*
X97972047Y-120967692D01*
X97953578Y-120936463D01*
X97949542Y-120929638D01*
X97935221Y-120915317D01*
X97922380Y-120900283D01*
X97915131Y-120890306D01*
X97910472Y-120883893D01*
X97876395Y-120855702D01*
X97867616Y-120847712D01*
X96007652Y-118987747D01*
X96000112Y-118979461D01*
X95996000Y-118972982D01*
X95946348Y-118926356D01*
X95943507Y-118923602D01*
X95923770Y-118903865D01*
X95920573Y-118901385D01*
X95911551Y-118893680D01*
X95898122Y-118881069D01*
X95879321Y-118863414D01*
X95872375Y-118859595D01*
X95872372Y-118859593D01*
X95861566Y-118853652D01*
X95845047Y-118842801D01*
X95844583Y-118842441D01*
X95829041Y-118830386D01*
X95821772Y-118827241D01*
X95821768Y-118827238D01*
X95788463Y-118812826D01*
X95777813Y-118807609D01*
X95739060Y-118786305D01*
X95719437Y-118781267D01*
X95700734Y-118774863D01*
X95689420Y-118769967D01*
X95689419Y-118769967D01*
X95682145Y-118766819D01*
X95674322Y-118765580D01*
X95674312Y-118765577D01*
X95638476Y-118759901D01*
X95626856Y-118757495D01*
X95591711Y-118748472D01*
X95591710Y-118748472D01*
X95584030Y-118746500D01*
X95563776Y-118746500D01*
X95544065Y-118744949D01*
X95531886Y-118743020D01*
X95524057Y-118741780D01*
X95516165Y-118742526D01*
X95480039Y-118745941D01*
X95468181Y-118746500D01*
X95199394Y-118746500D01*
X95131273Y-118726498D01*
X95096181Y-118692771D01*
X94989357Y-118540211D01*
X94989355Y-118540208D01*
X94986198Y-118535700D01*
X94824300Y-118373802D01*
X94819792Y-118370645D01*
X94819789Y-118370643D01*
X94741611Y-118315902D01*
X94636749Y-118242477D01*
X94631767Y-118240154D01*
X94631762Y-118240151D01*
X94434225Y-118148039D01*
X94434224Y-118148039D01*
X94429243Y-118145716D01*
X94423935Y-118144294D01*
X94423933Y-118144293D01*
X94213402Y-118087881D01*
X94213400Y-118087881D01*
X94208087Y-118086457D01*
X93980000Y-118066502D01*
X93751913Y-118086457D01*
X93746600Y-118087881D01*
X93746598Y-118087881D01*
X93536067Y-118144293D01*
X93536065Y-118144294D01*
X93530757Y-118145716D01*
X93525776Y-118148039D01*
X93525775Y-118148039D01*
X93328238Y-118240151D01*
X93328233Y-118240154D01*
X93323251Y-118242477D01*
X93218389Y-118315902D01*
X93140211Y-118370643D01*
X93140208Y-118370645D01*
X93135700Y-118373802D01*
X92973802Y-118535700D01*
X92970645Y-118540208D01*
X92970643Y-118540211D01*
X92862369Y-118694842D01*
X92806912Y-118739170D01*
X92763117Y-118748509D01*
X92745030Y-118749078D01*
X92737110Y-118749327D01*
X92719454Y-118754456D01*
X92717658Y-118754978D01*
X92698306Y-118758986D01*
X92691235Y-118759880D01*
X92678203Y-118761526D01*
X92670834Y-118764443D01*
X92670832Y-118764444D01*
X92637097Y-118777800D01*
X92625869Y-118781645D01*
X92583407Y-118793982D01*
X92576584Y-118798017D01*
X92576582Y-118798018D01*
X92565972Y-118804293D01*
X92548224Y-118812988D01*
X92529383Y-118820448D01*
X92522967Y-118825110D01*
X92522966Y-118825110D01*
X92493613Y-118846436D01*
X92483693Y-118852952D01*
X92452465Y-118871420D01*
X92452462Y-118871422D01*
X92445638Y-118875458D01*
X92431317Y-118889779D01*
X92416284Y-118902619D01*
X92399893Y-118914528D01*
X92371702Y-118948605D01*
X92363712Y-118957384D01*
X90066501Y-121254594D01*
X90004189Y-121288620D01*
X89977406Y-121291499D01*
X68930627Y-121291499D01*
X68862506Y-121271497D01*
X68816013Y-121217841D01*
X68805015Y-121155613D01*
X68822777Y-120929930D01*
X68823165Y-120925000D01*
X68804535Y-120688289D01*
X68786211Y-120611961D01*
X68750260Y-120462218D01*
X68749105Y-120457406D01*
X68747211Y-120452833D01*
X68660135Y-120242611D01*
X68660133Y-120242607D01*
X68658240Y-120238037D01*
X68647058Y-120219789D01*
X68536759Y-120039798D01*
X68536755Y-120039792D01*
X68534176Y-120035584D01*
X68379969Y-119855031D01*
X68376213Y-119851823D01*
X68376208Y-119851818D01*
X68257944Y-119750811D01*
X68219134Y-119691361D01*
X68218628Y-119620366D01*
X68257944Y-119559189D01*
X68376208Y-119458182D01*
X68376213Y-119458177D01*
X68379969Y-119454969D01*
X68443999Y-119380000D01*
X82506502Y-119380000D01*
X82526457Y-119608087D01*
X82527881Y-119613400D01*
X82527881Y-119613402D01*
X82548308Y-119689634D01*
X82585716Y-119829243D01*
X82588039Y-119834224D01*
X82588039Y-119834225D01*
X82680151Y-120031762D01*
X82680154Y-120031767D01*
X82682477Y-120036749D01*
X82813802Y-120224300D01*
X82975700Y-120386198D01*
X82980208Y-120389355D01*
X82980211Y-120389357D01*
X83058389Y-120444098D01*
X83163251Y-120517523D01*
X83168233Y-120519846D01*
X83168238Y-120519849D01*
X83365775Y-120611961D01*
X83370757Y-120614284D01*
X83376065Y-120615706D01*
X83376067Y-120615707D01*
X83586598Y-120672119D01*
X83586600Y-120672119D01*
X83591913Y-120673543D01*
X83820000Y-120693498D01*
X84048087Y-120673543D01*
X84053400Y-120672119D01*
X84053402Y-120672119D01*
X84263933Y-120615707D01*
X84263935Y-120615706D01*
X84269243Y-120614284D01*
X84274225Y-120611961D01*
X84471762Y-120519849D01*
X84471767Y-120519846D01*
X84476749Y-120517523D01*
X84581611Y-120444098D01*
X84659789Y-120389357D01*
X84659792Y-120389355D01*
X84664300Y-120386198D01*
X84826198Y-120224300D01*
X84957523Y-120036749D01*
X84959846Y-120031767D01*
X84959849Y-120031762D01*
X85051961Y-119834225D01*
X85051961Y-119834224D01*
X85054284Y-119829243D01*
X85091693Y-119689634D01*
X85112119Y-119613402D01*
X85112119Y-119613400D01*
X85113543Y-119608087D01*
X85133498Y-119380000D01*
X85113543Y-119151913D01*
X85061419Y-118957384D01*
X85055707Y-118936067D01*
X85055706Y-118936065D01*
X85054284Y-118930757D01*
X85040591Y-118901392D01*
X84959849Y-118728238D01*
X84959846Y-118728233D01*
X84957523Y-118723251D01*
X84826198Y-118535700D01*
X84664300Y-118373802D01*
X84659792Y-118370645D01*
X84659789Y-118370643D01*
X84581611Y-118315902D01*
X84476749Y-118242477D01*
X84471767Y-118240154D01*
X84471762Y-118240151D01*
X84274225Y-118148039D01*
X84274224Y-118148039D01*
X84269243Y-118145716D01*
X84263935Y-118144294D01*
X84263933Y-118144293D01*
X84053402Y-118087881D01*
X84053400Y-118087881D01*
X84048087Y-118086457D01*
X83820000Y-118066502D01*
X83591913Y-118086457D01*
X83586600Y-118087881D01*
X83586598Y-118087881D01*
X83376067Y-118144293D01*
X83376065Y-118144294D01*
X83370757Y-118145716D01*
X83365776Y-118148039D01*
X83365775Y-118148039D01*
X83168238Y-118240151D01*
X83168233Y-118240154D01*
X83163251Y-118242477D01*
X83058389Y-118315902D01*
X82980211Y-118370643D01*
X82980208Y-118370645D01*
X82975700Y-118373802D01*
X82813802Y-118535700D01*
X82682477Y-118723251D01*
X82680154Y-118728233D01*
X82680151Y-118728238D01*
X82599409Y-118901392D01*
X82585716Y-118930757D01*
X82584294Y-118936065D01*
X82584293Y-118936067D01*
X82578581Y-118957384D01*
X82526457Y-119151913D01*
X82506502Y-119380000D01*
X68443999Y-119380000D01*
X68534176Y-119274416D01*
X68536755Y-119270208D01*
X68536759Y-119270202D01*
X68655654Y-119076183D01*
X68658240Y-119071963D01*
X68723452Y-118914528D01*
X68747211Y-118857167D01*
X68747212Y-118857165D01*
X68749105Y-118852594D01*
X68771936Y-118757495D01*
X68803380Y-118626524D01*
X68803381Y-118626518D01*
X68804535Y-118621711D01*
X68823165Y-118385000D01*
X68804535Y-118148289D01*
X68790033Y-118087881D01*
X68750260Y-117922218D01*
X68749105Y-117917406D01*
X68658240Y-117698037D01*
X68655654Y-117693817D01*
X68536759Y-117499798D01*
X68536755Y-117499792D01*
X68534176Y-117495584D01*
X68379969Y-117315031D01*
X68376213Y-117311823D01*
X68376208Y-117311818D01*
X68257944Y-117210811D01*
X68219134Y-117151361D01*
X68218628Y-117080366D01*
X68257944Y-117019189D01*
X68376208Y-116918182D01*
X68376213Y-116918177D01*
X68379969Y-116914969D01*
X68534176Y-116734416D01*
X68536755Y-116730208D01*
X68536759Y-116730202D01*
X68655654Y-116536183D01*
X68658240Y-116531963D01*
X68749105Y-116312594D01*
X68804535Y-116081711D01*
X68823165Y-115845000D01*
X68804535Y-115608289D01*
X68786211Y-115531961D01*
X68750260Y-115382218D01*
X68749105Y-115377406D01*
X68747211Y-115372833D01*
X68660135Y-115162611D01*
X68660133Y-115162607D01*
X68658240Y-115158037D01*
X68647058Y-115139789D01*
X68536759Y-114959798D01*
X68536755Y-114959792D01*
X68534176Y-114955584D01*
X68379969Y-114775031D01*
X68376213Y-114771823D01*
X68376208Y-114771818D01*
X68257944Y-114670811D01*
X68219134Y-114611361D01*
X68218628Y-114540366D01*
X68257944Y-114479189D01*
X68376208Y-114378182D01*
X68376213Y-114378177D01*
X68379969Y-114374969D01*
X68443999Y-114300000D01*
X83776502Y-114300000D01*
X83796457Y-114528087D01*
X83797881Y-114533400D01*
X83797881Y-114533402D01*
X83818308Y-114609634D01*
X83855716Y-114749243D01*
X83858039Y-114754224D01*
X83858039Y-114754225D01*
X83950151Y-114951762D01*
X83950154Y-114951767D01*
X83952477Y-114956749D01*
X84083802Y-115144300D01*
X84245700Y-115306198D01*
X84250208Y-115309355D01*
X84250211Y-115309357D01*
X84328389Y-115364098D01*
X84433251Y-115437523D01*
X84438233Y-115439846D01*
X84438238Y-115439849D01*
X84635775Y-115531961D01*
X84640757Y-115534284D01*
X84646065Y-115535706D01*
X84646067Y-115535707D01*
X84856598Y-115592119D01*
X84856600Y-115592119D01*
X84861913Y-115593543D01*
X85090000Y-115613498D01*
X85318087Y-115593543D01*
X85323400Y-115592119D01*
X85323402Y-115592119D01*
X85533933Y-115535707D01*
X85533935Y-115535706D01*
X85539243Y-115534284D01*
X85544225Y-115531961D01*
X85741762Y-115439849D01*
X85741767Y-115439846D01*
X85746749Y-115437523D01*
X85851611Y-115364098D01*
X85929789Y-115309357D01*
X85929792Y-115309355D01*
X85934300Y-115306198D01*
X86096198Y-115144300D01*
X86227523Y-114956749D01*
X86229846Y-114951767D01*
X86229849Y-114951762D01*
X86321961Y-114754225D01*
X86321961Y-114754224D01*
X86324284Y-114749243D01*
X86361693Y-114609634D01*
X86382119Y-114533402D01*
X86382119Y-114533400D01*
X86383543Y-114528087D01*
X86403498Y-114300000D01*
X87586502Y-114300000D01*
X87606457Y-114528087D01*
X87607881Y-114533400D01*
X87607881Y-114533402D01*
X87628308Y-114609634D01*
X87665716Y-114749243D01*
X87668039Y-114754224D01*
X87668039Y-114754225D01*
X87760151Y-114951762D01*
X87760154Y-114951767D01*
X87762477Y-114956749D01*
X87893802Y-115144300D01*
X88055700Y-115306198D01*
X88060208Y-115309355D01*
X88060211Y-115309357D01*
X88138389Y-115364098D01*
X88243251Y-115437523D01*
X88248233Y-115439846D01*
X88248238Y-115439849D01*
X88445775Y-115531961D01*
X88450757Y-115534284D01*
X88456065Y-115535706D01*
X88456067Y-115535707D01*
X88666598Y-115592119D01*
X88666600Y-115592119D01*
X88671913Y-115593543D01*
X88900000Y-115613498D01*
X89128087Y-115593543D01*
X89133400Y-115592119D01*
X89133402Y-115592119D01*
X89343933Y-115535707D01*
X89343935Y-115535706D01*
X89349243Y-115534284D01*
X89354225Y-115531961D01*
X89551762Y-115439849D01*
X89551767Y-115439846D01*
X89556749Y-115437523D01*
X89661611Y-115364098D01*
X89739789Y-115309357D01*
X89739792Y-115309355D01*
X89744300Y-115306198D01*
X89906198Y-115144300D01*
X90037523Y-114956749D01*
X90039846Y-114951767D01*
X90039849Y-114951762D01*
X90131961Y-114754225D01*
X90131961Y-114754224D01*
X90134284Y-114749243D01*
X90171693Y-114609634D01*
X90192119Y-114533402D01*
X90192119Y-114533400D01*
X90193543Y-114528087D01*
X90213498Y-114300000D01*
X91396502Y-114300000D01*
X91416457Y-114528087D01*
X91417881Y-114533400D01*
X91417881Y-114533402D01*
X91438308Y-114609634D01*
X91475716Y-114749243D01*
X91478039Y-114754224D01*
X91478039Y-114754225D01*
X91570151Y-114951762D01*
X91570154Y-114951767D01*
X91572477Y-114956749D01*
X91703802Y-115144300D01*
X91865700Y-115306198D01*
X91870208Y-115309355D01*
X91870211Y-115309357D01*
X91948389Y-115364098D01*
X92053251Y-115437523D01*
X92058233Y-115439846D01*
X92058238Y-115439849D01*
X92255775Y-115531961D01*
X92260757Y-115534284D01*
X92266065Y-115535706D01*
X92266067Y-115535707D01*
X92476598Y-115592119D01*
X92476600Y-115592119D01*
X92481913Y-115593543D01*
X92710000Y-115613498D01*
X92938087Y-115593543D01*
X92943400Y-115592119D01*
X92943402Y-115592119D01*
X93153933Y-115535707D01*
X93153935Y-115535706D01*
X93159243Y-115534284D01*
X93164225Y-115531961D01*
X93361762Y-115439849D01*
X93361767Y-115439846D01*
X93366749Y-115437523D01*
X93471611Y-115364098D01*
X93549789Y-115309357D01*
X93549792Y-115309355D01*
X93554300Y-115306198D01*
X93716198Y-115144300D01*
X93847523Y-114956749D01*
X93849846Y-114951767D01*
X93849849Y-114951762D01*
X93941961Y-114754225D01*
X93941961Y-114754224D01*
X93944284Y-114749243D01*
X93981693Y-114609634D01*
X94002119Y-114533402D01*
X94002119Y-114533400D01*
X94003543Y-114528087D01*
X94023498Y-114300000D01*
X99016502Y-114300000D01*
X99036457Y-114528087D01*
X99037881Y-114533400D01*
X99037881Y-114533402D01*
X99058308Y-114609634D01*
X99095716Y-114749243D01*
X99098039Y-114754224D01*
X99098039Y-114754225D01*
X99190151Y-114951762D01*
X99190154Y-114951767D01*
X99192477Y-114956749D01*
X99323802Y-115144300D01*
X99485700Y-115306198D01*
X99490208Y-115309355D01*
X99490211Y-115309357D01*
X99568389Y-115364098D01*
X99673251Y-115437523D01*
X99678233Y-115439846D01*
X99678238Y-115439849D01*
X99875775Y-115531961D01*
X99880757Y-115534284D01*
X99886065Y-115535706D01*
X99886067Y-115535707D01*
X100096598Y-115592119D01*
X100096600Y-115592119D01*
X100101913Y-115593543D01*
X100330000Y-115613498D01*
X100558087Y-115593543D01*
X100563400Y-115592119D01*
X100563402Y-115592119D01*
X100773933Y-115535707D01*
X100773935Y-115535706D01*
X100779243Y-115534284D01*
X100784225Y-115531961D01*
X100981762Y-115439849D01*
X100981767Y-115439846D01*
X100986749Y-115437523D01*
X101091611Y-115364098D01*
X101169789Y-115309357D01*
X101169792Y-115309355D01*
X101174300Y-115306198D01*
X101336198Y-115144300D01*
X101467523Y-114956749D01*
X101469846Y-114951767D01*
X101469849Y-114951762D01*
X101561961Y-114754225D01*
X101561961Y-114754224D01*
X101564284Y-114749243D01*
X101601693Y-114609634D01*
X101622119Y-114533402D01*
X101622119Y-114533400D01*
X101623543Y-114528087D01*
X101643498Y-114300000D01*
X101623543Y-114071913D01*
X101564284Y-113850757D01*
X101529969Y-113777167D01*
X101469849Y-113648238D01*
X101469846Y-113648233D01*
X101467523Y-113643251D01*
X101336198Y-113455700D01*
X101174300Y-113293802D01*
X101169792Y-113290645D01*
X101169789Y-113290643D01*
X101091611Y-113235902D01*
X100986749Y-113162477D01*
X100981767Y-113160154D01*
X100981762Y-113160151D01*
X100784225Y-113068039D01*
X100784224Y-113068039D01*
X100779243Y-113065716D01*
X100773935Y-113064294D01*
X100773933Y-113064293D01*
X100563402Y-113007881D01*
X100563400Y-113007881D01*
X100558087Y-113006457D01*
X100330000Y-112986502D01*
X100101913Y-113006457D01*
X100096600Y-113007881D01*
X100096598Y-113007881D01*
X99886067Y-113064293D01*
X99886065Y-113064294D01*
X99880757Y-113065716D01*
X99875776Y-113068039D01*
X99875775Y-113068039D01*
X99678238Y-113160151D01*
X99678233Y-113160154D01*
X99673251Y-113162477D01*
X99568389Y-113235902D01*
X99490211Y-113290643D01*
X99490208Y-113290645D01*
X99485700Y-113293802D01*
X99323802Y-113455700D01*
X99192477Y-113643251D01*
X99190154Y-113648233D01*
X99190151Y-113648238D01*
X99130031Y-113777167D01*
X99095716Y-113850757D01*
X99036457Y-114071913D01*
X99016502Y-114300000D01*
X94023498Y-114300000D01*
X94003543Y-114071913D01*
X93944284Y-113850757D01*
X93909969Y-113777167D01*
X93849849Y-113648238D01*
X93849846Y-113648233D01*
X93847523Y-113643251D01*
X93716198Y-113455700D01*
X93554300Y-113293802D01*
X93549792Y-113290645D01*
X93549789Y-113290643D01*
X93471611Y-113235902D01*
X93366749Y-113162477D01*
X93361767Y-113160154D01*
X93361762Y-113160151D01*
X93164225Y-113068039D01*
X93164224Y-113068039D01*
X93159243Y-113065716D01*
X93153935Y-113064294D01*
X93153933Y-113064293D01*
X92943402Y-113007881D01*
X92943400Y-113007881D01*
X92938087Y-113006457D01*
X92710000Y-112986502D01*
X92481913Y-113006457D01*
X92476600Y-113007881D01*
X92476598Y-113007881D01*
X92266067Y-113064293D01*
X92266065Y-113064294D01*
X92260757Y-113065716D01*
X92255776Y-113068039D01*
X92255775Y-113068039D01*
X92058238Y-113160151D01*
X92058233Y-113160154D01*
X92053251Y-113162477D01*
X91948389Y-113235902D01*
X91870211Y-113290643D01*
X91870208Y-113290645D01*
X91865700Y-113293802D01*
X91703802Y-113455700D01*
X91572477Y-113643251D01*
X91570154Y-113648233D01*
X91570151Y-113648238D01*
X91510031Y-113777167D01*
X91475716Y-113850757D01*
X91416457Y-114071913D01*
X91396502Y-114300000D01*
X90213498Y-114300000D01*
X90193543Y-114071913D01*
X90134284Y-113850757D01*
X90099969Y-113777167D01*
X90039849Y-113648238D01*
X90039846Y-113648233D01*
X90037523Y-113643251D01*
X89906198Y-113455700D01*
X89744300Y-113293802D01*
X89739792Y-113290645D01*
X89739789Y-113290643D01*
X89661611Y-113235902D01*
X89556749Y-113162477D01*
X89551767Y-113160154D01*
X89551762Y-113160151D01*
X89354225Y-113068039D01*
X89354224Y-113068039D01*
X89349243Y-113065716D01*
X89343935Y-113064294D01*
X89343933Y-113064293D01*
X89133402Y-113007881D01*
X89133400Y-113007881D01*
X89128087Y-113006457D01*
X88900000Y-112986502D01*
X88671913Y-113006457D01*
X88666600Y-113007881D01*
X88666598Y-113007881D01*
X88456067Y-113064293D01*
X88456065Y-113064294D01*
X88450757Y-113065716D01*
X88445776Y-113068039D01*
X88445775Y-113068039D01*
X88248238Y-113160151D01*
X88248233Y-113160154D01*
X88243251Y-113162477D01*
X88138389Y-113235902D01*
X88060211Y-113290643D01*
X88060208Y-113290645D01*
X88055700Y-113293802D01*
X87893802Y-113455700D01*
X87762477Y-113643251D01*
X87760154Y-113648233D01*
X87760151Y-113648238D01*
X87700031Y-113777167D01*
X87665716Y-113850757D01*
X87606457Y-114071913D01*
X87586502Y-114300000D01*
X86403498Y-114300000D01*
X86383543Y-114071913D01*
X86324284Y-113850757D01*
X86289969Y-113777167D01*
X86229849Y-113648238D01*
X86229846Y-113648233D01*
X86227523Y-113643251D01*
X86096198Y-113455700D01*
X85934300Y-113293802D01*
X85929792Y-113290645D01*
X85929789Y-113290643D01*
X85851611Y-113235902D01*
X85746749Y-113162477D01*
X85741767Y-113160154D01*
X85741762Y-113160151D01*
X85544225Y-113068039D01*
X85544224Y-113068039D01*
X85539243Y-113065716D01*
X85533935Y-113064294D01*
X85533933Y-113064293D01*
X85323402Y-113007881D01*
X85323400Y-113007881D01*
X85318087Y-113006457D01*
X85090000Y-112986502D01*
X84861913Y-113006457D01*
X84856600Y-113007881D01*
X84856598Y-113007881D01*
X84646067Y-113064293D01*
X84646065Y-113064294D01*
X84640757Y-113065716D01*
X84635776Y-113068039D01*
X84635775Y-113068039D01*
X84438238Y-113160151D01*
X84438233Y-113160154D01*
X84433251Y-113162477D01*
X84328389Y-113235902D01*
X84250211Y-113290643D01*
X84250208Y-113290645D01*
X84245700Y-113293802D01*
X84083802Y-113455700D01*
X83952477Y-113643251D01*
X83950154Y-113648233D01*
X83950151Y-113648238D01*
X83890031Y-113777167D01*
X83855716Y-113850757D01*
X83796457Y-114071913D01*
X83776502Y-114300000D01*
X68443999Y-114300000D01*
X68534176Y-114194416D01*
X68536755Y-114190208D01*
X68536759Y-114190202D01*
X68655654Y-113996183D01*
X68658240Y-113991963D01*
X68749105Y-113772594D01*
X68778960Y-113648238D01*
X68803380Y-113546524D01*
X68803381Y-113546518D01*
X68804535Y-113541711D01*
X68823165Y-113305000D01*
X68804535Y-113068289D01*
X68795389Y-113030191D01*
X68750260Y-112842218D01*
X68749105Y-112837406D01*
X68732426Y-112797139D01*
X68660135Y-112622611D01*
X68660133Y-112622607D01*
X68658240Y-112618037D01*
X68655654Y-112613817D01*
X68536759Y-112419798D01*
X68536755Y-112419792D01*
X68534176Y-112415584D01*
X68379969Y-112235031D01*
X68376213Y-112231823D01*
X68376208Y-112231818D01*
X68257944Y-112130811D01*
X68219134Y-112071361D01*
X68218825Y-112027966D01*
X110428257Y-112027966D01*
X110458565Y-112162446D01*
X110461645Y-112172275D01*
X110541770Y-112369603D01*
X110546413Y-112378794D01*
X110657694Y-112560388D01*
X110663777Y-112568699D01*
X110803213Y-112729667D01*
X110810580Y-112736883D01*
X110974434Y-112872916D01*
X110982881Y-112878831D01*
X111166756Y-112986279D01*
X111176042Y-112990729D01*
X111375001Y-113066703D01*
X111384899Y-113069579D01*
X111488250Y-113090606D01*
X111502299Y-113089410D01*
X111506000Y-113079065D01*
X111506000Y-113078517D01*
X112014000Y-113078517D01*
X112018064Y-113092359D01*
X112031478Y-113094393D01*
X112038184Y-113093534D01*
X112048262Y-113091392D01*
X112252255Y-113030191D01*
X112261842Y-113026433D01*
X112453095Y-112932739D01*
X112461945Y-112927464D01*
X112635328Y-112803792D01*
X112643200Y-112797139D01*
X112794052Y-112646812D01*
X112800730Y-112638965D01*
X112925003Y-112466020D01*
X112930313Y-112457183D01*
X113024670Y-112266267D01*
X113028469Y-112256672D01*
X113090377Y-112052910D01*
X113092555Y-112042837D01*
X113093986Y-112031962D01*
X113091775Y-112017778D01*
X113078617Y-112014000D01*
X112032115Y-112014000D01*
X112016876Y-112018475D01*
X112015671Y-112019865D01*
X112014000Y-112027548D01*
X112014000Y-113078517D01*
X111506000Y-113078517D01*
X111506000Y-112032115D01*
X111501525Y-112016876D01*
X111500135Y-112015671D01*
X111492452Y-112014000D01*
X110443225Y-112014000D01*
X110429694Y-112017973D01*
X110428257Y-112027966D01*
X68218825Y-112027966D01*
X68218628Y-112000366D01*
X68257944Y-111939189D01*
X68376208Y-111838182D01*
X68376213Y-111838177D01*
X68379969Y-111834969D01*
X68534176Y-111654416D01*
X68536755Y-111650208D01*
X68536759Y-111650202D01*
X68655654Y-111456183D01*
X68658240Y-111451963D01*
X68723476Y-111294470D01*
X68747211Y-111237167D01*
X68747212Y-111237165D01*
X68749105Y-111232594D01*
X68804535Y-111001711D01*
X68823165Y-110765000D01*
X68804535Y-110528289D01*
X68798031Y-110501195D01*
X68750260Y-110302218D01*
X68749105Y-110297406D01*
X68707615Y-110197240D01*
X68660135Y-110082611D01*
X68660133Y-110082607D01*
X68658240Y-110078037D01*
X68565241Y-109926277D01*
X68536759Y-109879798D01*
X68536755Y-109879792D01*
X68534176Y-109875584D01*
X68379969Y-109695031D01*
X68376213Y-109691823D01*
X68376208Y-109691818D01*
X68257944Y-109590811D01*
X68219134Y-109531361D01*
X68218628Y-109460366D01*
X68257944Y-109399189D01*
X68376208Y-109298182D01*
X68376213Y-109298177D01*
X68379969Y-109294969D01*
X68534176Y-109114416D01*
X68536755Y-109110208D01*
X68536759Y-109110202D01*
X68654133Y-108918665D01*
X68706781Y-108871034D01*
X68761566Y-108858500D01*
X96166233Y-108858500D01*
X96177416Y-108859027D01*
X96184909Y-108860702D01*
X96192835Y-108860453D01*
X96192836Y-108860453D01*
X96252986Y-108858562D01*
X96256945Y-108858500D01*
X96284856Y-108858500D01*
X96288791Y-108858003D01*
X96288856Y-108857995D01*
X96300693Y-108857062D01*
X96332951Y-108856048D01*
X96336970Y-108855922D01*
X96344889Y-108855673D01*
X96364343Y-108850021D01*
X96383700Y-108846013D01*
X96395930Y-108844468D01*
X96395931Y-108844468D01*
X96403797Y-108843474D01*
X96411168Y-108840555D01*
X96411170Y-108840555D01*
X96444912Y-108827196D01*
X96456142Y-108823351D01*
X96490983Y-108813229D01*
X96490984Y-108813229D01*
X96498593Y-108811018D01*
X96505412Y-108806985D01*
X96505417Y-108806983D01*
X96516028Y-108800707D01*
X96533776Y-108792012D01*
X96552617Y-108784552D01*
X96588387Y-108758564D01*
X96598307Y-108752048D01*
X96629535Y-108733580D01*
X96629538Y-108733578D01*
X96636362Y-108729542D01*
X96650683Y-108715221D01*
X96665717Y-108702380D01*
X96675694Y-108695131D01*
X96682107Y-108690472D01*
X96710298Y-108656395D01*
X96718288Y-108647616D01*
X99916752Y-105449152D01*
X99979064Y-105415126D01*
X100038459Y-105416541D01*
X100096591Y-105432118D01*
X100096602Y-105432120D01*
X100101913Y-105433543D01*
X100330000Y-105453498D01*
X100558087Y-105433543D01*
X100563400Y-105432119D01*
X100563402Y-105432119D01*
X100773933Y-105375707D01*
X100773935Y-105375706D01*
X100779243Y-105374284D01*
X100784225Y-105371961D01*
X100981762Y-105279849D01*
X100981767Y-105279846D01*
X100986749Y-105277523D01*
X101091611Y-105204098D01*
X101169789Y-105149357D01*
X101169792Y-105149355D01*
X101174300Y-105146198D01*
X101336198Y-104984300D01*
X101467523Y-104796749D01*
X101469846Y-104791767D01*
X101469849Y-104791762D01*
X101561961Y-104594225D01*
X101561961Y-104594224D01*
X101564284Y-104589243D01*
X101601693Y-104449634D01*
X101622119Y-104373402D01*
X101622120Y-104373398D01*
X101623543Y-104368087D01*
X101643498Y-104140000D01*
X101623543Y-103911913D01*
X101564284Y-103690757D01*
X101529969Y-103617167D01*
X101469849Y-103488238D01*
X101469846Y-103488233D01*
X101467523Y-103483251D01*
X101336198Y-103295700D01*
X101174300Y-103133802D01*
X101169792Y-103130645D01*
X101169789Y-103130643D01*
X101091611Y-103075902D01*
X100986749Y-103002477D01*
X100981767Y-103000154D01*
X100981762Y-103000151D01*
X100784225Y-102908039D01*
X100784224Y-102908039D01*
X100779243Y-102905716D01*
X100773935Y-102904294D01*
X100773933Y-102904293D01*
X100563402Y-102847881D01*
X100563400Y-102847881D01*
X100558087Y-102846457D01*
X100330000Y-102826502D01*
X100101913Y-102846457D01*
X100096600Y-102847881D01*
X100096598Y-102847881D01*
X99886067Y-102904293D01*
X99886065Y-102904294D01*
X99880757Y-102905716D01*
X99875776Y-102908039D01*
X99875775Y-102908039D01*
X99678238Y-103000151D01*
X99678233Y-103000154D01*
X99673251Y-103002477D01*
X99568389Y-103075902D01*
X99490211Y-103130643D01*
X99490208Y-103130645D01*
X99485700Y-103133802D01*
X99323802Y-103295700D01*
X99192477Y-103483251D01*
X99190154Y-103488233D01*
X99190151Y-103488238D01*
X99130031Y-103617167D01*
X99095716Y-103690757D01*
X99036457Y-103911913D01*
X99016502Y-104140000D01*
X99036457Y-104368087D01*
X99049028Y-104415000D01*
X99053460Y-104431541D01*
X99051770Y-104502518D01*
X99020848Y-104553247D01*
X96019500Y-107554595D01*
X95957188Y-107588621D01*
X95930405Y-107591500D01*
X68761566Y-107591500D01*
X68693445Y-107571498D01*
X68654133Y-107531335D01*
X68536759Y-107339798D01*
X68536755Y-107339792D01*
X68534176Y-107335584D01*
X68379969Y-107155031D01*
X68376213Y-107151823D01*
X68376208Y-107151818D01*
X68257944Y-107050811D01*
X68219134Y-106991361D01*
X68218628Y-106920366D01*
X68257944Y-106859189D01*
X68376208Y-106758182D01*
X68376213Y-106758177D01*
X68379969Y-106754969D01*
X68534176Y-106574416D01*
X68536755Y-106570208D01*
X68536759Y-106570202D01*
X68655654Y-106376183D01*
X68658240Y-106371963D01*
X68749105Y-106152594D01*
X68804535Y-105921711D01*
X68823165Y-105685000D01*
X68804535Y-105448289D01*
X68796574Y-105415126D01*
X68750260Y-105222218D01*
X68749105Y-105217406D01*
X68725030Y-105159283D01*
X68660135Y-105002611D01*
X68660133Y-105002607D01*
X68658240Y-104998037D01*
X68647058Y-104979789D01*
X68536759Y-104799798D01*
X68536755Y-104799792D01*
X68534176Y-104795584D01*
X68379969Y-104615031D01*
X68376213Y-104611823D01*
X68376208Y-104611818D01*
X68257944Y-104510811D01*
X68219134Y-104451361D01*
X68218628Y-104380366D01*
X68257944Y-104319189D01*
X68376208Y-104218182D01*
X68376213Y-104218177D01*
X68379969Y-104214969D01*
X68443999Y-104140000D01*
X83776502Y-104140000D01*
X83796457Y-104368087D01*
X83797880Y-104373398D01*
X83797881Y-104373402D01*
X83818308Y-104449634D01*
X83855716Y-104589243D01*
X83858039Y-104594224D01*
X83858039Y-104594225D01*
X83950151Y-104791762D01*
X83950154Y-104791767D01*
X83952477Y-104796749D01*
X84083802Y-104984300D01*
X84245700Y-105146198D01*
X84250208Y-105149355D01*
X84250211Y-105149357D01*
X84328389Y-105204098D01*
X84433251Y-105277523D01*
X84438233Y-105279846D01*
X84438238Y-105279849D01*
X84635775Y-105371961D01*
X84640757Y-105374284D01*
X84646065Y-105375706D01*
X84646067Y-105375707D01*
X84856598Y-105432119D01*
X84856600Y-105432119D01*
X84861913Y-105433543D01*
X85090000Y-105453498D01*
X85318087Y-105433543D01*
X85323400Y-105432119D01*
X85323402Y-105432119D01*
X85533933Y-105375707D01*
X85533935Y-105375706D01*
X85539243Y-105374284D01*
X85544225Y-105371961D01*
X85741762Y-105279849D01*
X85741767Y-105279846D01*
X85746749Y-105277523D01*
X85851611Y-105204098D01*
X85929789Y-105149357D01*
X85929792Y-105149355D01*
X85934300Y-105146198D01*
X86096198Y-104984300D01*
X86227523Y-104796749D01*
X86229846Y-104791767D01*
X86229849Y-104791762D01*
X86321961Y-104594225D01*
X86321961Y-104594224D01*
X86324284Y-104589243D01*
X86361693Y-104449634D01*
X86382119Y-104373402D01*
X86382120Y-104373398D01*
X86383543Y-104368087D01*
X86403498Y-104140000D01*
X87586502Y-104140000D01*
X87606457Y-104368087D01*
X87607880Y-104373398D01*
X87607881Y-104373402D01*
X87628308Y-104449634D01*
X87665716Y-104589243D01*
X87668039Y-104594224D01*
X87668039Y-104594225D01*
X87760151Y-104791762D01*
X87760154Y-104791767D01*
X87762477Y-104796749D01*
X87893802Y-104984300D01*
X88055700Y-105146198D01*
X88060208Y-105149355D01*
X88060211Y-105149357D01*
X88138389Y-105204098D01*
X88243251Y-105277523D01*
X88248233Y-105279846D01*
X88248238Y-105279849D01*
X88445775Y-105371961D01*
X88450757Y-105374284D01*
X88456065Y-105375706D01*
X88456067Y-105375707D01*
X88666598Y-105432119D01*
X88666600Y-105432119D01*
X88671913Y-105433543D01*
X88900000Y-105453498D01*
X89128087Y-105433543D01*
X89133400Y-105432119D01*
X89133402Y-105432119D01*
X89343933Y-105375707D01*
X89343935Y-105375706D01*
X89349243Y-105374284D01*
X89354225Y-105371961D01*
X89551762Y-105279849D01*
X89551767Y-105279846D01*
X89556749Y-105277523D01*
X89661611Y-105204098D01*
X89739789Y-105149357D01*
X89739792Y-105149355D01*
X89744300Y-105146198D01*
X89906198Y-104984300D01*
X90037523Y-104796749D01*
X90039846Y-104791767D01*
X90039849Y-104791762D01*
X90131961Y-104594225D01*
X90131961Y-104594224D01*
X90134284Y-104589243D01*
X90171693Y-104449634D01*
X90192119Y-104373402D01*
X90192120Y-104373398D01*
X90193543Y-104368087D01*
X90213498Y-104140000D01*
X91396502Y-104140000D01*
X91416457Y-104368087D01*
X91417880Y-104373398D01*
X91417881Y-104373402D01*
X91438308Y-104449634D01*
X91475716Y-104589243D01*
X91478039Y-104594224D01*
X91478039Y-104594225D01*
X91570151Y-104791762D01*
X91570154Y-104791767D01*
X91572477Y-104796749D01*
X91703802Y-104984300D01*
X91865700Y-105146198D01*
X91870208Y-105149355D01*
X91870211Y-105149357D01*
X91948389Y-105204098D01*
X92053251Y-105277523D01*
X92058233Y-105279846D01*
X92058238Y-105279849D01*
X92255775Y-105371961D01*
X92260757Y-105374284D01*
X92266065Y-105375706D01*
X92266067Y-105375707D01*
X92476598Y-105432119D01*
X92476600Y-105432119D01*
X92481913Y-105433543D01*
X92710000Y-105453498D01*
X92938087Y-105433543D01*
X92943400Y-105432119D01*
X92943402Y-105432119D01*
X93153933Y-105375707D01*
X93153935Y-105375706D01*
X93159243Y-105374284D01*
X93164225Y-105371961D01*
X93361762Y-105279849D01*
X93361767Y-105279846D01*
X93366749Y-105277523D01*
X93471611Y-105204098D01*
X93549789Y-105149357D01*
X93549792Y-105149355D01*
X93554300Y-105146198D01*
X93716198Y-104984300D01*
X93847523Y-104796749D01*
X93849846Y-104791767D01*
X93849849Y-104791762D01*
X93941961Y-104594225D01*
X93941961Y-104594224D01*
X93944284Y-104589243D01*
X93981693Y-104449634D01*
X94002119Y-104373402D01*
X94002120Y-104373398D01*
X94003543Y-104368087D01*
X94023498Y-104140000D01*
X94003543Y-103911913D01*
X93944284Y-103690757D01*
X93909969Y-103617167D01*
X93849849Y-103488238D01*
X93849846Y-103488233D01*
X93847523Y-103483251D01*
X93716198Y-103295700D01*
X93554300Y-103133802D01*
X93549792Y-103130645D01*
X93549789Y-103130643D01*
X93471611Y-103075902D01*
X93366749Y-103002477D01*
X93361767Y-103000154D01*
X93361762Y-103000151D01*
X93164225Y-102908039D01*
X93164224Y-102908039D01*
X93159243Y-102905716D01*
X93153935Y-102904294D01*
X93153933Y-102904293D01*
X92943402Y-102847881D01*
X92943400Y-102847881D01*
X92938087Y-102846457D01*
X92710000Y-102826502D01*
X92481913Y-102846457D01*
X92476600Y-102847881D01*
X92476598Y-102847881D01*
X92266067Y-102904293D01*
X92266065Y-102904294D01*
X92260757Y-102905716D01*
X92255776Y-102908039D01*
X92255775Y-102908039D01*
X92058238Y-103000151D01*
X92058233Y-103000154D01*
X92053251Y-103002477D01*
X91948389Y-103075902D01*
X91870211Y-103130643D01*
X91870208Y-103130645D01*
X91865700Y-103133802D01*
X91703802Y-103295700D01*
X91572477Y-103483251D01*
X91570154Y-103488233D01*
X91570151Y-103488238D01*
X91510031Y-103617167D01*
X91475716Y-103690757D01*
X91416457Y-103911913D01*
X91396502Y-104140000D01*
X90213498Y-104140000D01*
X90193543Y-103911913D01*
X90134284Y-103690757D01*
X90099969Y-103617167D01*
X90039849Y-103488238D01*
X90039846Y-103488233D01*
X90037523Y-103483251D01*
X89906198Y-103295700D01*
X89744300Y-103133802D01*
X89739792Y-103130645D01*
X89739789Y-103130643D01*
X89661611Y-103075902D01*
X89556749Y-103002477D01*
X89551767Y-103000154D01*
X89551762Y-103000151D01*
X89354225Y-102908039D01*
X89354224Y-102908039D01*
X89349243Y-102905716D01*
X89343935Y-102904294D01*
X89343933Y-102904293D01*
X89133402Y-102847881D01*
X89133400Y-102847881D01*
X89128087Y-102846457D01*
X88900000Y-102826502D01*
X88671913Y-102846457D01*
X88666600Y-102847881D01*
X88666598Y-102847881D01*
X88456067Y-102904293D01*
X88456065Y-102904294D01*
X88450757Y-102905716D01*
X88445776Y-102908039D01*
X88445775Y-102908039D01*
X88248238Y-103000151D01*
X88248233Y-103000154D01*
X88243251Y-103002477D01*
X88138389Y-103075902D01*
X88060211Y-103130643D01*
X88060208Y-103130645D01*
X88055700Y-103133802D01*
X87893802Y-103295700D01*
X87762477Y-103483251D01*
X87760154Y-103488233D01*
X87760151Y-103488238D01*
X87700031Y-103617167D01*
X87665716Y-103690757D01*
X87606457Y-103911913D01*
X87586502Y-104140000D01*
X86403498Y-104140000D01*
X86383543Y-103911913D01*
X86324284Y-103690757D01*
X86289969Y-103617167D01*
X86229849Y-103488238D01*
X86229846Y-103488233D01*
X86227523Y-103483251D01*
X86096198Y-103295700D01*
X85934300Y-103133802D01*
X85929792Y-103130645D01*
X85929789Y-103130643D01*
X85851611Y-103075902D01*
X85746749Y-103002477D01*
X85741767Y-103000154D01*
X85741762Y-103000151D01*
X85544225Y-102908039D01*
X85544224Y-102908039D01*
X85539243Y-102905716D01*
X85533935Y-102904294D01*
X85533933Y-102904293D01*
X85323402Y-102847881D01*
X85323400Y-102847881D01*
X85318087Y-102846457D01*
X85090000Y-102826502D01*
X84861913Y-102846457D01*
X84856600Y-102847881D01*
X84856598Y-102847881D01*
X84646067Y-102904293D01*
X84646065Y-102904294D01*
X84640757Y-102905716D01*
X84635776Y-102908039D01*
X84635775Y-102908039D01*
X84438238Y-103000151D01*
X84438233Y-103000154D01*
X84433251Y-103002477D01*
X84328389Y-103075902D01*
X84250211Y-103130643D01*
X84250208Y-103130645D01*
X84245700Y-103133802D01*
X84083802Y-103295700D01*
X83952477Y-103483251D01*
X83950154Y-103488233D01*
X83950151Y-103488238D01*
X83890031Y-103617167D01*
X83855716Y-103690757D01*
X83796457Y-103911913D01*
X83776502Y-104140000D01*
X68443999Y-104140000D01*
X68534176Y-104034416D01*
X68536755Y-104030208D01*
X68536759Y-104030202D01*
X68655654Y-103836183D01*
X68658240Y-103831963D01*
X68749105Y-103612594D01*
X68778960Y-103488238D01*
X68803380Y-103386524D01*
X68803381Y-103386518D01*
X68804535Y-103381711D01*
X68823165Y-103145000D01*
X68804535Y-102908289D01*
X68790033Y-102847881D01*
X68750260Y-102682218D01*
X68749105Y-102677406D01*
X68658240Y-102458037D01*
X68655654Y-102453817D01*
X68536759Y-102259798D01*
X68536755Y-102259792D01*
X68534176Y-102255584D01*
X68379969Y-102075031D01*
X68376213Y-102071823D01*
X68376208Y-102071818D01*
X68257944Y-101970811D01*
X68219134Y-101911361D01*
X68218628Y-101840366D01*
X68257944Y-101779189D01*
X68376208Y-101678182D01*
X68376213Y-101678177D01*
X68379969Y-101674969D01*
X68534176Y-101494416D01*
X68536755Y-101490208D01*
X68536759Y-101490202D01*
X68655654Y-101296183D01*
X68658240Y-101291963D01*
X68749105Y-101072594D01*
X68804535Y-100841711D01*
X68823165Y-100605000D01*
X68804535Y-100368289D01*
X68749105Y-100137406D01*
X68658240Y-99918037D01*
X68655654Y-99913817D01*
X68536759Y-99719798D01*
X68536755Y-99719792D01*
X68534176Y-99715584D01*
X68379969Y-99535031D01*
X68376213Y-99531823D01*
X68376208Y-99531818D01*
X68257944Y-99430811D01*
X68219134Y-99371361D01*
X68218628Y-99300366D01*
X68257944Y-99239189D01*
X68376208Y-99138182D01*
X68376213Y-99138177D01*
X68379969Y-99134969D01*
X68534176Y-98954416D01*
X68536755Y-98950208D01*
X68536759Y-98950202D01*
X68654133Y-98758665D01*
X68706781Y-98711034D01*
X68761566Y-98698500D01*
X78319406Y-98698500D01*
X78387527Y-98718502D01*
X78408501Y-98735405D01*
X81284343Y-101611247D01*
X81291887Y-101619537D01*
X81296000Y-101626018D01*
X81301777Y-101631443D01*
X81345667Y-101672658D01*
X81348509Y-101675413D01*
X81368231Y-101695135D01*
X81371355Y-101697558D01*
X81371359Y-101697562D01*
X81371424Y-101697612D01*
X81380445Y-101705317D01*
X81412679Y-101735586D01*
X81419627Y-101739405D01*
X81419629Y-101739407D01*
X81430432Y-101745346D01*
X81446959Y-101756202D01*
X81456698Y-101763757D01*
X81456700Y-101763758D01*
X81462960Y-101768614D01*
X81503540Y-101786174D01*
X81514188Y-101791391D01*
X81552940Y-101812695D01*
X81560616Y-101814666D01*
X81560619Y-101814667D01*
X81572562Y-101817733D01*
X81591267Y-101824137D01*
X81609855Y-101832181D01*
X81617678Y-101833420D01*
X81617688Y-101833423D01*
X81653524Y-101839099D01*
X81665144Y-101841505D01*
X81700289Y-101850528D01*
X81707970Y-101852500D01*
X81728224Y-101852500D01*
X81747934Y-101854051D01*
X81767943Y-101857220D01*
X81775835Y-101856474D01*
X81811961Y-101853059D01*
X81823819Y-101852500D01*
X103444406Y-101852500D01*
X103512527Y-101872502D01*
X103533501Y-101889405D01*
X110409778Y-108765682D01*
X110443804Y-108827994D01*
X110442100Y-108888448D01*
X110420989Y-108964570D01*
X110420441Y-108969700D01*
X110420440Y-108969704D01*
X110416933Y-109002522D01*
X110397251Y-109186695D01*
X110397548Y-109191848D01*
X110397548Y-109191851D01*
X110403011Y-109286590D01*
X110410110Y-109409715D01*
X110411247Y-109414761D01*
X110411248Y-109414767D01*
X110421525Y-109460366D01*
X110459222Y-109627639D01*
X110543266Y-109834616D01*
X110659987Y-110025088D01*
X110806250Y-110193938D01*
X110978126Y-110336632D01*
X111051955Y-110379774D01*
X111100679Y-110431412D01*
X111113750Y-110501195D01*
X111087019Y-110566967D01*
X111046562Y-110600327D01*
X111038457Y-110604546D01*
X111029738Y-110610036D01*
X110859433Y-110737905D01*
X110851726Y-110744748D01*
X110704590Y-110898717D01*
X110698104Y-110906727D01*
X110578098Y-111082649D01*
X110573000Y-111091623D01*
X110483338Y-111284783D01*
X110479775Y-111294470D01*
X110424389Y-111494183D01*
X110425912Y-111502607D01*
X110438292Y-111506000D01*
X113078344Y-111506000D01*
X113091875Y-111502027D01*
X113093180Y-111492947D01*
X113051214Y-111325875D01*
X113047894Y-111316124D01*
X112962972Y-111120814D01*
X112958105Y-111111739D01*
X112842426Y-110932926D01*
X112836136Y-110924757D01*
X112692806Y-110767240D01*
X112685273Y-110760215D01*
X112518139Y-110628222D01*
X112509556Y-110622520D01*
X112472602Y-110602120D01*
X112422631Y-110551687D01*
X112407859Y-110482245D01*
X112432975Y-110415839D01*
X112460327Y-110389232D01*
X112483797Y-110372491D01*
X112639860Y-110261173D01*
X112798096Y-110103489D01*
X112819418Y-110073817D01*
X112925435Y-109926277D01*
X112928453Y-109922077D01*
X112949349Y-109879798D01*
X113025136Y-109726453D01*
X113025137Y-109726451D01*
X113027430Y-109721811D01*
X113092370Y-109508069D01*
X113121529Y-109286590D01*
X113123156Y-109220000D01*
X113104852Y-108997361D01*
X113050431Y-108780702D01*
X112961354Y-108575840D01*
X112840014Y-108388277D01*
X112836532Y-108384450D01*
X112692798Y-108226488D01*
X112661746Y-108162642D01*
X112670141Y-108092143D01*
X112715317Y-108037375D01*
X112741761Y-108023706D01*
X112848297Y-107983767D01*
X112856705Y-107980615D01*
X112973261Y-107893261D01*
X113060615Y-107776705D01*
X113111745Y-107640316D01*
X113118500Y-107578134D01*
X113118500Y-105781866D01*
X113111745Y-105719684D01*
X113060615Y-105583295D01*
X112973261Y-105466739D01*
X112856705Y-105379385D01*
X112720316Y-105328255D01*
X112658134Y-105321500D01*
X112419438Y-105321500D01*
X112351317Y-105301498D01*
X112317502Y-105269561D01*
X112293564Y-105236613D01*
X112287047Y-105226692D01*
X112268578Y-105195463D01*
X112264542Y-105188638D01*
X112250221Y-105174317D01*
X112237380Y-105159283D01*
X112230131Y-105149306D01*
X112225472Y-105142893D01*
X112191395Y-105114702D01*
X112182616Y-105106712D01*
X105489652Y-98413747D01*
X105482112Y-98405461D01*
X105478000Y-98398982D01*
X105428348Y-98352356D01*
X105425507Y-98349602D01*
X105405770Y-98329865D01*
X105402573Y-98327385D01*
X105393551Y-98319680D01*
X105367100Y-98294841D01*
X105361321Y-98289414D01*
X105354375Y-98285595D01*
X105354372Y-98285593D01*
X105343566Y-98279652D01*
X105327047Y-98268801D01*
X105326583Y-98268441D01*
X105311041Y-98256386D01*
X105303772Y-98253241D01*
X105303768Y-98253238D01*
X105270463Y-98238826D01*
X105259813Y-98233609D01*
X105221060Y-98212305D01*
X105201437Y-98207267D01*
X105182734Y-98200863D01*
X105171420Y-98195967D01*
X105171419Y-98195967D01*
X105164145Y-98192819D01*
X105156322Y-98191580D01*
X105156312Y-98191577D01*
X105120476Y-98185901D01*
X105108856Y-98183495D01*
X105073711Y-98174472D01*
X105073710Y-98174472D01*
X105066030Y-98172500D01*
X105045776Y-98172500D01*
X105026065Y-98170949D01*
X105013886Y-98169020D01*
X105006057Y-98167780D01*
X104998165Y-98168526D01*
X104962039Y-98171941D01*
X104950181Y-98172500D01*
X83118594Y-98172500D01*
X83050473Y-98152498D01*
X83029499Y-98135595D01*
X80833905Y-95940000D01*
X103896835Y-95940000D01*
X103915465Y-96176711D01*
X103970895Y-96407594D01*
X103972788Y-96412165D01*
X103972789Y-96412167D01*
X104049839Y-96598182D01*
X104061760Y-96626963D01*
X104064346Y-96631183D01*
X104183241Y-96825202D01*
X104183245Y-96825208D01*
X104185824Y-96829416D01*
X104340031Y-97009969D01*
X104520584Y-97164176D01*
X104524792Y-97166755D01*
X104524798Y-97166759D01*
X104718817Y-97285654D01*
X104723037Y-97288240D01*
X104727607Y-97290133D01*
X104727611Y-97290135D01*
X104937833Y-97377211D01*
X104942406Y-97379105D01*
X104957010Y-97382611D01*
X105168476Y-97433380D01*
X105168482Y-97433381D01*
X105173289Y-97434535D01*
X105410000Y-97453165D01*
X105646711Y-97434535D01*
X105651518Y-97433381D01*
X105651524Y-97433380D01*
X105862990Y-97382611D01*
X105877594Y-97379105D01*
X105882167Y-97377211D01*
X106092389Y-97290135D01*
X106092393Y-97290133D01*
X106096963Y-97288240D01*
X106101183Y-97285654D01*
X106295202Y-97166759D01*
X106295208Y-97166755D01*
X106299416Y-97164176D01*
X106479969Y-97009969D01*
X106634176Y-96829416D01*
X106636755Y-96825208D01*
X106636759Y-96825202D01*
X106755654Y-96631183D01*
X106758240Y-96626963D01*
X106770162Y-96598182D01*
X106847211Y-96412167D01*
X106847212Y-96412165D01*
X106849105Y-96407594D01*
X106904535Y-96176711D01*
X106923165Y-95940000D01*
X110396835Y-95940000D01*
X110415465Y-96176711D01*
X110470895Y-96407594D01*
X110472788Y-96412165D01*
X110472789Y-96412167D01*
X110549839Y-96598182D01*
X110561760Y-96626963D01*
X110564346Y-96631183D01*
X110683241Y-96825202D01*
X110683245Y-96825208D01*
X110685824Y-96829416D01*
X110840031Y-97009969D01*
X111020584Y-97164176D01*
X111024792Y-97166755D01*
X111024798Y-97166759D01*
X111218817Y-97285654D01*
X111223037Y-97288240D01*
X111227607Y-97290133D01*
X111227611Y-97290135D01*
X111437833Y-97377211D01*
X111442406Y-97379105D01*
X111457010Y-97382611D01*
X111668476Y-97433380D01*
X111668482Y-97433381D01*
X111673289Y-97434535D01*
X111910000Y-97453165D01*
X112146711Y-97434535D01*
X112151518Y-97433381D01*
X112151524Y-97433380D01*
X112362990Y-97382611D01*
X112377594Y-97379105D01*
X112382167Y-97377211D01*
X112592389Y-97290135D01*
X112592393Y-97290133D01*
X112596963Y-97288240D01*
X112601183Y-97285654D01*
X112795202Y-97166759D01*
X112795208Y-97166755D01*
X112799416Y-97164176D01*
X112979969Y-97009969D01*
X113134176Y-96829416D01*
X113136755Y-96825208D01*
X113136759Y-96825202D01*
X113255654Y-96631183D01*
X113258240Y-96626963D01*
X113270162Y-96598182D01*
X113347211Y-96412167D01*
X113347212Y-96412165D01*
X113349105Y-96407594D01*
X113404535Y-96176711D01*
X113423165Y-95940000D01*
X113404535Y-95703289D01*
X113349105Y-95472406D01*
X113315461Y-95391182D01*
X113260135Y-95257611D01*
X113260133Y-95257607D01*
X113258240Y-95253037D01*
X113223188Y-95195838D01*
X113136759Y-95054798D01*
X113136755Y-95054792D01*
X113134176Y-95050584D01*
X112979969Y-94870031D01*
X112799416Y-94715824D01*
X112795208Y-94713245D01*
X112795202Y-94713241D01*
X112601183Y-94594346D01*
X112596963Y-94591760D01*
X112592393Y-94589867D01*
X112592389Y-94589865D01*
X112382167Y-94502789D01*
X112382165Y-94502788D01*
X112377594Y-94500895D01*
X112266651Y-94474260D01*
X112151524Y-94446620D01*
X112151518Y-94446619D01*
X112146711Y-94445465D01*
X111910000Y-94426835D01*
X111673289Y-94445465D01*
X111668482Y-94446619D01*
X111668476Y-94446620D01*
X111553349Y-94474260D01*
X111442406Y-94500895D01*
X111437835Y-94502788D01*
X111437833Y-94502789D01*
X111227611Y-94589865D01*
X111227607Y-94589867D01*
X111223037Y-94591760D01*
X111218817Y-94594346D01*
X111024798Y-94713241D01*
X111024792Y-94713245D01*
X111020584Y-94715824D01*
X110840031Y-94870031D01*
X110685824Y-95050584D01*
X110683245Y-95054792D01*
X110683241Y-95054798D01*
X110596812Y-95195838D01*
X110561760Y-95253037D01*
X110559867Y-95257607D01*
X110559865Y-95257611D01*
X110504539Y-95391182D01*
X110470895Y-95472406D01*
X110415465Y-95703289D01*
X110396835Y-95940000D01*
X106923165Y-95940000D01*
X106904535Y-95703289D01*
X106849105Y-95472406D01*
X106815461Y-95391182D01*
X106760135Y-95257611D01*
X106760133Y-95257607D01*
X106758240Y-95253037D01*
X106723188Y-95195838D01*
X106636759Y-95054798D01*
X106636755Y-95054792D01*
X106634176Y-95050584D01*
X106479969Y-94870031D01*
X106299416Y-94715824D01*
X106295208Y-94713245D01*
X106295202Y-94713241D01*
X106101183Y-94594346D01*
X106096963Y-94591760D01*
X106092393Y-94589867D01*
X106092389Y-94589865D01*
X105882167Y-94502789D01*
X105882165Y-94502788D01*
X105877594Y-94500895D01*
X105766651Y-94474260D01*
X105651524Y-94446620D01*
X105651518Y-94446619D01*
X105646711Y-94445465D01*
X105410000Y-94426835D01*
X105173289Y-94445465D01*
X105168482Y-94446619D01*
X105168476Y-94446620D01*
X105053349Y-94474260D01*
X104942406Y-94500895D01*
X104937835Y-94502788D01*
X104937833Y-94502789D01*
X104727611Y-94589865D01*
X104727607Y-94589867D01*
X104723037Y-94591760D01*
X104718817Y-94594346D01*
X104524798Y-94713241D01*
X104524792Y-94713245D01*
X104520584Y-94715824D01*
X104340031Y-94870031D01*
X104185824Y-95050584D01*
X104183245Y-95054792D01*
X104183241Y-95054798D01*
X104096812Y-95195838D01*
X104061760Y-95253037D01*
X104059867Y-95257607D01*
X104059865Y-95257611D01*
X104004539Y-95391182D01*
X103970895Y-95472406D01*
X103915465Y-95703289D01*
X103896835Y-95940000D01*
X80833905Y-95940000D01*
X80026652Y-95132747D01*
X80019112Y-95124461D01*
X80015000Y-95117982D01*
X79965348Y-95071356D01*
X79962507Y-95068602D01*
X79942770Y-95048865D01*
X79939573Y-95046385D01*
X79930551Y-95038680D01*
X79904100Y-95013841D01*
X79898321Y-95008414D01*
X79891375Y-95004595D01*
X79891372Y-95004593D01*
X79880566Y-94998652D01*
X79864047Y-94987801D01*
X79857161Y-94982460D01*
X79848041Y-94975386D01*
X79840772Y-94972241D01*
X79840768Y-94972238D01*
X79807463Y-94957826D01*
X79796813Y-94952609D01*
X79758060Y-94931305D01*
X79745709Y-94928134D01*
X83681500Y-94928134D01*
X83688255Y-94990316D01*
X83739385Y-95126705D01*
X83826739Y-95243261D01*
X83943295Y-95330615D01*
X84079684Y-95381745D01*
X84141866Y-95388500D01*
X86038134Y-95388500D01*
X86100316Y-95381745D01*
X86236705Y-95330615D01*
X86353261Y-95243261D01*
X86367095Y-95224802D01*
X86423953Y-95182287D01*
X86494772Y-95177261D01*
X86531491Y-95191579D01*
X86634077Y-95251525D01*
X86643364Y-95255975D01*
X86850003Y-95334883D01*
X86859901Y-95337759D01*
X87076653Y-95381857D01*
X87086883Y-95383076D01*
X87307914Y-95391182D01*
X87318223Y-95390714D01*
X87537623Y-95362608D01*
X87547688Y-95360468D01*
X87759557Y-95296905D01*
X87769152Y-95293144D01*
X87967778Y-95195838D01*
X87976636Y-95190559D01*
X88034097Y-95149572D01*
X88042497Y-95138874D01*
X88035509Y-95125720D01*
X86978885Y-94069095D01*
X86944859Y-94006783D01*
X86946694Y-93981132D01*
X87613408Y-93981132D01*
X87613539Y-93982966D01*
X87617790Y-93989580D01*
X88060779Y-94432568D01*
X88088427Y-94474260D01*
X88146484Y-94617237D01*
X88267501Y-94814719D01*
X88419147Y-94989784D01*
X88597349Y-95137730D01*
X88797322Y-95254584D01*
X89013694Y-95337209D01*
X89018760Y-95338240D01*
X89018761Y-95338240D01*
X89071846Y-95349040D01*
X89240656Y-95383385D01*
X89370089Y-95388131D01*
X89466949Y-95391683D01*
X89466953Y-95391683D01*
X89472113Y-95391872D01*
X89477233Y-95391216D01*
X89477235Y-95391216D01*
X89551166Y-95381745D01*
X89701847Y-95362442D01*
X89706795Y-95360957D01*
X89706802Y-95360956D01*
X89918747Y-95297369D01*
X89923690Y-95295886D01*
X89929287Y-95293144D01*
X90127049Y-95196262D01*
X90127052Y-95196260D01*
X90131684Y-95193991D01*
X90320243Y-95059494D01*
X90389663Y-94990316D01*
X90395485Y-94984514D01*
X90457857Y-94950598D01*
X90528663Y-94955786D01*
X90572584Y-94983743D01*
X90574760Y-94985873D01*
X90578147Y-94989784D01*
X90756349Y-95137730D01*
X90956322Y-95254584D01*
X91172694Y-95337209D01*
X91177760Y-95338240D01*
X91177761Y-95338240D01*
X91230846Y-95349040D01*
X91399656Y-95383385D01*
X91529089Y-95388131D01*
X91625949Y-95391683D01*
X91625953Y-95391683D01*
X91631113Y-95391872D01*
X91636233Y-95391216D01*
X91636235Y-95391216D01*
X91710166Y-95381745D01*
X91860847Y-95362442D01*
X91865795Y-95360957D01*
X91865802Y-95360956D01*
X92077747Y-95297369D01*
X92082690Y-95295886D01*
X92088287Y-95293144D01*
X92286049Y-95196262D01*
X92286052Y-95196260D01*
X92290684Y-95193991D01*
X92479243Y-95059494D01*
X92643303Y-94896005D01*
X92778458Y-94707917D01*
X92812125Y-94639798D01*
X92878784Y-94504922D01*
X92878785Y-94504920D01*
X92881078Y-94500280D01*
X92948408Y-94278671D01*
X92978640Y-94049041D01*
X92980327Y-93980000D01*
X92973002Y-93890905D01*
X92961773Y-93754318D01*
X92961772Y-93754312D01*
X92961349Y-93749167D01*
X92904925Y-93524533D01*
X92890690Y-93491795D01*
X92814630Y-93316868D01*
X92814628Y-93316865D01*
X92812570Y-93312131D01*
X92686764Y-93117665D01*
X92530887Y-92946358D01*
X92526836Y-92943159D01*
X92526832Y-92943155D01*
X92353177Y-92806011D01*
X92353172Y-92806008D01*
X92349123Y-92802810D01*
X92344607Y-92800317D01*
X92344604Y-92800315D01*
X92150879Y-92693373D01*
X92150875Y-92693371D01*
X92146355Y-92690876D01*
X92141486Y-92689152D01*
X92141482Y-92689150D01*
X92094944Y-92672670D01*
X104542160Y-92672670D01*
X104547887Y-92680320D01*
X104719042Y-92785205D01*
X104727837Y-92789687D01*
X104937988Y-92876734D01*
X104947373Y-92879783D01*
X105168554Y-92932885D01*
X105178301Y-92934428D01*
X105405070Y-92952275D01*
X105414930Y-92952275D01*
X105641699Y-92934428D01*
X105651446Y-92932885D01*
X105872627Y-92879783D01*
X105882012Y-92876734D01*
X106092163Y-92789687D01*
X106100958Y-92785205D01*
X106268445Y-92682568D01*
X106277400Y-92672670D01*
X111042160Y-92672670D01*
X111047887Y-92680320D01*
X111219042Y-92785205D01*
X111227837Y-92789687D01*
X111437988Y-92876734D01*
X111447373Y-92879783D01*
X111668554Y-92932885D01*
X111678301Y-92934428D01*
X111905070Y-92952275D01*
X111914930Y-92952275D01*
X112141699Y-92934428D01*
X112151446Y-92932885D01*
X112372627Y-92879783D01*
X112382012Y-92876734D01*
X112592163Y-92789687D01*
X112600958Y-92785205D01*
X112768445Y-92682568D01*
X112777907Y-92672110D01*
X112774124Y-92663334D01*
X111922812Y-91812022D01*
X111908868Y-91804408D01*
X111907035Y-91804539D01*
X111900420Y-91808790D01*
X111048920Y-92660290D01*
X111042160Y-92672670D01*
X106277400Y-92672670D01*
X106277907Y-92672110D01*
X106274124Y-92663334D01*
X105422812Y-91812022D01*
X105408868Y-91804408D01*
X105407035Y-91804539D01*
X105400420Y-91808790D01*
X104548920Y-92660290D01*
X104542160Y-92672670D01*
X92094944Y-92672670D01*
X91932903Y-92615288D01*
X91932899Y-92615287D01*
X91928028Y-92613562D01*
X91922935Y-92612655D01*
X91922932Y-92612654D01*
X91705095Y-92573851D01*
X91705089Y-92573850D01*
X91700006Y-92572945D01*
X91627096Y-92572054D01*
X91473581Y-92570179D01*
X91473579Y-92570179D01*
X91468411Y-92570116D01*
X91239464Y-92605150D01*
X91019314Y-92677106D01*
X91014726Y-92679494D01*
X91014722Y-92679496D01*
X90891818Y-92743476D01*
X90813872Y-92784052D01*
X90809739Y-92787155D01*
X90809736Y-92787157D01*
X90737088Y-92841703D01*
X90628655Y-92923117D01*
X90625083Y-92926855D01*
X90579645Y-92974403D01*
X90518121Y-93009833D01*
X90447208Y-93006376D01*
X90395358Y-92972152D01*
X90375366Y-92950181D01*
X90375364Y-92950179D01*
X90371887Y-92946358D01*
X90367836Y-92943159D01*
X90367832Y-92943155D01*
X90194177Y-92806011D01*
X90194172Y-92806008D01*
X90190123Y-92802810D01*
X90185607Y-92800317D01*
X90185604Y-92800315D01*
X89991879Y-92693373D01*
X89991875Y-92693371D01*
X89987355Y-92690876D01*
X89982486Y-92689152D01*
X89982482Y-92689150D01*
X89773903Y-92615288D01*
X89773899Y-92615287D01*
X89769028Y-92613562D01*
X89763935Y-92612655D01*
X89763932Y-92612654D01*
X89546095Y-92573851D01*
X89546089Y-92573850D01*
X89541006Y-92572945D01*
X89468096Y-92572054D01*
X89314581Y-92570179D01*
X89314579Y-92570179D01*
X89309411Y-92570116D01*
X89080464Y-92605150D01*
X88860314Y-92677106D01*
X88855726Y-92679494D01*
X88855722Y-92679496D01*
X88732818Y-92743476D01*
X88654872Y-92784052D01*
X88650739Y-92787155D01*
X88650736Y-92787157D01*
X88578088Y-92841703D01*
X88469655Y-92923117D01*
X88309639Y-93090564D01*
X88306725Y-93094836D01*
X88306724Y-93094837D01*
X88291152Y-93117665D01*
X88179119Y-93281899D01*
X88176943Y-93286587D01*
X88102119Y-93447782D01*
X88081602Y-93491981D01*
X88081202Y-93491795D01*
X88054211Y-93534000D01*
X87621021Y-93967189D01*
X87613408Y-93981132D01*
X86946694Y-93981132D01*
X86949924Y-93935967D01*
X86978885Y-93890905D01*
X87249000Y-93620790D01*
X88037990Y-92831799D01*
X88045010Y-92818943D01*
X88037236Y-92808273D01*
X88034902Y-92806430D01*
X88026320Y-92800729D01*
X87832678Y-92693833D01*
X87823272Y-92689606D01*
X87614772Y-92615772D01*
X87604809Y-92613140D01*
X87387047Y-92574350D01*
X87376796Y-92573381D01*
X87155616Y-92570679D01*
X87145332Y-92571399D01*
X86926693Y-92604855D01*
X86916666Y-92607244D01*
X86706426Y-92675961D01*
X86696916Y-92679958D01*
X86524744Y-92769585D01*
X86455084Y-92783298D01*
X86389069Y-92757173D01*
X86365738Y-92733387D01*
X86358642Y-92723919D01*
X86353261Y-92716739D01*
X86236705Y-92629385D01*
X86100316Y-92578255D01*
X86038134Y-92571500D01*
X84141866Y-92571500D01*
X84079684Y-92578255D01*
X83943295Y-92629385D01*
X83826739Y-92716739D01*
X83739385Y-92833295D01*
X83688255Y-92969684D01*
X83681500Y-93031866D01*
X83681500Y-94928134D01*
X79745709Y-94928134D01*
X79738437Y-94926267D01*
X79719734Y-94919863D01*
X79708420Y-94914967D01*
X79708419Y-94914967D01*
X79701145Y-94911819D01*
X79693322Y-94910580D01*
X79693312Y-94910577D01*
X79657476Y-94904901D01*
X79645856Y-94902495D01*
X79610711Y-94893472D01*
X79610710Y-94893472D01*
X79603030Y-94891500D01*
X79582776Y-94891500D01*
X79563065Y-94889949D01*
X79550886Y-94888020D01*
X79543057Y-94886780D01*
X79535165Y-94887526D01*
X79499039Y-94890941D01*
X79487181Y-94891500D01*
X68761566Y-94891500D01*
X68693445Y-94871498D01*
X68654133Y-94831335D01*
X68536759Y-94639798D01*
X68536755Y-94639792D01*
X68534176Y-94635584D01*
X68379969Y-94455031D01*
X68376213Y-94451823D01*
X68376208Y-94451818D01*
X68257944Y-94350811D01*
X68219134Y-94291361D01*
X68218628Y-94220366D01*
X68257944Y-94159189D01*
X68376208Y-94058182D01*
X68376213Y-94058177D01*
X68379969Y-94054969D01*
X68534176Y-93874416D01*
X68536755Y-93870208D01*
X68536759Y-93870202D01*
X68655654Y-93676183D01*
X68658240Y-93671963D01*
X68679437Y-93620790D01*
X68747211Y-93457167D01*
X68747212Y-93457165D01*
X68749105Y-93452594D01*
X68804535Y-93221711D01*
X68823165Y-92985000D01*
X68804535Y-92748289D01*
X68800958Y-92733387D01*
X68768360Y-92597609D01*
X68749105Y-92517406D01*
X68747211Y-92512833D01*
X68660135Y-92302611D01*
X68660133Y-92302607D01*
X68658240Y-92298037D01*
X68655654Y-92293817D01*
X68536759Y-92099798D01*
X68536755Y-92099792D01*
X68534176Y-92095584D01*
X68379969Y-91915031D01*
X68376213Y-91911823D01*
X68376208Y-91911818D01*
X68257944Y-91810811D01*
X68219134Y-91751361D01*
X68218628Y-91680366D01*
X68257944Y-91619189D01*
X68376208Y-91518182D01*
X68376213Y-91518177D01*
X68379969Y-91514969D01*
X68439788Y-91444930D01*
X103897725Y-91444930D01*
X103915572Y-91671699D01*
X103917115Y-91681446D01*
X103970217Y-91902627D01*
X103973266Y-91912012D01*
X104060313Y-92122163D01*
X104064795Y-92130958D01*
X104167432Y-92298445D01*
X104177890Y-92307907D01*
X104186666Y-92304124D01*
X105037978Y-91452812D01*
X105044356Y-91441132D01*
X105774408Y-91441132D01*
X105774539Y-91442965D01*
X105778790Y-91449580D01*
X106630290Y-92301080D01*
X106642670Y-92307840D01*
X106650320Y-92302113D01*
X106755205Y-92130958D01*
X106759687Y-92122163D01*
X106846734Y-91912012D01*
X106849783Y-91902627D01*
X106902885Y-91681446D01*
X106904428Y-91671699D01*
X106922275Y-91444930D01*
X110397725Y-91444930D01*
X110415572Y-91671699D01*
X110417115Y-91681446D01*
X110470217Y-91902627D01*
X110473266Y-91912012D01*
X110560313Y-92122163D01*
X110564795Y-92130958D01*
X110667432Y-92298445D01*
X110677890Y-92307907D01*
X110686666Y-92304124D01*
X111537978Y-91452812D01*
X111544356Y-91441132D01*
X112274408Y-91441132D01*
X112274539Y-91442965D01*
X112278790Y-91449580D01*
X113130290Y-92301080D01*
X113142670Y-92307840D01*
X113150320Y-92302113D01*
X113255205Y-92130958D01*
X113259687Y-92122163D01*
X113346734Y-91912012D01*
X113349783Y-91902627D01*
X113402885Y-91681446D01*
X113404428Y-91671699D01*
X113422275Y-91444930D01*
X113422275Y-91435070D01*
X113404428Y-91208301D01*
X113402885Y-91198554D01*
X113349783Y-90977373D01*
X113346734Y-90967988D01*
X113259687Y-90757837D01*
X113255205Y-90749042D01*
X113152568Y-90581555D01*
X113142110Y-90572093D01*
X113133334Y-90575876D01*
X112282022Y-91427188D01*
X112274408Y-91441132D01*
X111544356Y-91441132D01*
X111545592Y-91438868D01*
X111545461Y-91437035D01*
X111541210Y-91430420D01*
X110689710Y-90578920D01*
X110677330Y-90572160D01*
X110669680Y-90577887D01*
X110564795Y-90749042D01*
X110560313Y-90757837D01*
X110473266Y-90967988D01*
X110470217Y-90977373D01*
X110417115Y-91198554D01*
X110415572Y-91208301D01*
X110397725Y-91435070D01*
X110397725Y-91444930D01*
X106922275Y-91444930D01*
X106922275Y-91435070D01*
X106904428Y-91208301D01*
X106902885Y-91198554D01*
X106849783Y-90977373D01*
X106846734Y-90967988D01*
X106759687Y-90757837D01*
X106755205Y-90749042D01*
X106652568Y-90581555D01*
X106642110Y-90572093D01*
X106633334Y-90575876D01*
X105782022Y-91427188D01*
X105774408Y-91441132D01*
X105044356Y-91441132D01*
X105045592Y-91438868D01*
X105045461Y-91437035D01*
X105041210Y-91430420D01*
X104189710Y-90578920D01*
X104177330Y-90572160D01*
X104169680Y-90577887D01*
X104064795Y-90749042D01*
X104060313Y-90757837D01*
X103973266Y-90967988D01*
X103970217Y-90977373D01*
X103917115Y-91198554D01*
X103915572Y-91208301D01*
X103897725Y-91435070D01*
X103897725Y-91444930D01*
X68439788Y-91444930D01*
X68534176Y-91334416D01*
X68536755Y-91330208D01*
X68536759Y-91330202D01*
X68655654Y-91136183D01*
X68658240Y-91131963D01*
X68681590Y-91075592D01*
X68747211Y-90917167D01*
X68747212Y-90917165D01*
X68749105Y-90912594D01*
X68786259Y-90757837D01*
X68803380Y-90686524D01*
X68803381Y-90686518D01*
X68804535Y-90681711D01*
X68823165Y-90445000D01*
X68804535Y-90208289D01*
X68804439Y-90207890D01*
X104542093Y-90207890D01*
X104545876Y-90216666D01*
X105397188Y-91067978D01*
X105411132Y-91075592D01*
X105412965Y-91075461D01*
X105419580Y-91071210D01*
X106271080Y-90219710D01*
X106277534Y-90207890D01*
X111042093Y-90207890D01*
X111045876Y-90216666D01*
X111897188Y-91067978D01*
X111911132Y-91075592D01*
X111912965Y-91075461D01*
X111919580Y-91071210D01*
X112771080Y-90219710D01*
X112777840Y-90207330D01*
X112772113Y-90199680D01*
X112600958Y-90094795D01*
X112592163Y-90090313D01*
X112382012Y-90003266D01*
X112372627Y-90000217D01*
X112151446Y-89947115D01*
X112141699Y-89945572D01*
X111914930Y-89927725D01*
X111905070Y-89927725D01*
X111678301Y-89945572D01*
X111668554Y-89947115D01*
X111447373Y-90000217D01*
X111437988Y-90003266D01*
X111227837Y-90090313D01*
X111219042Y-90094795D01*
X111051555Y-90197432D01*
X111042093Y-90207890D01*
X106277534Y-90207890D01*
X106277840Y-90207330D01*
X106272113Y-90199680D01*
X106100958Y-90094795D01*
X106092163Y-90090313D01*
X105882012Y-90003266D01*
X105872627Y-90000217D01*
X105651446Y-89947115D01*
X105641699Y-89945572D01*
X105414930Y-89927725D01*
X105405070Y-89927725D01*
X105178301Y-89945572D01*
X105168554Y-89947115D01*
X104947373Y-90000217D01*
X104937988Y-90003266D01*
X104727837Y-90090313D01*
X104719042Y-90094795D01*
X104551555Y-90197432D01*
X104542093Y-90207890D01*
X68804439Y-90207890D01*
X68802469Y-90199680D01*
X68750260Y-89982218D01*
X68749105Y-89977406D01*
X68658240Y-89758037D01*
X68655654Y-89753817D01*
X68536759Y-89559798D01*
X68536755Y-89559792D01*
X68534176Y-89555584D01*
X68379969Y-89375031D01*
X68199416Y-89220824D01*
X68195208Y-89218245D01*
X68195202Y-89218241D01*
X68001183Y-89099346D01*
X67996963Y-89096760D01*
X67992393Y-89094867D01*
X67992389Y-89094865D01*
X67782167Y-89007789D01*
X67782165Y-89007788D01*
X67777594Y-89005895D01*
X67697391Y-88986640D01*
X67551524Y-88951620D01*
X67551518Y-88951619D01*
X67546711Y-88950465D01*
X67310000Y-88931835D01*
X67073289Y-88950465D01*
X67068482Y-88951619D01*
X67068476Y-88951620D01*
X66922609Y-88986640D01*
X66842406Y-89005895D01*
X66837835Y-89007788D01*
X66837833Y-89007789D01*
X66627611Y-89094865D01*
X66627607Y-89094867D01*
X66623037Y-89096760D01*
X66618817Y-89099346D01*
X66424798Y-89218241D01*
X66424792Y-89218245D01*
X66420584Y-89220824D01*
X66240031Y-89375031D01*
X66085824Y-89555584D01*
X66083245Y-89559792D01*
X66083241Y-89559798D01*
X65964346Y-89753817D01*
X65961760Y-89758037D01*
X65870895Y-89977406D01*
X65869740Y-89982218D01*
X65817532Y-90199680D01*
X65815465Y-90208289D01*
X65796835Y-90445000D01*
X65815465Y-90681711D01*
X65816619Y-90686518D01*
X65816620Y-90686524D01*
X65833741Y-90757837D01*
X65870895Y-90912594D01*
X65872788Y-90917165D01*
X65872789Y-90917167D01*
X65938411Y-91075592D01*
X65961760Y-91131963D01*
X65964346Y-91136183D01*
X66083241Y-91330202D01*
X66083245Y-91330208D01*
X66085824Y-91334416D01*
X66240031Y-91514969D01*
X66243787Y-91518177D01*
X66243792Y-91518182D01*
X66362056Y-91619189D01*
X66400866Y-91678639D01*
X66401372Y-91749634D01*
X66362056Y-91810811D01*
X66243792Y-91911818D01*
X66243787Y-91911823D01*
X66240031Y-91915031D01*
X66085824Y-92095584D01*
X66083245Y-92099792D01*
X66083241Y-92099798D01*
X65964346Y-92293817D01*
X65961760Y-92298037D01*
X65959867Y-92302607D01*
X65959865Y-92302611D01*
X65872789Y-92512833D01*
X65870895Y-92517406D01*
X65851640Y-92597609D01*
X65819043Y-92733387D01*
X65815465Y-92748289D01*
X65796835Y-92985000D01*
X65815465Y-93221711D01*
X65870895Y-93452594D01*
X65872788Y-93457165D01*
X65872789Y-93457167D01*
X65940564Y-93620790D01*
X65961760Y-93671963D01*
X65964346Y-93676183D01*
X66083241Y-93870202D01*
X66083245Y-93870208D01*
X66085824Y-93874416D01*
X66240031Y-94054969D01*
X66243787Y-94058177D01*
X66243792Y-94058182D01*
X66362056Y-94159189D01*
X66400866Y-94218639D01*
X66401372Y-94289634D01*
X66362056Y-94350811D01*
X66243792Y-94451818D01*
X66243787Y-94451823D01*
X66240031Y-94455031D01*
X66085824Y-94635584D01*
X66083245Y-94639792D01*
X66083241Y-94639798D01*
X66034685Y-94719035D01*
X65961760Y-94838037D01*
X65959867Y-94842607D01*
X65959865Y-94842611D01*
X65876968Y-95042745D01*
X65870895Y-95057406D01*
X65856352Y-95117982D01*
X65823223Y-95255975D01*
X65815465Y-95288289D01*
X65796835Y-95525000D01*
X65815465Y-95761711D01*
X65870895Y-95992594D01*
X65872788Y-95997165D01*
X65872789Y-95997167D01*
X65949152Y-96181524D01*
X65961760Y-96211963D01*
X65964346Y-96216183D01*
X66083241Y-96410202D01*
X66083245Y-96410208D01*
X66085824Y-96414416D01*
X66240031Y-96594969D01*
X66243787Y-96598177D01*
X66243792Y-96598182D01*
X66362056Y-96699189D01*
X66400866Y-96758639D01*
X66401372Y-96829634D01*
X66362056Y-96890811D01*
X66243792Y-96991818D01*
X66243787Y-96991823D01*
X66240031Y-96995031D01*
X66085824Y-97175584D01*
X66083245Y-97179792D01*
X66083241Y-97179798D01*
X65965867Y-97371335D01*
X65961760Y-97378037D01*
X65959867Y-97382607D01*
X65959865Y-97382611D01*
X65876968Y-97582745D01*
X65870895Y-97597406D01*
X65815465Y-97828289D01*
X65796835Y-98065000D01*
X65815465Y-98301711D01*
X65816619Y-98306518D01*
X65816620Y-98306524D01*
X65840255Y-98404968D01*
X65870895Y-98532594D01*
X65872788Y-98537165D01*
X65872789Y-98537167D01*
X65944807Y-98711034D01*
X65961760Y-98751963D01*
X65964346Y-98756183D01*
X66083241Y-98950202D01*
X66083245Y-98950208D01*
X66085824Y-98954416D01*
X66240031Y-99134969D01*
X66243787Y-99138177D01*
X66243792Y-99138182D01*
X66362056Y-99239189D01*
X66400866Y-99298639D01*
X66401372Y-99369634D01*
X66362056Y-99430811D01*
X66243792Y-99531818D01*
X66243787Y-99531823D01*
X66240031Y-99535031D01*
X66085824Y-99715584D01*
X66083245Y-99719792D01*
X66083241Y-99719798D01*
X65964346Y-99913817D01*
X65961760Y-99918037D01*
X65870895Y-100137406D01*
X65815465Y-100368289D01*
X65796835Y-100605000D01*
X65815465Y-100841711D01*
X65870895Y-101072594D01*
X65961760Y-101291963D01*
X65964346Y-101296183D01*
X66083241Y-101490202D01*
X66083245Y-101490208D01*
X66085824Y-101494416D01*
X66240031Y-101674969D01*
X66243787Y-101678177D01*
X66243792Y-101678182D01*
X66362056Y-101779189D01*
X66400866Y-101838639D01*
X66401372Y-101909634D01*
X66362056Y-101970811D01*
X66243792Y-102071818D01*
X66243787Y-102071823D01*
X66240031Y-102075031D01*
X66085824Y-102255584D01*
X66083245Y-102259792D01*
X66083241Y-102259798D01*
X65964346Y-102453817D01*
X65961760Y-102458037D01*
X65870895Y-102677406D01*
X65869740Y-102682218D01*
X65829968Y-102847881D01*
X65815465Y-102908289D01*
X65796835Y-103145000D01*
X65815465Y-103381711D01*
X65816619Y-103386518D01*
X65816620Y-103386524D01*
X65841040Y-103488238D01*
X65870895Y-103612594D01*
X65961760Y-103831963D01*
X65964346Y-103836183D01*
X66083241Y-104030202D01*
X66083245Y-104030208D01*
X66085824Y-104034416D01*
X66240031Y-104214969D01*
X66243787Y-104218177D01*
X66243792Y-104218182D01*
X66362056Y-104319189D01*
X66400866Y-104378639D01*
X66401372Y-104449634D01*
X66362056Y-104510811D01*
X66243792Y-104611818D01*
X66243787Y-104611823D01*
X66240031Y-104615031D01*
X66085824Y-104795584D01*
X66083245Y-104799792D01*
X66083241Y-104799798D01*
X65972942Y-104979789D01*
X65961760Y-104998037D01*
X65959867Y-105002607D01*
X65959865Y-105002611D01*
X65894970Y-105159283D01*
X65870895Y-105217406D01*
X65869740Y-105222218D01*
X65823427Y-105415126D01*
X65815465Y-105448289D01*
X65796835Y-105685000D01*
X65815465Y-105921711D01*
X65870895Y-106152594D01*
X65961760Y-106371963D01*
X65964346Y-106376183D01*
X66083241Y-106570202D01*
X66083245Y-106570208D01*
X66085824Y-106574416D01*
X66240031Y-106754969D01*
X66243787Y-106758177D01*
X66243792Y-106758182D01*
X66362056Y-106859189D01*
X66400866Y-106918639D01*
X66401372Y-106989634D01*
X66362056Y-107050811D01*
X66243792Y-107151818D01*
X66243787Y-107151823D01*
X66240031Y-107155031D01*
X66085824Y-107335584D01*
X66083245Y-107339792D01*
X66083241Y-107339798D01*
X65965867Y-107531335D01*
X65961760Y-107538037D01*
X65959867Y-107542607D01*
X65959865Y-107542611D01*
X65939615Y-107591500D01*
X65870895Y-107757406D01*
X65815465Y-107988289D01*
X65796835Y-108225000D01*
X65815465Y-108461711D01*
X65870895Y-108692594D01*
X65872788Y-108697165D01*
X65872789Y-108697167D01*
X65944807Y-108871034D01*
X65961760Y-108911963D01*
X65964346Y-108916183D01*
X66083241Y-109110202D01*
X66083245Y-109110208D01*
X66085824Y-109114416D01*
X66240031Y-109294969D01*
X66243787Y-109298177D01*
X66243792Y-109298182D01*
X66362056Y-109399189D01*
X66400866Y-109458639D01*
X66401372Y-109529634D01*
X66362056Y-109590811D01*
X66243792Y-109691818D01*
X66243787Y-109691823D01*
X66240031Y-109695031D01*
X66085824Y-109875584D01*
X66083245Y-109879792D01*
X66083241Y-109879798D01*
X66054759Y-109926277D01*
X65961760Y-110078037D01*
X65959867Y-110082607D01*
X65959865Y-110082611D01*
X65912385Y-110197240D01*
X65870895Y-110297406D01*
X65869740Y-110302218D01*
X65821970Y-110501195D01*
X65815465Y-110528289D01*
X65796835Y-110765000D01*
X65815465Y-111001711D01*
X65870895Y-111232594D01*
X65872788Y-111237165D01*
X65872789Y-111237167D01*
X65896525Y-111294470D01*
X65961760Y-111451963D01*
X65964346Y-111456183D01*
X66083241Y-111650202D01*
X66083245Y-111650208D01*
X66085824Y-111654416D01*
X66240031Y-111834969D01*
X66243787Y-111838177D01*
X66243792Y-111838182D01*
X66362056Y-111939189D01*
X66400866Y-111998639D01*
X66401372Y-112069634D01*
X66362056Y-112130811D01*
X66243792Y-112231818D01*
X66243787Y-112231823D01*
X66240031Y-112235031D01*
X66085824Y-112415584D01*
X66083245Y-112419792D01*
X66083241Y-112419798D01*
X65964346Y-112613817D01*
X65961760Y-112618037D01*
X65959867Y-112622607D01*
X65959865Y-112622611D01*
X65887574Y-112797139D01*
X65870895Y-112837406D01*
X65869740Y-112842218D01*
X65824612Y-113030191D01*
X65815465Y-113068289D01*
X65796835Y-113305000D01*
X65815465Y-113541711D01*
X65816619Y-113546518D01*
X65816620Y-113546524D01*
X65841040Y-113648238D01*
X65870895Y-113772594D01*
X65961760Y-113991963D01*
X65964346Y-113996183D01*
X66083241Y-114190202D01*
X66083245Y-114190208D01*
X66085824Y-114194416D01*
X66240031Y-114374969D01*
X66243787Y-114378177D01*
X66243792Y-114378182D01*
X66362056Y-114479189D01*
X66400866Y-114538639D01*
X66401372Y-114609634D01*
X66362056Y-114670811D01*
X66243792Y-114771818D01*
X66243787Y-114771823D01*
X66240031Y-114775031D01*
X66085824Y-114955584D01*
X66083245Y-114959792D01*
X66083241Y-114959798D01*
X65972942Y-115139789D01*
X65961760Y-115158037D01*
X65959867Y-115162607D01*
X65959865Y-115162611D01*
X65872789Y-115372833D01*
X65870895Y-115377406D01*
X65869740Y-115382218D01*
X65833790Y-115531961D01*
X65815465Y-115608289D01*
X65796835Y-115845000D01*
X65815465Y-116081711D01*
X65870895Y-116312594D01*
X65961760Y-116531963D01*
X65964346Y-116536183D01*
X66083241Y-116730202D01*
X66083245Y-116730208D01*
X66085824Y-116734416D01*
X66240031Y-116914969D01*
X66243787Y-116918177D01*
X66243792Y-116918182D01*
X66362056Y-117019189D01*
X66400866Y-117078639D01*
X66401372Y-117149634D01*
X66362056Y-117210811D01*
X66243792Y-117311818D01*
X66243787Y-117311823D01*
X66240031Y-117315031D01*
X66085824Y-117495584D01*
X66083245Y-117499792D01*
X66083241Y-117499798D01*
X65964346Y-117693817D01*
X65961760Y-117698037D01*
X65870895Y-117917406D01*
X65869740Y-117922218D01*
X65829968Y-118087881D01*
X65815465Y-118148289D01*
X65796835Y-118385000D01*
X65815465Y-118621711D01*
X65816619Y-118626518D01*
X65816620Y-118626524D01*
X65848064Y-118757495D01*
X65870895Y-118852594D01*
X65872788Y-118857165D01*
X65872789Y-118857167D01*
X65896549Y-118914528D01*
X65961760Y-119071963D01*
X65964346Y-119076183D01*
X66083241Y-119270202D01*
X66083245Y-119270208D01*
X66085824Y-119274416D01*
X66240031Y-119454969D01*
X66243787Y-119458177D01*
X66243792Y-119458182D01*
X66362056Y-119559189D01*
X66400866Y-119618639D01*
X66401372Y-119689634D01*
X66362056Y-119750811D01*
X66243792Y-119851818D01*
X66243787Y-119851823D01*
X66240031Y-119855031D01*
X66085824Y-120035584D01*
X66083245Y-120039792D01*
X66083241Y-120039798D01*
X65972942Y-120219789D01*
X65961760Y-120238037D01*
X65959867Y-120242607D01*
X65959865Y-120242611D01*
X65872789Y-120452833D01*
X65870895Y-120457406D01*
X65869740Y-120462218D01*
X65833790Y-120611961D01*
X65815465Y-120688289D01*
X65796835Y-120925000D01*
X43423165Y-120925000D01*
X43404535Y-120688289D01*
X43386211Y-120611961D01*
X43350260Y-120462218D01*
X43349105Y-120457406D01*
X43347211Y-120452833D01*
X43260135Y-120242611D01*
X43260133Y-120242607D01*
X43258240Y-120238037D01*
X43247058Y-120219789D01*
X43136759Y-120039798D01*
X43136755Y-120039792D01*
X43134176Y-120035584D01*
X42979969Y-119855031D01*
X42976213Y-119851823D01*
X42976208Y-119851818D01*
X42857944Y-119750811D01*
X42819134Y-119691361D01*
X42818628Y-119620366D01*
X42857944Y-119559189D01*
X42976208Y-119458182D01*
X42976213Y-119458177D01*
X42979969Y-119454969D01*
X43134176Y-119274416D01*
X43136755Y-119270208D01*
X43136759Y-119270202D01*
X43255654Y-119076183D01*
X43258240Y-119071963D01*
X43323452Y-118914528D01*
X43347211Y-118857167D01*
X43347212Y-118857165D01*
X43349105Y-118852594D01*
X43371936Y-118757495D01*
X43403380Y-118626524D01*
X43403381Y-118626518D01*
X43404535Y-118621711D01*
X43423165Y-118385000D01*
X43404535Y-118148289D01*
X43390033Y-118087881D01*
X43350260Y-117922218D01*
X43349105Y-117917406D01*
X43258240Y-117698037D01*
X43255654Y-117693817D01*
X43136759Y-117499798D01*
X43136755Y-117499792D01*
X43134176Y-117495584D01*
X42979969Y-117315031D01*
X42976213Y-117311823D01*
X42976208Y-117311818D01*
X42857944Y-117210811D01*
X42819134Y-117151361D01*
X42818628Y-117080366D01*
X42857944Y-117019189D01*
X42976208Y-116918182D01*
X42976213Y-116918177D01*
X42979969Y-116914969D01*
X43134176Y-116734416D01*
X43136755Y-116730208D01*
X43136759Y-116730202D01*
X43255654Y-116536183D01*
X43258240Y-116531963D01*
X43349105Y-116312594D01*
X43404535Y-116081711D01*
X43423165Y-115845000D01*
X43404535Y-115608289D01*
X43386211Y-115531961D01*
X43350260Y-115382218D01*
X43349105Y-115377406D01*
X43347211Y-115372833D01*
X43260135Y-115162611D01*
X43260133Y-115162607D01*
X43258240Y-115158037D01*
X43247058Y-115139789D01*
X43136759Y-114959798D01*
X43136755Y-114959792D01*
X43134176Y-114955584D01*
X42979969Y-114775031D01*
X42976213Y-114771823D01*
X42976208Y-114771818D01*
X42857944Y-114670811D01*
X42819134Y-114611361D01*
X42818628Y-114540366D01*
X42857944Y-114479189D01*
X42976208Y-114378182D01*
X42976213Y-114378177D01*
X42979969Y-114374969D01*
X43134176Y-114194416D01*
X43136755Y-114190208D01*
X43136759Y-114190202D01*
X43255654Y-113996183D01*
X43258240Y-113991963D01*
X43349105Y-113772594D01*
X43378960Y-113648238D01*
X43403380Y-113546524D01*
X43403381Y-113546518D01*
X43404535Y-113541711D01*
X43423165Y-113305000D01*
X43404535Y-113068289D01*
X43395389Y-113030191D01*
X43350260Y-112842218D01*
X43349105Y-112837406D01*
X43332426Y-112797139D01*
X43260135Y-112622611D01*
X43260133Y-112622607D01*
X43258240Y-112618037D01*
X43255654Y-112613817D01*
X43136759Y-112419798D01*
X43136755Y-112419792D01*
X43134176Y-112415584D01*
X42979969Y-112235031D01*
X42976213Y-112231823D01*
X42976208Y-112231818D01*
X42857944Y-112130811D01*
X42819134Y-112071361D01*
X42818628Y-112000366D01*
X42857944Y-111939189D01*
X42976208Y-111838182D01*
X42976213Y-111838177D01*
X42979969Y-111834969D01*
X43134176Y-111654416D01*
X43136755Y-111650208D01*
X43136759Y-111650202D01*
X43255654Y-111456183D01*
X43258240Y-111451963D01*
X43323476Y-111294470D01*
X43347211Y-111237167D01*
X43347212Y-111237165D01*
X43349105Y-111232594D01*
X43404535Y-111001711D01*
X43423165Y-110765000D01*
X43404535Y-110528289D01*
X43398031Y-110501195D01*
X43350260Y-110302218D01*
X43349105Y-110297406D01*
X43307615Y-110197240D01*
X43260135Y-110082611D01*
X43260133Y-110082607D01*
X43258240Y-110078037D01*
X43165241Y-109926277D01*
X43136759Y-109879798D01*
X43136755Y-109879792D01*
X43134176Y-109875584D01*
X42979969Y-109695031D01*
X42976213Y-109691823D01*
X42976208Y-109691818D01*
X42857944Y-109590811D01*
X42819134Y-109531361D01*
X42818628Y-109460366D01*
X42857944Y-109399189D01*
X42976208Y-109298182D01*
X42976213Y-109298177D01*
X42979969Y-109294969D01*
X43134176Y-109114416D01*
X43136755Y-109110208D01*
X43136759Y-109110202D01*
X43255654Y-108916183D01*
X43258240Y-108911963D01*
X43275194Y-108871034D01*
X43347211Y-108697167D01*
X43347212Y-108697165D01*
X43349105Y-108692594D01*
X43404535Y-108461711D01*
X43423165Y-108225000D01*
X43404535Y-107988289D01*
X43349105Y-107757406D01*
X43280385Y-107591500D01*
X43260135Y-107542611D01*
X43260133Y-107542607D01*
X43258240Y-107538037D01*
X43254133Y-107531335D01*
X43136759Y-107339798D01*
X43136755Y-107339792D01*
X43134176Y-107335584D01*
X42979969Y-107155031D01*
X42976213Y-107151823D01*
X42976208Y-107151818D01*
X42857944Y-107050811D01*
X42819134Y-106991361D01*
X42818628Y-106920366D01*
X42857944Y-106859189D01*
X42976208Y-106758182D01*
X42976213Y-106758177D01*
X42979969Y-106754969D01*
X43134176Y-106574416D01*
X43136755Y-106570208D01*
X43136759Y-106570202D01*
X43255654Y-106376183D01*
X43258240Y-106371963D01*
X43349105Y-106152594D01*
X43404535Y-105921711D01*
X43423165Y-105685000D01*
X43404535Y-105448289D01*
X43396574Y-105415126D01*
X43350260Y-105222218D01*
X43349105Y-105217406D01*
X43325030Y-105159283D01*
X43260135Y-105002611D01*
X43260133Y-105002607D01*
X43258240Y-104998037D01*
X43247058Y-104979789D01*
X43136759Y-104799798D01*
X43136755Y-104799792D01*
X43134176Y-104795584D01*
X42979969Y-104615031D01*
X42976213Y-104611823D01*
X42976208Y-104611818D01*
X42857944Y-104510811D01*
X42819134Y-104451361D01*
X42818628Y-104380366D01*
X42857944Y-104319189D01*
X42976208Y-104218182D01*
X42976213Y-104218177D01*
X42979969Y-104214969D01*
X43134176Y-104034416D01*
X43136755Y-104030208D01*
X43136759Y-104030202D01*
X43255654Y-103836183D01*
X43258240Y-103831963D01*
X43349105Y-103612594D01*
X43378960Y-103488238D01*
X43403380Y-103386524D01*
X43403381Y-103386518D01*
X43404535Y-103381711D01*
X43423165Y-103145000D01*
X43404535Y-102908289D01*
X43390033Y-102847881D01*
X43350260Y-102682218D01*
X43349105Y-102677406D01*
X43258240Y-102458037D01*
X43255654Y-102453817D01*
X43136759Y-102259798D01*
X43136755Y-102259792D01*
X43134176Y-102255584D01*
X42979969Y-102075031D01*
X42976213Y-102071823D01*
X42976208Y-102071818D01*
X42857944Y-101970811D01*
X42819134Y-101911361D01*
X42818628Y-101840366D01*
X42857944Y-101779189D01*
X42976208Y-101678182D01*
X42976213Y-101678177D01*
X42979969Y-101674969D01*
X43134176Y-101494416D01*
X43136755Y-101490208D01*
X43136759Y-101490202D01*
X43255654Y-101296183D01*
X43258240Y-101291963D01*
X43349105Y-101072594D01*
X43404535Y-100841711D01*
X43423165Y-100605000D01*
X43404535Y-100368289D01*
X43349105Y-100137406D01*
X43258240Y-99918037D01*
X43255654Y-99913817D01*
X43136759Y-99719798D01*
X43136755Y-99719792D01*
X43134176Y-99715584D01*
X42979969Y-99535031D01*
X42976213Y-99531823D01*
X42976208Y-99531818D01*
X42857944Y-99430811D01*
X42819134Y-99371361D01*
X42818628Y-99300366D01*
X42857944Y-99239189D01*
X42976208Y-99138182D01*
X42976213Y-99138177D01*
X42979969Y-99134969D01*
X43134176Y-98954416D01*
X43136755Y-98950208D01*
X43136759Y-98950202D01*
X43255654Y-98756183D01*
X43258240Y-98751963D01*
X43275194Y-98711034D01*
X43347211Y-98537167D01*
X43347212Y-98537165D01*
X43349105Y-98532594D01*
X43379745Y-98404968D01*
X43403380Y-98306524D01*
X43403381Y-98306518D01*
X43404535Y-98301711D01*
X43423165Y-98065000D01*
X43404535Y-97828289D01*
X43349105Y-97597406D01*
X43343032Y-97582745D01*
X43260135Y-97382611D01*
X43260133Y-97382607D01*
X43258240Y-97378037D01*
X43254133Y-97371335D01*
X43136759Y-97179798D01*
X43136755Y-97179792D01*
X43134176Y-97175584D01*
X42979969Y-96995031D01*
X42976213Y-96991823D01*
X42976208Y-96991818D01*
X42857944Y-96890811D01*
X42819134Y-96831361D01*
X42818628Y-96760366D01*
X42857944Y-96699189D01*
X42976208Y-96598182D01*
X42976213Y-96598177D01*
X42979969Y-96594969D01*
X43134176Y-96414416D01*
X43136755Y-96410208D01*
X43136759Y-96410202D01*
X43255654Y-96216183D01*
X43258240Y-96211963D01*
X43270849Y-96181524D01*
X43347211Y-95997167D01*
X43347212Y-95997165D01*
X43349105Y-95992594D01*
X43404535Y-95761711D01*
X43423165Y-95525000D01*
X43404535Y-95288289D01*
X43396778Y-95255975D01*
X43363648Y-95117982D01*
X43349105Y-95057406D01*
X43343032Y-95042745D01*
X43260135Y-94842611D01*
X43260133Y-94842607D01*
X43258240Y-94838037D01*
X43185315Y-94719035D01*
X43136759Y-94639798D01*
X43136755Y-94639792D01*
X43134176Y-94635584D01*
X42979969Y-94455031D01*
X42976213Y-94451823D01*
X42976208Y-94451818D01*
X42857944Y-94350811D01*
X42819134Y-94291361D01*
X42818628Y-94220366D01*
X42857944Y-94159189D01*
X42976208Y-94058182D01*
X42976213Y-94058177D01*
X42979969Y-94054969D01*
X43134176Y-93874416D01*
X43136755Y-93870208D01*
X43136759Y-93870202D01*
X43255654Y-93676183D01*
X43258240Y-93671963D01*
X43279437Y-93620790D01*
X43347211Y-93457167D01*
X43347212Y-93457165D01*
X43349105Y-93452594D01*
X43404535Y-93221711D01*
X43423165Y-92985000D01*
X43404535Y-92748289D01*
X43400958Y-92733387D01*
X43368360Y-92597609D01*
X43349105Y-92517406D01*
X43347211Y-92512833D01*
X43260135Y-92302611D01*
X43260133Y-92302607D01*
X43258240Y-92298037D01*
X43255654Y-92293817D01*
X43136759Y-92099798D01*
X43136755Y-92099792D01*
X43134176Y-92095584D01*
X42979969Y-91915031D01*
X42976213Y-91911823D01*
X42976208Y-91911818D01*
X42857944Y-91810811D01*
X42819134Y-91751361D01*
X42818628Y-91680366D01*
X42857944Y-91619189D01*
X42976208Y-91518182D01*
X42976213Y-91518177D01*
X42979969Y-91514969D01*
X43134176Y-91334416D01*
X43136755Y-91330208D01*
X43136759Y-91330202D01*
X43255654Y-91136183D01*
X43258240Y-91131963D01*
X43281590Y-91075592D01*
X43347211Y-90917167D01*
X43347212Y-90917165D01*
X43349105Y-90912594D01*
X43386259Y-90757837D01*
X43403380Y-90686524D01*
X43403381Y-90686518D01*
X43404535Y-90681711D01*
X43423165Y-90445000D01*
X43404535Y-90208289D01*
X43402469Y-90199680D01*
X43350260Y-89982218D01*
X43349105Y-89977406D01*
X43258240Y-89758037D01*
X43255654Y-89753817D01*
X43136759Y-89559798D01*
X43136755Y-89559792D01*
X43134176Y-89555584D01*
X42979969Y-89375031D01*
X42799416Y-89220824D01*
X42795208Y-89218245D01*
X42795202Y-89218241D01*
X42601183Y-89099346D01*
X42596963Y-89096760D01*
X42592393Y-89094867D01*
X42592389Y-89094865D01*
X42382167Y-89007789D01*
X42382165Y-89007788D01*
X42377594Y-89005895D01*
X42297391Y-88986640D01*
X42151524Y-88951620D01*
X42151518Y-88951619D01*
X42146711Y-88950465D01*
X41910000Y-88931835D01*
X41673289Y-88950465D01*
X41668482Y-88951619D01*
X41668476Y-88951620D01*
X41522609Y-88986640D01*
X41442406Y-89005895D01*
X41437835Y-89007788D01*
X41437833Y-89007789D01*
X41227611Y-89094865D01*
X41227607Y-89094867D01*
X41223037Y-89096760D01*
X41218817Y-89099346D01*
X41024798Y-89218241D01*
X41024792Y-89218245D01*
X41020584Y-89220824D01*
X40840031Y-89375031D01*
X40685824Y-89555584D01*
X40683245Y-89559792D01*
X40683241Y-89559798D01*
X40564346Y-89753817D01*
X40561760Y-89758037D01*
X40470895Y-89977406D01*
X40469740Y-89982218D01*
X40417532Y-90199680D01*
X40415465Y-90208289D01*
X40396835Y-90445000D01*
X40415465Y-90681711D01*
X40416619Y-90686518D01*
X40416620Y-90686524D01*
X40433741Y-90757837D01*
X40470895Y-90912594D01*
X40472788Y-90917165D01*
X40472789Y-90917167D01*
X40538411Y-91075592D01*
X40561760Y-91131963D01*
X40564346Y-91136183D01*
X40683241Y-91330202D01*
X40683245Y-91330208D01*
X40685824Y-91334416D01*
X40840031Y-91514969D01*
X40843787Y-91518177D01*
X40843792Y-91518182D01*
X40962056Y-91619189D01*
X41000866Y-91678639D01*
X41001372Y-91749634D01*
X40962056Y-91810811D01*
X40843792Y-91911818D01*
X40843787Y-91911823D01*
X40840031Y-91915031D01*
X40685824Y-92095584D01*
X40683245Y-92099792D01*
X40683241Y-92099798D01*
X40564346Y-92293817D01*
X40561760Y-92298037D01*
X40559867Y-92302607D01*
X40559865Y-92302611D01*
X40472789Y-92512833D01*
X40470895Y-92517406D01*
X40451640Y-92597609D01*
X40419043Y-92733387D01*
X40415465Y-92748289D01*
X40396835Y-92985000D01*
X40415465Y-93221711D01*
X40470895Y-93452594D01*
X40472788Y-93457165D01*
X40472789Y-93457167D01*
X40540564Y-93620790D01*
X40561760Y-93671963D01*
X40564346Y-93676183D01*
X40683241Y-93870202D01*
X40683245Y-93870208D01*
X40685824Y-93874416D01*
X40840031Y-94054969D01*
X40843787Y-94058177D01*
X40843792Y-94058182D01*
X40962056Y-94159189D01*
X41000866Y-94218639D01*
X41001372Y-94289634D01*
X40962056Y-94350811D01*
X40843792Y-94451818D01*
X40843787Y-94451823D01*
X40840031Y-94455031D01*
X40685824Y-94635584D01*
X40683245Y-94639792D01*
X40683241Y-94639798D01*
X40634685Y-94719035D01*
X40561760Y-94838037D01*
X40559867Y-94842607D01*
X40559865Y-94842611D01*
X40476968Y-95042745D01*
X40470895Y-95057406D01*
X40456352Y-95117982D01*
X40423223Y-95255975D01*
X40415465Y-95288289D01*
X40396835Y-95525000D01*
X40415465Y-95761711D01*
X40470895Y-95992594D01*
X40472788Y-95997165D01*
X40472789Y-95997167D01*
X40549152Y-96181524D01*
X40561760Y-96211963D01*
X40564346Y-96216183D01*
X40683241Y-96410202D01*
X40683245Y-96410208D01*
X40685824Y-96414416D01*
X40840031Y-96594969D01*
X40843787Y-96598177D01*
X40843792Y-96598182D01*
X40962056Y-96699189D01*
X41000866Y-96758639D01*
X41001372Y-96829634D01*
X40962056Y-96890811D01*
X40843792Y-96991818D01*
X40843787Y-96991823D01*
X40840031Y-96995031D01*
X40685824Y-97175584D01*
X40683245Y-97179792D01*
X40683241Y-97179798D01*
X40565867Y-97371335D01*
X40561760Y-97378037D01*
X40559867Y-97382607D01*
X40559865Y-97382611D01*
X40476968Y-97582745D01*
X40470895Y-97597406D01*
X40415465Y-97828289D01*
X40396835Y-98065000D01*
X40415465Y-98301711D01*
X40416619Y-98306518D01*
X40416620Y-98306524D01*
X40440255Y-98404968D01*
X40470895Y-98532594D01*
X40472788Y-98537165D01*
X40472789Y-98537167D01*
X40544807Y-98711034D01*
X40561760Y-98751963D01*
X40564346Y-98756183D01*
X40683241Y-98950202D01*
X40683245Y-98950208D01*
X40685824Y-98954416D01*
X40840031Y-99134969D01*
X40843787Y-99138177D01*
X40843792Y-99138182D01*
X40962056Y-99239189D01*
X41000866Y-99298639D01*
X41001372Y-99369634D01*
X40962056Y-99430811D01*
X40843792Y-99531818D01*
X40843787Y-99531823D01*
X40840031Y-99535031D01*
X40685824Y-99715584D01*
X40683245Y-99719792D01*
X40683241Y-99719798D01*
X40564346Y-99913817D01*
X40561760Y-99918037D01*
X40470895Y-100137406D01*
X40415465Y-100368289D01*
X40396835Y-100605000D01*
X40415465Y-100841711D01*
X40470895Y-101072594D01*
X40561760Y-101291963D01*
X40564346Y-101296183D01*
X40683241Y-101490202D01*
X40683245Y-101490208D01*
X40685824Y-101494416D01*
X40840031Y-101674969D01*
X40843787Y-101678177D01*
X40843792Y-101678182D01*
X40962056Y-101779189D01*
X41000866Y-101838639D01*
X41001372Y-101909634D01*
X40962056Y-101970811D01*
X40843792Y-102071818D01*
X40843787Y-102071823D01*
X40840031Y-102075031D01*
X40685824Y-102255584D01*
X40683245Y-102259792D01*
X40683241Y-102259798D01*
X40564346Y-102453817D01*
X40561760Y-102458037D01*
X40470895Y-102677406D01*
X40469740Y-102682218D01*
X40429968Y-102847881D01*
X40415465Y-102908289D01*
X40396835Y-103145000D01*
X40415465Y-103381711D01*
X40416619Y-103386518D01*
X40416620Y-103386524D01*
X40441040Y-103488238D01*
X40470895Y-103612594D01*
X40561760Y-103831963D01*
X40564346Y-103836183D01*
X40683241Y-104030202D01*
X40683245Y-104030208D01*
X40685824Y-104034416D01*
X40840031Y-104214969D01*
X40843787Y-104218177D01*
X40843792Y-104218182D01*
X40962056Y-104319189D01*
X41000866Y-104378639D01*
X41001372Y-104449634D01*
X40962056Y-104510811D01*
X40843792Y-104611818D01*
X40843787Y-104611823D01*
X40840031Y-104615031D01*
X40685824Y-104795584D01*
X40683245Y-104799792D01*
X40683241Y-104799798D01*
X40572942Y-104979789D01*
X40561760Y-104998037D01*
X40559867Y-105002607D01*
X40559865Y-105002611D01*
X40494970Y-105159283D01*
X40470895Y-105217406D01*
X40469740Y-105222218D01*
X40423427Y-105415126D01*
X40415465Y-105448289D01*
X40396835Y-105685000D01*
X40415465Y-105921711D01*
X40470895Y-106152594D01*
X40561760Y-106371963D01*
X40564346Y-106376183D01*
X40683241Y-106570202D01*
X40683245Y-106570208D01*
X40685824Y-106574416D01*
X40840031Y-106754969D01*
X40843787Y-106758177D01*
X40843792Y-106758182D01*
X40962056Y-106859189D01*
X41000866Y-106918639D01*
X41001372Y-106989634D01*
X40962056Y-107050811D01*
X40843792Y-107151818D01*
X40843787Y-107151823D01*
X40840031Y-107155031D01*
X40685824Y-107335584D01*
X40683245Y-107339792D01*
X40683241Y-107339798D01*
X40565867Y-107531335D01*
X40561760Y-107538037D01*
X40559867Y-107542607D01*
X40559865Y-107542611D01*
X40539615Y-107591500D01*
X40470895Y-107757406D01*
X40415465Y-107988289D01*
X40396835Y-108225000D01*
X40415465Y-108461711D01*
X40470895Y-108692594D01*
X40472788Y-108697165D01*
X40472789Y-108697167D01*
X40544807Y-108871034D01*
X40561760Y-108911963D01*
X40564346Y-108916183D01*
X40683241Y-109110202D01*
X40683245Y-109110208D01*
X40685824Y-109114416D01*
X40840031Y-109294969D01*
X40843787Y-109298177D01*
X40843792Y-109298182D01*
X40962056Y-109399189D01*
X41000866Y-109458639D01*
X41001372Y-109529634D01*
X40962056Y-109590811D01*
X40843792Y-109691818D01*
X40843787Y-109691823D01*
X40840031Y-109695031D01*
X40685824Y-109875584D01*
X40683245Y-109879792D01*
X40683241Y-109879798D01*
X40654759Y-109926277D01*
X40561760Y-110078037D01*
X40559867Y-110082607D01*
X40559865Y-110082611D01*
X40512385Y-110197240D01*
X40470895Y-110297406D01*
X40469740Y-110302218D01*
X40421970Y-110501195D01*
X40415465Y-110528289D01*
X40396835Y-110765000D01*
X40415465Y-111001711D01*
X40470895Y-111232594D01*
X40472788Y-111237165D01*
X40472789Y-111237167D01*
X40496525Y-111294470D01*
X40561760Y-111451963D01*
X40564346Y-111456183D01*
X40683241Y-111650202D01*
X40683245Y-111650208D01*
X40685824Y-111654416D01*
X40840031Y-111834969D01*
X40843787Y-111838177D01*
X40843792Y-111838182D01*
X40962056Y-111939189D01*
X41000866Y-111998639D01*
X41001372Y-112069634D01*
X40962056Y-112130811D01*
X40843792Y-112231818D01*
X40843787Y-112231823D01*
X40840031Y-112235031D01*
X40685824Y-112415584D01*
X40683245Y-112419792D01*
X40683241Y-112419798D01*
X40564346Y-112613817D01*
X40561760Y-112618037D01*
X40559867Y-112622607D01*
X40559865Y-112622611D01*
X40487574Y-112797139D01*
X40470895Y-112837406D01*
X40469740Y-112842218D01*
X40424612Y-113030191D01*
X40415465Y-113068289D01*
X40396835Y-113305000D01*
X40415465Y-113541711D01*
X40416619Y-113546518D01*
X40416620Y-113546524D01*
X40441040Y-113648238D01*
X40470895Y-113772594D01*
X40561760Y-113991963D01*
X40564346Y-113996183D01*
X40683241Y-114190202D01*
X40683245Y-114190208D01*
X40685824Y-114194416D01*
X40840031Y-114374969D01*
X40843787Y-114378177D01*
X40843792Y-114378182D01*
X40962056Y-114479189D01*
X41000866Y-114538639D01*
X41001372Y-114609634D01*
X40962056Y-114670811D01*
X40843792Y-114771818D01*
X40843787Y-114771823D01*
X40840031Y-114775031D01*
X40685824Y-114955584D01*
X40683245Y-114959792D01*
X40683241Y-114959798D01*
X40572942Y-115139789D01*
X40561760Y-115158037D01*
X40559867Y-115162607D01*
X40559865Y-115162611D01*
X40472789Y-115372833D01*
X40470895Y-115377406D01*
X40469740Y-115382218D01*
X40433790Y-115531961D01*
X40415465Y-115608289D01*
X40396835Y-115845000D01*
X40415465Y-116081711D01*
X40470895Y-116312594D01*
X40561760Y-116531963D01*
X40564346Y-116536183D01*
X40683241Y-116730202D01*
X40683245Y-116730208D01*
X40685824Y-116734416D01*
X40840031Y-116914969D01*
X40843787Y-116918177D01*
X40843792Y-116918182D01*
X40962056Y-117019189D01*
X41000866Y-117078639D01*
X41001372Y-117149634D01*
X40962056Y-117210811D01*
X40843792Y-117311818D01*
X40843787Y-117311823D01*
X40840031Y-117315031D01*
X40685824Y-117495584D01*
X40683245Y-117499792D01*
X40683241Y-117499798D01*
X40564346Y-117693817D01*
X40561760Y-117698037D01*
X40470895Y-117917406D01*
X40469740Y-117922218D01*
X40429968Y-118087881D01*
X40415465Y-118148289D01*
X40396835Y-118385000D01*
X40415465Y-118621711D01*
X40416619Y-118626518D01*
X40416620Y-118626524D01*
X40448064Y-118757495D01*
X40470895Y-118852594D01*
X40472788Y-118857165D01*
X40472789Y-118857167D01*
X40496549Y-118914528D01*
X40561760Y-119071963D01*
X40564346Y-119076183D01*
X40683241Y-119270202D01*
X40683245Y-119270208D01*
X40685824Y-119274416D01*
X40840031Y-119454969D01*
X40843787Y-119458177D01*
X40843792Y-119458182D01*
X40962056Y-119559189D01*
X41000866Y-119618639D01*
X41001372Y-119689634D01*
X40962056Y-119750811D01*
X40843792Y-119851818D01*
X40843787Y-119851823D01*
X40840031Y-119855031D01*
X40685824Y-120035584D01*
X40683245Y-120039792D01*
X40683241Y-120039798D01*
X40572942Y-120219789D01*
X40561760Y-120238037D01*
X40559867Y-120242607D01*
X40559865Y-120242611D01*
X40472789Y-120452833D01*
X40470895Y-120457406D01*
X40469740Y-120462218D01*
X40433790Y-120611961D01*
X40415465Y-120688289D01*
X40396835Y-120925000D01*
X38100000Y-120925000D01*
X38100000Y-89142081D01*
X38120002Y-89073960D01*
X38173658Y-89027467D01*
X38218308Y-89016316D01*
X38286176Y-89012165D01*
X38424605Y-89003698D01*
X38428388Y-89002997D01*
X38428395Y-89002996D01*
X38628459Y-88965916D01*
X38744372Y-88944433D01*
X38953682Y-88878438D01*
X39050860Y-88847798D01*
X39050863Y-88847797D01*
X39054532Y-88846640D01*
X39058029Y-88845046D01*
X39058035Y-88845044D01*
X39346954Y-88713376D01*
X39346958Y-88713374D01*
X39350462Y-88711777D01*
X39627751Y-88541854D01*
X39630755Y-88539464D01*
X39630760Y-88539461D01*
X39755008Y-88440629D01*
X39882264Y-88339405D01*
X39884958Y-88336664D01*
X39884962Y-88336660D01*
X40107513Y-88110190D01*
X40107517Y-88110185D01*
X40110208Y-88107447D01*
X40308185Y-87849439D01*
X40473242Y-87569227D01*
X40602920Y-87270988D01*
X40695285Y-86959169D01*
X40748961Y-86638417D01*
X40755855Y-86480503D01*
X40778809Y-86413321D01*
X40834441Y-86369213D01*
X40881735Y-86360000D01*
X112786722Y-86360000D01*
X112854843Y-86380002D01*
G37*
G04 #@! TD.AperFunction*
G04 #@! TA.AperFunction,Conductor*
G36*
X79276527Y-96178502D02*
G01*
X79297501Y-96195405D01*
X82300343Y-99198247D01*
X82307887Y-99206537D01*
X82312000Y-99213018D01*
X82317777Y-99218443D01*
X82361667Y-99259658D01*
X82364509Y-99262413D01*
X82384231Y-99282135D01*
X82387373Y-99284572D01*
X82387433Y-99284619D01*
X82396445Y-99292317D01*
X82405017Y-99300366D01*
X82428679Y-99322586D01*
X82435622Y-99326403D01*
X82446431Y-99332345D01*
X82462953Y-99343198D01*
X82478959Y-99355614D01*
X82486237Y-99358764D01*
X82486238Y-99358764D01*
X82519537Y-99373174D01*
X82530187Y-99378391D01*
X82568940Y-99399695D01*
X82576615Y-99401666D01*
X82576616Y-99401666D01*
X82588562Y-99404733D01*
X82607267Y-99411137D01*
X82625855Y-99419181D01*
X82633678Y-99420420D01*
X82633688Y-99420423D01*
X82669524Y-99426099D01*
X82681144Y-99428505D01*
X82716289Y-99437528D01*
X82723970Y-99439500D01*
X82744224Y-99439500D01*
X82763934Y-99441051D01*
X82783943Y-99444220D01*
X82791835Y-99443474D01*
X82827961Y-99440059D01*
X82839819Y-99439500D01*
X104671406Y-99439500D01*
X104739527Y-99459502D01*
X104760501Y-99476405D01*
X110560638Y-105276542D01*
X110594664Y-105338854D01*
X110589599Y-105409669D01*
X110557625Y-105452364D01*
X110560269Y-105455008D01*
X110553919Y-105461358D01*
X110546739Y-105466739D01*
X110459385Y-105583295D01*
X110408255Y-105719684D01*
X110401500Y-105781866D01*
X110401500Y-106661406D01*
X110381498Y-106729527D01*
X110327842Y-106776020D01*
X110257568Y-106786124D01*
X110192988Y-106756630D01*
X110186405Y-106750501D01*
X107272088Y-103836183D01*
X104262652Y-100826747D01*
X104255112Y-100818461D01*
X104251000Y-100811982D01*
X104201348Y-100765356D01*
X104198507Y-100762602D01*
X104178770Y-100742865D01*
X104175573Y-100740385D01*
X104166551Y-100732680D01*
X104140100Y-100707841D01*
X104134321Y-100702414D01*
X104127375Y-100698595D01*
X104127372Y-100698593D01*
X104116566Y-100692652D01*
X104100047Y-100681801D01*
X104099583Y-100681441D01*
X104084041Y-100669386D01*
X104076772Y-100666241D01*
X104076768Y-100666238D01*
X104043463Y-100651826D01*
X104032813Y-100646609D01*
X103994060Y-100625305D01*
X103974437Y-100620267D01*
X103955734Y-100613863D01*
X103944420Y-100608967D01*
X103944419Y-100608967D01*
X103937145Y-100605819D01*
X103929322Y-100604580D01*
X103929312Y-100604577D01*
X103893476Y-100598901D01*
X103881856Y-100596495D01*
X103846711Y-100587472D01*
X103846710Y-100587472D01*
X103839030Y-100585500D01*
X103818776Y-100585500D01*
X103799065Y-100583949D01*
X103786886Y-100582020D01*
X103779057Y-100580780D01*
X103771165Y-100581526D01*
X103735039Y-100584941D01*
X103723181Y-100585500D01*
X82102594Y-100585500D01*
X82034473Y-100565498D01*
X82013499Y-100548595D01*
X79137652Y-97672747D01*
X79130112Y-97664461D01*
X79126000Y-97657982D01*
X79076348Y-97611356D01*
X79073507Y-97608602D01*
X79053770Y-97588865D01*
X79050573Y-97586385D01*
X79041551Y-97578680D01*
X79015100Y-97553841D01*
X79009321Y-97548414D01*
X79002375Y-97544595D01*
X79002372Y-97544593D01*
X78991566Y-97538652D01*
X78975047Y-97527801D01*
X78974583Y-97527441D01*
X78959041Y-97515386D01*
X78951772Y-97512241D01*
X78951768Y-97512238D01*
X78918463Y-97497826D01*
X78907813Y-97492609D01*
X78869060Y-97471305D01*
X78849437Y-97466267D01*
X78830734Y-97459863D01*
X78819420Y-97454967D01*
X78819419Y-97454967D01*
X78812145Y-97451819D01*
X78804322Y-97450580D01*
X78804312Y-97450577D01*
X78768476Y-97444901D01*
X78756856Y-97442495D01*
X78721711Y-97433472D01*
X78721710Y-97433472D01*
X78714030Y-97431500D01*
X78693776Y-97431500D01*
X78674065Y-97429949D01*
X78661886Y-97428020D01*
X78654057Y-97426780D01*
X78646165Y-97427526D01*
X78610039Y-97430941D01*
X78598181Y-97431500D01*
X68761566Y-97431500D01*
X68693445Y-97411498D01*
X68654133Y-97371335D01*
X68536759Y-97179798D01*
X68536755Y-97179792D01*
X68534176Y-97175584D01*
X68379969Y-96995031D01*
X68376213Y-96991823D01*
X68376208Y-96991818D01*
X68257944Y-96890811D01*
X68219134Y-96831361D01*
X68218628Y-96760366D01*
X68257944Y-96699189D01*
X68376208Y-96598182D01*
X68376213Y-96598177D01*
X68379969Y-96594969D01*
X68534176Y-96414416D01*
X68536755Y-96410208D01*
X68536759Y-96410202D01*
X68654133Y-96218665D01*
X68706781Y-96171034D01*
X68761566Y-96158500D01*
X79208406Y-96158500D01*
X79276527Y-96178502D01*
G37*
G04 #@! TD.AperFunction*
M02*
